<svg width="256" height="256" viewBox="0 0 256 256" fill="none" xmlns="http://www.w3.org/2000/svg">
<rect width="256" height="256" fill="#FFEEDA"/>
<g clip-path="url(#clip0_7820_27067)">
<path d="M245 128C245 192.574 192.574 245 128 245C63.4262 245 11 192.574 11 128C11 63.4262 63.4262 11 128 11C192.574 11 245 63.4262 245 128Z" fill="#FFEEDA"/>
<path d="M186.543 152.878V71.9689C186.435 65.199 181.155 59.75 174.528 59.75H91.8733C74.0385 60.0252 59.7061 74.9411 59.7061 93.2144C59.7061 99.379 61.3225 104.663 63.8011 109.286C65.9024 113.139 69.1892 116.772 72.4221 119.469C73.3381 120.239 72.9071 119.909 75.7089 121.67C79.5884 124.092 84.0066 125.303 84.0066 125.303L83.9528 173.683C84.0605 175.995 84.2761 178.196 84.8687 180.233C86.7007 187.058 91.3345 192.287 97.6387 194.818C100.279 195.864 103.242 196.58 106.421 196.635L172.426 196.855C185.573 196.855 196.242 185.957 196.242 172.472C196.296 164.491 192.417 157.336 186.543 152.878Z" fill="#FFEEDA"/>
<path d="M188.161 173.081C187.892 181.722 180.941 188.657 172.428 188.657L127.006 188.492C130.616 184.199 132.825 178.64 132.825 172.585C132.825 163.064 127.275 156.514 127.275 156.514H172.482C181.157 156.514 188.215 163.724 188.215 172.585L188.161 173.081Z" fill="#EBC28E"/>
<path d="M76.7326 112.655C71.5061 107.591 67.8422 101.041 67.8422 93.2808V92.4552C68.2732 79.1905 78.9418 68.5127 91.9273 68.1275H174.582C176.737 68.2375 178.461 69.7787 178.461 72.0353V143.477C180.347 143.808 181.263 144.083 183.095 144.744C184.55 145.294 186.543 146.45 186.543 146.45V72.0353C186.435 65.2654 181.155 59.8164 174.528 59.8164H91.8733C74.0385 60.0916 59.7061 75.0075 59.7061 93.2808C59.7061 103.904 64.4476 112.985 72.2066 119.37C72.7454 119.81 73.2303 120.361 74.6313 120.361C77.0559 120.361 78.7801 118.379 78.6724 116.233C78.6185 114.416 77.8642 113.756 76.7326 112.655Z" fill="#101010"/>
<path d="M172.425 148.138H107.606C103.241 148.192 99.7388 151.771 99.7388 156.228V165.75C99.8466 170.154 103.511 173.896 107.875 173.896H112.67V165.75H107.875V156.449C107.875 156.449 109.06 156.449 110.515 156.449C118.705 156.449 124.74 164.209 124.74 172.52C124.74 179.896 118.166 189.307 107.174 188.537C97.4219 187.877 92.1415 179.015 92.1415 172.52V91.8314C92.1415 88.1987 89.232 85.2266 85.6758 85.2266H79.21V93.4826H84.0054V172.575C83.736 188.647 95.2128 196.738 107.174 196.738L172.479 196.958C185.626 196.958 196.295 186.06 196.295 172.575C196.295 159.091 185.572 148.138 172.425 148.138ZM188.158 173.071C187.889 181.712 180.938 188.647 172.425 188.647L127.003 188.482C130.613 184.189 132.822 178.63 132.822 172.575C132.822 163.054 127.272 156.504 127.272 156.504H172.479C181.154 156.504 188.213 163.714 188.213 172.575L188.158 173.071Z" fill="#101010"/>
<path d="M154.966 94.9748H106.096V86.7188H154.966C157.175 86.7188 159.008 88.535 159.008 90.8468C159.008 93.1034 157.23 94.9748 154.966 94.9748Z" fill="#101010"/>
<path d="M154.966 133.84H106.096V125.584H154.966C157.175 125.584 159.008 127.401 159.008 129.713C159.008 131.969 157.23 133.84 154.966 133.84Z" fill="#101010"/>
<path d="M163.588 114.408H106.096V106.152H163.533C165.743 106.152 167.575 107.969 167.575 110.28C167.628 112.537 165.797 114.408 163.588 114.408Z" fill="#101010"/>
</g>
<defs>
<clipPath id="clip0_7820_27067">
<rect width="234" height="234" fill="white" transform="translate(11 11)"/>
</clipPath>
</defs>
</svg>
