<svg width="20" height="20" viewBox="0 0 20 20" fill="none" xmlns="http://www.w3.org/2000/svg">
<g clip-path="url(#clip0_6895_17100)">
<path d="M20 10C20 15.5191 15.5191 20 10 20C4.48087 20 0 15.5191 0 10C0 4.48087 4.48087 0 10 0C15.5191 0 20 4.48087 20 10Z" fill="black"/>
<path d="M6.77605 5.90186C6.77605 6.61224 6.77605 7.21333 6.77605 7.86907C6.77605 8.08765 6.8307 8.14229 7.04928 8.14229C8.30611 8.14229 9.56294 8.14229 10.8198 8.14229C10.8198 8.25158 10.7651 8.25158 10.7105 8.30623C9.45365 9.23519 8.25146 10.1095 6.99463 11.0385C6.8307 11.1478 6.72141 11.3117 6.72141 11.5303C6.72141 12.2953 6.72141 13.115 6.72141 13.88V14.1532C6.61212 14.1532 6.55747 14.0986 6.50283 14.0439C5.246 12.7871 3.93452 11.5303 2.67769 10.2188C2.5684 10.1095 2.51376 10.0549 2.62305 9.94557C3.93452 8.6341 5.246 7.32262 6.55747 6.01114C6.66676 5.9565 6.72141 5.9565 6.77605 5.90186Z" fill="white"/>
<path d="M13.2243 14.1532C13.2243 13.4974 13.2243 12.8963 13.2243 12.2406C13.2243 11.8581 13.2789 11.9127 12.8964 11.9127C11.6942 11.9127 10.5467 11.9127 9.34451 11.9127C9.28987 11.9127 9.18058 11.9127 9.07129 11.8581C9.50845 11.5302 9.89096 11.257 10.3281 10.9291C11.2024 10.2734 12.1314 9.61766 13.0057 8.96192C13.1696 8.85263 13.2243 8.74334 13.1697 8.57941C13.1697 7.75974 13.1697 6.88542 13.1697 6.06575V5.84717C13.2789 5.84717 13.2789 5.90181 13.3336 5.95646C14.6451 7.26793 15.9019 8.52476 17.2134 9.83624C17.3227 9.94553 17.3773 10.0002 17.2134 10.1095C15.9019 11.4209 14.5904 12.7324 13.2243 14.0439C13.3336 14.0985 13.2789 14.0985 13.2243 14.1532Z" fill="white"/>
</g>
<defs>
<clipPath id="clip0_6895_17100">
<rect width="20" height="20" fill="white"/>
</clipPath>
</defs>
</svg>
