<svg width="20" height="20" viewBox="0 0 20 20" fill="none" xmlns="http://www.w3.org/2000/svg">
<g clip-path="url(#clip0_6576_20271)">
<path d="M20 10C20 15.5191 15.5191 20 10 20C4.48087 20 0 15.5191 0 10C0 4.48087 4.48087 0 10 0C15.5191 0 20 4.48087 20 10Z" fill="#8C8DFB"/>
<path d="M6.77605 5.90234C6.77605 6.61273 6.77605 7.21382 6.77605 7.86956C6.77605 8.08814 6.8307 8.14278 7.04928 8.14278C8.30611 8.14278 9.56294 8.14278 10.8198 8.14278C10.8198 8.25207 10.7651 8.25207 10.7105 8.30672C9.45365 9.23568 8.25146 10.11 6.99463 11.039C6.8307 11.1482 6.72141 11.3122 6.72141 11.5308C6.72141 12.2958 6.72141 13.1155 6.72141 13.8805V14.1537C6.61212 14.1537 6.55747 14.0991 6.50283 14.0444C5.246 12.7876 3.93452 11.5308 2.67769 10.2193C2.5684 10.11 2.51376 10.0553 2.62305 9.94606C3.93452 8.63458 5.246 7.32311 6.55747 6.01163C6.66676 5.95699 6.72141 5.95699 6.77605 5.90234Z" fill="white"/>
<path d="M13.2243 14.1537C13.2243 13.4979 13.2243 12.8968 13.2243 12.2411C13.2243 11.8586 13.2789 11.9132 12.8964 11.9132C11.6942 11.9132 10.5467 11.9132 9.34451 11.9132C9.28987 11.9132 9.18058 11.9132 9.07129 11.8586C9.50845 11.5307 9.89096 11.2575 10.3281 10.9296C11.2024 10.2739 12.1314 9.61815 13.0057 8.96241C13.1696 8.85312 13.2243 8.74383 13.1697 8.5799C13.1697 7.76022 13.1697 6.88591 13.1697 6.06624V5.84766C13.2789 5.84766 13.2789 5.9023 13.3336 5.95695C14.6451 7.26842 15.9019 8.52525 17.2134 9.83673C17.3227 9.94602 17.3773 10.0007 17.2134 10.11C15.9019 11.4214 14.5904 12.7329 13.2243 14.0444C13.3336 14.099 13.2789 14.099 13.2243 14.1537Z" fill="white"/>
</g>
<defs>
<clipPath id="clip0_6576_20271">
<rect width="20" height="20" fill="white"/>
</clipPath>
</defs>
</svg>
