<svg width="24" height="24" viewBox="0 0 24 24" fill="none" xmlns="http://www.w3.org/2000/svg">
<rect width="24" height="24" rx="12" fill="url(#paint0_linear_5981_13919)"/>
<path fill-rule="evenodd" clip-rule="evenodd" d="M8.53345 8.50904L6.74507 7.21313C6.47397 7.66327 6.24339 8.1366 6.05605 8.62755L8.15163 9.30568C8.26085 9.03185 8.38841 8.7657 8.53345 8.50904ZM10.2527 6.52403L8.63877 5.00098C8.14283 5.41738 7.69365 5.88649 7.29914 6.40003L9.08203 7.69155C9.42226 7.25527 9.81551 6.86307 10.2527 6.52403ZM7.8532 10.2483L5.75872 9.57013C5.6284 10.0773 5.54322 10.5951 5.50418 11.1173H7.71057C7.73894 10.8248 7.78659 10.5345 7.8532 10.2483ZM8.05947 13.9966L5.96718 14.6748C6.14457 15.1823 6.36862 15.6724 6.63645 16.1386L8.43031 14.8394C8.28715 14.5656 8.16323 14.2822 8.05947 13.9911V13.9966ZM8.95037 15.6777L7.17187 16.9648C7.58483 17.5316 8.06362 18.0472 8.59818 18.501L10.2088 16.9802C9.73205 16.6032 9.3087 16.1632 8.95037 15.6722V15.6777ZM7.69521 12.2651H5.50089C5.52596 12.7577 5.59239 13.2474 5.69947 13.7289L7.80493 13.0475C7.75365 12.7871 7.71702 12.5241 7.69521 12.2596V12.2651Z" fill="#314F00"/>
<path fill-rule="evenodd" clip-rule="evenodd" d="M14.3012 7.50488C13.2843 7.50529 12.301 7.86908 11.5287 8.53063C10.7564 9.19218 10.2459 10.108 10.0892 11.1128H12.2495C12.407 10.6158 12.7394 10.1928 13.1849 9.92213C13.6305 9.65147 14.159 9.55153 14.6726 9.64084C15.1862 9.73014 15.6501 10.0026 15.9781 10.4078C16.3062 10.813 16.4763 11.3234 16.4569 11.8444C16.4374 12.3654 16.2298 12.8617 15.8725 13.2413C15.5152 13.6209 15.0323 13.8581 14.5135 13.9089C13.9947 13.9597 13.475 13.8207 13.0509 13.5176C12.6267 13.2145 12.3268 12.7679 12.2067 12.2606H10.0738C10.1694 13.0764 10.4989 13.8473 11.0225 14.4802C11.5461 15.113 12.2415 15.581 13.025 15.8277C13.8084 16.0744 14.6465 16.0893 15.4382 15.8705C16.2299 15.6518 16.9414 15.2088 17.4872 14.5948C18.0329 13.9809 18.3895 13.2223 18.514 12.4103C18.6385 11.5983 18.5256 10.7677 18.1889 10.0184C17.8522 9.26916 17.3061 8.63324 16.6163 8.18728C15.9265 7.74132 15.1225 7.50433 14.3012 7.50488Z" fill="#314F00"/>
<defs>
<linearGradient id="paint0_linear_5981_13919" x1="3.43246e-07" y1="5.33333" x2="21.9914" y2="19.7231" gradientUnits="userSpaceOnUse">
<stop stop-color="#BEFE00"/>
<stop offset="0.71875" stop-color="#30F200"/>
<stop offset="1" stop-color="#00F780"/>
</linearGradient>
</defs>
</svg>
