<svg width="561" height="32" viewBox="0 0 561 32" fill="none" xmlns="http://www.w3.org/2000/svg">
<path d="M317.318 11.681C313.429 8.72788 308.724 11.4055 305.969 13.5762C303.093 15.8462 299.677 17.2125 296.162 17.3337C283.534 17.7635 282.069 3.5159 282.069 3.5159C282.069 3.5159 290.146 17.0031 299.699 12.3201C299.699 12.3201 306.354 9.44412 307.522 0.794205C307.522 0.794205 309.627 4.87123 307.038 8.77196C309.462 7.637 313.462 6.54612 317.329 11.67L317.318 11.681Z" fill="#FFD645"/>
<path d="M241.364 11.681C245.254 8.72788 249.959 11.4055 252.714 13.5762C255.59 15.8462 259.006 17.2125 262.521 17.3337C275.149 17.7635 276.614 3.5159 276.614 3.5159C276.614 3.5159 268.537 17.0031 258.984 12.3201C258.984 12.3201 252.328 9.44412 251.16 0.794205C251.16 0.794205 249.056 4.87123 251.645 8.77196C249.221 7.637 245.221 6.54612 241.353 11.67L241.364 11.681Z" fill="#FFD645"/>
<path d="M291.181 20.375C286.718 21.2344 282.652 15.7249 280.162 11.2953C279.865 10.7554 279.589 10.2375 279.336 9.76367C279.093 10.2485 278.818 10.7664 278.52 11.2843C276.03 15.7139 271.964 21.2344 267.501 20.386C270.983 25.7853 276.405 22.9754 279.336 14.1823C282.278 22.9754 287.699 25.7853 291.181 20.386V20.375Z" fill="#FFD645"/>
<path d="M277.617 25.6861C277.11 28.3748 279.347 32 279.347 32C279.347 32 281.595 28.3748 281.077 25.6861C280.691 23.6807 277.991 23.6807 277.617 25.6861Z" fill="#FFD645"/>
<path d="M317.417 3.18532C342.871 -0.417889 369.229 -0.770496 394.815 1.15783C405.195 1.94018 415.552 3.20736 425.789 5.13568C436.698 7.19624 447.111 10.4028 457.667 13.7966C475.639 19.5706 494.724 23.8239 513.71 22.9975C520.189 22.711 528.001 22.1711 533.897 19.0637C534.844 18.5678 535.682 20.0003 534.734 20.5072C530.172 22.9093 524.486 23.6807 519.451 24.2316C503.154 26.0277 486.438 23.3611 470.681 19.3061C459.397 16.4081 448.532 12.1438 437.227 9.33392C426.638 6.70038 415.839 4.92632 404.985 3.75831C386 1.69776 366.838 1.40025 347.775 2.28176C337.858 2.74456 327.533 3.42774 317.847 4.7941C316.8 4.93734 316.348 3.33959 317.406 3.18532H317.417Z" fill="#FFD645"/>
<path d="M243.458 4.73902C217.541 1.08071 190.159 0.783197 163.967 2.96496C153.135 3.86852 142.337 5.312 131.692 7.53784C120.563 9.86285 109.985 13.6424 99.12 16.882C82.0846 21.9617 64.0025 25.587 46.1407 24.5291C39.7827 24.1545 32.3449 23.4823 26.582 20.4411C25.6343 19.9452 26.4718 18.5017 27.4194 18.9976C32.1245 21.4769 38.185 22.1711 43.3749 22.6449C60.6527 24.2206 78.25 21.0251 94.8336 16.3861C105.908 13.2898 116.618 9.20171 127.858 6.66734C138.072 4.35335 148.463 2.79967 158.876 1.76389C177.652 -0.109343 196.594 -0.307682 215.426 0.639952C224.924 1.12479 234.477 1.79694 243.899 3.13024C244.956 3.28451 244.505 4.88227 243.458 4.73902Z" fill="#FFD645"/>
<path d="M12.1912 30.0827C11.3317 25.642 16.8632 21.5981 21.3259 19.1188C21.8659 18.8213 22.3838 18.5458 22.8686 18.3034C22.3838 18.061 21.8659 17.7965 21.337 17.499C16.8743 15.0197 11.3207 10.9758 12.1912 6.53511C6.75883 9.99507 9.57969 15.3834 18.4279 18.3034C9.57969 21.2344 6.75883 26.6227 12.1912 30.0827Z" fill="#FFD645"/>
<path d="M6.84694 16.5844C4.14729 16.0776 0.5 18.3034 0.5 18.3034C0.5 18.3034 4.14729 20.5292 6.84694 20.0224C8.86342 19.6477 8.86342 16.9591 6.84694 16.5734V16.5844Z" fill="#FFD645"/>
<path d="M549.125 30.0827C549.984 25.642 544.453 21.5981 539.99 19.1188C539.45 18.8213 538.932 18.5458 538.447 18.3034C538.932 18.061 539.45 17.7965 539.979 17.499C544.442 15.0197 549.995 10.9758 549.125 6.53511C554.557 9.99507 551.736 15.3834 542.888 18.3034C551.736 21.2344 554.557 26.6227 549.125 30.0827Z" fill="#FFD645"/>
<path d="M554.469 16.5844C557.169 16.0776 560.816 18.3034 560.816 18.3034C560.816 18.3034 557.169 20.5292 554.469 20.0224C552.452 19.6477 552.452 16.9591 554.469 16.5734V16.5844Z" fill="#FFD645"/>
</svg>
