<svg width="56" height="56" viewBox="0 0 56 56" fill="none" xmlns="http://www.w3.org/2000/svg">
<g filter="url(#filter0_i_177_625)">
<path d="M47.25 0H8.75C3.91751 0 0 3.91751 0 8.75V47.25C0 52.0825 3.91751 56 8.75 56H47.25C52.0825 56 56 52.0825 56 47.25V8.75C56 3.91751 52.0825 0 47.25 0Z" fill="#212932"/>
</g>
<circle cx="27.5" cy="27.5" r="16.5" fill="#DBFF34"/>
<path d="M27 46C17.0589 46 9 50.4772 9 56H45C45 50.4772 36.9411 46 27 46Z" fill="url(#paint0_radial_177_625)"/>
<path d="M36 23.5C35.3625 23.8 34.725 23.9 33.9813 24C34.725 23.6 35.2563 23 35.4688 22.2C34.8313 22.6 34.0875 22.8 33.2375 23C32.6 22.4 31.6438 22 30.6875 22C28.4563 22 26.7563 24 27.2875 26C24.4188 25.9 21.8688 24.6 20.0625 22.6C19.1063 24.1 19.6375 26 21.125 27C20.5938 27 20.0625 26.8 19.5312 26.6C19.5312 28.1 20.7 29.5 22.2938 29.9C21.7625 30 21.2313 30.1 20.7 30C21.125 31.3 22.4 32.3 23.9937 32.3C22.7187 33.2 20.8063 33.7 19 33.5C20.5938 34.4 22.4 35 24.3125 35C30.7937 35 34.4062 29.9 34.1937 25.2C34.9375 24.8 35.575 24.2 36 23.5Z" fill="#232937"/>
<defs>
<filter id="filter0_i_177_625" x="0" y="0" width="56" height="56" filterUnits="userSpaceOnUse" color-interpolation-filters="sRGB">
<feFlood flood-opacity="0" result="BackgroundImageFix"/>
<feBlend mode="normal" in="SourceGraphic" in2="BackgroundImageFix" result="shape"/>
<feColorMatrix in="SourceAlpha" type="matrix" values="0 0 0 0 0 0 0 0 0 0 0 0 0 0 0 0 0 0 127 0" result="hardAlpha"/>
<feOffset dx="1" dy="1"/>
<feComposite in2="hardAlpha" operator="arithmetic" k2="-1" k3="1"/>
<feColorMatrix type="matrix" values="0 0 0 0 0.87451 0 0 0 0 0.996078 0 0 0 0 0.258824 0 0 0 0.31 0"/>
<feBlend mode="normal" in2="shape" result="effect1_innerShadow_177_625"/>
</filter>
<radialGradient id="paint0_radial_177_625" cx="0" cy="0" r="1" gradientUnits="userSpaceOnUse" gradientTransform="translate(27.5455 56) rotate(-180) scale(17.4545 8.28056)">
<stop stop-color="#DEFD41" stop-opacity="0.63"/>
<stop offset="1" stop-color="#DEFD41" stop-opacity="0"/>
</radialGradient>
</defs>
</svg>
