<svg width="230" height="90" viewBox="0 0 230 90" fill="none" xmlns="http://www.w3.org/2000/svg">
<mask id="mask0_2827_4551" style="mask-type:luminance" maskUnits="userSpaceOnUse" x="11" y="9" width="208" height="71">
<path d="M219 9.38721H11V79.8394H219V9.38721Z" fill="white"/>
</mask>
<g mask="url(#mask0_2827_4551)">
<path d="M46.5201 9.38721L57.8782 27.4265H82.0402L46.5201 79.8394L11 27.4265H35.1593L46.5201 9.38721Z" fill="#011025"/>
<path d="M18.8325 31.8652L22.7664 37.6725L28.7127 37.6699L32.3687 31.8652H18.8325Z" fill="#D5D5D5"/>
<path d="M60.6724 31.8633L64.3284 37.6706H70.2746L74.2112 31.8659L60.6724 31.8633Z" fill="white"/>
<path d="M46.5211 15.6685L32.667 37.6711L40.8047 37.6738L46.5211 28.5926V15.6685Z" fill="#D5D5D5"/>
<path d="M46.5212 28.5926V15.6685L60.3753 37.6711H52.2403L46.5212 28.5926Z" fill="white"/>
<path d="M52.2437 37.6694L55.5469 42.9209H59.3231L46.5192 61.8127L46.2172 61.3664L33.7153 42.9236H37.4996L40.8054 37.6721H22.7661L46.308 72.4118L46.5219 72.7245L70.2776 37.6694H52.2437Z" fill="url(#paint0_linear_2827_4551)"/>
<path d="M41.4403 48.3336L46.5207 55.8272L51.5984 48.3336C52.7823 46.5857 52.8223 44.3034 51.6973 42.5181L46.518 34.2949L41.3414 42.5181C40.2163 44.3034 40.2563 46.5885 41.4403 48.3336Z" fill="url(#paint1_linear_2827_4551)"/>
<path d="M90.9347 50.7978H87.9949V32.0903H92.4313C93.6954 32.0903 94.7296 32.4645 95.5313 33.2129C96.4213 34.0333 96.8676 35.1905 96.8676 36.6871V38.7182C96.8676 40.2334 96.4213 41.4014 95.5313 42.2191C94.7483 42.9487 93.714 43.3148 92.4313 43.3148H90.9347V50.7978ZM90.9347 40.3751H92.4313C92.931 40.3751 93.2945 40.2682 93.5269 40.0544C93.7942 39.8059 93.9278 39.3595 93.9278 38.7182V36.6871C93.9278 36.0644 93.7942 35.618 93.5269 35.3507C93.2945 35.1371 92.931 35.0301 92.4313 35.0301H90.9347V40.3751Z" fill="white"/>
<path d="M108.603 50.7978H105.61L104.086 43.2881H102.75V50.7978H99.8103V32.0903H104.247C105.511 32.0903 106.545 32.4645 107.347 33.2129C108.237 34.0333 108.683 35.1905 108.683 36.6871V38.6915C108.683 40.2066 108.237 41.3746 107.347 42.1924C107.221 42.3179 107.079 42.433 106.919 42.5399L108.603 50.7978ZM105.743 36.6871C105.743 36.0644 105.61 35.618 105.342 35.3507C105.11 35.1371 104.746 35.0301 104.247 35.0301H102.75V40.3484H104.247C104.746 40.3484 105.11 40.2415 105.342 40.0277C105.61 39.7791 105.743 39.3328 105.743 38.6915V36.6871Z" fill="white"/>
<path d="M114.694 50.7978H111.755V32.0903H114.694V50.7978Z" fill="white"/>
<path d="M130.514 32.0903V50.7978H127.574V41.4708L125.196 47.8581H123.486L121.107 41.4708V50.7978H118.167V32.0903H119.851L124.341 42.4597L128.831 32.0903H130.514Z" fill="white"/>
<path d="M138.293 51.0116C137.011 51.0116 135.976 50.6454 135.193 49.9158C134.304 49.0607 133.857 47.8928 133.857 46.4149V32.0903H136.797V46.4149C136.797 47.075 136.923 47.5186 137.171 47.7512C137.404 47.965 137.777 48.0719 138.293 48.0719C138.81 48.0719 139.157 47.965 139.39 47.7512C139.656 47.5027 139.79 47.0563 139.79 46.4149V32.0903H142.73V46.4149C142.73 47.8581 142.283 49.026 141.394 49.9158C140.573 50.6454 139.542 51.0116 138.293 51.0116Z" fill="white"/>
<path d="M150.079 51.0106C148.796 51.0106 147.762 50.6444 146.978 49.9148C146.089 49.0596 145.643 47.8918 145.643 46.4138V43.9818H148.581V46.4138C148.581 47.0553 148.716 47.5015 148.983 47.75C149.215 47.9639 149.578 48.0708 150.079 48.0708C150.578 48.0708 150.96 47.9639 151.174 47.75C151.442 47.5176 151.575 47.0739 151.575 46.4138V45.238C151.575 44.4174 151.247 43.7066 150.587 43.1C150.442 42.977 150.071 42.7445 149.464 42.4051C148.627 41.9588 148.013 41.5686 147.62 41.2292C146.978 40.66 146.489 40.0079 146.149 39.2783C145.81 38.5487 145.643 37.763 145.643 36.9265V36.4721C145.643 34.9943 146.089 33.8264 146.978 32.9712C147.762 32.2416 148.796 31.8755 150.079 31.8755C151.362 31.8755 152.395 32.2416 153.178 32.9712C154.069 33.8264 154.515 34.9943 154.515 36.4721V38.1024H151.575V36.4721C151.575 35.812 151.442 35.3685 151.174 35.1359C150.96 34.9221 150.594 34.8152 150.079 34.8152C149.563 34.8152 149.215 34.9221 148.983 35.1359C148.716 35.3844 148.581 35.8308 148.581 36.4721V36.9265C148.581 37.7469 148.911 38.4498 149.571 39.0378C149.749 39.1794 150.098 39.3932 150.613 39.6792C151.54 40.1789 152.181 40.5878 152.537 40.9085C153.855 42.0843 154.515 43.5276 154.515 45.238V46.4138C154.515 47.8918 154.069 49.0596 153.178 49.9148C152.395 50.6444 151.362 51.0106 150.079 51.0106Z" fill="white"/>
<path d="M167.05 51.0106C165.769 51.0106 164.734 50.6444 163.951 49.9148C163.06 49.0596 162.615 47.8918 162.615 46.4138V43.9818H165.554V46.4138C165.554 47.0553 165.687 47.5015 165.955 47.75C166.188 47.9639 166.551 48.0708 167.05 48.0708C167.551 48.0708 167.933 47.9639 168.146 47.75C168.413 47.5176 168.548 47.0739 168.548 46.4138V45.238C168.548 44.4174 168.218 43.7066 167.558 43.1C167.414 42.977 167.043 42.7445 166.436 42.4051C165.6 41.9588 164.984 41.5686 164.592 41.2292C163.951 40.66 163.462 40.0079 163.122 39.2783C162.783 38.5487 162.615 37.763 162.615 36.9265V36.4721C162.615 34.9943 163.06 33.8264 163.951 32.9712C164.734 32.2416 165.769 31.8755 167.05 31.8755C168.334 31.8755 169.368 32.2416 170.151 32.9712C171.04 33.8264 171.488 34.9943 171.488 36.4721V38.1024H168.548V36.4721C168.548 35.812 168.413 35.3685 168.146 35.1359C167.933 34.9221 167.567 34.8152 167.05 34.8152C166.535 34.8152 166.188 34.9221 165.955 35.1359C165.687 35.3844 165.554 35.8308 165.554 36.4721V36.9265C165.554 37.7469 165.883 38.4498 166.544 39.0378C166.722 39.1794 167.069 39.3932 167.585 39.6792C168.512 40.1789 169.154 40.5878 169.509 40.9085C170.828 42.0843 171.488 43.5276 171.488 45.238V46.4138C171.488 47.8918 171.04 49.0596 170.151 49.9148C169.368 50.6444 168.334 51.0106 167.05 51.0106Z" fill="white"/>
<path d="M177.474 50.7978H174.534V32.0903H178.971C180.234 32.0903 181.269 32.4645 182.071 33.2129C182.961 34.0333 183.407 35.1905 183.407 36.6871V38.7182C183.407 40.2334 182.961 41.4014 182.071 42.2191C181.288 42.9487 180.253 43.3148 178.971 43.3148H177.474V50.7978ZM177.474 40.3751H178.971C179.47 40.3751 179.834 40.2682 180.067 40.0544C180.334 39.8059 180.467 39.3595 180.467 38.7182V36.6871C180.467 36.0644 180.334 35.618 180.067 35.3507C179.834 35.1371 179.47 35.0301 178.971 35.0301H177.474V40.3751Z" fill="white"/>
<path d="M191.369 47.8314H188.002L187.468 50.7978H184.475L188.216 32.0903H191.155L194.897 50.7978H191.904L191.369 47.8314ZM190.861 44.8916L189.686 38.1837L188.51 44.8916H190.861Z" fill="white"/>
<path d="M206.469 50.7978H203.476L201.952 43.2881H200.616V50.7978H197.676V32.0903H202.113C203.377 32.0903 204.411 32.4645 205.212 33.2129C206.103 34.0333 206.549 35.1905 206.549 36.6871V38.6915C206.549 40.2066 206.103 41.3746 205.212 42.1924C205.087 42.3179 204.945 42.433 204.786 42.5399L206.469 50.7978ZM203.609 36.6871C203.609 36.0644 203.476 35.618 203.209 35.3507C202.976 35.1371 202.612 35.0301 202.113 35.0301H200.616V40.3484H202.113C202.612 40.3484 202.976 40.2415 203.209 40.0277C203.476 39.7791 203.609 39.3328 203.609 38.6915V36.6871Z" fill="white"/>
<path d="M219.001 50.7978H215.847L213.576 44.8114L212.56 47.1365V50.7978H209.62V32.0903H212.56V39.6802L215.82 32.0903H219.001L215.232 40.963L219.001 50.7978Z" fill="white"/>
<path d="M111.053 61.5469C111.091 61.6485 111.142 61.7821 111.208 61.9505C111.275 62.1162 111.35 62.3059 111.433 62.5117C111.516 62.7174 111.604 62.9392 111.703 63.1771C111.799 63.4123 111.895 63.6529 111.994 63.8934C112.09 64.1338 112.187 64.3717 112.283 64.6043C112.379 64.8367 112.465 65.0505 112.545 65.251C112.625 65.4488 112.697 65.6224 112.758 65.7748C112.823 65.9272 112.871 66.0447 112.905 66.1276C112.938 66.0447 112.986 65.9272 113.047 65.7748C113.111 65.6224 113.181 65.4488 113.261 65.251C113.341 65.0532 113.427 64.8394 113.52 64.6043C113.614 64.3717 113.71 64.1365 113.806 63.8934C113.902 63.6529 113.998 63.415 114.092 63.1771C114.188 62.9392 114.276 62.7174 114.359 62.5117C114.442 62.3032 114.517 62.1162 114.584 61.9505C114.651 61.7848 114.701 61.6485 114.739 61.5469C114.757 61.5014 114.784 61.4641 114.819 61.4373C114.854 61.4106 114.896 61.3972 114.95 61.3972H115.372C115.498 61.3972 115.562 61.4453 115.562 61.5389C115.562 61.5496 115.562 61.5602 115.557 61.571C115.551 61.5816 115.551 61.5924 115.549 61.6057C115.546 61.6191 115.543 61.6324 115.541 61.6458L113.247 67.202C113.247 67.202 113.237 67.2313 113.229 67.2473C113.221 67.2661 113.21 67.2794 113.197 67.2954C113.183 67.3087 113.165 67.3222 113.138 67.3328C113.111 67.3436 113.079 67.3489 113.036 67.3489H112.772C112.732 67.3489 112.7 67.3436 112.673 67.3328C112.646 67.3222 112.628 67.3087 112.614 67.2954C112.601 67.2794 112.59 67.2634 112.582 67.2473C112.574 67.2313 112.569 67.2153 112.563 67.202L110.252 61.6458C110.252 61.6458 110.246 61.6271 110.244 61.6164C110.238 61.595 110.236 61.5683 110.236 61.5363C110.236 61.4427 110.297 61.3945 110.42 61.3945H110.845C110.898 61.3945 110.944 61.408 110.979 61.4347C111.013 61.4614 111.037 61.4988 111.056 61.5442L111.053 61.5469Z" fill="white"/>
<path d="M128.473 61.3975C128.596 61.3975 128.657 61.4617 128.657 61.5899V61.9855C128.657 62.0362 128.641 62.0817 128.612 62.1191C128.58 62.1565 128.532 62.1752 128.465 62.1752H125.234V63.8242H127.775C127.823 63.8242 127.866 63.8374 127.901 63.8668C127.936 63.8963 127.952 63.9417 127.952 64.0086V64.4175C127.952 64.4656 127.938 64.5083 127.909 64.5456C127.88 64.5831 127.834 64.6019 127.775 64.6019H125.234V66.5741H128.481C128.604 66.5741 128.665 66.6383 128.665 66.7638V67.1754C128.665 67.2931 128.607 67.3518 128.489 67.3518H124.632C124.515 67.3518 124.456 67.2957 124.456 67.1835V61.5819C124.456 61.459 124.515 61.3975 124.632 61.3975H128.473Z" fill="white"/>
<path d="M142.037 67.3516C141.979 67.3516 141.928 67.3222 141.885 67.2634L138.386 62.5732V67.1752C138.386 67.2928 138.326 67.3516 138.203 67.3516H137.799C137.681 67.3516 137.623 67.2928 137.623 67.1752V61.5843C137.623 61.5308 137.639 61.4855 137.671 61.4506C137.702 61.4159 137.745 61.3972 137.799 61.3972H138.336C138.405 61.3972 138.462 61.4267 138.504 61.4855L141.918 66.018V61.5442C141.933 61.4453 141.993 61.3945 142.094 61.3945H142.499C142.547 61.3945 142.593 61.4106 142.634 61.4427C142.674 61.4747 142.696 61.5175 142.696 61.571V67.1724C142.696 67.2901 142.628 67.3489 142.499 67.3489H142.043L142.037 67.3516Z" fill="white"/>
<path d="M155.859 61.3975C155.907 61.3975 155.949 61.4135 155.989 61.4429C156.027 61.4723 156.05 61.5178 156.056 61.5766V61.9828C156.056 62.0362 156.04 62.0817 156.008 62.1217C155.975 62.1591 155.927 62.1805 155.861 62.1805H154.193V67.1701C154.193 67.2182 154.176 67.261 154.145 67.2984C154.113 67.3357 154.068 67.3545 154.009 67.3545H153.605C153.557 67.3545 153.514 67.3384 153.477 67.301C153.439 67.2663 153.42 67.2235 153.42 67.1674V62.1779H151.746C151.691 62.1779 151.646 62.1619 151.614 62.1297C151.58 62.0977 151.561 62.0495 151.561 61.9828V61.5766C151.561 61.5231 151.577 61.4803 151.614 61.4483C151.649 61.4162 151.691 61.4001 151.746 61.4001H155.864L155.859 61.3975Z" fill="white"/>
<path d="M165.678 64.8897C165.678 65.1436 165.716 65.3788 165.789 65.6006C165.861 65.8197 165.97 66.0095 166.112 66.1725C166.256 66.3355 166.43 66.4612 166.636 66.5546C166.841 66.6456 167.077 66.6936 167.342 66.6936C167.624 66.6936 167.87 66.6482 168.081 66.552C168.293 66.4585 168.466 66.3302 168.606 66.1698C168.741 66.0095 168.845 65.8171 168.912 65.5979C168.982 65.3788 169.014 65.1436 169.014 64.8924V61.5759C169.014 61.5277 169.033 61.4876 169.068 61.4529C169.102 61.4182 169.148 61.3994 169.201 61.3994H169.586C169.637 61.3994 169.685 61.4155 169.728 61.4475C169.77 61.4796 169.791 61.5224 169.791 61.5759V64.9993C169.791 65.36 169.728 65.6914 169.599 65.9907C169.471 66.29 169.295 66.5493 169.073 66.7658C168.851 66.9796 168.589 67.1479 168.293 67.2683C167.993 67.3885 167.677 67.4499 167.342 67.4499C167.005 67.4499 166.687 67.3858 166.389 67.2575C166.093 67.1292 165.834 66.9529 165.609 66.7311C165.385 66.5093 165.211 66.2473 165.083 65.9507C164.954 65.654 164.891 65.3386 164.891 65.002V61.5785C164.891 61.5384 164.907 61.4983 164.936 61.4608C164.968 61.4235 165.008 61.4021 165.059 61.4021H165.486C165.526 61.4021 165.57 61.4208 165.613 61.4555C165.654 61.4902 165.676 61.533 165.676 61.5785V64.895L165.678 64.8897Z" fill="white"/>
<path d="M179.022 61.5899C179.022 61.4617 179.08 61.3975 179.198 61.3975H181.512C181.78 61.3975 182.028 61.4483 182.258 61.5472C182.488 61.6461 182.688 61.7851 182.859 61.9561C183.03 62.1297 183.164 62.3302 183.263 62.56C183.362 62.7926 183.41 63.0384 183.41 63.3004C183.41 63.4873 183.383 63.6665 183.332 63.8401C183.279 64.0139 183.207 64.1716 183.113 64.3185C183.02 64.4655 182.907 64.5964 182.776 64.7141C182.646 64.829 182.499 64.9279 182.341 65.0053L183.4 67.1754V67.2288C183.4 67.3117 183.348 67.3518 183.251 67.3518H182.769C182.685 67.3518 182.622 67.3037 182.576 67.2049L181.614 65.1844C181.592 65.1871 181.568 65.1897 181.544 65.1897C181.52 65.1897 181.483 65.1897 181.435 65.1897C181.389 65.1897 181.325 65.1897 181.248 65.1897H179.805V67.1727C179.805 67.2904 179.743 67.3492 179.62 67.3492H179.203C179.085 67.3492 179.027 67.2904 179.027 67.1727V61.5899H179.022ZM182.637 63.2949C182.637 63.148 182.608 63.0064 182.552 62.8701C182.493 62.7338 182.415 62.6135 182.317 62.5092C182.218 62.4051 182.097 62.3221 181.958 62.258C181.82 62.1966 181.673 62.1646 181.512 62.1646H179.8V64.4254H181.526C181.683 64.4254 181.83 64.3961 181.967 64.3346C182.103 64.2731 182.22 64.1902 182.319 64.0861C182.418 63.9818 182.495 63.8615 182.552 63.7252C182.608 63.5889 182.637 63.4473 182.637 63.2976V63.2949Z" fill="white"/>
<path d="M196.571 61.3975C196.694 61.3975 196.756 61.4617 196.756 61.5899V61.9855C196.756 62.0362 196.74 62.0817 196.71 62.1191C196.677 62.1565 196.631 62.1752 196.563 62.1752H193.332V63.8242H195.873C195.921 63.8242 195.964 63.8374 196 63.8668C196.034 63.8963 196.05 63.9417 196.05 64.0086V64.4175C196.05 64.4656 196.037 64.5083 196.007 64.5456C195.978 64.5831 195.933 64.6019 195.873 64.6019H193.332V66.5741H196.579C196.702 66.5741 196.764 66.6383 196.764 66.7638V67.1754C196.764 67.2931 196.705 67.3518 196.588 67.3518H192.731C192.613 67.3518 192.554 67.2957 192.554 67.1835V61.5819C192.554 61.459 192.613 61.3975 192.731 61.3975H196.571Z" fill="white"/>
</g>
<defs>
<linearGradient id="paint0_linear_2827_4551" x1="46.5219" y1="74.1062" x2="46.5219" y2="34.6655" gradientUnits="userSpaceOnUse">
<stop stop-color="white"/>
<stop offset="1" stop-color="#717171"/>
</linearGradient>
<linearGradient id="paint1_linear_2827_4551" x1="46.5207" y1="74.107" x2="46.5207" y2="34.6664" gradientUnits="userSpaceOnUse">
<stop stop-color="white"/>
<stop offset="1" stop-color="#2E2E2E"/>
</linearGradient>
</defs>
</svg>
