<svg width="16" height="16" viewBox="0 0 16 16" fill="none" xmlns="http://www.w3.org/2000/svg">
<g clip-path="url(#clip0_5137_57661)">
<circle cx="8" cy="8" r="8" fill="black"/>
<path d="M4.77778 5.6H4.33333C4.24493 5.6 4.16014 5.56839 4.09763 5.51213C4.03512 5.45587 4 5.37956 4 5.3C4 5.22043 4.03512 5.14413 4.09763 5.08787C4.16014 5.03161 4.24493 5 4.33333 5H11.6667C11.7551 5 11.8399 5.03161 11.9024 5.08787C11.9649 5.14413 12 5.22043 12 5.3C12 5.37956 11.9649 5.45587 11.9024 5.51213C11.8399 5.56839 11.7551 5.6 11.6667 5.6H5.44444V10.9C5.44444 10.9657 5.45881 11.0307 5.48673 11.0913C5.51465 11.152 5.55557 11.2071 5.60716 11.2536C5.65875 11.3 5.72 11.3368 5.7874 11.3619C5.8548 11.3871 5.92704 11.4 6 11.4H10C10.073 11.4 10.1452 11.3871 10.2126 11.3619C10.28 11.3368 10.3412 11.3 10.3928 11.2536C10.4444 11.2071 10.4853 11.152 10.5133 11.0913C10.5412 11.0307 10.5556 10.9657 10.5556 10.9V6.5C10.5556 6.42043 10.5907 6.34413 10.6532 6.28787C10.7157 6.23161 10.8005 6.2 10.8889 6.2C10.9773 6.2 11.0621 6.23161 11.1246 6.28787C11.1871 6.34413 11.2222 6.42043 11.2222 6.5V10.9C11.2222 11.5075 10.675 12 10 12H6C5.325 12 4.77778 11.5075 4.77778 10.9V5.6ZM7.11111 4.6C7.02271 4.6 6.93792 4.56839 6.87541 4.51213C6.8129 4.45587 6.77778 4.37956 6.77778 4.3C6.77778 4.22044 6.8129 4.14413 6.87541 4.08787C6.93792 4.03161 7.02271 4 7.11111 4H8.88889C8.97729 4 9.06208 4.03161 9.12459 4.08787C9.1871 4.14413 9.22222 4.22044 9.22222 4.3C9.22222 4.37956 9.1871 4.45587 9.12459 4.51213C9.06208 4.56839 8.97729 4.6 8.88889 4.6H7.11111ZM6.77778 7.3C6.77778 7.22043 6.8129 7.14413 6.87541 7.08787C6.93792 7.03161 7.02271 7 7.11111 7C7.19952 7 7.2843 7.03161 7.34681 7.08787C7.40933 7.14413 7.44444 7.22043 7.44444 7.3V9.7C7.44444 9.77956 7.40933 9.85587 7.34681 9.91213C7.2843 9.96839 7.19952 10 7.11111 10C7.02271 10 6.93792 9.96839 6.87541 9.91213C6.8129 9.85587 6.77778 9.77956 6.77778 9.7V7.3ZM8.55556 7.3C8.55556 7.22043 8.59067 7.14413 8.65319 7.08787C8.7157 7.03161 8.80048 7 8.88889 7C8.97729 7 9.06208 7.03161 9.12459 7.08787C9.1871 7.14413 9.22222 7.22043 9.22222 7.3V9.7C9.22222 9.77956 9.1871 9.85587 9.12459 9.91213C9.06208 9.96839 8.97729 10 8.88889 10C8.80048 10 8.7157 9.96839 8.65319 9.91213C8.59067 9.85587 8.55556 9.77956 8.55556 9.7V7.3Z" fill="white"/>
</g>
<defs>
<clipPath id="clip0_5137_57661">
<rect width="16" height="16" fill="white"/>
</clipPath>
</defs>
</svg>
