<svg width="16" height="16" viewBox="0 0 16 16" fill="none" xmlns="http://www.w3.org/2000/svg">
<g clip-path="url(#clip0_5137_57660)">
<circle cx="8" cy="8" r="6" fill="#F5222D" fill-opacity="0.85"/>
<path d="M7.95096 9.502C7.8178 9.51531 7.69796 9.57916 7.61375 9.68256C7.5719 9.73313 7.54052 9.79151 7.52143 9.85431C7.50233 9.91712 7.49591 9.98309 7.50252 10.0484L7.51976 10.2125L7.53581 10.1961C7.6067 10.3751 7.78098 10.5 7.97916 10.5C8.00305 10.5 8.02694 10.4988 8.04887 10.4969C8.18074 10.4837 8.30201 10.4188 8.38614 10.3164C8.47026 10.214 8.51038 10.0824 8.4977 9.95047C8.48345 9.819 8.4182 9.69837 8.31596 9.61451C8.21372 9.53065 8.08267 9.49025 7.95096 9.502Z" fill="black"/>
<path d="M7.70328 5C7.65055 5.0013 7.60011 5.03575 7.56232 5.09629C7.52452 5.15684 7.50223 5.23888 7.5 5.32561L7.50055 8.68518C7.5071 8.86058 7.59727 9 7.70328 9H7.70929L8.28798 8.9982H8.29672C8.34954 8.99734 8.40012 8.96303 8.43797 8.9024C8.47582 8.84176 8.49804 8.75947 8.5 8.67259V5.31662C8.49614 5.23055 8.47264 5.15008 8.43423 5.09136C8.39581 5.03263 8.34532 4.99999 8.2929 5H7.70328Z" fill="black"/>
</g>
<defs>
<clipPath id="clip0_5137_57660">
<rect width="12" height="12" fill="white" transform="translate(2 2)"/>
</clipPath>
</defs>
</svg>
