<svg width="28" height="28" viewBox="0 0 28 28" fill="none" xmlns="http://www.w3.org/2000/svg">
<path d="M21.7488 19.756L15.1535 6.92557C14.5193 5.69148 13.4808 5.69148 12.8466 6.92557L6.25111 19.756C5.61691 20.9901 6.22603 22 7.60527 22H20.3946C21.7739 22 22.3832 20.9901 21.7488 19.756ZM13.1977 10.8593C13.1977 10.413 13.5568 10.0508 13.9999 10.0508C14.4431 10.0508 14.8027 10.4133 14.8027 10.8593V16.3188C14.8027 16.7652 14.4431 17.1273 13.9999 17.1273C13.5568 17.1273 13.1977 16.7649 13.1977 16.3188V10.8593ZM13.9999 20.2104C13.446 20.2104 12.9969 19.7583 12.9969 19.1995C12.9969 18.6412 13.446 18.1886 13.9999 18.1886C14.5539 18.1886 15.003 18.6412 15.003 19.1995C15.003 19.7583 14.5539 20.2104 13.9999 20.2104Z" fill="#FFAE00"/>
</svg>
