<svg width="235" height="72" viewBox="0 0 235 72" fill="none" xmlns="http://www.w3.org/2000/svg">
<g filter="url(#filter0_b_3692_5647)">
<path d="M53.3349 44.4913L60.2891 26.6416H63.1765L70.105 44.2828L66.6922 44.754L65.0928 40.293H58.3185L56.7449 44.4913H53.332H53.3349ZM59.321 37.5342H64.0475L61.66 31.3139L59.3238 37.5342H59.321Z" fill="white"/>
<path d="M81.7525 42.3597L82.1951 44.4874H72.165V30.1562H81.7525L82.1723 32.3068H74.881V36.1623H79.5591L80.0018 38.3328H74.881V42.3569H81.7525V42.3597Z" fill="white"/>
<path d="M92.4982 38.7568H89.4852L89.7165 36.6491H94.9429V43.729C94.3546 44.0374 93.6691 44.2916 92.898 44.4858C92.1269 44.68 91.3158 44.78 90.4733 44.78C89.0254 44.78 87.7659 44.4515 86.6892 43.8004C85.6154 43.1464 84.79 42.2582 84.2131 41.1358C83.6362 40.0134 83.3506 38.7625 83.3506 37.3859C83.3506 36.0093 83.6705 34.6642 84.3102 33.519C84.9499 32.3737 85.8381 31.4798 86.9748 30.8344C88.1115 30.1889 89.3909 29.8662 90.8103 29.8662C92.2297 29.8662 91.9698 29.9433 92.7295 30.0975C93.4863 30.2518 94.1546 30.4831 94.7315 30.7915L93.869 32.7507C93.4749 32.6251 93.2864 32.5679 93.3007 32.5822C92.7666 32.428 92.3411 32.3166 92.027 32.2538C91.7128 32.191 91.3215 32.1567 90.856 32.1567C89.985 32.1567 89.1967 32.3537 88.4941 32.745C87.7916 33.1363 87.2318 33.7246 86.8177 34.5043C86.4036 35.2839 86.1951 36.235 86.1951 37.3574C86.1951 38.4797 86.3693 39.2851 86.7206 40.0648C87.0719 40.8445 87.5688 41.4442 88.2057 41.8583C88.8426 42.2724 89.5794 42.4809 90.4076 42.4809C91.2359 42.4809 91.7471 42.4038 92.4953 42.2496V38.7511V38.7568H92.4982Z" fill="white"/>
<path d="M100.399 30.1602V44.4913H97.6797V30.1602H100.399Z" fill="white"/>
<path d="M107.415 44.7626C106.827 44.7626 106.09 44.6312 105.214 44.3713C104.337 44.1114 103.657 43.8344 103.18 43.5373L103.791 41.324C104.311 41.5896 104.899 41.8266 105.562 42.0294C106.222 42.2322 106.824 42.335 107.375 42.335C108.218 42.335 108.858 42.2008 109.295 41.9352C109.729 41.6696 109.949 41.2812 109.949 40.7756C109.949 40.2701 109.774 40.1045 109.432 39.8161C109.089 39.5276 108.558 39.1877 107.841 38.7936L107.21 38.4138C106.27 37.8512 105.522 37.3685 104.965 36.9601C104.411 36.5517 103.934 36.0719 103.534 35.5179C103.134 34.9638 102.932 34.3412 102.932 33.6529C102.932 32.9646 103.129 32.2649 103.52 31.6823C103.914 31.0997 104.48 30.6428 105.216 30.3143C105.953 29.9859 106.836 29.8174 107.861 29.8174C108.886 29.8174 110.417 30.1744 111.905 30.8912L111 33.0846C110.423 32.8047 109.9 32.5877 109.429 32.4306C108.958 32.2764 108.449 32.1992 107.901 32.1992C107.353 32.1992 106.753 32.322 106.353 32.5677C105.953 32.8133 105.75 33.176 105.75 33.6529C105.75 34.1299 105.91 34.4012 106.225 34.6753C106.539 34.9495 107.058 35.2979 107.772 35.7178L108.446 36.0976L109.058 36.4546C109.886 36.9315 110.546 37.3514 111.04 37.7084C111.531 38.0654 111.942 38.5023 112.273 39.0135C112.605 39.5247 112.77 40.1274 112.77 40.8156C112.77 41.5039 112.562 42.2693 112.148 42.8605C111.734 43.4488 111.122 43.9143 110.314 44.2513C109.506 44.5883 108.541 44.7568 107.418 44.7568V44.7626H107.415Z" fill="white"/>
<path d="M119.465 26.8501L122.878 26.3789L127.918 39.819L132.828 26.6388H136.241L129.286 44.4885H126.399L119.471 26.8473H119.465V26.8501Z" fill="white"/>
<path d="M146.831 42.3597L147.273 44.4874H137.243V30.1562H146.831L147.25 32.3068H139.959V36.1623H144.637L145.08 38.3328H139.959V42.3569H146.831V42.3597Z" fill="white"/>
<path d="M151.359 34.9V44.4874H148.641V30.1562H151.359L157.997 39.7237V30.1562H160.736V44.4874H157.997L151.359 34.9Z" fill="white"/>
<path d="M162.741 30.1602H174.331L174.773 32.3107H169.864V44.4913H167.102V32.3107H162.741V30.1602Z" fill="white"/>
<path d="M176.563 30.1602H179.325V39.0736C179.325 40.2102 179.611 41.0642 180.179 41.6325C180.747 42.2008 181.51 42.4864 182.464 42.4864C183.418 42.4864 184.18 42.1951 184.749 41.6125C185.317 41.0299 185.603 40.1817 185.603 39.0736V30.1602H188.364V39.2849C188.364 40.3245 188.119 41.2555 187.627 42.0752C187.136 42.8977 186.439 43.5431 185.54 44.0144C184.64 44.4856 183.601 44.7198 182.421 44.7198C181.242 44.7198 180.228 44.4856 179.345 44.0144C178.46 43.5431 177.777 42.8948 177.3 42.0666C176.823 41.2384 176.583 40.3102 176.583 39.2849L176.563 30.1602Z" fill="white"/>
<path d="M191.734 44.4913V30.1602H196.221C197.877 30.1602 199.237 30.5371 200.299 31.2883C201.359 32.0394 201.89 33.1332 201.89 34.5669C201.89 36.0006 201.667 36.1776 201.225 36.8231C200.782 37.4685 200.188 37.974 199.445 38.3396L202.964 44.4913H200.057L197.021 39.0536H194.45V44.4913H191.731H191.734ZM199.003 34.6925C199.003 33.1903 198.049 32.4363 196.135 32.4363H194.45V36.8174H196.178C197.035 36.8174 197.72 36.646 198.232 36.3004C198.743 35.9577 199.003 35.418 199.003 34.6897V34.6925Z" fill="white"/>
<path d="M214.556 42.3597L214.999 44.4874H204.969V30.1562H214.556L214.976 32.3068H207.685V36.1623H212.363L212.805 38.3328H207.685V42.3569H214.556V42.3597Z" fill="white"/>
<path d="M220.645 44.7626C220.057 44.7626 219.32 44.6312 218.443 44.3713C217.566 44.1114 216.887 43.8344 216.41 43.5373L217.021 41.324C217.541 41.5896 218.129 41.8266 218.791 42.0294C219.451 42.2322 220.054 42.335 220.605 42.335C221.447 42.335 222.087 42.2008 222.524 41.9352C222.958 41.6696 223.178 41.2812 223.178 40.7756C223.178 40.2701 223.004 40.1045 222.661 39.8161C222.319 39.5276 221.787 39.1877 221.071 38.7936L220.439 38.4138C219.5 37.8512 218.751 37.3685 218.195 36.9601C217.638 36.5517 217.164 36.0719 216.764 35.5179C216.364 34.9638 216.161 34.3412 216.161 33.6529C216.161 32.9646 216.358 32.2649 216.749 31.6823C217.141 31.0997 217.709 30.6428 218.446 30.3143C219.183 29.9859 220.065 29.8174 221.09 29.8174C222.116 29.8174 223.647 30.1744 225.135 30.8912L224.229 33.0846C223.652 32.8047 223.13 32.5877 222.658 32.4306C222.187 32.2764 221.679 32.1992 221.13 32.1992C220.582 32.1992 219.982 32.322 219.583 32.5677C219.183 32.8133 218.98 33.176 218.98 33.6529C218.98 34.1299 219.14 34.4012 219.454 34.6753C219.768 34.9495 220.288 35.2979 221.002 35.7178L221.676 36.0976L222.287 36.4546C223.115 36.9315 223.775 37.3514 224.269 37.7084C224.76 38.0654 225.172 38.5023 225.503 39.0135C225.834 39.5247 226 40.1274 226 40.8156C226 41.5039 225.791 42.2693 225.377 42.8605C224.963 43.4488 224.352 43.9143 223.544 44.2513C222.736 44.5883 221.77 44.7568 220.648 44.7568V44.7626H220.645Z" fill="white"/>
<path d="M38.214 31.6855H17.0371V40.8503H38.214V31.6855Z" fill="white"/>
<path d="M31.9822 43.4551H23.2744V52.1629H31.9822V43.4551Z" fill="white"/>
<path d="M34.5493 19H9V28.6474H34.5493V19Z" fill="white"/>
<path d="M45.1853 19H36.4775V28.6474H45.1853V19Z" fill="white"/>
</g>
<defs>
<filter id="filter0_b_3692_5647" x="-4" y="-4" width="243" height="80" filterUnits="userSpaceOnUse" color-interpolation-filters="sRGB">
<feFlood flood-opacity="0" result="BackgroundImageFix"/>
<feGaussianBlur in="BackgroundImageFix" stdDeviation="2"/>
<feComposite in2="SourceAlpha" operator="in" result="effect1_backgroundBlur_3692_5647"/>
<feBlend mode="normal" in="SourceGraphic" in2="effect1_backgroundBlur_3692_5647" result="shape"/>
</filter>
</defs>
</svg>
