<svg width="84" height="100" viewBox="0 0 84 100" fill="none" xmlns="http://www.w3.org/2000/svg">
<g opacity="0.8" filter="url(#filter0_f_7734_28599)">
<path d="M73.3183 85C73.3183 87.7609 59.3356 90 42.087 90C24.8384 90 10.8557 87.7609 10.8557 85C10.8557 82.2391 24.8384 80 42.087 80C59.3356 80 73.3183 82.2391 73.3183 85Z" fill="black"/>
</g>
<g filter="url(#filter1_i_7734_28599)">
<path d="M44.2283 1.69336C24.7237 1.69336 6.31197 17.0975 3.10338 36.0996C1.35076 46.4743 4.49282 55.7761 10.8816 62.0842L17.6686 68.7877C22.9809 74.0327 30.5389 77.2083 39.3936 77.2083C58.8982 77.2083 77.3111 61.8042 80.5197 42.8021C82.2723 32.4274 79.1291 23.1246 72.7403 16.8164L65.9545 10.114C60.641 4.86899 53.0841 1.69336 44.2283 1.69336Z" fill="url(#paint0_linear_7734_28599)"/>
</g>
<g filter="url(#filter2_i_7734_28599)">
<path d="M44.2283 1.69336C24.7237 1.69336 6.31197 17.0975 3.10338 36.0996C1.35076 46.4743 4.49282 55.7761 10.8816 62.0842L17.6686 68.7877C22.9809 74.0327 30.5389 77.2083 39.3936 77.2083C58.8982 77.2083 77.3111 61.8042 80.5197 42.8021C82.2723 32.4274 79.1291 23.1246 72.7403 16.8164L65.9545 10.114C60.641 4.86899 53.0841 1.69336 44.2283 1.69336Z" fill="url(#paint1_radial_7734_28599)"/>
</g>
<mask id="path-4-inside-1_7734_28599" fill="white">
<path fill-rule="evenodd" clip-rule="evenodd" d="M32.5979 70.0701C52.3397 70.0701 70.3245 54.3844 72.768 35.0351C75.2116 15.6857 61.1885 0 41.4467 0C21.7049 0 3.72005 15.6857 1.27651 35.0351C-1.16703 54.3844 12.856 70.0701 32.5979 70.0701ZM17.14 25.8673C18.65 22.5473 20.81 19.6873 23.53 17.2673C26.32 14.7873 29.49 13.0073 33.21 12.3673C37.56 11.6173 41.79 11.9673 45.82 13.8673C48.34 15.0573 50.37 16.8673 52.17 18.9773C52.28 19.1073 52.3925 19.2398 52.505 19.3723C52.6175 19.5048 52.73 19.6373 52.84 19.7673L52.8523 19.7823C52.8908 19.8292 52.9361 19.8842 52.9 19.9473C52.85 20.0173 52.77 19.9973 52.71 19.9773C52.6 19.9473 52.5 19.9073 52.4 19.8573C50.26 18.8073 48.04 18.7673 45.74 19.2373C42.8 19.8373 40.39 21.4173 38.11 23.2373C35.33 25.4573 33.05 28.1473 31.2 31.1773C29.57 33.8473 28.42 36.7273 27.67 39.7673C27.29 41.2973 26.95 42.8173 26.83 44.3873C26.6 47.3573 26.83 50.2573 28.56 52.8273C29.01 53.4973 29.54 54.0973 30.19 54.5873H29.36C27.5 54.498 24.04 54.1388 20 48.998C18.5295 47.4384 17.742 45.5684 16.9227 43.6227L16.9226 43.6224L16.9219 43.6208C16.8222 43.3839 16.722 43.146 16.62 42.9073C15.7682 40.9444 15.0345 38.17 15 35.998C15.0779 32.2269 15.5315 29.4134 17.14 25.8673ZM33.5 54.498L33.4062 54.4981C32.9567 54.4988 32.6406 54.4992 32.3598 54.3588C29.6998 53.0988 28.5398 50.8188 28.1498 48.0388C28.1221 47.8542 28.1072 47.6695 28.0922 47.4849L28.0922 47.4849C28.0748 47.2695 28.0574 47.0541 28.0198 46.8388C27.9598 46.5188 28.0698 46.3588 28.3598 46.2388C30.1398 45.4888 31.6998 44.4088 33.0098 42.9988C34.8498 41.0188 36.1798 38.7288 37.0698 36.1788C37.2998 35.5288 37.8498 35.2788 38.5898 35.5588C39.1098 35.7538 39.6273 35.9538 40.1449 36.1538C40.6623 36.3538 41.1798 36.5538 41.6998 36.7488C42.9139 37.2055 44.1314 37.6589 45.3503 38.1129L45.3521 38.1135C46.2408 38.4445 47.1303 38.7758 48.0198 39.1088C49.3098 39.5888 49.8298 40.5388 49.4998 41.8688C48.8798 44.3988 47.9098 46.7788 46.3898 48.9088C44.4898 51.5688 41.9398 53.3188 38.8698 54.3688C38.8098 54.3888 37.8439 54.5988 36.878 54.5988H35.2878L33.5 54.498ZM56.7498 44.7488C57.4898 41.6888 57.9698 38.5988 57.9498 35.5788L57.9298 35.5888C57.9239 35.3039 57.9224 35.0308 57.9208 34.7659V34.7656C57.9171 34.1193 57.9136 33.5216 57.8498 32.9188C57.6298 30.7788 57.2498 28.6888 56.5398 26.6588C55.9098 24.8588 54.9898 23.2588 53.4898 22.0288C51.7398 20.5788 49.7198 20.0288 47.4798 20.2088C45.7098 20.3488 44.0898 20.9988 42.5198 21.7988C42.2198 21.9488 42.1598 22.0588 42.3198 22.3588C43.3698 24.2788 43.7598 26.3688 43.7898 28.5288C43.8198 30.8188 43.5698 33.0988 42.9098 35.3088C42.7998 35.6788 42.8998 35.8288 43.2498 35.9488C45.1698 36.6188 47.0498 37.3588 48.9298 38.1188C50.1698 38.6188 51.0498 39.9888 50.8698 41.1788C50.7198 42.1888 50.4998 43.1988 50.1898 44.1788C49.7998 45.4188 49.2798 46.6188 48.6198 47.7488C48.4498 48.0488 48.4698 48.2288 48.8398 48.3288C49.2696 48.4439 49.6699 48.6415 50.0725 48.8402L50.0725 48.8402C50.1945 48.9004 50.3166 48.9606 50.4398 49.0188C50.7219 49.1509 50.9977 49.2958 51.2734 49.4407L51.2735 49.4407L51.2735 49.4407C51.7699 49.7015 52.2662 49.9623 52.7998 50.1488C53.8498 50.5188 55.0598 49.9188 55.4498 48.8788C55.9598 47.5188 56.4098 46.1488 56.7498 44.7488Z"/>
</mask>
<g filter="url(#filter3_iii_7734_28599)">
<path fill-rule="evenodd" clip-rule="evenodd" d="M32.5979 70.0701C52.3397 70.0701 70.3245 54.3844 72.768 35.0351C75.2116 15.6857 61.1885 0 41.4467 0C21.7049 0 3.72005 15.6857 1.27651 35.0351C-1.16703 54.3844 12.856 70.0701 32.5979 70.0701ZM17.14 25.8673C18.65 22.5473 20.81 19.6873 23.53 17.2673C26.32 14.7873 29.49 13.0073 33.21 12.3673C37.56 11.6173 41.79 11.9673 45.82 13.8673C48.34 15.0573 50.37 16.8673 52.17 18.9773C52.28 19.1073 52.3925 19.2398 52.505 19.3723C52.6175 19.5048 52.73 19.6373 52.84 19.7673L52.8523 19.7823C52.8908 19.8292 52.9361 19.8842 52.9 19.9473C52.85 20.0173 52.77 19.9973 52.71 19.9773C52.6 19.9473 52.5 19.9073 52.4 19.8573C50.26 18.8073 48.04 18.7673 45.74 19.2373C42.8 19.8373 40.39 21.4173 38.11 23.2373C35.33 25.4573 33.05 28.1473 31.2 31.1773C29.57 33.8473 28.42 36.7273 27.67 39.7673C27.29 41.2973 26.95 42.8173 26.83 44.3873C26.6 47.3573 26.83 50.2573 28.56 52.8273C29.01 53.4973 29.54 54.0973 30.19 54.5873H29.36C27.5 54.498 24.04 54.1388 20 48.998C18.5295 47.4384 17.742 45.5684 16.9227 43.6227L16.9226 43.6224L16.9219 43.6208C16.8222 43.3839 16.722 43.146 16.62 42.9073C15.7682 40.9444 15.0345 38.17 15 35.998C15.0779 32.2269 15.5315 29.4134 17.14 25.8673ZM33.5 54.498L33.4062 54.4981C32.9567 54.4988 32.6406 54.4992 32.3598 54.3588C29.6998 53.0988 28.5398 50.8188 28.1498 48.0388C28.1221 47.8542 28.1072 47.6695 28.0922 47.4849L28.0922 47.4849C28.0748 47.2695 28.0574 47.0541 28.0198 46.8388C27.9598 46.5188 28.0698 46.3588 28.3598 46.2388C30.1398 45.4888 31.6998 44.4088 33.0098 42.9988C34.8498 41.0188 36.1798 38.7288 37.0698 36.1788C37.2998 35.5288 37.8498 35.2788 38.5898 35.5588C39.1098 35.7538 39.6273 35.9538 40.1449 36.1538C40.6623 36.3538 41.1798 36.5538 41.6998 36.7488C42.9139 37.2055 44.1314 37.6589 45.3503 38.1129L45.3521 38.1135C46.2408 38.4445 47.1303 38.7758 48.0198 39.1088C49.3098 39.5888 49.8298 40.5388 49.4998 41.8688C48.8798 44.3988 47.9098 46.7788 46.3898 48.9088C44.4898 51.5688 41.9398 53.3188 38.8698 54.3688C38.8098 54.3888 37.8439 54.5988 36.878 54.5988H35.2878L33.5 54.498ZM56.7498 44.7488C57.4898 41.6888 57.9698 38.5988 57.9498 35.5788L57.9298 35.5888C57.9239 35.3039 57.9224 35.0308 57.9208 34.7659V34.7656C57.9171 34.1193 57.9136 33.5216 57.8498 32.9188C57.6298 30.7788 57.2498 28.6888 56.5398 26.6588C55.9098 24.8588 54.9898 23.2588 53.4898 22.0288C51.7398 20.5788 49.7198 20.0288 47.4798 20.2088C45.7098 20.3488 44.0898 20.9988 42.5198 21.7988C42.2198 21.9488 42.1598 22.0588 42.3198 22.3588C43.3698 24.2788 43.7598 26.3688 43.7898 28.5288C43.8198 30.8188 43.5698 33.0988 42.9098 35.3088C42.7998 35.6788 42.8998 35.8288 43.2498 35.9488C45.1698 36.6188 47.0498 37.3588 48.9298 38.1188C50.1698 38.6188 51.0498 39.9888 50.8698 41.1788C50.7198 42.1888 50.4998 43.1988 50.1898 44.1788C49.7998 45.4188 49.2798 46.6188 48.6198 47.7488C48.4498 48.0488 48.4698 48.2288 48.8398 48.3288C49.2696 48.4439 49.6699 48.6415 50.0725 48.8402L50.0725 48.8402C50.1945 48.9004 50.3166 48.9606 50.4398 49.0188C50.7219 49.1509 50.9977 49.2958 51.2734 49.4407L51.2735 49.4407L51.2735 49.4407C51.7699 49.7015 52.2662 49.9623 52.7998 50.1488C53.8498 50.5188 55.0598 49.9188 55.4498 48.8788C55.9598 47.5188 56.4098 46.1488 56.7498 44.7488Z" fill="url(#paint2_linear_7734_28599)"/>
</g>
<path d="M72.768 35.0351L72.1728 34.9599L72.768 35.0351ZM1.27651 35.0351L0.68124 34.9599L1.27651 35.0351ZM23.53 17.2673L23.1314 16.8189L23.1312 16.8191L23.53 17.2673ZM17.14 25.8673L16.5939 25.6189L16.5936 25.6195L17.14 25.8673ZM33.21 12.3673L33.3118 12.9586L33.312 12.9586L33.21 12.3673ZM45.82 13.8673L46.0762 13.3248L46.0759 13.3246L45.82 13.8673ZM52.17 18.9773L52.6281 18.5898L52.6265 18.5879L52.17 18.9773ZM52.505 19.3723L52.0476 19.7607L52.0476 19.7607L52.505 19.3723ZM52.84 19.7673L53.305 19.388L53.2981 19.3798L52.84 19.7673ZM52.8523 19.7823L52.3873 20.1616L52.389 20.1636L52.8523 19.7823ZM52.9 19.9473L53.3883 20.2961L53.4059 20.2714L53.421 20.245L52.9 19.9473ZM52.71 19.9773L52.8998 19.4081L52.884 19.4029L52.8679 19.3985L52.71 19.9773ZM52.4 19.8573L52.6684 19.3207L52.6643 19.3187L52.4 19.8573ZM45.74 19.2373L45.86 19.8252L45.8601 19.8252L45.74 19.2373ZM38.11 23.2373L37.7357 22.7684L37.7356 22.7685L38.11 23.2373ZM31.2 31.1773L30.6879 30.8647L30.6879 30.8647L31.2 31.1773ZM27.67 39.7673L28.2523 39.912L28.2526 39.9111L27.67 39.7673ZM26.83 44.3873L27.4282 44.4337L27.4283 44.4331L26.83 44.3873ZM28.56 52.8273L29.0581 52.4928L29.0578 52.4923L28.56 52.8273ZM30.19 54.5873V55.1873H31.9827L30.5512 54.1082L30.19 54.5873ZM29.36 54.5873L29.3313 55.1866L29.3456 55.1873H29.36V54.5873ZM20 48.998L20.4718 48.6273L20.4551 48.6061L20.4366 48.5864L20 48.998ZM16.9227 43.6227L16.3681 43.8517L16.3697 43.8555L16.9227 43.6227ZM16.9226 43.6224L17.4772 43.3933L17.4755 43.3894L16.9226 43.6224ZM16.9219 43.6208L16.3689 43.8536L16.369 43.8537L16.9219 43.6208ZM16.62 42.9073L17.1718 42.6716L17.1704 42.6685L16.62 42.9073ZM15 35.998L14.4002 35.9856L14.3999 35.9966L14.4001 36.0076L15 35.998ZM33.4062 54.4981L33.4056 53.8981H33.4053L33.4062 54.4981ZM33.5 54.498L33.5338 53.899L33.5166 53.898L33.4995 53.898L33.5 54.498ZM32.3598 54.3588L32.6282 53.822L32.6166 53.8165L32.3598 54.3588ZM28.1498 48.0388L28.744 47.9554L28.7431 47.9498L28.1498 48.0388ZM28.0922 47.4849L28.6903 47.4366L28.6892 47.4235L28.6876 47.4105L28.0922 47.4849ZM28.0922 47.4849L27.4942 47.5332L27.4952 47.5463L27.4969 47.5593L28.0922 47.4849ZM28.0198 46.8388L28.6108 46.7353L28.6095 46.7282L28.0198 46.8388ZM28.3598 46.2388L28.5892 46.7932L28.5927 46.7917L28.3598 46.2388ZM33.0098 42.9988L32.5702 42.5903L32.5702 42.5904L33.0098 42.9988ZM37.0698 36.1788L36.5041 35.9786L36.5033 35.9811L37.0698 36.1788ZM38.5898 35.5588L38.3774 36.12L38.3791 36.1206L38.5898 35.5588ZM40.1449 36.1538L40.3612 35.5942L40.1449 36.1538ZM41.6998 36.7488L41.911 36.1872L41.9104 36.187L41.6998 36.7488ZM45.3503 38.1129L45.1409 38.6751L45.142 38.6756L45.3503 38.1129ZM45.3521 38.1135L45.5615 37.5513L45.5603 37.5508L45.3521 38.1135ZM48.0198 39.1088L47.8094 39.6707L47.8105 39.6711L48.0198 39.1088ZM49.4998 41.8688L48.9174 41.7243L48.917 41.726L49.4998 41.8688ZM46.3898 48.9088L46.878 49.2575L46.8782 49.2573L46.3898 48.9088ZM38.8698 54.3688L39.0595 54.938L39.0639 54.9365L38.8698 54.3688ZM35.2878 54.5988L35.2541 55.1978L35.2709 55.1988H35.2878V54.5988ZM57.9498 35.5788L58.5497 35.5748L58.5434 34.6111L57.6814 35.0421L57.9498 35.5788ZM56.7498 44.7488L57.3328 44.8904L57.3329 44.8898L56.7498 44.7488ZM57.9298 35.5888L57.3299 35.601L57.3492 36.5499L58.1981 36.1254L57.9298 35.5888ZM57.9208 34.7659H57.3208L57.3208 34.7694L57.9208 34.7659ZM57.9208 34.7656H58.5208L58.5208 34.7621L57.9208 34.7656ZM57.8498 32.9188L57.2529 32.9801L57.2531 32.9819L57.8498 32.9188ZM56.5398 26.6588L57.1061 26.4607L57.1061 26.4605L56.5398 26.6588ZM53.4898 22.0288L53.1069 22.4908L53.1093 22.4927L53.4898 22.0288ZM47.4798 20.2088L47.5271 20.8069L47.5278 20.8068L47.4798 20.2088ZM42.5198 21.7988L42.7881 22.3354L42.7922 22.3334L42.5198 21.7988ZM42.3198 22.3588L41.7903 22.6411L41.7933 22.6466L42.3198 22.3588ZM43.7898 28.5288L44.3897 28.5209L44.3897 28.5204L43.7898 28.5288ZM42.9098 35.3088L42.3348 35.1371L42.3346 35.1378L42.9098 35.3088ZM43.2498 35.9488L43.4474 35.3823L43.4444 35.3812L43.2498 35.9488ZM48.9298 38.1188L48.7049 38.675L48.7054 38.6752L48.9298 38.1188ZM50.8698 41.1788L50.2765 41.089L50.2763 41.0906L50.8698 41.1788ZM50.1898 44.1788L49.6177 43.9978L49.6174 43.9987L50.1898 44.1788ZM48.6198 47.7488L48.1016 47.4461L48.0977 47.4529L48.6198 47.7488ZM48.8398 48.3288L48.6832 48.908L48.6845 48.9083L48.8398 48.3288ZM50.0725 48.8402L50.3812 48.3257L50.3601 48.313L50.338 48.3021L50.0725 48.8402ZM50.0725 48.8402L49.7638 49.3547L49.7849 49.3673L49.807 49.3782L50.0725 48.8402ZM50.4398 49.0188L50.1838 49.5614L50.1853 49.5621L50.4398 49.0188ZM51.2734 49.4407L50.9944 49.9718L51.0375 49.9945L51.0837 50.0099L51.2734 49.4407ZM51.2735 49.4407L51.5526 48.9096L51.5095 48.8869L51.4632 48.8715L51.2735 49.4407ZM52.7998 50.1488L52.9992 49.5829L52.9977 49.5823L52.7998 50.1488ZM55.4498 48.8788L56.0116 49.0894L55.4498 48.8788ZM72.1728 34.9599C69.7678 54.0037 52.0431 69.4701 32.5979 69.4701V70.6701C52.6363 70.6701 70.8812 54.7652 73.3633 35.1102L72.1728 34.9599ZM41.4467 0.6C60.8357 0.6 74.57 15.9772 72.1728 34.9599L73.3633 35.1102C75.8532 15.3943 61.5414 -0.6 41.4467 -0.6V0.6ZM1.87178 35.1102C4.27673 16.0665 22.0014 0.6 41.4467 0.6V-0.6C21.4083 -0.6 3.16337 15.305 0.68124 34.9599L1.87178 35.1102ZM32.5979 69.4701C13.2088 69.4701 -0.525457 54.093 1.87178 35.1102L0.68124 34.9599C-1.8086 54.6759 12.5032 70.6701 32.5979 70.6701V69.4701ZM23.1312 16.8191C20.3522 19.2915 18.1404 22.2186 16.5939 25.6189L17.6862 26.1157C19.1596 22.8761 21.2678 20.0831 23.9288 17.7156L23.1312 16.8191ZM33.1083 11.776C29.254 12.4391 25.9849 14.2825 23.1314 16.8189L23.9286 17.7158C26.6552 15.2922 29.7261 13.5755 33.3118 12.9586L33.1083 11.776ZM46.0759 13.3246C41.9159 11.3633 37.5576 11.0089 33.1081 11.7761L33.312 12.9586C37.5625 12.2258 41.6642 12.5713 45.5642 14.41L46.0759 13.3246ZM52.6265 18.5879C50.7929 16.4386 48.6983 14.563 46.0762 13.3248L45.5638 14.4099C47.9817 15.5517 49.9471 17.2961 51.7136 19.3667L52.6265 18.5879ZM52.9624 18.984C52.8498 18.8514 52.7377 18.7193 52.6281 18.5898L51.712 19.3649C51.8224 19.4954 51.9352 19.6282 52.0476 19.7607L52.9624 18.984ZM53.2981 19.3798C53.1877 19.2493 53.0748 19.1164 52.9624 18.984L52.0476 19.7607C52.1602 19.8932 52.2724 20.0254 52.382 20.1549L53.2981 19.3798ZM53.3172 19.4031L53.3049 19.3881L52.3751 20.1466L52.3873 20.1616L53.3172 19.4031ZM53.421 20.245C53.5505 20.0183 53.5252 19.787 53.4568 19.6251C53.4049 19.5024 53.322 19.409 53.3155 19.401L52.389 20.1636C52.4008 20.1779 52.3977 20.1746 52.393 20.168C52.3878 20.1607 52.3691 20.1341 52.3515 20.0924C52.333 20.0487 52.3119 19.9796 52.3133 19.8923C52.3147 19.801 52.3403 19.7176 52.3791 19.6497L53.421 20.245ZM52.5203 20.5465C52.5549 20.5581 52.6798 20.6013 52.831 20.5957C53.0191 20.5887 53.2381 20.5063 53.3883 20.2961L52.4118 19.5986C52.4535 19.5402 52.5138 19.4851 52.5915 19.4466C52.6666 19.4095 52.7365 19.3983 52.7866 19.3965C52.8702 19.3934 52.9252 19.4166 52.8998 19.4081L52.5203 20.5465ZM52.1317 20.394C52.2617 20.459 52.3987 20.5143 52.5521 20.5562L52.8679 19.3985C52.8013 19.3803 52.7383 19.3557 52.6684 19.3207L52.1317 20.394ZM45.8601 19.8252C48.0775 19.3721 50.152 19.4227 52.1357 20.396L52.6643 19.3187C50.368 18.192 48.0026 18.1626 45.6199 18.6495L45.8601 19.8252ZM38.4843 23.7063C40.7415 21.9045 43.0611 20.3964 45.86 19.8252L45.62 18.6495C42.539 19.2782 40.0385 20.9302 37.7357 22.7684L38.4843 23.7063ZM31.7121 31.49C33.5299 28.5128 35.765 25.8778 38.4844 23.7062L37.7356 22.7685C34.895 25.0369 32.5702 27.7819 30.6879 30.8647L31.7121 31.49ZM28.2526 39.9111C28.9894 36.9245 30.1172 34.1025 31.7121 31.49L30.6879 30.8647C29.0228 33.5922 27.8507 36.5301 27.0875 39.6236L28.2526 39.9111ZM27.4283 44.4331C27.5442 42.9161 27.8736 41.4371 28.2523 39.912L27.0877 39.6227C26.7065 41.1576 26.3558 42.7185 26.2318 44.3416L27.4283 44.4331ZM29.0578 52.4923C27.439 50.0876 27.2023 47.3508 27.4282 44.4337L26.2318 44.341C25.9977 47.3638 26.221 50.4271 28.0623 53.1624L29.0578 52.4923ZM30.5512 54.1082C29.965 53.6663 29.4789 53.1193 29.0581 52.4928L28.0619 53.1619C28.5411 53.8754 29.115 54.5284 29.8288 55.0664L30.5512 54.1082ZM29.36 55.1873H30.19V53.9873H29.36V55.1873ZM19.5283 49.3688C21.5968 52.0009 23.5433 53.4417 25.245 54.2312C26.9493 55.022 28.3683 55.1404 29.3313 55.1866L29.3888 53.988C28.4917 53.945 27.2508 53.839 25.7501 53.1427C24.2467 52.4451 22.4433 51.136 20.4718 48.6273L19.5283 49.3688ZM16.3697 43.8555C17.1828 45.7862 18.0069 47.7588 19.5635 49.4097L20.4366 48.5864C19.0521 47.118 18.3013 45.3505 17.4757 43.3898L16.3697 43.8555ZM16.3681 43.8515L16.3682 43.8517L17.4773 43.3936L17.4772 43.3933L16.3681 43.8515ZM16.369 43.8537L16.3697 43.8554L17.4755 43.3894L17.4748 43.3878L16.369 43.8537ZM16.0683 43.1431C16.1695 43.38 16.2691 43.6166 16.3689 43.8536L17.4749 43.3879C17.3753 43.1513 17.2745 42.9119 17.1718 42.6716L16.0683 43.1431ZM14.4001 36.0076C14.4362 38.2782 15.1952 41.1313 16.0696 43.1462L17.1704 42.6685C16.3411 40.7575 15.6329 38.0619 15.5999 35.9885L14.4001 36.0076ZM16.5936 25.6195C14.9434 29.2574 14.4793 32.1554 14.4002 35.9856L15.5999 36.0104C15.6766 32.2985 16.1196 29.5694 17.6864 26.1152L16.5936 25.6195ZM33.4067 55.0981L33.5006 55.098L33.4995 53.898L33.4056 53.8981L33.4067 55.0981ZM32.0914 54.8954C32.5248 55.1121 32.9994 55.0987 33.407 55.0981L33.4053 53.8981C32.9141 53.8988 32.7564 53.8863 32.6281 53.8221L32.0914 54.8954ZM27.5556 48.1221C27.9634 51.0292 29.2026 53.5272 32.1029 54.901L32.6166 53.8165C30.1969 52.6704 29.1161 50.6083 28.7439 47.9554L27.5556 48.1221ZM27.4942 47.5332C27.5088 47.7146 27.5252 47.9196 27.5564 48.1278L28.7431 47.9498C28.719 47.7888 28.7055 47.6245 28.6903 47.4366L27.4942 47.5332ZM27.4969 47.5593L27.4969 47.5594L28.6876 47.4105L28.6876 47.4105L27.4969 47.5593ZM27.4287 46.9422C27.4608 47.1257 27.4764 47.3134 27.4942 47.5332L28.6903 47.4366C28.6732 47.2256 28.654 46.9826 28.6108 46.7354L27.4287 46.9422ZM28.1303 45.6844C27.9354 45.7651 27.695 45.9001 27.5422 46.1581C27.3837 46.4259 27.3855 46.712 27.43 46.9494L28.6095 46.7282C28.6019 46.6877 28.6047 46.6778 28.6036 46.6887C28.603 46.6949 28.6011 46.7065 28.5963 46.7216C28.5914 46.737 28.5843 46.7534 28.5748 46.7695C28.5549 46.8031 28.5343 46.8194 28.5313 46.8216C28.5307 46.822 28.5456 46.8112 28.5892 46.7932L28.1303 45.6844ZM32.5702 42.5904C31.3195 43.9365 29.8305 44.968 28.1268 45.6859L28.5927 46.7917C30.449 46.0096 32.08 44.881 33.4493 43.4072L32.5702 42.5904ZM36.5033 35.9811C35.6384 38.4591 34.3494 40.6758 32.5702 42.5903L33.4493 43.4072C35.3501 41.3618 36.7211 38.9984 37.6362 36.3765L36.5033 35.9811ZM38.8021 34.9976C38.335 34.8209 37.8468 34.7817 37.406 34.9669C36.9579 35.1552 36.6621 35.5322 36.5041 35.9786L37.6354 36.3789C37.7074 36.1753 37.8016 36.1023 37.871 36.0732C37.9478 36.0409 38.1045 36.0167 38.3774 36.1199L38.8021 34.9976ZM40.3612 35.5942C39.8441 35.3943 39.3238 35.1932 38.8004 34.997L38.3791 36.1206C38.8958 36.3144 39.4106 36.5133 39.9286 36.7135L40.3612 35.5942ZM41.9104 36.187C41.3938 35.9932 40.8791 35.7943 40.3612 35.5942L39.9286 36.7135C40.4456 36.9133 40.9658 37.1144 41.4891 37.3106L41.9104 36.187ZM45.5597 37.5506C44.3406 37.0966 43.1241 36.6435 41.911 36.1872L41.4885 37.3104C42.7037 37.7675 43.9222 38.2213 45.1409 38.6751L45.5597 37.5506ZM45.5603 37.5508L45.5586 37.5502L45.142 38.6756L45.1438 38.6762L45.5603 37.5508ZM48.2301 38.5469C47.3401 38.2136 46.4501 37.8822 45.5615 37.5513L45.1427 38.6758C46.0315 39.0068 46.9205 39.3379 47.8094 39.6707L48.2301 38.5469ZM50.0821 42.0133C50.2729 41.2444 50.234 40.5134 49.8954 39.8853C49.5578 39.2591 48.9689 38.8217 48.229 38.5464L47.8105 39.6711C48.3607 39.8758 48.6767 40.1535 48.8391 40.4547C49.0005 40.7542 49.0566 41.1632 48.9174 41.7243L50.0821 42.0133ZM46.8782 49.2573C48.4519 47.052 49.4488 44.5977 50.0825 42.0116L48.917 41.726C48.3108 44.1998 47.3676 46.5056 45.9014 48.5603L46.8782 49.2573ZM39.0639 54.9365C42.2371 53.8512 44.8964 52.0318 46.878 49.2575L45.9015 48.56C44.0831 51.1058 41.6424 52.7864 38.6756 53.8011L39.0639 54.9365ZM36.878 55.1988C37.4006 55.1988 37.9151 55.1423 38.3019 55.0847C38.4966 55.0558 38.6624 55.026 38.7852 55.0018C38.8866 54.9818 39.0004 54.9577 39.0595 54.938L38.68 53.7996C38.7091 53.7899 38.6797 53.7995 38.553 53.8245C38.4476 53.8453 38.3003 53.8718 38.1253 53.8978C37.7728 53.9503 37.3213 53.9988 36.878 53.9988V55.1988ZM35.2878 55.1988H36.878V53.9988H35.2878V55.1988ZM33.4663 55.0971L35.2541 55.1978L35.3216 53.9997L33.5338 53.899L33.4663 55.0971ZM57.3498 35.5827C57.3693 38.5385 56.8994 41.5775 56.1666 44.6077L57.3329 44.8898C58.0801 41.8 58.5702 38.659 58.5497 35.5748L57.3498 35.5827ZM58.1981 36.1254L58.2181 36.1154L57.6814 35.0421L57.6614 35.0521L58.1981 36.1254ZM57.3208 34.7694C57.3224 35.0337 57.324 35.3111 57.3299 35.601L58.5296 35.5765C58.5239 35.2967 58.5223 35.0279 58.5208 34.7624L57.3208 34.7694ZM57.3208 34.7656V34.7659H58.5208V34.7656H57.3208ZM57.2531 32.9819C57.3132 33.5499 57.317 34.1175 57.3208 34.7691L58.5208 34.7621C58.5171 34.1212 58.5139 33.4932 58.4464 32.8556L57.2531 32.9819ZM55.9734 26.8568C56.6631 28.8289 57.0359 30.8696 57.2529 32.9801L58.4466 32.8574C58.2236 30.6879 57.8364 28.5487 57.1061 26.4607L55.9734 26.8568ZM53.1093 22.4927C54.4986 23.632 55.3671 25.1247 55.9734 26.857L57.1061 26.4605C56.4524 24.5929 55.4809 22.8855 53.8702 21.5648L53.1093 22.4927ZM47.5278 20.8068C49.6286 20.638 51.4896 21.1507 53.1069 22.4908L53.8726 21.5667C51.9899 20.0068 49.8109 19.4195 47.4317 19.6107L47.5278 20.8068ZM42.7922 22.3334C44.3357 21.5469 45.8729 20.9377 47.5271 20.8069L47.4324 19.6106C45.5466 19.7598 43.8438 20.4507 42.2473 21.2642L42.7922 22.3334ZM42.8492 22.0764C42.8203 22.0223 42.8223 22.0141 42.827 22.0356C42.8339 22.0667 42.8432 22.1454 42.8066 22.2396C42.7722 22.3281 42.72 22.3713 42.7133 22.3767C42.7099 22.3794 42.7263 22.3663 42.7881 22.3354L42.2514 21.2621C42.1151 21.3303 41.8134 21.482 41.6879 21.8054C41.5506 22.1593 41.705 22.481 41.7903 22.6411L42.8492 22.0764ZM44.3897 28.5204C44.3588 26.2942 43.9562 24.1006 42.8462 22.0709L41.7933 22.6466C42.7833 24.4569 43.1607 26.4434 43.1898 28.5371L44.3897 28.5204ZM43.4847 35.4804C44.1652 33.2015 44.4203 30.8594 44.3897 28.5209L43.1898 28.5366C43.2192 30.7781 42.9743 32.996 42.3348 35.1371L43.4847 35.4804ZM43.4444 35.3812C43.4141 35.3708 43.3925 35.3622 43.3777 35.3554C43.3627 35.3486 43.3575 35.3452 43.3589 35.3461C43.3632 35.3488 43.4 35.3741 43.4314 35.4306C43.4464 35.4575 43.4561 35.4843 43.4615 35.5081C43.4668 35.5312 43.4673 35.5474 43.4672 35.5535C43.4672 35.5592 43.4667 35.5565 43.4691 35.5432C43.4714 35.5299 43.4761 35.5093 43.4849 35.4797L42.3346 35.1378C42.267 35.3651 42.2065 35.6974 42.3831 36.0145C42.5531 36.3198 42.8556 36.4479 43.0552 36.5163L43.4444 35.3812ZM49.1546 37.5625C47.2721 36.8015 45.3814 36.0571 43.4474 35.3823L43.0521 36.5153C44.9581 37.1804 46.8275 37.9161 48.7049 38.675L49.1546 37.5625ZM51.463 41.2685C51.5794 40.4992 51.3501 39.7146 50.9384 39.0678C50.5252 38.4187 49.9009 37.8634 49.1541 37.5623L48.7054 38.6752C49.1986 38.8741 49.6343 39.2538 49.9261 39.7122C50.2194 40.173 50.3401 40.6683 50.2765 41.089L51.463 41.2685ZM50.7618 44.3597C51.0828 43.3449 51.3093 42.3033 51.4632 41.2669L50.2763 41.0906C50.1302 42.0742 49.9167 43.0526 49.6177 43.9978L50.7618 44.3597ZM49.1379 48.0514C49.8219 46.8801 50.3596 45.6386 50.7621 44.3588L49.6174 43.9987C49.2399 45.1989 48.7376 46.3574 48.1017 47.4461L49.1379 48.0514ZM48.9963 47.7495C48.9398 47.7343 48.9414 47.7271 48.9678 47.7455C49.0032 47.77 49.067 47.8303 49.0994 47.9331C49.1293 48.0277 49.1128 48.0966 49.1099 48.1072C49.1077 48.1155 49.1116 48.0977 49.1418 48.0446L48.0977 47.4529C48.01 47.6077 47.8413 47.9339 47.9551 48.2944C48.0834 48.7008 48.4582 48.8472 48.6832 48.908L48.9963 47.7495ZM50.338 48.3021C49.9448 48.108 49.4916 47.8822 48.995 47.7492L48.6845 48.9083C49.0475 49.0056 49.3951 49.1749 49.8069 49.3782L50.338 48.3021ZM50.3812 48.3257L50.3812 48.3257L49.7638 49.3547L49.7638 49.3547L50.3812 48.3257ZM50.6957 48.4761C50.5782 48.4206 50.4608 48.3627 50.3381 48.3022L49.807 49.3782C49.9281 49.438 50.055 49.5007 50.1838 49.5614L50.6957 48.4761ZM51.5525 48.9096C51.2788 48.7657 50.9909 48.6143 50.6942 48.4754L50.1853 49.5621C50.4529 49.6875 50.7166 49.8259 50.9944 49.9718L51.5525 48.9096ZM51.4632 48.8715L51.4632 48.8715L51.0837 50.0099L51.0837 50.0099L51.4632 48.8715ZM51.4632 48.8715L51.4632 48.8715L51.0837 50.0099L51.0838 50.0099L51.4632 48.8715ZM52.9977 49.5823C52.5129 49.413 52.0554 49.1738 51.5526 48.9096L50.9944 49.9719C51.4844 50.2293 52.0195 50.5117 52.6018 50.7152L52.9977 49.5823ZM54.888 48.6681C54.6069 49.4175 53.7258 49.8389 52.9992 49.5829L52.6003 50.7147C53.9737 51.1986 55.5126 50.42 56.0116 49.0894L54.888 48.6681ZM56.1667 44.6072C55.8341 45.9769 55.3924 47.3229 54.888 48.6681L56.0116 49.0894C56.5271 47.7146 56.9855 46.3206 57.3328 44.8904L56.1667 44.6072Z" fill="white" fill-opacity="0.2" mask="url(#path-4-inside-1_7734_28599)"/>
<defs>
<filter id="filter0_f_7734_28599" x="0.855713" y="70" width="82.4626" height="30" filterUnits="userSpaceOnUse" color-interpolation-filters="sRGB">
<feFlood flood-opacity="0" result="BackgroundImageFix"/>
<feBlend mode="normal" in="SourceGraphic" in2="BackgroundImageFix" result="shape"/>
<feGaussianBlur stdDeviation="5" result="effect1_foregroundBlur_7734_28599"/>
</filter>
<filter id="filter1_i_7734_28599" x="2.6228" y="-10.3066" width="78.3774" height="87.5146" filterUnits="userSpaceOnUse" color-interpolation-filters="sRGB">
<feFlood flood-opacity="0" result="BackgroundImageFix"/>
<feBlend mode="normal" in="SourceGraphic" in2="BackgroundImageFix" result="shape"/>
<feColorMatrix in="SourceAlpha" type="matrix" values="0 0 0 0 0 0 0 0 0 0 0 0 0 0 0 0 0 0 127 0" result="hardAlpha"/>
<feOffset dy="-12"/>
<feGaussianBlur stdDeviation="14"/>
<feComposite in2="hardAlpha" operator="arithmetic" k2="-1" k3="1"/>
<feColorMatrix type="matrix" values="0 0 0 0 0.908698 0 0 0 0 0.995833 0 0 0 0 0.990605 0 0 0 0.25 0"/>
<feBlend mode="normal" in2="shape" result="effect1_innerShadow_7734_28599"/>
</filter>
<filter id="filter2_i_7734_28599" x="2.6228" y="-10.3066" width="78.3774" height="87.5146" filterUnits="userSpaceOnUse" color-interpolation-filters="sRGB">
<feFlood flood-opacity="0" result="BackgroundImageFix"/>
<feBlend mode="normal" in="SourceGraphic" in2="BackgroundImageFix" result="shape"/>
<feColorMatrix in="SourceAlpha" type="matrix" values="0 0 0 0 0 0 0 0 0 0 0 0 0 0 0 0 0 0 127 0" result="hardAlpha"/>
<feOffset dy="-12"/>
<feGaussianBlur stdDeviation="14"/>
<feComposite in2="hardAlpha" operator="arithmetic" k2="-1" k3="1"/>
<feColorMatrix type="matrix" values="0 0 0 0 0.908698 0 0 0 0 0.995833 0 0 0 0 0.990605 0 0 0 0.25 0"/>
<feBlend mode="normal" in2="shape" result="effect1_innerShadow_7734_28599"/>
</filter>
<filter id="filter3_iii_7734_28599" x="1" y="-10" width="72.0447" height="80.0703" filterUnits="userSpaceOnUse" color-interpolation-filters="sRGB">
<feFlood flood-opacity="0" result="BackgroundImageFix"/>
<feBlend mode="normal" in="SourceGraphic" in2="BackgroundImageFix" result="shape"/>
<feColorMatrix in="SourceAlpha" type="matrix" values="0 0 0 0 0 0 0 0 0 0 0 0 0 0 0 0 0 0 127 0" result="hardAlpha"/>
<feOffset dy="-4"/>
<feGaussianBlur stdDeviation="5"/>
<feComposite in2="hardAlpha" operator="arithmetic" k2="-1" k3="1"/>
<feColorMatrix type="matrix" values="0 0 0 0 1 0 0 0 0 1 0 0 0 0 1 0 0 0 0.5 0"/>
<feBlend mode="normal" in2="shape" result="effect1_innerShadow_7734_28599"/>
<feColorMatrix in="SourceAlpha" type="matrix" values="0 0 0 0 0 0 0 0 0 0 0 0 0 0 0 0 0 0 127 0" result="hardAlpha"/>
<feOffset dy="-2"/>
<feGaussianBlur stdDeviation="4"/>
<feComposite in2="hardAlpha" operator="arithmetic" k2="-1" k3="1"/>
<feColorMatrix type="matrix" values="0 0 0 0 1 0 0 0 0 1 0 0 0 0 1 0 0 0 0.5 0"/>
<feBlend mode="normal" in2="effect1_innerShadow_7734_28599" result="effect2_innerShadow_7734_28599"/>
<feColorMatrix in="SourceAlpha" type="matrix" values="0 0 0 0 0 0 0 0 0 0 0 0 0 0 0 0 0 0 127 0" result="hardAlpha"/>
<feOffset dy="-10"/>
<feGaussianBlur stdDeviation="26"/>
<feComposite in2="hardAlpha" operator="arithmetic" k2="-1" k3="1"/>
<feColorMatrix type="matrix" values="0 0 0 0 1 0 0 0 0 1 0 0 0 0 1 0 0 0 0.25 0"/>
<feBlend mode="normal" in2="effect2_innerShadow_7734_28599" result="effect3_innerShadow_7734_28599"/>
</filter>
<linearGradient id="paint0_linear_7734_28599" x1="77.6585" y1="1.69336" x2="6.57205" y2="1.69336" gradientUnits="userSpaceOnUse">
<stop stop-color="#83F8FF"/>
<stop offset="0.171875" stop-color="#99F9FF"/>
<stop offset="0.416052" stop-color="#37B6D2"/>
<stop offset="0.65625" stop-color="#28C2F2"/>
<stop offset="1" stop-color="#8AEBF1"/>
</linearGradient>
<radialGradient id="paint1_radial_7734_28599" cx="0" cy="0" r="1" gradientUnits="userSpaceOnUse" gradientTransform="translate(40.0166 38.9264) rotate(28.6758) scale(42.6213 77.8746)">
<stop stop-color="#2CBBF9"/>
<stop offset="0.34375" stop-color="#005555"/>
<stop offset="1" stop-color="#45F0F0" stop-opacity="0"/>
</radialGradient>
<linearGradient id="paint2_linear_7734_28599" x1="21.3682" y1="24.3485" x2="51.5506" y2="43.5567" gradientUnits="userSpaceOnUse">
<stop stop-color="white"/>
<stop offset="0.71875" stop-color="#2CBBF9"/>
<stop offset="1" stop-color="#498EFC"/>
</linearGradient>
</defs>
</svg>
