<svg width="84" height="100" viewBox="0 0 84 100" fill="none" xmlns="http://www.w3.org/2000/svg">
<g opacity="0.8" filter="url(#filter0_f_6056_13856)">
<path d="M73.3064 85C73.3064 87.7609 59.3031 90 42.0292 90C24.7552 90 10.752 87.7609 10.752 85C10.752 82.2391 24.7552 80 42.0292 80C59.3031 80 73.3064 82.2391 73.3064 85Z" fill="black"/>
</g>
<g filter="url(#filter1_i_6056_13856)">
<path d="M44.1735 1.71484C24.6403 1.71484 6.20143 17.3336 2.98812 36.6004C1.23292 47.1195 4.3796 56.5508 10.7778 62.9469L17.5747 69.7438C22.8949 75.0618 30.464 78.2817 39.3317 78.2817C58.865 78.2817 77.3049 62.6629 80.5182 43.3961C82.2734 32.877 79.1257 23.4446 72.7274 17.0485L65.9316 10.2527C60.6104 4.93471 53.0424 1.71484 44.1735 1.71484Z" fill="url(#paint0_linear_6056_13856)"/>
</g>
<g filter="url(#filter2_i_6056_13856)">
<path d="M44.1735 1.71484C24.6403 1.71484 6.20143 17.3336 2.98812 36.6004C1.23292 47.1195 4.3796 56.5508 10.7778 62.9469L17.5747 69.7438C22.8949 75.0618 30.464 78.2817 39.3317 78.2817C58.865 78.2817 77.3049 62.6629 80.5182 43.3961C82.2734 32.877 79.1257 23.4446 72.7274 17.0485L65.9316 10.2527C60.6104 4.93471 53.0424 1.71484 44.1735 1.71484Z" fill="url(#paint1_radial_6056_13856)"/>
</g>
<mask id="path-4-inside-1_6056_13856" fill="white">
<path fill-rule="evenodd" clip-rule="evenodd" d="M32.8417 71.4893C52.7359 71.4893 70.8596 55.4859 73.322 35.7447C75.7844 16.0034 61.6531 0 41.7589 0C21.8647 0 3.74105 16.0034 1.27865 35.7447C-1.18375 55.4859 12.9475 71.4893 32.8417 71.4893ZM37.6514 50.6707L38.2326 46.3031L34.1393 48.5281L30.7206 46.3031L30.1394 50.6707L33.5581 52.8956L37.6514 50.6707ZM23.2683 33.4478L19.8497 31.2228L18.2596 43.1717L27.5411 49.1049L28.1223 44.7374L22.2704 40.9468L23.2683 33.4478ZM51.4445 43.1717L53.0346 31.2228L48.9412 33.4478L47.9433 40.9468L41.0826 44.7374L40.5014 49.1049L51.4445 43.1717ZM47.0892 27.5146L43.588 25.2896L36.6447 29.0803L30.7928 25.2896L26.6995 27.5146L26.1183 31.8821L32.2178 35.6728L31.2089 43.2541L34.6276 45.4791L38.6384 43.2541L39.6472 35.6728L46.508 31.8821L47.0892 27.5146ZM29.1202 37.2385L25.7016 35.0135L25.1204 39.381L28.539 41.606L29.1202 37.2385ZM45.5101 39.381L46.0913 35.0135L42.0805 37.2385L41.4993 41.606L45.5101 39.381ZM28.3596 23.7239L24.8584 21.4989L20.8476 23.7239L20.2664 28.0914L23.6851 30.3164L24.2663 25.9489L28.3596 23.7239ZM54.115 23.7239L50.6138 21.4989L46.603 23.7239L50.0217 25.9489L49.4405 30.3164L53.5338 28.0914L54.115 23.7239ZM41.2373 23.7239L37.7361 21.4989L33.7253 23.7239L37.144 25.9489L41.2373 23.7239ZM48.0981 19.9332L38.734 14L27.8735 19.9332L31.2095 22.1582L38.2354 18.3675L44.0873 22.1582L48.0981 19.9332Z"/>
</mask>
<g filter="url(#filter3_iii_6056_13856)">
<path fill-rule="evenodd" clip-rule="evenodd" d="M32.8417 71.4893C52.7359 71.4893 70.8596 55.4859 73.322 35.7447C75.7844 16.0034 61.6531 0 41.7589 0C21.8647 0 3.74105 16.0034 1.27865 35.7447C-1.18375 55.4859 12.9475 71.4893 32.8417 71.4893ZM37.6514 50.6707L38.2326 46.3031L34.1393 48.5281L30.7206 46.3031L30.1394 50.6707L33.5581 52.8956L37.6514 50.6707ZM23.2683 33.4478L19.8497 31.2228L18.2596 43.1717L27.5411 49.1049L28.1223 44.7374L22.2704 40.9468L23.2683 33.4478ZM51.4445 43.1717L53.0346 31.2228L48.9412 33.4478L47.9433 40.9468L41.0826 44.7374L40.5014 49.1049L51.4445 43.1717ZM47.0892 27.5146L43.588 25.2896L36.6447 29.0803L30.7928 25.2896L26.6995 27.5146L26.1183 31.8821L32.2178 35.6728L31.2089 43.2541L34.6276 45.4791L38.6384 43.2541L39.6472 35.6728L46.508 31.8821L47.0892 27.5146ZM29.1202 37.2385L25.7016 35.0135L25.1204 39.381L28.539 41.606L29.1202 37.2385ZM45.5101 39.381L46.0913 35.0135L42.0805 37.2385L41.4993 41.606L45.5101 39.381ZM28.3596 23.7239L24.8584 21.4989L20.8476 23.7239L20.2664 28.0914L23.6851 30.3164L24.2663 25.9489L28.3596 23.7239ZM54.115 23.7239L50.6138 21.4989L46.603 23.7239L50.0217 25.9489L49.4405 30.3164L53.5338 28.0914L54.115 23.7239ZM41.2373 23.7239L37.7361 21.4989L33.7253 23.7239L37.144 25.9489L41.2373 23.7239ZM48.0981 19.9332L38.734 14L27.8735 19.9332L31.2095 22.1582L38.2354 18.3675L44.0873 22.1582L48.0981 19.9332Z" fill="url(#paint2_linear_6056_13856)"/>
</g>
<path d="M73.322 35.7447L73.9173 35.8189L73.322 35.7447ZM1.27865 35.7447L1.87403 35.8189L1.27865 35.7447ZM38.2326 46.3031L38.8274 46.3823L38.9831 45.2123L37.9461 45.776L38.2326 46.3031ZM37.6514 50.6707L37.938 51.1978L38.206 51.0521L38.2462 50.7498L37.6514 50.6707ZM34.1393 48.5281L33.812 49.031L34.1117 49.226L34.4258 49.0553L34.1393 48.5281ZM30.7206 46.3031L31.0479 45.8003L30.2513 45.2818L30.1259 46.224L30.7206 46.3031ZM30.1394 50.6707L29.5447 50.5915L29.4947 50.9669L29.8121 51.1735L30.1394 50.6707ZM33.5581 52.8956L33.2308 53.3985L33.5305 53.5935L33.8446 53.4228L33.5581 52.8956ZM19.8497 31.2228L20.177 30.72L19.3803 30.2015L19.2549 31.1437L19.8497 31.2228ZM23.2683 33.4478L23.8631 33.527L23.9131 33.1515L23.5956 32.9449L23.2683 33.4478ZM18.2596 43.1717L17.6649 43.0926L17.6145 43.4714L17.9365 43.6772L18.2596 43.1717ZM27.5411 49.1049L27.2179 49.6105L28.0116 50.1178L28.1359 49.1841L27.5411 49.1049ZM28.1223 44.7374L28.7171 44.8166L28.7671 44.4402L28.4485 44.2338L28.1223 44.7374ZM22.2704 40.9468L21.6757 40.8676L21.6256 41.2439L21.9442 41.4503L22.2704 40.9468ZM53.0346 31.2228L53.6293 31.302L53.785 30.132L52.748 30.6957L53.0346 31.2228ZM51.4445 43.1717L51.7305 43.6992L51.999 43.5536L52.0393 43.2509L51.4445 43.1717ZM48.9412 33.4478L48.6547 32.9207L48.3867 33.0663L48.3465 33.3687L48.9412 33.4478ZM47.9433 40.9468L48.2335 41.4719L48.4982 41.3257L48.5381 41.0259L47.9433 40.9468ZM41.0826 44.7374L40.7924 44.2123L40.5277 44.3585L40.4878 44.6583L41.0826 44.7374ZM40.5014 49.1049L39.9066 49.0258L39.7511 50.1942L40.7873 49.6324L40.5014 49.1049ZM43.588 25.2896L43.9098 24.7832L43.6111 24.5934L43.3005 24.763L43.588 25.2896ZM47.0892 27.5146L47.6839 27.5937L47.7345 27.2138L47.411 27.0082L47.0892 27.5146ZM36.6447 29.0803L36.3185 29.5839L36.6185 29.7782L36.9322 29.6069L36.6447 29.0803ZM30.7928 25.2896L31.119 24.786L30.8197 24.5921L30.5063 24.7625L30.7928 25.2896ZM26.6995 27.5146L26.4129 26.9874L26.145 27.1331L26.1047 27.4354L26.6995 27.5146ZM26.1183 31.8821L25.5235 31.8029L25.4724 32.1871L25.8016 32.3917L26.1183 31.8821ZM32.2178 35.6728L32.8126 35.7519L32.8637 35.3677L32.5345 35.1632L32.2178 35.6728ZM31.2089 43.2541L30.6142 43.175L30.5642 43.5504L30.8816 43.757L31.2089 43.2541ZM34.6276 45.4791L34.3003 45.982L34.6029 46.1789L34.9186 46.0038L34.6276 45.4791ZM38.6384 43.2541L38.9294 43.7788L39.1933 43.6324L39.2331 43.3333L38.6384 43.2541ZM39.6472 35.6728L39.3571 35.1476L39.0924 35.2938L39.0525 35.5936L39.6472 35.6728ZM46.508 31.8821L46.7982 32.4073L47.0629 32.261L47.1027 31.9612L46.508 31.8821ZM25.7016 35.0135L26.0289 34.5106L25.2322 33.9922L25.1068 34.9344L25.7016 35.0135ZM29.1202 37.2385L29.715 37.3176L29.7649 36.9422L29.4475 36.7356L29.1202 37.2385ZM25.1204 39.381L24.5256 39.3019L24.4757 39.6773L24.7931 39.8839L25.1204 39.381ZM28.539 41.606L28.2117 42.1089L29.0084 42.6274L29.1338 41.6851L28.539 41.606ZM46.0913 35.0135L46.686 35.0927L46.8434 33.9101L45.8002 34.4888L46.0913 35.0135ZM45.5101 39.381L45.8011 39.9057L46.065 39.7593L46.1048 39.4602L45.5101 39.381ZM42.0805 37.2385L41.7894 36.7138L41.5255 36.8602L41.4857 37.1593L42.0805 37.2385ZM41.4993 41.606L40.9045 41.5268L40.7472 42.7094L41.7903 42.1307L41.4993 41.606ZM24.8584 21.4989L25.1802 20.9925L24.8792 20.8013L24.5674 20.9743L24.8584 21.4989ZM28.3596 23.7239L28.6461 24.2511L29.5418 23.7642L28.6814 23.2175L28.3596 23.7239ZM20.8476 23.7239L20.5566 23.1992L20.2927 23.3456L20.2529 23.6448L20.8476 23.7239ZM20.2664 28.0914L19.6717 28.0123L19.6217 28.3877L19.9391 28.5943L20.2664 28.0914ZM23.6851 30.3164L23.3578 30.8193L24.1544 31.3377L24.2798 30.3955L23.6851 30.3164ZM24.2663 25.9489L23.9797 25.4217L23.7117 25.5674L23.6715 25.8697L24.2663 25.9489ZM50.6138 21.4989L50.9356 20.9925L50.6346 20.8013L50.3228 20.9743L50.6138 21.4989ZM54.115 23.7239L54.7098 23.803L54.7603 23.4231L54.4368 23.2175L54.115 23.7239ZM46.603 23.7239L46.312 23.1992L45.4401 23.6829L46.2757 24.2268L46.603 23.7239ZM50.0217 25.9489L50.6164 26.028L50.6664 25.6526L50.349 25.446L50.0217 25.9489ZM49.4405 30.3164L48.8457 30.2372L48.69 31.4072L49.727 30.8435L49.4405 30.3164ZM53.5338 28.0914L53.8204 28.6186L54.0884 28.4729L54.1286 28.1706L53.5338 28.0914ZM37.7361 21.4989L38.0579 20.9925L37.7569 20.8013L37.4451 20.9743L37.7361 21.4989ZM41.2373 23.7239L41.5239 24.2511L42.4195 23.7642L41.5591 23.2175L41.2373 23.7239ZM33.7253 23.7239L33.4343 23.1992L32.5624 23.6829L33.398 24.2268L33.7253 23.7239ZM37.144 25.9489L36.8167 26.4517L37.1164 26.6468L37.4305 26.476L37.144 25.9489ZM38.734 14L39.0552 13.4932L38.7566 13.304L38.4464 13.4735L38.734 14ZM48.0981 19.9332L48.3891 20.4579L49.2732 19.9675L48.4192 19.4264L48.0981 19.9332ZM27.8735 19.9332L27.5858 19.4067L26.7155 19.8821L27.5405 20.4324L27.8735 19.9332ZM31.2095 22.1582L30.8766 22.6574L31.1769 22.8576L31.4944 22.6862L31.2095 22.1582ZM38.2354 18.3675L38.5616 17.8639L38.2633 17.6707L37.9505 17.8395L38.2354 18.3675ZM44.0873 22.1582L43.7611 22.6618L44.0634 22.8576L44.3783 22.6829L44.0873 22.1582ZM72.7266 35.6704C70.3016 55.1113 52.4333 70.8893 32.8417 70.8893V72.0893C53.0386 72.0893 71.4175 55.8605 73.9173 35.8189L72.7266 35.6704ZM41.7589 0.6C61.2922 0.6 75.1443 16.2872 72.7266 35.6704L73.9173 35.8189C76.4244 15.7196 62.0139 -0.6 41.7589 -0.6V0.6ZM1.87403 35.8189C4.29897 16.378 22.1673 0.6 41.7589 0.6V-0.6C21.562 -0.6 3.18312 15.6288 0.68326 35.6704L1.87403 35.8189ZM32.8417 70.8893C13.3084 70.8893 -0.543704 55.2021 1.87403 35.8189L0.68326 35.6704C-1.8238 55.7697 12.5867 72.0893 32.8417 72.0893V70.8893ZM37.6379 46.224L37.0567 50.5915L38.2462 50.7498L38.8274 46.3823L37.6379 46.224ZM34.4258 49.0553L38.5192 46.8303L37.9461 45.776L33.8527 48.0009L34.4258 49.0553ZM30.3933 46.806L33.812 49.031L34.4666 48.0252L31.0479 45.8003L30.3933 46.806ZM30.7342 50.7498L31.3154 46.3823L30.1259 46.224L29.5447 50.5915L30.7342 50.7498ZM33.8854 52.3927L30.4667 50.1678L29.8121 51.1735L33.2308 53.3985L33.8854 52.3927ZM37.3649 50.1435L33.2715 52.3685L33.8446 53.4228L37.938 51.1978L37.3649 50.1435ZM19.5224 31.7257L22.9411 33.9507L23.5956 32.9449L20.177 30.72L19.5224 31.7257ZM18.8544 43.2509L20.4445 31.302L19.2549 31.1437L17.6649 43.0926L18.8544 43.2509ZM27.8643 48.5994L18.5828 42.6662L17.9365 43.6772L27.2179 49.6105L27.8643 48.5994ZM27.5275 44.6583L26.9463 49.0258L28.1359 49.1841L28.7171 44.8166L27.5275 44.6583ZM21.9442 41.4503L27.7961 45.241L28.4485 44.2338L22.5966 40.4432L21.9442 41.4503ZM22.6736 33.3687L21.6757 40.8676L22.8652 41.0259L23.8631 33.527L22.6736 33.3687ZM52.4398 31.1437L50.8497 43.0926L52.0393 43.2509L53.6293 31.302L52.4398 31.1437ZM49.2277 33.975L53.3211 31.75L52.748 30.6957L48.6547 32.9207L49.2277 33.975ZM48.5381 41.0259L49.536 33.527L48.3465 33.3687L47.3485 40.8676L48.5381 41.0259ZM41.3727 45.2626L48.2335 41.4719L47.6531 40.4216L40.7924 44.2123L41.3727 45.2626ZM41.0961 49.1841L41.6773 44.8166L40.4878 44.6583L39.9066 49.0258L41.0961 49.1841ZM51.1585 42.6442L40.2154 48.5775L40.7873 49.6324L51.7305 43.6992L51.1585 42.6442ZM43.2662 25.796L46.7674 28.021L47.411 27.0082L43.9098 24.7832L43.2662 25.796ZM36.9322 29.6069L43.8755 25.8162L43.3005 24.763L36.3572 28.5537L36.9322 29.6069ZM30.4666 25.7932L36.3185 29.5839L36.9709 28.5767L31.119 24.786L30.4666 25.7932ZM26.986 28.0417L31.0794 25.8168L30.5063 24.7625L26.4129 26.9874L26.986 28.0417ZM26.713 31.9612L27.2942 27.5937L26.1047 27.4354L25.5235 31.8029L26.713 31.9612ZM32.5345 35.1632L26.435 31.3725L25.8016 32.3917L31.9011 36.1824L32.5345 35.1632ZM31.8037 43.3333L32.8126 35.7519L31.623 35.5936L30.6142 43.175L31.8037 43.3333ZM34.9548 44.9762L31.5362 42.7512L30.8816 43.757L34.3003 45.982L34.9548 44.9762ZM38.3473 42.7294L34.3365 44.9544L34.9186 46.0038L38.9294 43.7788L38.3473 42.7294ZM39.0525 35.5936L38.0436 43.175L39.2331 43.3333L40.242 35.7519L39.0525 35.5936ZM46.2178 31.3569L39.3571 35.1476L39.9374 36.1979L46.7982 32.4073L46.2178 31.3569ZM46.4944 27.4354L45.9132 31.8029L47.1027 31.9612L47.6839 27.5937L46.4944 27.4354ZM25.3743 35.5164L28.7929 37.7414L29.4475 36.7356L26.0289 34.5106L25.3743 35.5164ZM25.7151 39.4602L26.2963 35.0927L25.1068 34.9344L24.5256 39.3019L25.7151 39.4602ZM28.8663 41.1031L25.4477 38.8782L24.7931 39.8839L28.2117 42.1089L28.8663 41.1031ZM28.5255 37.1593L27.9443 41.5268L29.1338 41.6851L29.715 37.3176L28.5255 37.1593ZM45.4965 34.9344L44.9153 39.3019L46.1048 39.4602L46.686 35.0927L45.4965 34.9344ZM42.3715 37.7632L46.3823 35.5382L45.8002 34.4888L41.7894 36.7138L42.3715 37.7632ZM42.094 41.6851L42.6752 37.3176L41.4857 37.1593L40.9045 41.5268L42.094 41.6851ZM45.219 38.8564L41.2082 41.0813L41.7903 42.1307L45.8011 39.9057L45.219 38.8564ZM24.5366 22.0053L28.0378 24.2303L28.6814 23.2175L25.1802 20.9925L24.5366 22.0053ZM21.1387 24.2486L25.1495 22.0236L24.5674 20.9743L20.5566 23.1992L21.1387 24.2486ZM20.8612 28.1706L21.4424 23.803L20.2529 23.6448L19.6717 28.0123L20.8612 28.1706ZM24.0123 29.8135L20.5937 27.5885L19.9391 28.5943L23.3578 30.8193L24.0123 29.8135ZM23.6715 25.8697L23.0903 30.2372L24.2798 30.3955L24.861 26.028L23.6715 25.8697ZM28.0731 23.1967L23.9797 25.4217L24.5528 26.476L28.6461 24.2511L28.0731 23.1967ZM50.292 22.0053L53.7932 24.2303L54.4368 23.2175L50.9356 20.9925L50.292 22.0053ZM46.8941 24.2486L50.9049 22.0236L50.3228 20.9743L46.312 23.1992L46.8941 24.2486ZM50.349 25.446L46.9303 23.221L46.2757 24.2268L49.6944 26.4517L50.349 25.446ZM50.0352 30.3955L50.6164 26.028L49.4269 25.8697L48.8457 30.2372L50.0352 30.3955ZM53.2473 27.5643L49.1539 29.7892L49.727 30.8435L53.8204 28.6186L53.2473 27.5643ZM53.5203 23.6448L52.9391 28.0123L54.1286 28.1706L54.7098 23.803L53.5203 23.6448ZM37.4143 22.0053L40.9155 24.2303L41.5591 23.2175L38.0579 20.9925L37.4143 22.0053ZM34.0164 24.2486L38.0272 22.0236L37.4451 20.9743L33.4343 23.1992L34.0164 24.2486ZM37.4712 25.446L34.0526 23.221L33.398 24.2268L36.8167 26.4517L37.4712 25.446ZM40.9508 23.1967L36.8574 25.4217L37.4305 26.476L41.5239 24.2511L40.9508 23.1967ZM38.4129 14.5068L47.7769 20.4401L48.4192 19.4264L39.0552 13.4932L38.4129 14.5068ZM28.1611 20.4598L39.0217 14.5265L38.4464 13.4735L27.5858 19.4067L28.1611 20.4598ZM31.5425 21.659L28.2064 19.4341L27.5405 20.4324L30.8766 22.6574L31.5425 21.659ZM37.9505 17.8395L30.9246 21.6301L31.4944 22.6862L38.5203 18.8956L37.9505 17.8395ZM44.4135 21.6546L38.5616 17.8639L37.9092 18.8711L43.7611 22.6618L44.4135 21.6546ZM47.807 19.4086L43.7962 21.6335L44.3783 22.6829L48.3891 20.4579L47.807 19.4086Z" fill="white" fill-opacity="0.2" mask="url(#path-4-inside-1_6056_13856)"/>
<defs>
<filter id="filter0_f_6056_13856" x="0.751953" y="70" width="82.5544" height="30" filterUnits="userSpaceOnUse" color-interpolation-filters="sRGB">
<feFlood flood-opacity="0" result="BackgroundImageFix"/>
<feBlend mode="normal" in="SourceGraphic" in2="BackgroundImageFix" result="shape"/>
<feGaussianBlur stdDeviation="5" result="effect1_foregroundBlur_6056_13856"/>
</filter>
<filter id="filter1_i_6056_13856" x="2.50684" y="-10.2852" width="78.4927" height="88.5664" filterUnits="userSpaceOnUse" color-interpolation-filters="sRGB">
<feFlood flood-opacity="0" result="BackgroundImageFix"/>
<feBlend mode="normal" in="SourceGraphic" in2="BackgroundImageFix" result="shape"/>
<feColorMatrix in="SourceAlpha" type="matrix" values="0 0 0 0 0 0 0 0 0 0 0 0 0 0 0 0 0 0 127 0" result="hardAlpha"/>
<feOffset dy="-12"/>
<feGaussianBlur stdDeviation="14"/>
<feComposite in2="hardAlpha" operator="arithmetic" k2="-1" k3="1"/>
<feColorMatrix type="matrix" values="0 0 0 0 0.908698 0 0 0 0 0.995833 0 0 0 0 0.990605 0 0 0 0.25 0"/>
<feBlend mode="normal" in2="shape" result="effect1_innerShadow_6056_13856"/>
</filter>
<filter id="filter2_i_6056_13856" x="2.50684" y="-10.2852" width="78.4927" height="88.5664" filterUnits="userSpaceOnUse" color-interpolation-filters="sRGB">
<feFlood flood-opacity="0" result="BackgroundImageFix"/>
<feBlend mode="normal" in="SourceGraphic" in2="BackgroundImageFix" result="shape"/>
<feColorMatrix in="SourceAlpha" type="matrix" values="0 0 0 0 0 0 0 0 0 0 0 0 0 0 0 0 0 0 127 0" result="hardAlpha"/>
<feOffset dy="-12"/>
<feGaussianBlur stdDeviation="14"/>
<feComposite in2="hardAlpha" operator="arithmetic" k2="-1" k3="1"/>
<feColorMatrix type="matrix" values="0 0 0 0 0.908698 0 0 0 0 0.995833 0 0 0 0 0.990605 0 0 0 0.25 0"/>
<feBlend mode="normal" in2="shape" result="effect1_innerShadow_6056_13856"/>
</filter>
<filter id="filter3_iii_6056_13856" x="1" y="-10" width="72.6006" height="81.4893" filterUnits="userSpaceOnUse" color-interpolation-filters="sRGB">
<feFlood flood-opacity="0" result="BackgroundImageFix"/>
<feBlend mode="normal" in="SourceGraphic" in2="BackgroundImageFix" result="shape"/>
<feColorMatrix in="SourceAlpha" type="matrix" values="0 0 0 0 0 0 0 0 0 0 0 0 0 0 0 0 0 0 127 0" result="hardAlpha"/>
<feOffset dy="-4"/>
<feGaussianBlur stdDeviation="5"/>
<feComposite in2="hardAlpha" operator="arithmetic" k2="-1" k3="1"/>
<feColorMatrix type="matrix" values="0 0 0 0 1 0 0 0 0 1 0 0 0 0 1 0 0 0 0.5 0"/>
<feBlend mode="normal" in2="shape" result="effect1_innerShadow_6056_13856"/>
<feColorMatrix in="SourceAlpha" type="matrix" values="0 0 0 0 0 0 0 0 0 0 0 0 0 0 0 0 0 0 127 0" result="hardAlpha"/>
<feOffset dy="-2"/>
<feGaussianBlur stdDeviation="4"/>
<feComposite in2="hardAlpha" operator="arithmetic" k2="-1" k3="1"/>
<feColorMatrix type="matrix" values="0 0 0 0 1 0 0 0 0 1 0 0 0 0 1 0 0 0 0.5 0"/>
<feBlend mode="normal" in2="effect1_innerShadow_6056_13856" result="effect2_innerShadow_6056_13856"/>
<feColorMatrix in="SourceAlpha" type="matrix" values="0 0 0 0 0 0 0 0 0 0 0 0 0 0 0 0 0 0 127 0" result="hardAlpha"/>
<feOffset dy="-10"/>
<feGaussianBlur stdDeviation="26"/>
<feComposite in2="hardAlpha" operator="arithmetic" k2="-1" k3="1"/>
<feColorMatrix type="matrix" values="0 0 0 0 1 0 0 0 0 1 0 0 0 0 1 0 0 0 0.25 0"/>
<feBlend mode="normal" in2="effect2_innerShadow_6056_13856" result="effect3_innerShadow_6056_13856"/>
</filter>
<linearGradient id="paint0_linear_6056_13856" x1="77.6528" y1="1.71484" x2="6.46189" y2="1.71484" gradientUnits="userSpaceOnUse">
<stop stop-color="#FFBF83"/>
<stop offset="0.171875" stop-color="#FEC600"/>
<stop offset="0.494792" stop-color="#FCE300"/>
<stop offset="0.65625" stop-color="#FED500"/>
<stop offset="1" stop-color="#FEE500"/>
</linearGradient>
<radialGradient id="paint1_radial_6056_13856" cx="0" cy="0" r="1" gradientUnits="userSpaceOnUse" gradientTransform="translate(39.9556 39.4665) rotate(41.835) scale(57.7724 106.258)">
<stop stop-color="#A19525"/>
<stop offset="0.300328" stop-color="#564E08"/>
<stop offset="1" stop-color="#A08E2F" stop-opacity="0"/>
</radialGradient>
<linearGradient id="paint2_linear_6056_13856" x1="18.1322" y1="6.00625" x2="46.1587" y2="62.0179" gradientUnits="userSpaceOnUse">
<stop offset="0.00325446" stop-color="#FFFDF7"/>
<stop offset="0.348958" stop-color="#E9C74E"/>
<stop offset="0.640625" stop-color="#DAA726"/>
<stop offset="1" stop-color="#FFEC3F"/>
</linearGradient>
</defs>
</svg>
