<svg width="84" height="100" viewBox="0 0 84 100" fill="none" xmlns="http://www.w3.org/2000/svg">
<g opacity="0.8" filter="url(#filter0_f_6073_14490)">
<path d="M73.3183 85C73.3183 87.7609 59.3356 90 42.087 90C24.8384 90 10.8557 87.7609 10.8557 85C10.8557 82.2391 24.8384 80 42.087 80C59.3356 80 73.3183 82.2391 73.3183 85Z" fill="black"/>
</g>
<g filter="url(#filter1_i_6073_14490)">
<path d="M44.2283 1.69336C24.7237 1.69336 6.31197 17.0975 3.10338 36.0996C1.35076 46.4743 4.49282 55.7761 10.8816 62.0842L17.6686 68.7877C22.9809 74.0327 30.5389 77.2083 39.3936 77.2083C58.8982 77.2083 77.3111 61.8042 80.5197 42.8021C82.2723 32.4274 79.1291 23.1246 72.7403 16.8164L65.9545 10.114C60.641 4.86899 53.0841 1.69336 44.2283 1.69336Z" fill="url(#paint0_linear_6073_14490)"/>
</g>
<g filter="url(#filter2_i_6073_14490)">
<path d="M44.2283 1.69336C24.7237 1.69336 6.31197 17.0975 3.10338 36.0996C1.35076 46.4743 4.49282 55.7761 10.8816 62.0842L17.6686 68.7877C22.9809 74.0327 30.5389 77.2083 39.3936 77.2083C58.8982 77.2083 77.3111 61.8042 80.5197 42.8021C82.2723 32.4274 79.1291 23.1246 72.7403 16.8164L65.9545 10.114C60.641 4.86899 53.0841 1.69336 44.2283 1.69336Z" fill="url(#paint1_radial_6073_14490)"/>
</g>
<mask id="path-4-inside-1_6073_14490" fill="white">
<path fill-rule="evenodd" clip-rule="evenodd" d="M32.5979 70.0701C52.3397 70.0701 70.3245 54.3844 72.768 35.0351C75.2116 15.6857 61.1885 0 41.4467 0C21.7049 0 3.72005 15.6857 1.27651 35.0351C-1.16703 54.3844 12.856 70.0701 32.5979 70.0701ZM54.0578 34.0009C54.0871 34.1077 54.2518 34.0771 54.2737 33.9612C54.3015 33.8147 54.3245 33.691 54.3471 33.5481C54.3644 33.4392 54.2571 33.4246 54.1656 33.5227L54.089 33.605C54.021 33.6791 53.9949 33.7775 54.0191 33.8622C54.0324 33.9085 54.0453 33.9548 54.0578 34.0009ZM53.1835 31.7113C53.2921 31.9334 53.6259 31.9228 53.7919 31.6924C54.4798 30.7371 54.651 30.0587 54.5046 29.6707C54.3289 29.2069 53.5728 28.827 52.0159 28.827H52.0099C51.7618 28.8272 51.5822 29.1162 51.7167 29.3003C52.2641 30.0502 52.7385 30.8219 53.1324 31.6081C53.1496 31.6426 53.1666 31.6769 53.1835 31.7113ZM51.8085 40.3593C51.9331 40.1528 52.0535 39.9442 52.1702 39.7344C52.7707 38.5384 52.963 37.1669 52.7477 35.6944C52.704 35.3958 52.338 35.301 52.0798 35.5212L52.074 35.5262C51.5492 35.9739 50.9843 36.4248 50.3843 36.8764C50.1042 37.0871 49.898 37.3806 49.8084 37.7004C49.3275 39.4152 48.7455 41.051 48.0799 42.5594C47.9461 42.8623 48.2202 43.1228 48.5297 42.989C49.9093 42.3921 51.0067 41.5342 51.7524 40.4448C51.7636 40.4282 51.7745 40.4115 51.7853 40.3948C51.793 40.383 51.8007 40.3711 51.8085 40.3593ZM47.35 45.5887C47.5072 45.4544 47.6623 45.318 47.8148 45.18C47.9739 45.0363 47.8613 44.8093 47.6621 44.8695C47.4163 44.9441 47.1652 45.0122 46.909 45.074C46.8474 45.089 46.792 45.1307 46.76 45.1866C46.6247 45.4236 46.4873 45.6562 46.3473 45.8829C46.3138 45.9372 46.2802 45.9911 46.2465 46.0446C46.1284 46.2321 46.3375 46.4041 46.5155 46.2666C46.7978 46.0483 47.0761 45.8223 47.35 45.5887ZM43.808 43.9605C44.3819 43.9406 44.9349 43.8927 45.4654 43.8184C45.7106 43.7841 45.9356 43.6182 46.0491 43.3916C46.7156 42.062 47.3105 40.5973 47.819 39.0413C47.8749 38.8704 47.6986 38.7503 47.5407 38.8521C45.4356 40.2098 43.0667 41.534 40.5607 42.7455C40.2035 42.9182 39.8467 43.0868 39.4907 43.2518C39.3103 43.3352 39.3067 43.5815 39.4858 43.615C40.9546 43.89 42.4081 44.0086 43.808 43.9605ZM39.7606 49.6275C41.2374 49.6548 42.9797 48.3016 44.6022 45.8915C44.7394 45.6878 44.6171 45.4473 44.3837 45.4653C44.132 45.4848 43.8767 45.4991 43.6181 45.5082C43.3973 45.5158 43.1752 45.5195 42.9521 45.5195C40.8994 45.5195 38.7595 45.1979 36.6335 44.5815C36.555 44.5587 36.4665 44.5647 36.3831 44.5982L36.3427 44.6147C36.1483 44.6928 36.0287 44.9005 36.0754 45.0819L36.0763 45.0851C36.8123 47.9434 38.1553 49.5992 39.7606 49.6275ZM34.2646 50.6163C35.0205 50.6163 35.7766 50.5683 36.5291 50.4747C36.7725 50.4445 36.9105 50.1487 36.7513 49.9951C35.7879 49.0662 35.0302 47.606 34.5326 45.6735L34.5318 45.6703C34.4849 45.4885 34.2918 45.3975 34.0948 45.4675C31.8973 46.2494 29.8249 46.8301 27.9897 47.1686C27.127 47.3279 26.3379 47.4299 25.6257 47.4752C25.5867 47.4776 25.5423 47.4799 25.495 47.4821C25.2665 47.4924 25.1391 47.7849 25.3107 47.9064C27.8052 49.6707 30.8865 50.6163 34.2646 50.6163ZM34.2519 34.8235C32.0993 35.987 30.1103 37.216 28.3838 38.4477C29.4556 39.3166 30.6431 40.1201 31.927 40.8374C32.5899 41.2075 33.264 41.5462 33.9453 41.8537C33.7983 39.6973 33.9004 37.3101 34.2519 34.8235ZM25.8088 40.4555C23.0305 42.8524 22.3085 44.4294 22.566 45.1102C22.8273 45.8007 24.3746 46.3048 27.9343 45.6478C29.4073 45.3759 31.0459 44.9382 32.785 44.3587L32.7856 44.359C32.7956 44.3557 32.8056 44.3523 32.8156 44.3488C32.8259 44.3453 32.8362 44.3417 32.8465 44.3383C33.0093 44.2838 33.1728 44.2284 33.3375 44.1714C33.3584 44.1642 33.3793 44.1568 33.4003 44.1494C33.4168 44.1435 33.4333 44.1377 33.4497 44.132C33.5853 44.0847 33.7214 44.0366 33.8582 43.9878C33.9153 43.9672 33.9725 43.9467 34.0298 43.9258C34.0504 43.9184 34.0709 43.911 34.0914 43.9036C34.1168 43.8946 34.1421 43.8855 34.1676 43.8762L34.1673 43.8755C34.9832 43.5776 35.8165 43.2514 36.6615 42.8988L36.6631 42.8993C36.7017 42.8832 36.7404 42.8669 36.7791 42.8506C36.8185 42.8339 36.8578 42.8173 36.8972 42.8007L36.9447 42.7807C37.9654 42.3491 39.0014 41.8804 40.0431 41.3768C43.2127 39.8448 46.1466 38.1339 48.5726 36.4149C48.7948 35.522 48.9892 34.6095 49.1525 33.6841C49.4108 32.2212 49.5809 30.7876 49.6642 29.4109C49.6601 29.406 49.6559 29.4011 49.6518 29.3963C49.6476 29.3915 49.6435 29.3867 49.6395 29.3819C49.6433 29.3797 49.6473 29.3777 49.6512 29.3756C49.6552 29.3735 49.6591 29.3715 49.6629 29.3693C49.7116 28.5488 49.7287 27.749 49.7153 26.9751C49.7162 26.9762 49.7172 26.9772 49.7182 26.9782C49.7187 26.9786 49.7191 26.9791 49.7195 26.9795C49.6881 25.1662 49.4861 23.4976 49.1136 22.0507C48.3776 19.1924 47.0346 17.5368 45.4293 17.5083C45.4153 17.508 45.4011 17.508 45.387 17.508C44.0222 17.508 42.4367 18.6735 40.9293 20.7546C40.7659 20.9803 40.8255 21.2657 41.0554 21.358C42.1304 21.7892 43.1911 22.2948 44.2241 22.8717C45.7568 23.728 47.1608 24.704 48.4064 25.7681C48.7538 26.0646 48.9527 26.4956 48.9632 26.9777C48.9717 27.3614 48.9723 27.752 48.965 28.1489C48.9543 28.7169 48.5041 29.2523 47.9184 29.3871C44.7847 30.1088 41.0525 31.4744 37.2402 33.3016L37.238 33.3027C37.0259 33.4044 36.8149 33.2597 36.8568 33.0412C36.9237 32.6931 37.0094 32.2552 37.0564 32.0374C37.0955 31.8557 37.2294 31.6927 37.4066 31.6099C41.2486 29.8182 44.998 28.4892 48.1517 27.8003C46.7657 26.4786 45.1233 25.2739 43.2833 24.2462C42.3328 23.7151 41.3588 23.2489 40.3736 22.848L40.3743 22.8473C40.3544 22.8392 40.3347 22.8314 40.3149 22.8235C40.2979 22.8168 40.2809 22.81 40.264 22.8032C40.2445 22.7953 40.225 22.7874 40.2055 22.7796C40.1868 22.7721 40.1681 22.7647 40.1494 22.7573C40.0274 22.709 39.9053 22.6615 39.7827 22.6152L39.7498 22.6029C39.2795 22.4259 38.8077 22.2634 38.3347 22.117C38.3154 22.111 38.2962 22.1053 38.2769 22.0996C38.2615 22.095 38.2461 22.0904 38.2307 22.0857C38.2129 22.0803 38.195 22.0748 38.1771 22.0693C38.1502 22.061 38.1232 22.0527 38.0962 22.0446L38.0956 22.0452C36.0452 21.4332 33.9847 21.1126 32.0174 21.1126C31.8112 21.1126 31.6064 21.1161 31.4023 21.1232C28.1773 21.2344 25.6031 22.2188 24.0347 23.9175C23.8422 24.1475 23.6553 24.3806 23.4737 24.6169C23.4701 24.6217 23.4665 24.627 23.4626 24.632C21.9927 26.7735 22.0152 29.6145 23.526 32.6302C24.2948 34.165 25.399 35.6442 26.7737 37.0061C27.05 37.28 27.5206 37.2899 27.8925 37.0292C29.6774 35.7782 31.7108 34.5371 33.8962 33.3664C34.2993 33.1504 34.5934 32.7653 34.6797 32.3422C35.3588 29.0069 36.4234 25.8551 37.7604 23.1984C37.8716 22.9774 38.1315 22.8572 38.3459 22.9271C38.5579 22.9961 38.7697 23.0681 38.9812 23.1435C39.1981 23.2208 39.2814 23.4665 39.1673 23.6929C37.9345 26.1392 36.9426 29.0473 36.291 32.1423L36.2919 32.1418C36.2003 32.575 36.1151 33.0117 36.0374 33.4517C36.009 33.6128 35.9824 33.7732 35.9561 33.9337L35.9554 33.9339C35.9545 33.9398 35.9536 33.9457 35.9527 33.9516C35.9509 33.9634 35.9491 33.9752 35.947 33.9871C35.9394 34.0318 35.9261 34.1074 35.9199 34.152C35.9083 34.2343 35.8956 34.317 35.8828 34.3998C35.8738 34.4577 35.8649 34.5156 35.8564 34.5733C35.8541 34.5887 35.8517 34.6041 35.8493 34.6195C35.8469 34.6349 35.8445 34.6503 35.8423 34.6655L35.8434 34.665C35.4714 37.2298 35.3745 39.6785 35.5532 41.8537C35.555 41.8749 35.5583 41.9109 35.5627 41.9556C35.5974 42.314 35.3513 42.6858 34.9835 42.828C34.6453 42.9591 34.3097 43.0851 33.9771 43.2063C33.5763 43.3527 33.1573 43.34 32.8134 43.1755C32.1956 42.88 31.5984 42.5536 30.9863 42.2116C29.6054 41.4403 28.3303 40.5707 27.1794 39.6283C26.6116 39.1633 26.073 38.6813 25.5697 38.1829C24.095 36.7229 22.9075 35.1312 22.0782 33.4754C21.462 32.2456 21.0678 31.0294 20.8934 29.8537C20.8679 29.6813 20.6144 29.6926 20.5488 29.8688C20.1151 31.0335 19.797 32.2325 19.6041 33.4509C19.0643 36.8589 19.5482 40.1147 20.9691 42.8933C21.1036 43.1565 21.511 43.1255 21.6897 42.8387C22.3201 41.8266 23.3376 40.7013 24.7293 39.4856C24.7413 39.475 24.7824 39.4397 24.8374 39.3927C25.0883 39.1781 25.4368 39.1606 25.6455 39.3513C25.7283 39.4267 25.8118 39.5021 25.8961 39.5767C26.1412 39.7943 26.1003 40.2044 25.8102 40.4544L25.8088 40.4555ZM39.702 16.2856C36.0331 16.2856 32.3613 17.4018 29.1089 19.4704C28.9184 19.5914 28.9882 19.859 29.2014 19.8213C29.9603 19.687 30.7587 19.6041 31.5924 19.5753C33.8525 19.4974 36.2342 19.8208 38.598 20.5084C38.9472 20.61 39.359 20.4491 39.5933 20.1201C40.5533 18.7715 41.5613 17.7315 42.5803 17.0287C42.805 16.8736 42.7709 16.5574 42.5265 16.5165C41.614 16.3638 40.6704 16.2856 39.702 16.2856ZM51.3687 31.86C51.2785 31.6998 51.0096 31.7838 50.9835 31.9805C50.9076 32.5526 50.8187 33.1301 50.716 33.7117C50.6659 33.9957 50.613 34.2782 50.5573 34.5598C50.5267 34.7143 50.7024 34.7961 50.8319 34.6887C50.9362 34.6024 51.0388 34.5162 51.1397 34.4302C51.4161 34.1943 51.6723 33.9667 51.9101 33.7466C52.0598 33.6082 52.1147 33.4041 52.0465 33.2413C51.9373 32.9803 51.8168 32.7175 51.6845 32.4533C51.585 32.2545 51.4794 32.0568 51.3687 31.86ZM51.1948 21.3132C51.1047 21.2077 51.0131 21.1037 50.9201 21.0013C50.7952 20.8637 50.5385 21.0234 50.5892 21.207C50.6125 21.2911 50.6352 21.3761 50.6573 21.4621C51.0458 22.9708 51.2605 24.6995 51.302 26.5709C51.3113 26.99 51.6386 27.2882 52.0707 27.2811C52.6941 27.2709 53.2495 27.3104 53.7346 27.3989C53.9564 27.4395 54.174 27.2173 54.1206 27.0051C53.5914 24.9001 52.6076 22.9673 51.1948 21.3132ZM52.477 20.2179C54.6964 22.8165 55.9457 26.0449 56.1379 29.5586C56.1384 29.5667 56.1388 29.5747 56.1393 29.5827C56.1397 29.5909 56.1401 29.599 56.1406 29.6071C56.2055 30.8578 56.1378 32.1438 55.9308 33.4509C55.5546 35.8255 54.7437 38.1323 53.553 40.2792C53.4289 40.5217 53.2915 40.7595 53.1406 40.9918C51.8741 43.0878 50.2384 45.0156 48.2852 46.6837C44.1467 50.2182 39.0804 52.165 34.0193 52.165C28.9583 52.165 24.5085 50.2182 21.4897 46.6837C18.4708 43.1491 17.2443 38.4497 18.036 33.4509C18.5816 30.006 20.0411 26.7032 22.2501 23.8257C22.4562 23.534 22.6801 23.2553 22.9226 22.9914C23.7536 22.0064 24.6748 21.0776 25.6814 20.2179C29.8199 16.6833 34.8863 14.7368 39.9473 14.7368C45.0084 14.7368 49.4582 16.6833 52.477 20.2179Z"/>
</mask>
<g filter="url(#filter3_iii_6073_14490)">
<path fill-rule="evenodd" clip-rule="evenodd" d="M32.5979 70.0701C52.3397 70.0701 70.3245 54.3844 72.768 35.0351C75.2116 15.6857 61.1885 0 41.4467 0C21.7049 0 3.72005 15.6857 1.27651 35.0351C-1.16703 54.3844 12.856 70.0701 32.5979 70.0701ZM54.0578 34.0009C54.0871 34.1077 54.2518 34.0771 54.2737 33.9612C54.3015 33.8147 54.3245 33.691 54.3471 33.5481C54.3644 33.4392 54.2571 33.4246 54.1656 33.5227L54.089 33.605C54.021 33.6791 53.9949 33.7775 54.0191 33.8622C54.0324 33.9085 54.0453 33.9548 54.0578 34.0009ZM53.1835 31.7113C53.2921 31.9334 53.6259 31.9228 53.7919 31.6924C54.4798 30.7371 54.651 30.0587 54.5046 29.6707C54.3289 29.2069 53.5728 28.827 52.0159 28.827H52.0099C51.7618 28.8272 51.5822 29.1162 51.7167 29.3003C52.2641 30.0502 52.7385 30.8219 53.1324 31.6081C53.1496 31.6426 53.1666 31.6769 53.1835 31.7113ZM51.8085 40.3593C51.9331 40.1528 52.0535 39.9442 52.1702 39.7344C52.7707 38.5384 52.963 37.1669 52.7477 35.6944C52.704 35.3958 52.338 35.301 52.0798 35.5212L52.074 35.5262C51.5492 35.9739 50.9843 36.4248 50.3843 36.8764C50.1042 37.0871 49.898 37.3806 49.8084 37.7004C49.3275 39.4152 48.7455 41.051 48.0799 42.5594C47.9461 42.8623 48.2202 43.1228 48.5297 42.989C49.9093 42.3921 51.0067 41.5342 51.7524 40.4448C51.7636 40.4282 51.7745 40.4115 51.7853 40.3948C51.793 40.383 51.8007 40.3711 51.8085 40.3593ZM47.35 45.5887C47.5072 45.4544 47.6623 45.318 47.8148 45.18C47.9739 45.0363 47.8613 44.8093 47.6621 44.8695C47.4163 44.9441 47.1652 45.0122 46.909 45.074C46.8474 45.089 46.792 45.1307 46.76 45.1866C46.6247 45.4236 46.4873 45.6562 46.3473 45.8829C46.3138 45.9372 46.2802 45.9911 46.2465 46.0446C46.1284 46.2321 46.3375 46.4041 46.5155 46.2666C46.7978 46.0483 47.0761 45.8223 47.35 45.5887ZM43.808 43.9605C44.3819 43.9406 44.9349 43.8927 45.4654 43.8184C45.7106 43.7841 45.9356 43.6182 46.0491 43.3916C46.7156 42.062 47.3105 40.5973 47.819 39.0413C47.8749 38.8704 47.6986 38.7503 47.5407 38.8521C45.4356 40.2098 43.0667 41.534 40.5607 42.7455C40.2035 42.9182 39.8467 43.0868 39.4907 43.2518C39.3103 43.3352 39.3067 43.5815 39.4858 43.615C40.9546 43.89 42.4081 44.0086 43.808 43.9605ZM39.7606 49.6275C41.2374 49.6548 42.9797 48.3016 44.6022 45.8915C44.7394 45.6878 44.6171 45.4473 44.3837 45.4653C44.132 45.4848 43.8767 45.4991 43.6181 45.5082C43.3973 45.5158 43.1752 45.5195 42.9521 45.5195C40.8994 45.5195 38.7595 45.1979 36.6335 44.5815C36.555 44.5587 36.4665 44.5647 36.3831 44.5982L36.3427 44.6147C36.1483 44.6928 36.0287 44.9005 36.0754 45.0819L36.0763 45.0851C36.8123 47.9434 38.1553 49.5992 39.7606 49.6275ZM34.2646 50.6163C35.0205 50.6163 35.7766 50.5683 36.5291 50.4747C36.7725 50.4445 36.9105 50.1487 36.7513 49.9951C35.7879 49.0662 35.0302 47.606 34.5326 45.6735L34.5318 45.6703C34.4849 45.4885 34.2918 45.3975 34.0948 45.4675C31.8973 46.2494 29.8249 46.8301 27.9897 47.1686C27.127 47.3279 26.3379 47.4299 25.6257 47.4752C25.5867 47.4776 25.5423 47.4799 25.495 47.4821C25.2665 47.4924 25.1391 47.7849 25.3107 47.9064C27.8052 49.6707 30.8865 50.6163 34.2646 50.6163ZM34.2519 34.8235C32.0993 35.987 30.1103 37.216 28.3838 38.4477C29.4556 39.3166 30.6431 40.1201 31.927 40.8374C32.5899 41.2075 33.264 41.5462 33.9453 41.8537C33.7983 39.6973 33.9004 37.3101 34.2519 34.8235ZM25.8088 40.4555C23.0305 42.8524 22.3085 44.4294 22.566 45.1102C22.8273 45.8007 24.3746 46.3048 27.9343 45.6478C29.4073 45.3759 31.0459 44.9382 32.785 44.3587L32.7856 44.359C32.7956 44.3557 32.8056 44.3523 32.8156 44.3488C32.8259 44.3453 32.8362 44.3417 32.8465 44.3383C33.0093 44.2838 33.1728 44.2284 33.3375 44.1714C33.3584 44.1642 33.3793 44.1568 33.4003 44.1494C33.4168 44.1435 33.4333 44.1377 33.4497 44.132C33.5853 44.0847 33.7214 44.0366 33.8582 43.9878C33.9153 43.9672 33.9725 43.9467 34.0298 43.9258C34.0504 43.9184 34.0709 43.911 34.0914 43.9036C34.1168 43.8946 34.1421 43.8855 34.1676 43.8762L34.1673 43.8755C34.9832 43.5776 35.8165 43.2514 36.6615 42.8988L36.6631 42.8993C36.7017 42.8832 36.7404 42.8669 36.7791 42.8506C36.8185 42.8339 36.8578 42.8173 36.8972 42.8007L36.9447 42.7807C37.9654 42.3491 39.0014 41.8804 40.0431 41.3768C43.2127 39.8448 46.1466 38.1339 48.5726 36.4149C48.7948 35.522 48.9892 34.6095 49.1525 33.6841C49.4108 32.2212 49.5809 30.7876 49.6642 29.4109C49.6601 29.406 49.6559 29.4011 49.6518 29.3963C49.6476 29.3915 49.6435 29.3867 49.6395 29.3819C49.6433 29.3797 49.6473 29.3777 49.6512 29.3756C49.6552 29.3735 49.6591 29.3715 49.6629 29.3693C49.7116 28.5488 49.7287 27.749 49.7153 26.9751C49.7162 26.9762 49.7172 26.9772 49.7182 26.9782C49.7187 26.9786 49.7191 26.9791 49.7195 26.9795C49.6881 25.1662 49.4861 23.4976 49.1136 22.0507C48.3776 19.1924 47.0346 17.5368 45.4293 17.5083C45.4153 17.508 45.4011 17.508 45.387 17.508C44.0222 17.508 42.4367 18.6735 40.9293 20.7546C40.7659 20.9803 40.8255 21.2657 41.0554 21.358C42.1304 21.7892 43.1911 22.2948 44.2241 22.8717C45.7568 23.728 47.1608 24.704 48.4064 25.7681C48.7538 26.0646 48.9527 26.4956 48.9632 26.9777C48.9717 27.3614 48.9723 27.752 48.965 28.1489C48.9543 28.7169 48.5041 29.2523 47.9184 29.3871C44.7847 30.1088 41.0525 31.4744 37.2402 33.3016L37.238 33.3027C37.0259 33.4044 36.8149 33.2597 36.8568 33.0412C36.9237 32.6931 37.0094 32.2552 37.0564 32.0374C37.0955 31.8557 37.2294 31.6927 37.4066 31.6099C41.2486 29.8182 44.998 28.4892 48.1517 27.8003C46.7657 26.4786 45.1233 25.2739 43.2833 24.2462C42.3328 23.7151 41.3588 23.2489 40.3736 22.848L40.3743 22.8473C40.3544 22.8392 40.3347 22.8314 40.3149 22.8235C40.2979 22.8168 40.2809 22.81 40.264 22.8032C40.2445 22.7953 40.225 22.7874 40.2055 22.7796C40.1868 22.7721 40.1681 22.7647 40.1494 22.7573C40.0274 22.709 39.9053 22.6615 39.7827 22.6152L39.7498 22.6029C39.2795 22.4259 38.8077 22.2634 38.3347 22.117C38.3154 22.111 38.2962 22.1053 38.2769 22.0996C38.2615 22.095 38.2461 22.0904 38.2307 22.0857C38.2129 22.0803 38.195 22.0748 38.1771 22.0693C38.1502 22.061 38.1232 22.0527 38.0962 22.0446L38.0956 22.0452C36.0452 21.4332 33.9847 21.1126 32.0174 21.1126C31.8112 21.1126 31.6064 21.1161 31.4023 21.1232C28.1773 21.2344 25.6031 22.2188 24.0347 23.9175C23.8422 24.1475 23.6553 24.3806 23.4737 24.6169C23.4701 24.6217 23.4665 24.627 23.4626 24.632C21.9927 26.7735 22.0152 29.6145 23.526 32.6302C24.2948 34.165 25.399 35.6442 26.7737 37.0061C27.05 37.28 27.5206 37.2899 27.8925 37.0292C29.6774 35.7782 31.7108 34.5371 33.8962 33.3664C34.2993 33.1504 34.5934 32.7653 34.6797 32.3422C35.3588 29.0069 36.4234 25.8551 37.7604 23.1984C37.8716 22.9774 38.1315 22.8572 38.3459 22.9271C38.5579 22.9961 38.7697 23.0681 38.9812 23.1435C39.1981 23.2208 39.2814 23.4665 39.1673 23.6929C37.9345 26.1392 36.9426 29.0473 36.291 32.1423L36.2919 32.1418C36.2003 32.575 36.1151 33.0117 36.0374 33.4517C36.009 33.6128 35.9824 33.7732 35.9561 33.9337L35.9554 33.9339C35.9545 33.9398 35.9536 33.9457 35.9527 33.9516C35.9509 33.9634 35.9491 33.9752 35.947 33.9871C35.9394 34.0318 35.9261 34.1074 35.9199 34.152C35.9083 34.2343 35.8956 34.317 35.8828 34.3998C35.8738 34.4577 35.8649 34.5156 35.8564 34.5733C35.8541 34.5887 35.8517 34.6041 35.8493 34.6195C35.8469 34.6349 35.8445 34.6503 35.8423 34.6655L35.8434 34.665C35.4714 37.2298 35.3745 39.6785 35.5532 41.8537C35.555 41.8749 35.5583 41.9109 35.5627 41.9556C35.5974 42.314 35.3513 42.6858 34.9835 42.828C34.6453 42.9591 34.3097 43.0851 33.9771 43.2063C33.5763 43.3527 33.1573 43.34 32.8134 43.1755C32.1956 42.88 31.5984 42.5536 30.9863 42.2116C29.6054 41.4403 28.3303 40.5707 27.1794 39.6283C26.6116 39.1633 26.073 38.6813 25.5697 38.1829C24.095 36.7229 22.9075 35.1312 22.0782 33.4754C21.462 32.2456 21.0678 31.0294 20.8934 29.8537C20.8679 29.6813 20.6144 29.6926 20.5488 29.8688C20.1151 31.0335 19.797 32.2325 19.6041 33.4509C19.0643 36.8589 19.5482 40.1147 20.9691 42.8933C21.1036 43.1565 21.511 43.1255 21.6897 42.8387C22.3201 41.8266 23.3376 40.7013 24.7293 39.4856C24.7413 39.475 24.7824 39.4397 24.8374 39.3927C25.0883 39.1781 25.4368 39.1606 25.6455 39.3513C25.7283 39.4267 25.8118 39.5021 25.8961 39.5767C26.1412 39.7943 26.1003 40.2044 25.8102 40.4544L25.8088 40.4555ZM39.702 16.2856C36.0331 16.2856 32.3613 17.4018 29.1089 19.4704C28.9184 19.5914 28.9882 19.859 29.2014 19.8213C29.9603 19.687 30.7587 19.6041 31.5924 19.5753C33.8525 19.4974 36.2342 19.8208 38.598 20.5084C38.9472 20.61 39.359 20.4491 39.5933 20.1201C40.5533 18.7715 41.5613 17.7315 42.5803 17.0287C42.805 16.8736 42.7709 16.5574 42.5265 16.5165C41.614 16.3638 40.6704 16.2856 39.702 16.2856ZM51.3687 31.86C51.2785 31.6998 51.0096 31.7838 50.9835 31.9805C50.9076 32.5526 50.8187 33.1301 50.716 33.7117C50.6659 33.9957 50.613 34.2782 50.5573 34.5598C50.5267 34.7143 50.7024 34.7961 50.8319 34.6887C50.9362 34.6024 51.0388 34.5162 51.1397 34.4302C51.4161 34.1943 51.6723 33.9667 51.9101 33.7466C52.0598 33.6082 52.1147 33.4041 52.0465 33.2413C51.9373 32.9803 51.8168 32.7175 51.6845 32.4533C51.585 32.2545 51.4794 32.0568 51.3687 31.86ZM51.1948 21.3132C51.1047 21.2077 51.0131 21.1037 50.9201 21.0013C50.7952 20.8637 50.5385 21.0234 50.5892 21.207C50.6125 21.2911 50.6352 21.3761 50.6573 21.4621C51.0458 22.9708 51.2605 24.6995 51.302 26.5709C51.3113 26.99 51.6386 27.2882 52.0707 27.2811C52.6941 27.2709 53.2495 27.3104 53.7346 27.3989C53.9564 27.4395 54.174 27.2173 54.1206 27.0051C53.5914 24.9001 52.6076 22.9673 51.1948 21.3132ZM52.477 20.2179C54.6964 22.8165 55.9457 26.0449 56.1379 29.5586C56.1384 29.5667 56.1388 29.5747 56.1393 29.5827C56.1397 29.5909 56.1401 29.599 56.1406 29.6071C56.2055 30.8578 56.1378 32.1438 55.9308 33.4509C55.5546 35.8255 54.7437 38.1323 53.553 40.2792C53.4289 40.5217 53.2915 40.7595 53.1406 40.9918C51.8741 43.0878 50.2384 45.0156 48.2852 46.6837C44.1467 50.2182 39.0804 52.165 34.0193 52.165C28.9583 52.165 24.5085 50.2182 21.4897 46.6837C18.4708 43.1491 17.2443 38.4497 18.036 33.4509C18.5816 30.006 20.0411 26.7032 22.2501 23.8257C22.4562 23.534 22.6801 23.2553 22.9226 22.9914C23.7536 22.0064 24.6748 21.0776 25.6814 20.2179C29.8199 16.6833 34.8863 14.7368 39.9473 14.7368C45.0084 14.7368 49.4582 16.6833 52.477 20.2179Z" fill="url(#paint2_linear_6073_14490)"/>
</g>
<path d="M72.768 35.0351L72.1728 34.9599L72.768 35.0351ZM1.27651 35.0351L0.68124 34.9599L1.27651 35.0351ZM54.2737 33.9612L53.6842 33.8493L53.6842 33.8496L54.2737 33.9612ZM54.0578 34.0009L53.4786 34.1574L53.4791 34.1593L54.0578 34.0009ZM54.3471 33.5481L53.7545 33.4543L53.7545 33.4543L54.3471 33.5481ZM54.1656 33.5227L53.7269 33.1134L53.7264 33.114L54.1656 33.5227ZM54.089 33.605L53.6498 33.1963L53.6469 33.1993L54.089 33.605ZM54.0191 33.8622L53.4423 34.0274L53.4424 34.0277L54.0191 33.8622ZM53.7919 31.6924L54.2787 32.0431L54.2788 32.043L53.7919 31.6924ZM53.1835 31.7113L53.7225 31.4477L53.7219 31.4465L53.1835 31.7113ZM54.5046 29.6707L55.0659 29.4588L55.0657 29.4582L54.5046 29.6707ZM52.0099 28.827V28.227H52.0095L52.0099 28.827ZM51.7167 29.3003L52.2013 28.9465L52.2012 28.9465L51.7167 29.3003ZM53.1324 31.6081L53.6693 31.3404L53.6688 31.3393L53.1324 31.6081ZM52.1702 39.7344L52.6946 40.026L52.7008 40.0149L52.7065 40.0036L52.1702 39.7344ZM51.8085 40.3593L52.3089 40.6904L52.3158 40.6799L52.3223 40.6692L51.8085 40.3593ZM52.7477 35.6944L53.3414 35.6076L53.3414 35.6075L52.7477 35.6944ZM52.0798 35.5212L51.6905 35.0645L51.6836 35.0705L52.0798 35.5212ZM52.074 35.5262L52.4634 35.9828L52.4702 35.9769L52.074 35.5262ZM50.3843 36.8764L50.745 37.3558L50.7451 37.3557L50.3843 36.8764ZM49.8084 37.7004L49.2307 37.5384V37.5384L49.8084 37.7004ZM48.0799 42.5594L48.6287 42.8019L48.6289 42.8016L48.0799 42.5594ZM48.5297 42.989L48.7678 43.5398L48.768 43.5397L48.5297 42.989ZM51.7524 40.4448L52.2475 40.7836L52.2479 40.7831L51.7524 40.4448ZM51.7853 40.3948L52.2889 40.7211L52.2889 40.7211L51.7853 40.3948ZM47.8148 45.18L47.4126 44.7348L47.4123 44.7351L47.8148 45.18ZM47.35 45.5887L47.7394 46.0452L47.7396 46.0449L47.35 45.5887ZM47.6621 44.8695L47.4884 44.2952L47.4879 44.2953L47.6621 44.8695ZM46.909 45.074L46.7684 44.4907L46.7674 44.491L46.909 45.074ZM46.76 45.1866L46.2394 44.8883L46.239 44.889L46.76 45.1866ZM46.3473 45.8829L45.8368 45.5676L45.8364 45.5682L46.3473 45.8829ZM46.2465 46.0446L46.7541 46.3645L46.7542 46.3643L46.2465 46.0446ZM46.5155 46.2666L46.8822 46.7415L46.8825 46.7413L46.5155 46.2666ZM45.4654 43.8184L45.5485 44.4127L45.5486 44.4127L45.4654 43.8184ZM43.808 43.9605L43.8287 44.5601L43.8288 44.5601L43.808 43.9605ZM46.0491 43.3916L46.5855 43.6605L46.5855 43.6605L46.0491 43.3916ZM47.819 39.0413L47.2487 38.8548L47.2487 38.8549L47.819 39.0413ZM47.5407 38.8521L47.2156 38.3479L47.2155 38.3479L47.5407 38.8521ZM40.5607 42.7455L40.8218 43.2857L40.8219 43.2857L40.5607 42.7455ZM39.4907 43.2518L39.7427 43.7963L39.7429 43.7962L39.4907 43.2518ZM39.4858 43.615L39.5962 43.0252L39.5961 43.0252L39.4858 43.615ZM44.6022 45.8915L44.1046 45.5562L44.1044 45.5564L44.6022 45.8915ZM39.7606 49.6275L39.7717 49.0276L39.7711 49.0276L39.7606 49.6275ZM44.3837 45.4653L44.3376 44.8671L44.3373 44.8671L44.3837 45.4653ZM43.6181 45.5082L43.6387 46.1079L43.6392 46.1079L43.6181 45.5082ZM36.6335 44.5815L36.4656 45.1576L36.4665 45.1578L36.6335 44.5815ZM36.3831 44.5982L36.1594 44.0415L36.1565 44.0426L36.3831 44.5982ZM36.3427 44.6147L36.5664 45.1715L36.5693 45.1703L36.3427 44.6147ZM36.0754 45.0819L35.4944 45.2316L35.496 45.2375L36.0754 45.0819ZM36.0763 45.0851L36.6574 44.9355L36.6558 44.9295L36.0763 45.0851ZM36.5291 50.4747L36.6032 51.0702L36.6033 51.0701L36.5291 50.4747ZM36.7513 49.9951L37.168 49.5634L37.1678 49.5631L36.7513 49.9951ZM34.5326 45.6735L35.1137 45.5239L35.1123 45.5186L34.5326 45.6735ZM34.5318 45.6703L33.9508 45.8201L33.9521 45.8252L34.5318 45.6703ZM34.0948 45.4675L33.8938 44.9021L33.8936 44.9022L34.0948 45.4675ZM27.9897 47.1686L27.8809 46.5785L27.8807 46.5785L27.9897 47.1686ZM25.6257 47.4752L25.6618 48.0741L25.6638 48.074L25.6257 47.4752ZM25.495 47.4821L25.5219 48.0815L25.5227 48.0815L25.495 47.4821ZM25.3107 47.9064L24.9639 48.3961L24.9642 48.3963L25.3107 47.9064ZM28.3838 38.4477L28.0354 37.9592L27.3935 38.4171L28.006 38.9137L28.3838 38.4477ZM34.2519 34.8235L34.846 34.9075L35.0125 33.7304L33.9666 34.2957L34.2519 34.8235ZM31.927 40.8374L31.6343 41.3612L31.6345 41.3613L31.927 40.8374ZM33.9453 41.8537L33.6985 42.4005L34.6121 42.8129L34.5439 41.8128L33.9453 41.8537ZM22.566 45.1102L22.0048 45.3225L22.0048 45.3225L22.566 45.1102ZM25.8088 40.4555L25.4193 39.9992L25.4169 40.0012L25.8088 40.4555ZM27.9343 45.6478L27.8254 45.0577L27.8254 45.0577L27.9343 45.6478ZM32.785 44.3587L33.0673 43.8293L32.8399 43.708L32.5953 43.7895L32.785 44.3587ZM32.7856 44.359L32.5033 44.8885L32.731 45.0099L32.9757 44.9281L32.7856 44.359ZM32.8156 44.3488L32.6206 43.7814L32.6205 43.7814L32.8156 44.3488ZM32.8465 44.3383L33.0352 44.9079L33.037 44.9073L32.8465 44.3383ZM33.3375 44.1714L33.1428 43.6038L33.141 43.6045L33.3375 44.1714ZM33.4003 44.1494L33.6005 44.715L33.6006 44.715L33.4003 44.1494ZM33.4497 44.132L33.6465 44.6988L33.6472 44.6985L33.4497 44.132ZM33.8582 43.9878L34.0599 44.5528L34.0612 44.5524L33.8582 43.9878ZM34.0298 43.9258L33.8252 43.3618L33.8246 43.362L34.0298 43.9258ZM34.0914 43.9036L34.294 44.4684L34.2941 44.4684L34.0914 43.9036ZM34.1676 43.8762L34.3732 44.4398L34.9306 44.2364L34.7335 43.6768L34.1676 43.8762ZM34.1673 43.8755L33.9615 43.3119L33.4043 43.5154L33.6014 44.0749L34.1673 43.8755ZM36.6615 42.8988L36.8407 42.3262L36.6321 42.2609L36.4304 42.3451L36.6615 42.8988ZM36.6631 42.8993L36.4839 43.472L36.6924 43.5372L36.894 43.4531L36.6631 42.8993ZM36.7791 42.8506L37.0126 43.4033L37.0126 43.4033L36.7791 42.8506ZM36.8972 42.8007L37.13 43.3537L37.1304 43.3535L36.8972 42.8007ZM36.9447 42.7807L37.1778 43.3335L37.1783 43.3333L36.9447 42.7807ZM40.0431 41.3768L39.7819 40.8366L39.7819 40.8367L40.0431 41.3768ZM48.5726 36.4149L48.9195 36.9044L49.1011 36.7757L49.1548 36.5598L48.5726 36.4149ZM49.1525 33.6841L48.5616 33.5798L48.5616 33.5799L49.1525 33.6841ZM49.6642 29.4109L50.2631 29.4471L50.2775 29.209L50.1245 29.026L49.6642 29.4109ZM49.6395 29.3819L49.3424 28.8606L48.7185 29.2162L49.1793 29.7669L49.6395 29.3819ZM49.6512 29.3756L49.9289 29.9074L49.929 29.9074L49.6512 29.3756ZM49.6629 29.3693L49.9597 29.8908L50.2426 29.7298L50.2619 29.4048L49.6629 29.3693ZM49.7153 26.9751L50.1713 26.5852L49.0864 25.3165L49.1154 26.9855L49.7153 26.9751ZM49.7182 26.9782L49.296 27.4045L49.2977 27.4062L49.7182 26.9782ZM49.7195 26.9795L49.2889 27.3973L50.3458 28.4866L50.3195 26.9691L49.7195 26.9795ZM49.1136 22.0507L49.6947 21.9011L49.6947 21.9011L49.1136 22.0507ZM45.4293 17.5083L45.415 18.1082L45.4187 18.1082L45.4293 17.5083ZM40.9293 20.7546L40.4434 20.4026L40.4433 20.4028L40.9293 20.7546ZM41.0554 21.358L41.2788 20.8011H41.2788L41.0554 21.358ZM44.2241 22.8717L44.5167 22.3479L44.5166 22.3479L44.2241 22.8717ZM48.4064 25.7681L48.0167 26.2243L48.0168 26.2244L48.4064 25.7681ZM48.9632 26.9777L49.5631 26.9645V26.9645L48.9632 26.9777ZM48.965 28.1489L49.5649 28.1602L49.5649 28.1599L48.965 28.1489ZM47.9184 29.3871L47.7838 28.8024L47.7838 28.8024L47.9184 29.3871ZM37.2402 33.3016L36.9809 32.7605L36.9703 32.7656L36.96 32.771L37.2402 33.3016ZM37.238 33.3027L37.4973 33.8438L37.5079 33.8387L37.5182 33.8333L37.238 33.3027ZM36.8568 33.0412L36.2676 32.928L36.2676 32.9281L36.8568 33.0412ZM37.0564 32.0374L36.4698 31.911L36.4698 31.911L37.0564 32.0374ZM37.4066 31.6099L37.153 31.0662L37.1526 31.0663L37.4066 31.6099ZM48.1517 27.8003L48.2797 28.3865L49.383 28.1455L48.5658 27.3661L48.1517 27.8003ZM43.2833 24.2462L42.9907 24.77L42.9908 24.7701L43.2833 24.2462ZM40.3736 22.848L39.9316 22.4423L39.3478 23.0783L40.1475 23.4037L40.3736 22.848ZM40.3743 22.8473L40.8163 23.253L41.4002 22.6168L40.6003 22.2915L40.3743 22.8473ZM40.3149 22.8235L40.5364 22.2659L40.5363 22.2659L40.3149 22.8235ZM40.264 22.8032L40.0381 23.3591L40.0393 23.3595L40.264 22.8032ZM40.2055 22.7796L39.9823 23.3365L39.9823 23.3366L40.2055 22.7796ZM40.1494 22.7573L40.3708 22.1996L40.3703 22.1994L40.1494 22.7573ZM39.7827 22.6152L39.9948 22.0539L39.9922 22.0529L39.7827 22.6152ZM39.7498 22.6029L39.5383 23.1644L39.5403 23.1652L39.7498 22.6029ZM38.3347 22.117L38.1563 22.6899L38.1572 22.6902L38.3347 22.117ZM38.2769 22.0996L38.106 22.6747L38.106 22.6747L38.2769 22.0996ZM38.2307 22.0857L38.4065 21.512L38.4052 21.5116L38.2307 22.0857ZM38.1771 22.0693L38.3533 21.4957L38.3532 21.4957L38.1771 22.0693ZM38.0962 22.0446L38.2685 21.4699L37.955 21.3759L37.7063 21.5886L38.0962 22.0446ZM38.0956 22.0452L37.924 22.6201L38.2371 22.7135L38.4854 22.5012L38.0956 22.0452ZM31.4023 21.1232L31.423 21.7228L31.4231 21.7228L31.4023 21.1232ZM24.0347 23.9175L23.5939 23.5105L23.584 23.5212L23.5747 23.5324L24.0347 23.9175ZM23.4737 24.6169L22.998 24.2512L22.9942 24.2563L23.4737 24.6169ZM23.4626 24.632L22.9863 24.2672L22.9768 24.2796L22.968 24.2924L23.4626 24.632ZM23.526 32.6302L24.0625 32.3615L24.0625 32.3614L23.526 32.6302ZM26.7737 37.0061L27.196 36.58L27.196 36.5799L26.7737 37.0061ZM27.8925 37.0292L27.5481 36.5379L27.548 36.5379L27.8925 37.0292ZM33.8962 33.3664L33.6129 32.8375L33.6129 32.8375L33.8962 33.3664ZM34.6797 32.3422L35.2676 32.4621L35.2676 32.4619L34.6797 32.3422ZM37.7604 23.1984L38.2963 23.4681L38.2964 23.468L37.7604 23.1984ZM38.3459 22.9271L38.1601 23.4976L38.1602 23.4976L38.3459 22.9271ZM38.9812 23.1435L38.7796 23.7087L38.7799 23.7087L38.9812 23.1435ZM39.1673 23.6929L39.7031 23.9629L39.7031 23.9629L39.1673 23.6929ZM36.291 32.1423L35.7039 32.0187L35.4376 33.2836L36.5756 32.6705L36.291 32.1423ZM36.2919 32.1418L36.8789 32.2659L37.1467 30.9997L36.0073 31.6136L36.2919 32.1418ZM36.0374 33.4517L35.4466 33.3474L35.4465 33.3475L36.0374 33.4517ZM35.9561 33.9337L36.0943 34.5176L36.4836 34.4255L36.5483 34.0306L35.9561 33.9337ZM35.9554 33.9339L35.8173 33.35L35.4258 33.4426L35.3628 33.84L35.9554 33.9339ZM35.9527 33.9516L36.5459 34.0419L36.5459 34.0416L35.9527 33.9516ZM35.947 33.9871L35.3562 33.8822L35.3555 33.8866L35.947 33.9871ZM35.9199 34.152L36.5141 34.2353L36.5141 34.2348L35.9199 34.152ZM35.8828 34.3998L36.4757 34.4914L36.4757 34.4914L35.8828 34.3998ZM35.8564 34.5733L35.2628 34.4858L35.2628 34.4858L35.8564 34.5733ZM35.8493 34.6195L35.2565 34.5271L35.2565 34.5272L35.8493 34.6195ZM35.8423 34.6655L35.2487 34.5782L35.0876 35.6733L36.0931 35.2106L35.8423 34.6655ZM35.8434 34.665L36.4372 34.7511L36.5957 33.6583L35.5925 34.12L35.8434 34.665ZM35.5532 41.8537L34.9553 41.9028L34.9553 41.9031L35.5532 41.8537ZM35.5627 41.9556L34.9654 42.0134L34.9655 42.0136L35.5627 41.9556ZM34.9835 42.828L34.7671 42.2684L34.7666 42.2685L34.9835 42.828ZM33.9771 43.2063L33.7717 42.6426L33.7713 42.6427L33.9771 43.2063ZM32.8134 43.1755L32.5545 43.7168L32.5546 43.7168L32.8134 43.1755ZM30.9863 42.2116L31.279 41.6879L31.2789 41.6878L30.9863 42.2116ZM27.1794 39.6283L26.7992 40.0925L26.7993 40.0926L27.1794 39.6283ZM25.5697 38.1829L25.9918 37.7565L25.9918 37.7565L25.5697 38.1829ZM22.0782 33.4754L22.6146 33.2067L22.6146 33.2067L22.0782 33.4754ZM20.8934 29.8537L20.2999 29.9416L20.2999 29.9417L20.8934 29.8537ZM20.5488 29.8688L21.1111 30.0782L21.1112 30.0781L20.5488 29.8688ZM19.6041 33.4509L19.0114 33.357L19.6041 33.4509ZM20.9691 42.8933L21.5034 42.6203L21.5033 42.6201L20.9691 42.8933ZM21.6897 42.8387L22.1989 43.156L22.199 43.156L21.6897 42.8387ZM24.7293 39.4856L25.124 39.9375L25.1251 39.9365L24.7293 39.4856ZM24.8374 39.3927L25.227 39.8489L25.2273 39.8487L24.8374 39.3927ZM25.6455 39.3513L25.2408 39.7942L25.2415 39.7949L25.6455 39.3513ZM25.8961 39.5767L26.2944 39.1279L26.2936 39.1272L25.8961 39.5767ZM25.8102 40.4544L26.1998 40.9107L26.2019 40.9089L25.8102 40.4544ZM29.1089 19.4704L29.4307 19.9768L29.4309 19.9767L29.1089 19.4704ZM29.2014 19.8213L29.3059 20.4122L29.3059 20.4122L29.2014 19.8213ZM31.5924 19.5753L31.5717 18.9756H31.5717L31.5924 19.5753ZM38.598 20.5084L38.7657 19.9323L38.7655 19.9322L38.598 20.5084ZM39.5933 20.1201L40.0821 20.4681L40.0821 20.468L39.5933 20.1201ZM42.5803 17.0287L42.921 17.5226L42.9211 17.5225L42.5803 17.0287ZM42.5265 16.5165L42.6255 15.9247L42.6255 15.9247L42.5265 16.5165ZM50.9835 31.9805L51.5783 32.0595L51.5784 32.0593L50.9835 31.9805ZM51.3687 31.86L50.8457 32.1543L50.8458 32.1544L51.3687 31.86ZM50.716 33.7117L50.1251 33.6074L50.1251 33.6075L50.716 33.7117ZM50.5573 34.5598L51.1459 34.6764L51.1459 34.6762L50.5573 34.5598ZM50.8319 34.6887L50.4493 34.2265L50.4488 34.2269L50.8319 34.6887ZM51.1397 34.4302L51.5289 34.8868L51.5292 34.8866L51.1397 34.4302ZM51.9101 33.7466L51.5029 33.3059L51.5025 33.3063L51.9101 33.7466ZM52.0465 33.2413L52.6 33.0097L52.6 33.0096L52.0465 33.2413ZM51.6845 32.4533L52.221 32.1847L52.221 32.1846L51.6845 32.4533ZM50.9201 21.0013L50.4758 21.4045L50.4762 21.4049L50.9201 21.0013ZM51.1948 21.3132L51.6511 20.9235L51.6511 20.9235L51.1948 21.3132ZM50.5892 21.207L50.0108 21.3666L50.0109 21.3671L50.5892 21.207ZM50.6573 21.4621L51.2384 21.3125L51.2383 21.3124L50.6573 21.4621ZM51.302 26.5709L51.9019 26.5576V26.5576L51.302 26.5709ZM52.0707 27.2811L52.0805 27.881L52.0806 27.881L52.0707 27.2811ZM53.7346 27.3989L53.8426 26.8087L53.8423 26.8087L53.7346 27.3989ZM54.1206 27.0051L53.5387 27.1514L53.5388 27.1517L54.1206 27.0051ZM56.1379 29.5586L55.5388 29.5914L55.5391 29.5964L56.1379 29.5586ZM52.477 20.2179L52.9332 19.8282L52.477 20.2179ZM56.1393 29.5827L55.5401 29.614L55.5401 29.6142L56.1393 29.5827ZM56.1406 29.6071L56.7399 29.576L56.7394 29.5691L56.1406 29.6071ZM55.9308 33.4509L55.3381 33.357L55.9308 33.4509ZM53.553 40.2792L53.0283 39.9882L53.0234 39.9969L53.0189 40.0058L53.553 40.2792ZM53.1406 40.9918L52.6375 40.6648L52.6321 40.673L52.627 40.6815L53.1406 40.9918ZM48.2852 46.6837L47.8955 46.2274L47.8955 46.2274L48.2852 46.6837ZM21.4897 46.6837L21.0334 47.0733L21.4897 46.6837ZM18.036 33.4509L17.4434 33.357L18.036 33.4509ZM22.2501 23.8257L22.7261 24.191L22.7333 24.1816L22.7402 24.1718L22.2501 23.8257ZM22.9226 22.9914L23.3644 23.3974L23.373 23.388L23.3812 23.3783L22.9226 22.9914ZM25.6814 20.2179L25.2918 19.7616L25.6814 20.2179ZM72.1728 34.9599C69.7678 54.0037 52.0431 69.4701 32.5979 69.4701V70.6701C52.6363 70.6701 70.8812 54.7652 73.3633 35.1102L72.1728 34.9599ZM41.4467 0.6C60.8357 0.6 74.57 15.9772 72.1728 34.9599L73.3633 35.1102C75.8532 15.3943 61.5414 -0.6 41.4467 -0.6V0.6ZM1.87178 35.1102C4.27673 16.0665 22.0014 0.6 41.4467 0.6V-0.6C21.4083 -0.6 3.16337 15.305 0.68124 34.9599L1.87178 35.1102ZM32.5979 69.4701C13.2088 69.4701 -0.525457 54.093 1.87178 35.1102L0.68124 34.9599C-1.8086 54.6759 12.5032 70.6701 32.5979 70.6701V69.4701ZM53.6842 33.8496C53.7259 33.6288 53.9009 33.5039 54.0594 33.4746C54.1428 33.4592 54.2587 33.4619 54.3776 33.5237C54.5088 33.5919 54.6005 33.7109 54.6365 33.8425L53.4791 34.1593C53.5297 34.3443 53.653 34.4995 53.824 34.5884C53.9827 34.6709 54.1466 34.6788 54.2776 34.6546C54.5312 34.6077 54.7995 34.4095 54.8632 34.0727L53.6842 33.8496ZM53.7545 33.4543C53.7334 33.5876 53.7118 33.7038 53.6842 33.8493L54.8632 34.073C54.8911 33.9257 54.9156 33.7944 54.9397 33.642L53.7545 33.4543ZM54.6043 33.932C54.5848 33.9529 54.4533 34.0852 54.2147 34.0521C54.0723 34.0324 53.9179 33.9495 53.8239 33.7923C53.7389 33.6501 53.7446 33.5168 53.7545 33.4543L54.9397 33.642C54.9583 33.525 54.957 33.3491 54.8539 33.1765C54.7418 32.989 54.5581 32.8882 54.3796 32.8635C54.0688 32.8204 53.8379 32.9944 53.7269 33.1134L54.6043 33.932ZM54.5282 34.0138L54.6048 33.9315L53.7264 33.114L53.6498 33.1963L54.5282 34.0138ZM54.5959 33.6969C54.637 33.8405 54.5839 33.9531 54.531 34.0107L53.6469 33.1993C53.4581 33.405 53.3527 33.7146 53.4423 34.0274L54.5959 33.6969ZM54.637 33.8443C54.6236 33.7948 54.6099 33.7455 54.5958 33.6966L53.4424 34.0277C53.455 34.0714 53.467 34.1147 53.4786 34.1574L54.637 33.8443ZM53.3051 31.3417C53.3313 31.3053 53.3795 31.274 53.4475 31.2718C53.4829 31.2707 53.5328 31.2776 53.587 31.3069C53.6444 31.3381 53.6933 31.3879 53.7225 31.4477L52.6445 31.9748C52.8209 32.3356 53.1763 32.4809 53.4849 32.4712C53.7884 32.4618 54.0865 32.3099 54.2787 32.0431L53.3051 31.3417ZM53.9432 29.8826C53.9496 29.8994 53.9788 30.0137 53.8909 30.2822C53.8056 30.5426 53.6264 30.8955 53.305 31.3418L54.2788 32.043C54.6454 31.534 54.8957 31.07 55.0314 30.6555C55.1644 30.2489 55.206 29.83 55.0659 29.4588L53.9432 29.8826ZM52.0159 29.427C52.7531 29.427 53.2525 29.5179 53.5665 29.6363C53.8877 29.7575 53.9406 29.8758 53.9435 29.8832L55.0657 29.4582C54.8928 29.0018 54.4799 28.6983 53.9899 28.5135C53.4927 28.326 52.8356 28.227 52.0159 28.227V29.427ZM52.0099 29.427H52.0159V28.227H52.0099V29.427ZM52.2012 28.9465C52.3167 29.1047 52.261 29.2605 52.2297 29.3109C52.1971 29.3635 52.1251 29.4269 52.0103 29.427L52.0095 28.227C51.6465 28.2273 51.3607 28.4353 51.2099 28.6784C51.0604 28.9194 50.9821 29.3118 51.2321 29.6541L52.2012 28.9465ZM53.6688 31.3393C53.259 30.5214 52.7669 29.7214 52.2013 28.9465L51.232 29.6541C51.7614 30.3791 52.218 31.1225 52.5959 31.8768L53.6688 31.3393ZM53.7219 31.4465C53.7044 31.4108 53.6868 31.3753 53.6693 31.3404L52.5954 31.8758C52.6124 31.9098 52.6289 31.9431 52.6451 31.976L53.7219 31.4465ZM51.6459 39.4427C51.5323 39.6469 51.4154 39.8493 51.2947 40.0494L52.3223 40.6692C52.4507 40.4562 52.5747 40.2415 52.6946 40.026L51.6459 39.4427ZM52.1541 35.7812C52.3539 37.1479 52.1724 38.3928 51.634 39.4652L52.7065 40.0036C53.3689 38.684 53.5722 37.1858 53.3414 35.6076L52.1541 35.7812ZM52.469 35.9778C52.4584 35.9868 52.4153 36.0126 52.3437 35.9941C52.3076 35.9847 52.2631 35.9629 52.2237 35.9209C52.1823 35.8768 52.1605 35.825 52.1541 35.7813L53.3414 35.6075C53.2816 35.1987 52.9866 34.921 52.6447 34.8324C52.3146 34.7469 51.9593 34.8354 51.6905 35.0646L52.469 35.9778ZM52.4702 35.9769L52.4759 35.9718L51.6836 35.0705L51.6779 35.0756L52.4702 35.9769ZM50.7451 37.3557C51.3537 36.8977 51.9282 36.4392 52.4634 35.9827L51.6846 35.0697C51.1701 35.5086 50.6148 35.9519 50.0235 36.397L50.7451 37.3557ZM50.3861 37.8624C50.4377 37.6782 50.5626 37.4931 50.745 37.3558L50.0236 36.3969C49.6458 36.6811 49.3583 37.083 49.2307 37.5384L50.3861 37.8624ZM48.6289 42.8016C49.3068 41.2653 49.8981 39.6025 50.3861 37.8624L49.2307 37.5384C48.7569 39.228 48.1842 40.8368 47.531 42.3171L48.6289 42.8016ZM48.2916 42.4383C48.3365 42.4189 48.4525 42.4083 48.5526 42.5037C48.5985 42.5475 48.6296 42.6051 48.6407 42.6666C48.652 42.7291 48.6396 42.7772 48.6287 42.8019L47.5311 42.3169C47.3692 42.6833 47.4382 43.0993 47.7245 43.3722C48.0056 43.6402 48.4134 43.693 48.7678 43.5398L48.2916 42.4383ZM51.2572 40.1059C50.5857 41.0871 49.5849 41.8787 48.2914 42.4384L48.768 43.5397C50.2337 42.9055 51.4278 41.9813 52.2475 40.7836L51.2572 40.1059ZM51.2818 40.0686C51.2706 40.0858 51.2635 40.0967 51.2568 40.1065L52.2479 40.7831C52.2638 40.7598 52.2783 40.7373 52.2889 40.7211L51.2818 40.0686ZM51.3081 40.0282C51.2984 40.0429 51.289 40.0575 51.2817 40.0686L52.2889 40.7211C52.297 40.7085 52.303 40.6993 52.3089 40.6904L51.3081 40.0282ZM47.4123 44.7351C47.2639 44.8693 47.1132 45.0019 46.9603 45.1324L47.7396 46.0449C47.9013 45.9069 48.0606 45.7668 48.2173 45.625L47.4123 44.7351ZM47.8358 45.4438C47.7671 45.4646 47.6672 45.4703 47.5613 45.4261C47.4579 45.383 47.3796 45.3046 47.3348 45.2139C47.2393 45.0204 47.31 44.8275 47.4126 44.7348L48.217 45.6252C48.4787 45.3889 48.5726 45.0105 48.4108 44.6827C48.2414 44.3394 47.8547 44.1844 47.4884 44.2952L47.8358 45.4438ZM47.0497 45.6573C47.3168 45.5929 47.5791 45.5217 47.8362 45.4437L47.4879 44.2953C47.2535 44.3664 47.0136 44.4316 46.7684 44.4907L47.0497 45.6573ZM47.2806 45.4849C47.2318 45.5701 47.1511 45.6327 47.0507 45.657L46.7674 44.491C46.5437 44.5453 46.3523 44.6913 46.2394 44.8883L47.2806 45.4849ZM46.8577 46.1982C47.0019 45.9647 47.1428 45.7261 47.281 45.4842L46.239 44.889C46.1065 45.1211 45.9726 45.3476 45.8368 45.5676L46.8577 46.1982ZM46.7542 46.3643C46.7889 46.3093 46.8235 46.2538 46.8581 46.1975L45.8364 45.5682C45.804 45.6207 45.7715 45.6729 45.7387 45.7249L46.7542 46.3643ZM46.1487 45.7918C46.263 45.7035 46.4777 45.6713 46.6515 45.8145C46.732 45.8808 46.7913 45.9787 46.8076 46.0927C46.8243 46.2097 46.7912 46.3057 46.7541 46.3645L45.7388 45.7248C45.5288 46.0581 45.5813 46.4875 45.8884 46.7405C46.1817 46.9822 46.59 46.9672 46.8822 46.7415L46.1487 45.7918ZM46.9606 45.1322C46.694 45.3596 46.4232 45.5795 46.1485 45.7919L46.8825 46.7413C47.1725 46.5171 47.4582 46.285 47.7394 46.0452L46.9606 45.1322ZM45.3822 43.2242C44.8733 43.2954 44.3411 43.3417 43.7873 43.3609L43.8288 44.5601C44.4226 44.5396 44.9966 44.4899 45.5485 44.4127L45.3822 43.2242ZM45.5128 43.1227C45.4835 43.181 45.4232 43.2185 45.3822 43.2242L45.5486 44.4127C45.9979 44.3497 46.3876 44.0553 46.5855 43.6605L45.5128 43.1227ZM47.2487 38.8549C46.7484 40.3857 46.1644 41.8226 45.5127 43.1228L46.5855 43.6605C47.2667 42.3015 47.8726 40.8088 48.3893 39.2277L47.2487 38.8549ZM47.8659 39.3563C47.7608 39.4241 47.5825 39.4493 47.4225 39.3405C47.2507 39.2235 47.1966 39.0143 47.2487 38.8548L48.3893 39.2277C48.4973 38.8974 48.3831 38.5427 48.0976 38.3484C47.824 38.1622 47.4785 38.1783 47.2156 38.3479L47.8659 39.3563ZM40.8219 43.2857C43.348 42.0645 45.7385 40.7284 47.8659 39.3563L47.2155 38.3479C45.1326 39.6912 42.7853 41.0036 40.2996 42.2053L40.8219 43.2857ZM39.7429 43.7962C40.1017 43.6299 40.4615 43.4599 40.8218 43.2857L40.2996 42.2053C39.9455 42.3765 39.5917 42.5437 39.2384 42.7073L39.7429 43.7962ZM39.5961 43.0252C39.6899 43.0427 39.7911 43.0973 39.864 43.1937C39.9326 43.2842 39.9545 43.3824 39.9534 43.4604C39.9512 43.6144 39.8625 43.7408 39.7427 43.7963L39.2387 42.7072C38.9384 42.8462 38.7577 43.1375 38.7535 43.4438C38.749 43.7713 38.9608 44.1272 39.3755 44.2047L39.5961 43.0252ZM43.7874 43.3608C42.4352 43.4073 41.0257 43.2929 39.5962 43.0252L39.3754 44.2047C40.8834 44.4871 42.381 44.6099 43.8287 44.5601L43.7874 43.3608ZM44.1044 45.5564C43.3169 46.7262 42.5173 47.6133 41.7598 48.1988C40.997 48.7884 40.3233 49.0378 39.7717 49.0276L39.7495 50.2274C40.6747 50.2445 41.6105 49.8309 42.4937 49.1482C43.3822 48.4614 44.2649 47.4668 45.0999 46.2265L44.1044 45.5564ZM44.4299 46.0635C44.3124 46.0726 44.1685 46.0069 44.0977 45.8683C44.0318 45.7395 44.0628 45.6182 44.1046 45.5562L45.0997 46.2267C45.2788 45.9611 45.3172 45.6176 45.1662 45.3222C45.0102 45.017 44.6884 44.84 44.3376 44.8671L44.4299 46.0635ZM43.6392 46.1079C43.906 46.0985 44.1698 46.0837 44.4301 46.0635L44.3373 44.8671C44.0943 44.886 43.8474 44.8998 43.597 44.9086L43.6392 46.1079ZM42.9521 46.1195C43.1818 46.1195 43.4108 46.1157 43.6387 46.1079L43.5975 44.9086C43.3838 44.9159 43.1685 44.9195 42.9521 44.9195V46.1195ZM36.4665 45.1578C38.6414 45.7883 40.8376 46.1195 42.9521 46.1195V44.9195C40.9613 44.9195 38.8776 44.6074 36.8006 44.0053L36.4665 45.1578ZM36.6068 45.1549C36.5798 45.1658 36.5302 45.1764 36.4656 45.1576L36.8015 44.0055C36.5799 43.9409 36.3532 43.9636 36.1594 44.0415L36.6068 45.1549ZM36.5693 45.1703L36.6097 45.1538L36.1565 44.0426L36.1161 44.0591L36.5693 45.1703ZM36.6565 44.9322C36.6785 45.0176 36.6551 45.0802 36.6392 45.1079C36.6228 45.1365 36.5987 45.1584 36.5664 45.1714L36.119 44.058C35.6981 44.2271 35.359 44.7062 35.4944 45.2316L36.6565 44.9322ZM36.6558 44.9295L36.6549 44.9263L35.496 45.2375L35.4968 45.2407L36.6558 44.9295ZM39.7711 49.0276C39.1936 49.0174 38.6095 48.7191 38.0584 48.0396C37.5025 47.3542 37.0124 46.3145 36.6573 44.9355L35.4953 45.2347C35.8762 46.7141 36.4256 47.9314 37.1265 48.7955C37.8322 49.6656 38.7222 50.2093 39.75 50.2274L39.7711 49.0276ZM36.4551 49.8793C35.7265 49.9699 34.9951 50.0163 34.2646 50.0163V51.2163C35.0459 51.2163 35.8268 51.1667 36.6032 51.0702L36.4551 49.8793ZM36.3346 50.4268C36.1824 50.2798 36.2152 50.0969 36.247 50.0284C36.2789 49.9599 36.3483 49.8926 36.455 49.8793L36.6033 51.0701C36.9533 51.0266 37.2135 50.7963 37.3353 50.5339C37.4572 50.2716 37.4794 49.864 37.168 49.5634L36.3346 50.4268ZM33.9516 45.8231C34.4649 47.817 35.2631 49.3936 36.3349 50.427L37.1678 49.5631C36.3128 48.7388 35.5954 47.3949 35.1137 45.5239L33.9516 45.8231ZM33.9521 45.8252L33.953 45.8284L35.1123 45.5186L35.1114 45.5154L33.9521 45.8252ZM34.2957 46.0329C34.2578 46.0463 34.1912 46.0533 34.116 46.0183C34.0372 45.9815 33.9735 45.9082 33.9508 45.8201L35.1128 45.5205C34.9628 44.9391 34.3634 44.7353 33.8938 44.9021L34.2957 46.0329ZM28.0986 47.7586C29.9725 47.413 32.0764 46.8226 34.2959 46.0328L33.8936 44.9022C31.7182 45.6763 29.6773 46.2472 27.8809 46.5785L28.0986 47.7586ZM25.6638 48.074C26.4041 48.0269 27.2173 47.9214 28.0987 47.7586L27.8807 46.5785C27.0366 46.7345 26.2716 46.8329 25.5877 46.8764L25.6638 48.074ZM25.5227 48.0815C25.5725 48.0792 25.6197 48.0767 25.6618 48.0741L25.5896 46.8763C25.5537 46.8785 25.5121 46.8807 25.4673 46.8828L25.5227 48.0815ZM25.6574 47.4167C25.7452 47.4789 25.8045 47.5748 25.8241 47.6767C25.8419 47.769 25.8239 47.8438 25.803 47.8918C25.7647 47.9799 25.6699 48.0749 25.5219 48.0815L25.468 46.8827C25.0916 46.8996 24.8188 47.146 24.7026 47.4133C24.5856 47.6823 24.5811 48.125 24.9639 48.3961L25.6574 47.4167ZM34.2646 50.0163C30.9995 50.0163 28.0417 49.1031 25.6572 47.4166L24.9642 48.3963C27.5688 50.2384 30.7735 51.2163 34.2646 51.2163V50.0163ZM28.7323 38.9361C30.4359 37.7208 32.4033 36.5048 34.5372 35.3514L33.9666 34.2957C31.7953 35.4693 29.7848 36.7112 28.0354 37.9592L28.7323 38.9361ZM32.2196 40.3136C30.9646 39.6124 29.8057 38.8281 28.7617 37.9816L28.006 38.9137C29.1054 39.8052 30.3216 40.6278 31.6343 41.3612L32.2196 40.3136ZM34.1922 41.3068C33.5261 41.0062 32.8672 40.6752 32.2195 40.3135L31.6345 41.3613C32.3125 41.7399 33.0019 42.0862 33.6985 42.4005L34.1922 41.3068ZM33.6578 34.7395C33.3013 37.2615 33.1965 39.6909 33.3467 41.8945L34.5439 41.8128C34.4001 39.7037 34.4995 37.3587 34.846 34.9075L33.6578 34.7395ZM23.1272 44.8979C23.1222 44.8847 23.0976 44.7957 23.1531 44.5872C23.2075 44.3831 23.3289 44.1042 23.5552 43.7485C24.0079 43.0369 24.8362 42.087 26.2008 40.9099L25.4169 40.0012C24.0031 41.2209 23.0812 42.2579 22.5427 43.1043C22.2734 43.5275 22.089 43.9203 21.9936 44.2783C21.8994 44.6318 21.8811 44.9953 22.0048 45.3225L23.1272 44.8979ZM27.8254 45.0577C26.0789 45.3801 24.8753 45.4074 24.1026 45.291C23.2807 45.1672 23.1347 44.9178 23.1272 44.8979L22.0048 45.3225C22.2586 45.9932 23.0168 46.341 23.9239 46.4776C24.8801 46.6217 26.23 46.5725 28.0432 46.2378L27.8254 45.0577ZM32.5953 43.7895C30.8762 44.3623 29.2651 44.7921 27.8254 45.0577L28.0431 46.2378C29.5496 45.9598 31.2156 45.5141 32.9747 44.9279L32.5953 43.7895ZM33.068 43.8296L33.0673 43.8293L32.5026 44.8881L32.5033 44.8885L33.068 43.8296ZM32.6205 43.7814C32.6099 43.7851 32.6025 43.7876 32.5955 43.79L32.9757 44.9281C32.9887 44.9238 33.0013 44.9194 33.0108 44.9162L32.6205 43.7814ZM32.6578 43.7688C32.6439 43.7734 32.6306 43.778 32.6206 43.7814L33.0106 44.9162C33.0212 44.9126 33.0285 44.9101 33.0352 44.9079L32.6578 43.7688ZM33.141 43.6045C32.979 43.6606 32.8176 43.7153 32.656 43.7694L33.037 44.9073C33.2011 44.8523 33.3667 44.7963 33.534 44.7383L33.141 43.6045ZM33.2001 43.5837C33.1787 43.5913 33.1605 43.5978 33.1428 43.6038L33.5321 44.7389C33.5562 44.7307 33.5799 44.7223 33.6005 44.715L33.2001 43.5837ZM33.2529 43.5652C33.2345 43.5716 33.2163 43.578 33.2001 43.5838L33.6006 44.715C33.6173 44.709 33.6321 44.7038 33.6465 44.6988L33.2529 43.5652ZM33.6564 43.4227C33.5208 43.4711 33.3861 43.5187 33.2521 43.5655L33.6472 44.6985C33.7845 44.6507 33.9221 44.602 34.0599 44.5528L33.6564 43.4227ZM33.8246 43.362C33.7687 43.3824 33.713 43.4023 33.6551 43.4232L34.0612 44.5524C34.1175 44.5321 34.1763 44.511 34.2351 44.4896L33.8246 43.362ZM33.8889 43.3389C33.8684 43.3462 33.8469 43.3539 33.8252 43.3618L34.2345 44.4898C34.2539 44.4828 34.2734 44.4758 34.294 44.4684L33.8889 43.3389ZM33.9619 43.3125C33.9382 43.3212 33.9144 43.3297 33.8888 43.3389L34.2941 44.4684C34.3192 44.4594 34.346 44.4498 34.3732 44.4398L33.9619 43.3125ZM33.6014 44.0749L33.6016 44.0755L34.7335 43.6768L34.7332 43.6761L33.6014 44.0749ZM36.4304 42.3451C35.5934 42.6944 34.7685 43.0172 33.9615 43.3119L34.3731 44.4391C35.1978 44.138 36.0396 43.8085 36.8925 43.4526L36.4304 42.3451ZM36.8423 42.3267L36.8407 42.3262L36.4823 43.4714L36.4839 43.472L36.8423 42.3267ZM36.5455 42.2979C36.5071 42.3142 36.4695 42.33 36.4322 42.3455L36.894 43.4531C36.9339 43.4365 36.9737 43.4197 37.0126 43.4033L36.5455 42.2979ZM36.6644 42.2477C36.6246 42.2645 36.5843 42.2815 36.5455 42.2979L37.0126 43.4033C37.0526 43.3864 37.0911 43.3701 37.13 43.3537L36.6644 42.2477ZM36.7115 42.2278L36.664 42.2479L37.1304 43.3535L37.1778 43.3335L36.7115 42.2278ZM39.7819 40.8367C38.7492 41.3359 37.7224 41.8005 36.711 42.228L37.1783 43.3333C38.2084 42.8978 39.2536 42.4249 40.3042 41.917L39.7819 40.8367ZM48.2257 35.9253C45.8307 37.6224 42.9263 39.3168 39.7819 40.8366L40.3042 41.917C43.4991 40.3727 46.4624 38.6455 48.9195 36.9044L48.2257 35.9253ZM48.5616 33.5799C48.4008 34.4914 48.2092 35.3904 47.9903 36.27L49.1548 36.5598C49.3803 35.6536 49.5777 34.7275 49.7434 33.7884L48.5616 33.5799ZM49.0653 29.3746C48.9835 30.7275 48.8161 32.1384 48.5616 33.5798L49.7434 33.7884C50.0054 32.3041 50.1784 30.8477 50.2631 29.4471L49.0653 29.3746ZM49.1975 29.7883C49.2021 29.7936 49.2033 29.795 49.2039 29.7958L50.1245 29.026C50.1169 29.0169 50.1098 29.0087 50.106 29.0043L49.1975 29.7883ZM49.1793 29.7669C49.1867 29.7758 49.1939 29.7841 49.1975 29.7883L50.106 29.0043C50.1014 28.9989 50.1002 28.9976 50.0997 28.9969L49.1793 29.7669ZM49.3735 28.8437C49.3712 28.8449 49.3574 28.8521 49.3424 28.8606L49.9366 29.9032C49.9322 29.9057 49.929 29.9074 49.9279 29.908C49.927 29.9084 49.9266 29.9087 49.9289 29.9074L49.3735 28.8437ZM49.3662 28.8478C49.3704 28.8454 49.3735 28.8437 49.3746 28.8432C49.3754 28.8427 49.3758 28.8425 49.3735 28.8438L49.929 29.9074C49.9313 29.9062 49.9449 29.8992 49.9597 29.8908L49.3662 28.8478ZM49.1154 26.9855C49.1285 27.7435 49.1118 28.5279 49.064 29.3338L50.2619 29.4048C50.3114 28.5697 50.3289 27.7546 50.3152 26.9647L49.1154 26.9855ZM50.1405 26.552C50.1391 26.5506 50.1404 26.5518 50.1407 26.5521C50.1415 26.553 50.1435 26.5549 50.146 26.5575C50.151 26.5626 50.1603 26.5723 50.1713 26.5852L49.2593 27.3651C49.2712 27.3791 49.2815 27.3898 49.2874 27.3959C49.2924 27.401 49.2978 27.4063 49.296 27.4045L50.1405 26.552ZM50.1502 26.5617C50.1456 26.557 50.1417 26.5531 50.1387 26.5502L49.2977 27.4062C49.2957 27.4042 49.2926 27.4011 49.2889 27.3973L50.1502 26.5617ZM48.5326 22.2003C48.8909 23.5923 49.0888 25.2127 49.1196 26.9899L50.3195 26.9691C50.2874 25.1197 50.0813 23.403 49.6947 21.9011L48.5326 22.2003ZM45.4187 18.1082C45.9963 18.1185 46.5804 18.4169 47.1315 19.0963C47.6874 19.7817 48.1775 20.8214 48.5326 22.2003L49.6947 21.9011C49.3137 20.4217 48.7643 19.2044 48.0634 18.3403C47.3577 17.4703 46.4677 16.9266 45.44 16.9084L45.4187 18.1082ZM45.387 18.108C45.4023 18.108 45.4093 18.108 45.415 18.1082L45.4436 16.9085C45.4212 16.908 45.3999 16.908 45.387 16.908V18.108ZM41.4152 21.1066C42.1441 20.1002 42.875 19.3395 43.5654 18.8355C44.2594 18.3288 44.8748 18.108 45.387 18.108V16.908C44.5343 16.908 43.6746 17.2699 42.8578 17.8663C42.0374 18.4653 41.2219 19.3279 40.4434 20.4026L41.4152 21.1066ZM41.2788 20.8011C41.3603 20.8338 41.4166 20.9093 41.4322 20.9836C41.4463 21.0513 41.4244 21.0939 41.4153 21.1064L40.4433 20.4028C40.1101 20.863 40.1516 21.6419 40.832 21.9148L41.2788 20.8011ZM44.5166 22.3479C43.4614 21.7584 42.3775 21.2418 41.2788 20.8011L40.832 21.9148C41.8832 22.3365 42.9209 22.8311 43.9315 23.3955L44.5166 22.3479ZM48.7961 25.3118C47.5192 24.2211 46.0825 23.2227 44.5167 22.3479L43.9314 23.3955C45.4312 24.2334 46.8024 25.187 48.0167 26.2243L48.7961 25.3118ZM49.5631 26.9645C49.549 26.3216 49.2808 25.7257 48.796 25.3118L48.0168 26.2244C48.2267 26.4035 48.3564 26.6697 48.3634 26.9908L49.5631 26.9645ZM49.5649 28.1599C49.5724 27.7552 49.5717 27.3565 49.5631 26.9645L48.3634 26.9908C48.3716 27.3663 48.3723 27.7489 48.3651 28.1379L49.5649 28.1599ZM48.053 29.9718C48.8878 29.7797 49.5486 29.0228 49.5649 28.1602L48.3651 28.1376C48.36 28.4111 48.1205 28.7249 47.7838 28.8024L48.053 29.9718ZM37.4995 33.8426C41.2833 32.0292 44.9731 30.6811 48.0531 29.9718L47.7838 28.8024C44.5964 29.5365 40.8218 30.9197 36.9809 32.7605L37.4995 33.8426ZM37.5182 33.8333L37.5205 33.8321L36.96 32.771L36.9578 32.7722L37.5182 33.8333ZM36.2676 32.9281C36.2029 33.265 36.3365 33.5973 36.6127 33.7868C36.8804 33.9704 37.2167 33.9783 37.4973 33.8438L36.9786 32.7617C37.0472 32.7288 37.172 32.7152 37.2916 32.7973C37.4197 32.8852 37.4688 33.0359 37.4461 33.1543L36.2676 32.9281ZM36.4698 31.911C36.4212 32.1365 36.3342 32.5811 36.2676 32.928L37.446 33.1544C37.5132 32.8051 37.5976 32.3739 37.6429 32.1638L36.4698 31.911ZM37.1526 31.0663C36.8167 31.2233 36.5511 31.534 36.4698 31.911L37.6429 32.1639C37.6423 32.1665 37.6417 32.1684 37.6413 32.1697C37.6409 32.1709 37.6406 32.1715 37.6406 32.1715C37.6405 32.1715 37.6408 32.1711 37.6413 32.1702C37.6418 32.1694 37.6426 32.1683 37.6437 32.167C37.6459 32.1643 37.6488 32.1614 37.6521 32.1589C37.6553 32.1563 37.6583 32.1546 37.6606 32.1535L37.1526 31.0663ZM48.0236 27.2142C44.8157 27.9149 41.0235 29.2611 37.153 31.0662L37.6602 32.1537C41.4737 30.3752 45.1803 29.0635 48.2797 28.3865L48.0236 27.2142ZM42.9908 24.7701C44.7897 25.7748 46.3907 26.9501 47.7376 28.2346L48.5658 27.3661C47.1407 26.0072 45.4569 24.773 43.5759 23.7224L42.9908 24.7701ZM40.1475 23.4037C41.1102 23.7955 42.0619 24.251 42.9907 24.77L43.576 23.7225C42.6037 23.1791 41.6075 22.7023 40.5998 22.2922L40.1475 23.4037ZM39.9322 22.4416L39.9316 22.4423L40.8157 23.2537L40.8163 23.253L39.9322 22.4416ZM40.0934 23.3811C40.1134 23.3891 40.131 23.3961 40.1482 23.4031L40.6003 22.2915C40.5779 22.2824 40.5559 22.2736 40.5364 22.2659L40.0934 23.3811ZM40.0393 23.3595C40.0582 23.3671 40.0767 23.3745 40.0934 23.3811L40.5363 22.2659C40.5191 22.259 40.5037 22.2529 40.4887 22.2469L40.0393 23.3595ZM39.9823 23.3366C40.0011 23.3441 40.0197 23.3516 40.0381 23.3591L40.4899 22.2473C40.4694 22.239 40.4489 22.2308 40.4286 22.2226L39.9823 23.3366ZM39.9281 23.3149C39.9463 23.3222 39.9644 23.3294 39.9823 23.3365L40.4286 22.2226C40.4092 22.2148 40.3899 22.2072 40.3708 22.1996L39.9281 23.3149ZM39.5707 23.1765C39.6897 23.2215 39.8089 23.2678 39.9286 23.3151L40.3703 22.1994C40.2459 22.1501 40.1208 22.1015 39.9948 22.0539L39.5707 23.1765ZM39.5403 23.1652L39.5733 23.1775L39.9922 22.0529L39.9592 22.0406L39.5403 23.1652ZM38.1572 22.6902C38.6182 22.8329 39.0787 22.9914 39.5383 23.1644L39.9612 22.0414C39.4804 21.8603 38.9972 21.694 38.5121 21.5439L38.1572 22.6902ZM38.106 22.6747C38.1259 22.6806 38.1414 22.6853 38.1563 22.6899L38.513 21.5441C38.4895 21.5368 38.4665 21.53 38.4479 21.5245L38.106 22.6747ZM38.055 22.6594C38.0732 22.665 38.091 22.6703 38.106 22.6747L38.4479 21.5245C38.4321 21.5198 38.4191 21.5159 38.4065 21.512L38.055 22.6594ZM38.001 22.6429C38.0188 22.6483 38.0375 22.6541 38.0563 22.6598L38.4052 21.5116C38.3883 21.5065 38.3712 21.5013 38.3533 21.4957L38.001 22.6429ZM37.9238 22.6194C37.9487 22.6268 37.9738 22.6345 38.0011 22.6429L38.3532 21.4957C38.3265 21.4875 38.2977 21.4787 38.2685 21.4699L37.9238 22.6194ZM38.4854 22.5012L38.486 22.5007L37.7063 21.5886L37.7057 21.5891L38.4854 22.5012ZM32.0174 21.7126C33.9205 21.7126 35.9232 22.0229 37.924 22.6201L38.2672 21.4702C36.1673 20.8435 34.0489 20.5126 32.0174 20.5126V21.7126ZM31.4231 21.7228C31.6202 21.716 31.8181 21.7126 32.0174 21.7126V20.5126C31.8044 20.5126 31.5926 20.5162 31.3815 20.5235L31.4231 21.7228ZM24.4755 24.3246C25.8992 22.7826 28.2959 21.8307 31.423 21.7228L31.3816 20.5235C28.0588 20.6382 25.307 21.6551 23.5939 23.5105L24.4755 24.3246ZM23.9495 24.9825C24.126 24.7527 24.3077 24.5261 24.4947 24.3027L23.5747 23.5324C23.3767 23.7688 23.1846 24.0084 22.998 24.2513L23.9495 24.9825ZM23.939 24.9968C23.9433 24.9912 23.9469 24.9864 23.9496 24.9827C23.9521 24.9792 23.9544 24.9761 23.9554 24.9746C23.9569 24.9725 23.9568 24.9727 23.9567 24.9728C23.9565 24.9731 23.9552 24.9749 23.9533 24.9774L22.9942 24.2563C22.9904 24.2613 22.9873 24.2655 22.9852 24.2684C22.9834 24.2709 22.9814 24.2737 22.9811 24.2741C22.9803 24.2752 22.9807 24.2747 22.9814 24.2737C22.9822 24.2726 22.9839 24.2703 22.9863 24.2672L23.939 24.9968ZM24.0625 32.3614C22.6156 29.4734 22.6485 26.8783 23.9573 24.9716L22.968 24.2924C21.3368 26.6687 21.4148 29.7556 22.9896 32.8989L24.0625 32.3614ZM27.196 36.5799C25.8605 35.2568 24.7978 33.8295 24.0625 32.3615L22.9896 32.8989C23.7917 34.5004 24.9375 36.0316 26.3514 37.4324L27.196 36.5799ZM27.548 36.5379C27.4614 36.5986 27.3748 36.6196 27.3097 36.6182C27.2456 36.6169 27.2119 36.5957 27.196 36.58L26.3513 37.4323C26.8794 37.9556 27.684 37.9081 28.2369 37.5205L27.548 36.5379ZM33.6129 32.8375C31.409 34.0181 29.355 35.2715 27.5481 36.5379L28.2368 37.5205C29.9998 36.2849 32.0125 35.0561 34.1795 33.8953L33.6129 32.8375ZM34.0918 32.2224C34.0434 32.4597 33.8688 32.7004 33.6129 32.8375L34.1795 33.8953C34.7299 33.6005 35.1435 33.071 35.2676 32.4621L34.0918 32.2224ZM37.2244 22.9286C35.8606 25.6387 34.78 28.842 34.0918 32.2225L35.2676 32.4619C35.9375 29.1719 36.9862 26.0715 38.2963 23.4681L37.2244 22.9286ZM38.5318 22.3566C37.9975 22.1825 37.45 22.4802 37.2244 22.9287L38.2964 23.468C38.2878 23.485 38.2771 23.4933 38.2666 23.4981C38.257 23.5026 38.2186 23.5166 38.1601 23.4976L38.5318 22.3566ZM39.1827 22.5784C38.9657 22.501 38.7486 22.4272 38.5317 22.3565L38.1602 23.4976C38.3672 23.565 38.5737 23.6352 38.7796 23.7087L39.1827 22.5784ZM39.7031 23.9629C39.9494 23.4741 39.7998 22.7981 39.1824 22.5783L38.7799 23.7087C38.7117 23.6845 38.654 23.6254 38.6301 23.5548C38.6078 23.4889 38.6226 23.4405 38.6315 23.4229L39.7031 23.9629ZM36.8781 32.2659C37.5205 29.2145 38.4968 26.3566 39.7031 23.9629L38.6315 23.4228C37.3722 25.9217 36.3646 28.8801 35.7039 32.0187L36.8781 32.2659ZM36.0073 31.6136L36.0064 31.6141L36.5756 32.6705L36.5765 32.67L36.0073 31.6136ZM36.6283 33.556C36.7047 33.1231 36.7886 32.6929 36.8789 32.2659L35.7049 32.0176C35.612 32.457 35.5255 32.9004 35.4466 33.3474L36.6283 33.556ZM36.5483 34.0306C36.5744 33.8707 36.6006 33.7132 36.6283 33.5559L35.4465 33.3475C35.4175 33.5123 35.3904 33.6757 35.364 33.8368L36.5483 34.0306ZM36.0936 34.5178L36.0943 34.5176L35.818 33.3498L35.8173 33.35L36.0936 34.5178ZM36.5459 34.0416C36.5468 34.0355 36.5475 34.0314 36.548 34.0277L35.3628 33.84C35.3615 33.8481 35.3604 33.8559 35.3595 33.8616L36.5459 34.0416ZM36.5378 34.092C36.5414 34.0715 36.5443 34.0523 36.5459 34.0419L35.3595 33.8613C35.3575 33.8745 35.3568 33.8789 35.3563 33.8822L36.5378 34.092ZM36.5141 34.2348C36.5187 34.202 36.5293 34.1418 36.5385 34.0875L35.3555 33.8866C35.3495 33.9219 35.3335 34.0129 35.3256 34.0692L36.5141 34.2348ZM36.4757 34.4914C36.4884 34.4093 36.5018 34.3224 36.5141 34.2353L35.3257 34.0688C35.3148 34.1462 35.3027 34.2247 35.2898 34.3082L36.4757 34.4914ZM36.45 34.6608C36.4581 34.6055 36.4667 34.5496 36.4757 34.4914L35.2898 34.3082C35.2809 34.3657 35.2717 34.4257 35.2628 34.4858L36.45 34.6608ZM36.4422 34.7118C36.4445 34.6967 36.4473 34.6789 36.45 34.6607L35.2628 34.4858C35.2609 34.4984 35.2589 34.5114 35.2565 34.5271L36.4422 34.7118ZM36.4359 34.7528C36.4377 34.7405 36.4397 34.7275 36.4422 34.7117L35.2565 34.5272C35.2541 34.5422 35.2513 34.5601 35.2487 34.5782L36.4359 34.7528ZM35.5925 34.12L35.5914 34.1205L36.0931 35.2106L36.0942 35.2101L35.5925 34.12ZM36.1512 41.8045C35.9767 39.6815 36.0706 37.2787 36.4372 34.7511L35.2496 34.5789C34.8722 37.1809 34.7722 39.6755 34.9553 41.9028L36.1512 41.8045ZM36.1599 41.8979C36.1556 41.8535 36.1526 41.821 36.1512 41.8042L34.9553 41.9031C34.9574 41.9287 34.9611 41.9683 34.9654 42.0134L36.1599 41.8979ZM35.1999 43.3876C35.787 43.1605 36.2237 42.5564 36.1599 41.8977L34.9655 42.0136C34.9711 42.0715 34.9155 42.211 34.7671 42.2684L35.1999 43.3876ZM34.1826 43.7701C34.5189 43.6475 34.8583 43.52 35.2004 43.3874L34.7666 42.2685C34.4322 42.3982 34.1005 42.5228 33.7717 42.6426L34.1826 43.7701ZM32.5546 43.7168C33.0596 43.9583 33.6476 43.9655 34.183 43.7699L33.7713 42.6427C33.5051 42.74 33.255 42.7216 33.0722 42.6342L32.5546 43.7168ZM30.6937 42.7354C31.3076 43.0784 31.9186 43.4126 32.5545 43.7168L33.0723 42.6343C32.4727 42.3474 31.8893 42.0288 31.279 41.6879L30.6937 42.7354ZM26.7993 40.0926C27.9781 41.0578 29.2826 41.9472 30.6937 42.7355L31.2789 41.6878C29.9282 40.9333 28.6825 40.0835 27.5595 39.1641L26.7993 40.0926ZM25.1475 38.6093C25.6654 39.122 26.2182 39.6166 26.7992 40.0925L27.5596 39.1642C27.0051 38.71 26.4806 38.2405 25.9918 37.7565L25.1475 38.6093ZM21.5417 33.7441C22.4044 35.4664 23.6333 37.1101 25.1475 38.6093L25.9918 37.7565C24.5567 36.3357 23.4107 34.796 22.6146 33.2067L21.5417 33.7441ZM20.2999 29.9417C20.4847 31.1878 20.9007 32.4647 21.5417 33.7442L22.6146 33.2067C22.0233 32.0265 21.6508 30.871 21.4869 29.7657L20.2999 29.9417ZM21.1112 30.0781C21.0523 30.2363 20.9061 30.3236 20.7626 30.3299C20.6883 30.3332 20.5859 30.3163 20.4875 30.2455C20.3796 30.1679 20.3164 30.0531 20.2999 29.9416L21.4869 29.7658C21.4577 29.5681 21.3532 29.3901 21.1885 29.2716C21.0334 29.1599 20.8588 29.1245 20.7097 29.1311C20.4167 29.1441 20.111 29.3251 19.9865 29.6596L21.1112 30.0781ZM20.1967 33.5447C20.3832 32.3669 20.6909 31.2066 21.1111 30.0782L19.9866 29.6594C19.5393 30.8604 19.2108 32.0981 19.0114 33.357L20.1967 33.5447ZM21.5033 42.6201C20.1452 39.9643 19.675 36.8385 20.1967 33.5447L19.0114 33.357C18.4536 36.8792 18.9512 40.2651 20.4349 43.1665L21.5033 42.6201ZM21.1804 42.5215C21.1948 42.4983 21.223 42.4773 21.2675 42.474C21.2914 42.4722 21.3318 42.4748 21.3793 42.4983C21.4308 42.5238 21.4763 42.5672 21.5034 42.6203L20.4348 43.1663C20.6339 43.5559 21.0278 43.6956 21.3582 43.6705C21.6846 43.6458 22.0058 43.4659 22.1989 43.156L21.1804 42.5215ZM24.3345 39.0337C22.9192 40.2701 21.8541 41.4399 21.1804 42.5215L22.199 43.156C22.7862 42.2132 23.756 41.1325 25.124 39.9375L24.3345 39.0337ZM24.4477 38.9364C24.3933 38.9829 24.3491 39.021 24.3334 39.0347L25.1251 39.9365C25.1336 39.929 25.1715 39.8964 25.227 39.8489L24.4477 38.9364ZM26.0502 38.9083C25.5669 38.4667 24.8719 38.5737 24.4474 38.9367L25.2273 39.8487C25.2557 39.8245 25.2802 39.8196 25.2878 39.8192C25.291 39.8191 25.2873 39.8198 25.278 39.8168C25.268 39.8135 25.2542 39.8065 25.2408 39.7942L26.0502 38.9083ZM26.2936 39.1272C26.2123 39.0553 26.1312 38.9821 26.0495 38.9077L25.2415 39.7949C25.3254 39.8713 25.4113 39.9489 25.4986 40.0261L26.2936 39.1272ZM26.2019 40.9089C26.6803 40.4967 26.8902 39.6568 26.2944 39.1279L25.4978 40.0254C25.481 40.0105 25.4686 39.9911 25.4619 39.9726C25.4558 39.9554 25.4567 39.9452 25.4567 39.9446C25.4568 39.9441 25.4562 39.9504 25.4503 39.9615C25.4447 39.9721 25.4348 39.9858 25.4186 39.9998L26.2019 40.9089ZM26.1984 40.9119L26.1998 40.9107L25.4207 39.998L25.4193 39.9992L26.1984 40.9119ZM29.4309 19.9767C32.5939 17.9649 36.155 16.8856 39.702 16.8856V15.6856C35.9111 15.6856 32.1287 16.8387 28.7869 18.9641L29.4309 19.9767ZM29.0969 19.2305C29.1742 19.2168 29.2871 19.2252 29.3959 19.2955C29.5003 19.363 29.5601 19.4615 29.5841 19.5532C29.6332 19.7403 29.545 19.9042 29.4307 19.9768L28.7871 18.964C28.4823 19.1577 28.3338 19.5159 28.4234 19.8576C28.4677 20.0266 28.573 20.1925 28.7445 20.3034C28.9204 20.417 29.122 20.4447 29.3059 20.4122L29.0969 19.2305ZM31.5717 18.9756C30.7115 19.0053 29.885 19.091 29.0968 19.2305L29.3059 20.4122C30.0356 20.283 30.8058 20.2028 31.6131 20.1749L31.5717 18.9756ZM38.7655 19.9322C36.3476 19.229 33.9024 18.8953 31.5717 18.9756L31.6131 20.1749C33.8027 20.0994 36.1207 20.4127 38.4304 21.0845L38.7655 19.9322ZM39.1045 19.7721C38.9963 19.9241 38.8353 19.9525 38.7657 19.9323L38.4303 21.0845C39.0592 21.2675 39.7218 20.9741 40.0821 20.4681L39.1045 19.7721ZM42.2397 16.5347C41.1481 17.2876 40.0928 18.3837 39.1045 19.7721L40.0821 20.468C41.0137 19.1592 41.9745 18.1754 42.921 17.5226L42.2397 16.5347ZM42.4275 17.1083C42.3612 17.0972 42.2847 17.0612 42.2237 16.9934C42.1654 16.9288 42.1392 16.8553 42.1326 16.7931C42.1194 16.6687 42.1789 16.5767 42.2395 16.5348L42.9211 17.5225C43.2064 17.3256 43.3611 16.998 43.3259 16.6664C43.2889 16.3177 43.0353 15.9933 42.6255 15.9247L42.4275 17.1083ZM39.702 16.8856C40.6381 16.8856 41.5485 16.9612 42.4275 17.1083L42.6255 15.9247C41.6795 15.7665 40.7028 15.6856 39.702 15.6856V16.8856ZM51.5784 32.0593C51.5556 32.2308 51.4328 32.3273 51.3311 32.3591C51.2757 32.3764 51.1944 32.3863 51.1004 32.3579C50.9971 32.3266 50.9024 32.2549 50.8457 32.1543L51.8916 31.5658C51.6675 31.1675 51.2386 31.1307 50.973 31.2138C50.7078 31.2967 50.4375 31.5335 50.3887 31.9018L51.5784 32.0593ZM51.3069 33.816C51.4111 33.2258 51.5013 32.6399 51.5783 32.0595L50.3888 31.9016C50.3139 32.4653 50.2263 33.0343 50.1251 33.6074L51.3069 33.816ZM51.1459 34.6762C51.2024 34.3907 51.2561 34.104 51.3069 33.816L50.1251 33.6075C50.0758 33.8873 50.0236 34.1658 49.9687 34.4434L51.1459 34.6762ZM50.4488 34.2269C50.5493 34.1436 50.7193 34.0997 50.8889 34.1791C50.9725 34.2182 51.0524 34.2876 51.1032 34.3868C51.1554 34.4888 51.1623 34.5935 51.1459 34.6764L49.9687 34.4432C49.899 34.7955 50.0781 35.1245 50.3802 35.2659C50.6624 35.398 50.985 35.3413 51.2149 35.1506L50.4488 34.2269ZM50.7504 33.9736C50.6518 34.0577 50.5514 34.142 50.4493 34.2265L51.2144 35.151C51.3209 35.0628 51.4258 34.9747 51.5289 34.8868L50.7504 33.9736ZM51.5025 33.3063C51.2711 33.5205 51.0209 33.7427 50.7501 33.9739L51.5292 34.8866C51.8113 34.6458 52.0735 34.4129 52.3177 34.1869L51.5025 33.3063ZM51.4931 33.473C51.4697 33.4171 51.4743 33.3708 51.4807 33.3469C51.4871 33.323 51.4974 33.311 51.5029 33.3059L52.3173 34.1872C52.6158 33.9114 52.7833 33.4477 52.6 33.0097L51.4931 33.473ZM51.148 32.7219C51.2743 32.9741 51.3891 33.2246 51.4931 33.473L52.6 33.0096C52.4854 32.736 52.3593 32.461 52.221 32.1847L51.148 32.7219ZM50.8458 32.1544C50.9522 32.3433 51.0531 32.5325 51.148 32.722L52.221 32.1846C52.1168 31.9766 52.0067 31.7702 51.8915 31.5657L50.8458 32.1544ZM50.4762 21.4049C50.5649 21.5025 50.6523 21.6019 50.7386 21.7029L51.6511 20.9235C51.5571 20.8135 51.4614 20.7048 51.3641 20.5977L50.4762 21.4049ZM51.1676 21.0474C51.2336 21.2866 51.0847 21.4441 51.0056 21.4932C50.9572 21.5233 50.8829 21.5527 50.7863 21.5491C50.6787 21.5451 50.5615 21.4989 50.4758 21.4045L51.3645 20.5982C51.0406 20.2411 50.5963 20.3347 50.372 20.4741C50.146 20.6146 49.8941 20.9438 50.0108 21.3666L51.1676 21.0474ZM51.2383 21.3124C51.2153 21.2232 51.1917 21.1347 51.1674 21.0468L50.0109 21.3671C50.0332 21.4476 50.055 21.5291 50.0763 21.6119L51.2383 21.3124ZM51.9019 26.5576C51.8596 24.6504 51.6406 22.8747 51.2384 21.3125L50.0763 21.6118C50.451 23.067 50.6615 24.7486 50.7022 26.5842L51.9019 26.5576ZM52.0609 26.6812C51.9874 26.6824 51.9498 26.6587 51.9341 26.6443C51.9202 26.6314 51.903 26.6081 51.9019 26.5576L50.7022 26.5842C50.7193 27.358 51.3439 27.8931 52.0805 27.881L52.0609 26.6812ZM53.8423 26.8087C53.3101 26.7115 52.7141 26.6704 52.0608 26.6812L52.0806 27.881C52.6741 27.8713 53.189 27.9093 53.6269 27.9892L53.8423 26.8087ZM53.5388 27.1517C53.5034 27.0113 53.5661 26.9138 53.6023 26.8769C53.6392 26.8392 53.7222 26.7867 53.8426 26.8087L53.6266 27.9891C53.9688 28.0517 54.2715 27.9084 54.4593 27.7168C54.6464 27.5259 54.7912 27.2111 54.7024 26.8586L53.5388 27.1517ZM50.7386 21.7029C52.0898 23.2849 53.0315 25.1339 53.5387 27.1514L54.7025 26.8588C54.1513 24.6663 53.1254 22.6497 51.6511 20.9235L50.7386 21.7029ZM56.737 29.5259C56.538 25.8878 55.2426 22.5322 52.9332 19.8282L52.0207 20.6075C54.1502 23.1008 55.3534 26.202 55.5388 29.5914L56.737 29.5259ZM56.7384 29.5514C56.7381 29.5439 56.7375 29.5326 56.7367 29.5208L55.5391 29.5964C55.5394 29.6007 55.5396 29.6055 55.5401 29.614L56.7384 29.5514ZM56.7394 29.5691C56.7392 29.5648 56.7389 29.5599 56.7384 29.5512L55.5401 29.6142C55.5405 29.6218 55.5411 29.6332 55.5418 29.6451L56.7394 29.5691ZM56.5234 33.5447C56.7367 32.1975 56.8069 30.8696 56.7398 29.576L55.5414 29.6382C55.604 30.846 55.5388 32.0901 55.3381 33.357L56.5234 33.5447ZM54.0777 40.5702C55.3007 38.365 56.1358 35.9918 56.5234 33.5447L55.3381 33.357C54.9735 35.6592 54.1866 37.8995 53.0283 39.9882L54.0777 40.5702ZM53.6436 41.3187C53.806 41.069 53.9537 40.8133 54.0871 40.5525L53.0189 40.0058C52.9041 40.2301 52.7771 40.45 52.6375 40.6648L53.6436 41.3187ZM48.6748 47.1399C50.6758 45.4311 52.3536 43.4544 53.6541 41.3021L52.627 40.6815C51.3945 42.7213 49.8011 44.6001 47.8955 46.2274L48.6748 47.1399ZM34.0193 52.765C39.2345 52.765 44.4366 50.7597 48.6749 47.1399L47.8955 46.2274C43.8568 49.6768 38.9263 51.565 34.0193 51.565V52.765ZM21.0334 47.0733C24.1772 50.7542 28.8004 52.765 34.0193 52.765V51.565C29.1162 51.565 24.8398 49.6823 21.9459 46.294L21.0334 47.0733ZM17.4434 33.357C16.627 38.5118 17.8896 43.3925 21.0334 47.0733L21.9459 46.294C19.0521 42.9057 17.8616 38.3876 18.6286 33.5447L17.4434 33.357ZM21.7742 23.4603C19.5082 26.4121 18.0056 29.8072 17.4434 33.357L18.6286 33.5447C19.1576 30.2048 20.5741 26.9943 22.7261 24.191L21.7742 23.4603ZM22.4809 22.5854C22.2204 22.8688 21.9804 23.1676 21.7601 23.4795L22.7402 24.1718C22.9319 23.9004 23.1398 23.6417 23.3644 23.3974L22.4809 22.5854ZM25.2918 19.7616C24.2604 20.6425 23.316 21.5946 22.464 22.6045L23.3812 23.3783C24.1911 22.4183 25.0893 21.5126 26.0711 20.6741L25.2918 19.7616ZM39.9473 14.1368C34.7323 14.1368 29.53 16.1418 25.2918 19.7616L26.0711 20.6741C30.1098 17.2248 35.0404 15.3368 39.9473 15.3368V14.1368ZM52.9332 19.8282C49.7894 16.1473 45.1663 14.1368 39.9473 14.1368V15.3368C44.8506 15.3368 49.1269 17.2193 52.0207 20.6075L52.9332 19.8282Z" fill="white" fill-opacity="0.2" mask="url(#path-4-inside-1_6073_14490)"/>
<defs>
<filter id="filter0_f_6073_14490" x="0.855713" y="70" width="82.4625" height="30" filterUnits="userSpaceOnUse" color-interpolation-filters="sRGB">
<feFlood flood-opacity="0" result="BackgroundImageFix"/>
<feBlend mode="normal" in="SourceGraphic" in2="BackgroundImageFix" result="shape"/>
<feGaussianBlur stdDeviation="5" result="effect1_foregroundBlur_6073_14490"/>
</filter>
<filter id="filter1_i_6073_14490" x="2.6228" y="-10.3066" width="78.3773" height="87.5146" filterUnits="userSpaceOnUse" color-interpolation-filters="sRGB">
<feFlood flood-opacity="0" result="BackgroundImageFix"/>
<feBlend mode="normal" in="SourceGraphic" in2="BackgroundImageFix" result="shape"/>
<feColorMatrix in="SourceAlpha" type="matrix" values="0 0 0 0 0 0 0 0 0 0 0 0 0 0 0 0 0 0 127 0" result="hardAlpha"/>
<feOffset dy="-12"/>
<feGaussianBlur stdDeviation="14"/>
<feComposite in2="hardAlpha" operator="arithmetic" k2="-1" k3="1"/>
<feColorMatrix type="matrix" values="0 0 0 0 0.908698 0 0 0 0 0.995833 0 0 0 0 0.990605 0 0 0 0.25 0"/>
<feBlend mode="normal" in2="shape" result="effect1_innerShadow_6073_14490"/>
</filter>
<filter id="filter2_i_6073_14490" x="2.6228" y="-10.3066" width="78.3773" height="87.5146" filterUnits="userSpaceOnUse" color-interpolation-filters="sRGB">
<feFlood flood-opacity="0" result="BackgroundImageFix"/>
<feBlend mode="normal" in="SourceGraphic" in2="BackgroundImageFix" result="shape"/>
<feColorMatrix in="SourceAlpha" type="matrix" values="0 0 0 0 0 0 0 0 0 0 0 0 0 0 0 0 0 0 127 0" result="hardAlpha"/>
<feOffset dy="-12"/>
<feGaussianBlur stdDeviation="14"/>
<feComposite in2="hardAlpha" operator="arithmetic" k2="-1" k3="1"/>
<feColorMatrix type="matrix" values="0 0 0 0 0.908698 0 0 0 0 0.995833 0 0 0 0 0.990605 0 0 0 0.25 0"/>
<feBlend mode="normal" in2="shape" result="effect1_innerShadow_6073_14490"/>
</filter>
<filter id="filter3_iii_6073_14490" x="1" y="-10" width="72.0446" height="80.0703" filterUnits="userSpaceOnUse" color-interpolation-filters="sRGB">
<feFlood flood-opacity="0" result="BackgroundImageFix"/>
<feBlend mode="normal" in="SourceGraphic" in2="BackgroundImageFix" result="shape"/>
<feColorMatrix in="SourceAlpha" type="matrix" values="0 0 0 0 0 0 0 0 0 0 0 0 0 0 0 0 0 0 127 0" result="hardAlpha"/>
<feOffset dy="-4"/>
<feGaussianBlur stdDeviation="5"/>
<feComposite in2="hardAlpha" operator="arithmetic" k2="-1" k3="1"/>
<feColorMatrix type="matrix" values="0 0 0 0 1 0 0 0 0 1 0 0 0 0 1 0 0 0 0.5 0"/>
<feBlend mode="normal" in2="shape" result="effect1_innerShadow_6073_14490"/>
<feColorMatrix in="SourceAlpha" type="matrix" values="0 0 0 0 0 0 0 0 0 0 0 0 0 0 0 0 0 0 127 0" result="hardAlpha"/>
<feOffset dy="-2"/>
<feGaussianBlur stdDeviation="4"/>
<feComposite in2="hardAlpha" operator="arithmetic" k2="-1" k3="1"/>
<feColorMatrix type="matrix" values="0 0 0 0 1 0 0 0 0 1 0 0 0 0 1 0 0 0 0.5 0"/>
<feBlend mode="normal" in2="effect1_innerShadow_6073_14490" result="effect2_innerShadow_6073_14490"/>
<feColorMatrix in="SourceAlpha" type="matrix" values="0 0 0 0 0 0 0 0 0 0 0 0 0 0 0 0 0 0 127 0" result="hardAlpha"/>
<feOffset dy="-10"/>
<feGaussianBlur stdDeviation="26"/>
<feComposite in2="hardAlpha" operator="arithmetic" k2="-1" k3="1"/>
<feColorMatrix type="matrix" values="0 0 0 0 1 0 0 0 0 1 0 0 0 0 1 0 0 0 0.25 0"/>
<feBlend mode="normal" in2="effect2_innerShadow_6073_14490" result="effect3_innerShadow_6073_14490"/>
</filter>
<linearGradient id="paint0_linear_6073_14490" x1="77.6585" y1="1.69336" x2="6.57205" y2="1.69336" gradientUnits="userSpaceOnUse">
<stop stop-color="#FFB7B5"/>
<stop offset="0.171875" stop-color="#FFB8BA"/>
<stop offset="0.416052" stop-color="#D64EE1"/>
<stop offset="0.65625" stop-color="#FFC4C0"/>
<stop offset="1" stop-color="#FFB9B9"/>
</linearGradient>
<radialGradient id="paint1_radial_6073_14490" cx="0" cy="0" r="1" gradientUnits="userSpaceOnUse" gradientTransform="translate(40.0166 38.9264) rotate(28.6758) scale(42.6213 77.8746)">
<stop stop-color="#B834E8"/>
<stop offset="0.34375" stop-color="#530055"/>
<stop offset="1" stop-color="#FFACB1"/>
</radialGradient>
<linearGradient id="paint2_linear_6073_14490" x1="21.3682" y1="24.3485" x2="51.5506" y2="43.5567" gradientUnits="userSpaceOnUse">
<stop stop-color="white"/>
<stop offset="0.703125" stop-color="#FF798F"/>
<stop offset="1" stop-color="#FFAFBC"/>
</linearGradient>
</defs>
</svg>
