<svg width="84" height="100" viewBox="0 0 84 100" fill="none" xmlns="http://www.w3.org/2000/svg">
<g opacity="0.8" filter="url(#filter0_f_8108_17752)">
<path d="M73.3084 85C73.3084 87.7609 59.308 90 42.0375 90C24.767 90 10.7666 87.7609 10.7666 85C10.7666 82.2391 24.767 80 42.0375 80C59.308 80 73.3084 82.2391 73.3084 85Z" fill="black"/>
</g>
<g filter="url(#filter1_i_8108_17752)">
<path d="M44.1813 1.71484C24.6519 1.71484 6.2168 17.3336 3.00414 36.6004C1.24929 47.1195 4.39534 56.5508 10.7923 62.9469L17.5878 69.7438C22.9069 75.0618 30.4745 78.2817 39.3404 78.2817C58.8698 78.2817 77.306 62.6629 80.5187 43.3961C82.2735 32.877 79.1264 23.4446 72.7294 17.0485L65.935 10.2527C60.6148 4.93471 53.0483 1.71484 44.1813 1.71484Z" fill="url(#paint0_linear_8108_17752)"/>
</g>
<g filter="url(#filter2_i_8108_17752)">
<path d="M44.1813 1.71484C24.6519 1.71484 6.2168 17.3336 3.00414 36.6004C1.24929 47.1195 4.39534 56.5508 10.7923 62.9469L17.5878 69.7438C22.9069 75.0618 30.4745 78.2817 39.3404 78.2817C58.8698 78.2817 77.306 62.6629 80.5187 43.3961C82.2735 32.877 79.1264 23.4446 72.7294 17.0485L65.935 10.2527C60.6148 4.93471 53.0483 1.71484 44.1813 1.71484Z" fill="url(#paint1_radial_8108_17752)"/>
</g>
<mask id="path-4-inside-1_8108_17752" fill="white">
<path fill-rule="evenodd" clip-rule="evenodd" d="M32.572 72C52.2976 72 70.2677 55.8822 72.7092 36C75.1507 16.1178 61.1392 0 41.4135 0C21.6879 0 3.71782 16.1178 1.27629 36C-1.16525 55.8822 12.8463 72 32.572 72ZM61.1796 36.6445C62.2849 36.8561 63.3528 36.1315 63.5645 35.0259C63.7762 33.9203 63.0516 32.8524 61.9463 32.6407C60.8406 32.429 59.7727 33.1536 59.5609 34.2592C59.3492 35.3648 60.0739 36.4327 61.1796 36.6445ZM33.1768 31.284C34.3492 31.5085 35.2281 32.1029 35.8127 33.0671C36.3963 34.0311 36.5676 35.1475 36.325 36.4149L35.1438 42.5827L33.0203 42.176L34.1394 36.3317C34.2918 35.5363 34.1615 34.8295 33.7483 34.2125C33.3352 33.5955 32.7518 33.2148 31.9969 33.0703C31.1471 32.9075 30.4034 33.0341 29.7649 33.4497C29.1264 33.8653 28.7303 34.4713 28.578 35.2667L27.4588 41.111L25.3352 40.7044L27.3139 30.3716L29.4375 30.7782L28.9264 33.4474C29.3796 32.6122 29.9826 32.0005 30.7352 31.6133C31.4868 31.226 32.3014 31.1164 33.1779 31.2842L33.1768 31.284ZM23.4865 40.3512L21.3629 39.9446L23.3418 29.6107L25.4654 30.0173L23.4865 40.3512ZM47.4855 35.8691C46.6748 34.4842 45.4401 33.6324 43.782 33.3148L43.7807 33.3157C42.2561 33.0237 40.8804 33.2949 39.6515 34.1288C38.4225 34.9637 37.6623 36.1419 37.3705 37.6654C37.0788 39.189 37.361 40.5646 38.2166 41.7898C39.0722 43.0151 40.2755 43.7768 41.8257 44.0737C42.9318 44.2855 43.9601 44.2101 44.9097 43.8463C45.8593 43.4825 46.6479 42.9075 47.2738 42.1186L45.645 40.9888C45.2397 41.4989 44.7396 41.8679 44.1436 42.0958C43.5477 42.3237 42.9127 42.3737 42.2391 42.2447C41.3625 42.0769 40.6648 41.6743 40.1439 41.0366C39.6229 40.3989 39.3684 39.6474 39.3801 38.7829L47.9342 40.421C48.446 38.7714 48.2959 37.2551 47.4855 35.8691ZM41.259 35.4847C41.9242 35.1152 42.6469 35.0056 43.4295 35.1555C44.2249 35.3078 44.8633 35.6791 45.345 36.2672C45.8257 36.8551 46.081 37.5504 46.1089 38.3526L39.7585 37.1365C40.0936 36.4038 40.5941 35.8533 41.259 35.4847ZM54.9714 35.4576C56.212 35.6952 57.1612 36.2123 57.8188 37.0089C58.4765 37.8056 58.6901 38.8117 58.4578 40.0246L57.1604 46.7999L55.0367 46.3932L55.5633 43.643C54.5521 45.4902 53.0899 46.2307 51.1756 45.8641C50.2852 45.6936 49.5951 45.2859 49.1035 44.6394C48.6119 43.993 48.4497 43.2392 48.6149 42.3765C48.8085 41.3655 49.3104 40.6747 50.1225 40.3066C50.9334 39.9384 51.9043 39.7989 53.0326 39.8888L55.0733 40.0693C55.8411 40.1466 56.2836 39.8816 56.3997 39.2751C56.4952 38.7765 56.3793 38.3415 56.0516 37.9722C55.724 37.6017 55.2507 37.3572 54.6304 37.2384C54.0101 37.1196 53.4291 37.1767 52.9295 37.4163C52.4297 37.656 52.0597 38.0744 51.8192 38.6713L49.8128 37.7625C50.1876 36.8282 50.8404 36.153 51.7734 35.7373C52.7051 35.3224 53.7711 35.2288 54.9712 35.4587L54.9714 35.4576ZM52.1925 44.2758C53.0691 44.4436 53.8663 44.2919 54.5849 43.8219C55.3036 43.3519 55.7379 42.7256 55.8877 41.943L55.9961 41.3771C55.7832 41.6164 55.3592 41.709 54.7261 41.6575L52.7183 41.5242C52.1928 41.4944 51.7561 41.5669 51.4077 41.7447C51.0593 41.9227 50.8464 42.2139 50.7689 42.6186C50.6914 43.0232 50.781 43.3758 51.0378 43.6762C51.2946 43.9766 51.6792 44.1764 52.1916 44.2746L52.1925 44.2758ZM10.0911 37.786L19.8997 39.6644L20.283 37.6625L12.7186 36.2139L14.3142 27.8819L12.07 27.4522L10.0911 37.786Z"/>
</mask>
<g filter="url(#filter3_iii_8108_17752)">
<path fill-rule="evenodd" clip-rule="evenodd" d="M32.572 72C52.2976 72 70.2677 55.8822 72.7092 36C75.1507 16.1178 61.1392 0 41.4135 0C21.6879 0 3.71782 16.1178 1.27629 36C-1.16525 55.8822 12.8463 72 32.572 72ZM61.1796 36.6445C62.2849 36.8561 63.3528 36.1315 63.5645 35.0259C63.7762 33.9203 63.0516 32.8524 61.9463 32.6407C60.8406 32.429 59.7727 33.1536 59.5609 34.2592C59.3492 35.3648 60.0739 36.4327 61.1796 36.6445ZM33.1768 31.284C34.3492 31.5085 35.2281 32.1029 35.8127 33.0671C36.3963 34.0311 36.5676 35.1475 36.325 36.4149L35.1438 42.5827L33.0203 42.176L34.1394 36.3317C34.2918 35.5363 34.1615 34.8295 33.7483 34.2125C33.3352 33.5955 32.7518 33.2148 31.9969 33.0703C31.1471 32.9075 30.4034 33.0341 29.7649 33.4497C29.1264 33.8653 28.7303 34.4713 28.578 35.2667L27.4588 41.111L25.3352 40.7044L27.3139 30.3716L29.4375 30.7782L28.9264 33.4474C29.3796 32.6122 29.9826 32.0005 30.7352 31.6133C31.4868 31.226 32.3014 31.1164 33.1779 31.2842L33.1768 31.284ZM23.4865 40.3512L21.3629 39.9446L23.3418 29.6107L25.4654 30.0173L23.4865 40.3512ZM47.4855 35.8691C46.6748 34.4842 45.4401 33.6324 43.782 33.3148L43.7807 33.3157C42.2561 33.0237 40.8804 33.2949 39.6515 34.1288C38.4225 34.9637 37.6623 36.1419 37.3705 37.6654C37.0788 39.189 37.361 40.5646 38.2166 41.7898C39.0722 43.0151 40.2755 43.7768 41.8257 44.0737C42.9318 44.2855 43.9601 44.2101 44.9097 43.8463C45.8593 43.4825 46.6479 42.9075 47.2738 42.1186L45.645 40.9888C45.2397 41.4989 44.7396 41.8679 44.1436 42.0958C43.5477 42.3237 42.9127 42.3737 42.2391 42.2447C41.3625 42.0769 40.6648 41.6743 40.1439 41.0366C39.6229 40.3989 39.3684 39.6474 39.3801 38.7829L47.9342 40.421C48.446 38.7714 48.2959 37.2551 47.4855 35.8691ZM41.259 35.4847C41.9242 35.1152 42.6469 35.0056 43.4295 35.1555C44.2249 35.3078 44.8633 35.6791 45.345 36.2672C45.8257 36.8551 46.081 37.5504 46.1089 38.3526L39.7585 37.1365C40.0936 36.4038 40.5941 35.8533 41.259 35.4847ZM54.9714 35.4576C56.212 35.6952 57.1612 36.2123 57.8188 37.0089C58.4765 37.8056 58.6901 38.8117 58.4578 40.0246L57.1604 46.7999L55.0367 46.3932L55.5633 43.643C54.5521 45.4902 53.0899 46.2307 51.1756 45.8641C50.2852 45.6936 49.5951 45.2859 49.1035 44.6394C48.6119 43.993 48.4497 43.2392 48.6149 42.3765C48.8085 41.3655 49.3104 40.6747 50.1225 40.3066C50.9334 39.9384 51.9043 39.7989 53.0326 39.8888L55.0733 40.0693C55.8411 40.1466 56.2836 39.8816 56.3997 39.2751C56.4952 38.7765 56.3793 38.3415 56.0516 37.9722C55.724 37.6017 55.2507 37.3572 54.6304 37.2384C54.0101 37.1196 53.4291 37.1767 52.9295 37.4163C52.4297 37.656 52.0597 38.0744 51.8192 38.6713L49.8128 37.7625C50.1876 36.8282 50.8404 36.153 51.7734 35.7373C52.7051 35.3224 53.7711 35.2288 54.9712 35.4587L54.9714 35.4576ZM52.1925 44.2758C53.0691 44.4436 53.8663 44.2919 54.5849 43.8219C55.3036 43.3519 55.7379 42.7256 55.8877 41.943L55.9961 41.3771C55.7832 41.6164 55.3592 41.709 54.7261 41.6575L52.7183 41.5242C52.1928 41.4944 51.7561 41.5669 51.4077 41.7447C51.0593 41.9227 50.8464 42.2139 50.7689 42.6186C50.6914 43.0232 50.781 43.3758 51.0378 43.6762C51.2946 43.9766 51.6792 44.1764 52.1916 44.2746L52.1925 44.2758ZM10.0911 37.786L19.8997 39.6644L20.283 37.6625L12.7186 36.2139L14.3142 27.8819L12.07 27.4522L10.0911 37.786Z" fill="url(#paint2_linear_8108_17752)"/>
</g>
<path d="M72.7092 36L73.3047 36.0731L72.7092 36ZM1.27629 36L1.87181 36.0731L1.27629 36ZM63.5645 35.0259L62.9752 34.913L62.9752 34.913L63.5645 35.0259ZM61.1796 36.6445L61.0667 37.2338L61.0667 37.2338L61.1796 36.6445ZM61.9463 32.6407L62.0591 32.0514L62.0591 32.0514L61.9463 32.6407ZM59.5609 34.2592L58.9717 34.1464L58.9717 34.1464L59.5609 34.2592ZM35.8127 33.0671L36.326 32.7564L36.3258 32.7561L35.8127 33.0671ZM33.1768 31.284L33.2897 30.6947L33.0636 31.8732L33.1768 31.284ZM36.325 36.4149L36.9143 36.5277L36.9143 36.5277L36.325 36.4149ZM35.1438 42.5827L35.031 43.172L35.6203 43.2848L35.7331 42.6956L35.1438 42.5827ZM33.0203 42.176L32.431 42.0632L32.3181 42.6525L32.9074 42.7653L33.0203 42.176ZM34.1394 36.3317L34.7287 36.4445L34.7287 36.4445L34.1394 36.3317ZM33.7483 34.2125L34.2469 33.8787L34.2469 33.8787L33.7483 34.2125ZM31.9969 33.0703L31.8841 33.6595L31.8841 33.6595L31.9969 33.0703ZM29.7649 33.4497L29.4376 32.9468L29.4376 32.9468L29.7649 33.4497ZM28.578 35.2667L29.1673 35.3795L29.1673 35.3795L28.578 35.2667ZM27.4588 41.111L27.3459 41.7003L27.9352 41.8132L28.0481 41.2239L27.4588 41.111ZM25.3352 40.7044L24.7459 40.5915L24.6331 41.1808L25.2224 41.2937L25.3352 40.7044ZM27.3139 30.3716L27.4268 29.7823L26.8375 29.6694L26.7246 30.2587L27.3139 30.3716ZM29.4375 30.7782L30.0268 30.8911L30.1396 30.3018L29.5503 30.1889L29.4375 30.7782ZM28.9264 33.4474L28.3371 33.3345L29.4537 33.7335L28.9264 33.4474ZM30.7352 31.6133L31.0097 32.1469L31.0101 32.1467L30.7352 31.6133ZM33.1779 31.2842L33.0651 31.8735L33.2911 30.695L33.1779 31.2842ZM21.3629 39.9446L20.7736 39.8317L20.6608 40.421L21.2501 40.5339L21.3629 39.9446ZM23.4865 40.3512L23.3737 40.9405L23.963 41.0534L24.0758 40.4641L23.4865 40.3512ZM23.3418 29.6107L23.4547 29.0214L22.8654 28.9085L22.7525 29.4978L23.3418 29.6107ZM25.4654 30.0173L26.0547 30.1302L26.1676 29.5409L25.5783 29.428L25.4654 30.0173ZM43.782 33.3148L43.8948 32.7256L43.6509 32.6788L43.4454 32.8181L43.782 33.3148ZM47.4855 35.8691L48.0034 35.5662L48.0033 35.566L47.4855 35.8691ZM43.7807 33.3157L43.6678 33.905L43.9117 33.9517L44.1173 33.8124L43.7807 33.3157ZM39.6515 34.1288L39.3146 33.6323L39.3144 33.6325L39.6515 34.1288ZM37.3705 37.6654L36.7812 37.5526L36.7812 37.5526L37.3705 37.6654ZM38.2166 41.7898L38.7085 41.4463L38.7085 41.4463L38.2166 41.7898ZM41.8257 44.0737L41.9386 43.4844L41.9386 43.4844L41.8257 44.0737ZM44.9097 43.8463L44.695 43.286L44.695 43.286L44.9097 43.8463ZM47.2738 42.1186L47.7438 42.4915L48.1415 41.9903L47.6158 41.6256L47.2738 42.1186ZM45.645 40.9888L45.987 40.4958L45.5251 40.1753L45.1753 40.6155L45.645 40.9888ZM44.1436 42.0958L43.9293 41.5354L43.9293 41.5354L44.1436 42.0958ZM42.2391 42.2447L42.1262 42.834L42.1262 42.834L42.2391 42.2447ZM40.1439 41.0366L40.6086 40.657L40.6085 40.657L40.1439 41.0366ZM39.3801 38.7829L39.4929 38.1936L38.7898 38.059L38.7801 38.7748L39.3801 38.7829ZM47.9342 40.421L47.8214 41.0103L48.3483 41.1112L48.5073 40.5988L47.9342 40.421ZM43.4295 35.1555L43.3166 35.7448L43.3166 35.7448L43.4295 35.1555ZM41.259 35.4847L41.5499 36.0095L41.5504 36.0092L41.259 35.4847ZM45.345 36.2672L45.8095 35.8874L45.8092 35.8869L45.345 36.2672ZM46.1089 38.3526L45.9961 38.9419L46.7347 39.0834L46.7086 38.3318L46.1089 38.3526ZM39.7585 37.1365L39.2128 36.887L38.895 37.5821L39.6456 37.7258L39.7585 37.1365ZM57.8188 37.0089L57.356 37.3909L57.3561 37.3909L57.8188 37.0089ZM54.9714 35.4576L55.0843 34.8683L54.4937 34.7552L54.3819 35.346L54.9714 35.4576ZM58.4578 40.0246L59.0471 40.1374L59.0471 40.1374L58.4578 40.0246ZM57.1604 46.7999L57.0475 47.3892L57.6368 47.5021L57.7497 46.9128L57.1604 46.7999ZM55.0367 46.3932L54.4474 46.2804L54.3345 46.8697L54.9238 46.9825L55.0367 46.3932ZM55.5633 43.643L56.1526 43.7558L55.037 43.3549L55.5633 43.643ZM51.1756 45.8641L51.2884 45.2748L51.2884 45.2748L51.1756 45.8641ZM49.1035 44.6394L48.6259 45.0026L48.6259 45.0026L49.1035 44.6394ZM48.6149 42.3765L49.2042 42.4894L49.2042 42.4894L48.6149 42.3765ZM50.1225 40.3066L50.3702 40.8531L50.3705 40.8529L50.1225 40.3066ZM53.0326 39.8888L53.0855 39.2911L53.0803 39.2907L53.0326 39.8888ZM55.0733 40.0693L55.1334 39.4723L55.1262 39.4716L55.0733 40.0693ZM56.3997 39.2751L56.989 39.388L56.989 39.388L56.3997 39.2751ZM56.0516 37.9722L55.6021 38.3696L55.6028 38.3704L56.0516 37.9722ZM54.6304 37.2384L54.5175 37.8277L54.5175 37.8277L54.6304 37.2384ZM52.9295 37.4163L52.67 36.8753L52.67 36.8753L52.9295 37.4163ZM51.8192 38.6713L51.5716 39.2179L52.1418 39.4762L52.3757 38.8955L51.8192 38.6713ZM49.8128 37.7625L49.2559 37.5391L49.0421 38.0721L49.5652 38.309L49.8128 37.7625ZM51.7734 35.7373L51.5293 35.1891L51.5292 35.1892L51.7734 35.7373ZM54.9712 35.4587L54.8584 36.0479L55.4489 36.161L55.5607 35.5702L54.9712 35.4587ZM54.5849 43.8219L54.2565 43.3198L54.2565 43.3198L54.5849 43.8219ZM52.1925 44.2758L51.7043 44.6245L51.8438 44.8199L52.0797 44.8651L52.1925 44.2758ZM55.8877 41.943L56.477 42.0559L56.477 42.0559L55.8877 41.943ZM55.9961 41.3771L56.5854 41.49L56.9947 39.3525L55.5479 40.9783L55.9961 41.3771ZM54.7261 41.6575L54.7747 41.0594L54.7658 41.0588L54.7261 41.6575ZM52.7183 41.5242L52.758 40.9255L52.7523 40.9252L52.7183 41.5242ZM51.4077 41.7447L51.1349 41.2104L51.1348 41.2104L51.4077 41.7447ZM50.7689 42.6186L51.3582 42.7314L51.3582 42.7314L50.7689 42.6186ZM51.0378 43.6762L51.4939 43.2863L51.4939 43.2863L51.0378 43.6762ZM52.1916 44.2746L52.6799 43.9258L52.5403 43.7304L52.3045 43.6853L52.1916 44.2746ZM19.8997 39.6644L19.7868 40.2536L20.3761 40.3665L20.489 39.7772L19.8997 39.6644ZM10.0911 37.786L9.50177 37.6732L9.38892 38.2625L9.97821 38.3753L10.0911 37.786ZM20.283 37.6625L20.8723 37.7753L20.9852 37.186L20.3959 37.0732L20.283 37.6625ZM12.7186 36.2139L12.1293 36.1011L12.0165 36.6904L12.6058 36.8032L12.7186 36.2139ZM14.3142 27.8819L14.9035 27.9948L15.0163 27.4055L14.427 27.2926L14.3142 27.8819ZM12.07 27.4522L12.1828 26.8629L11.5935 26.75L11.4807 27.3393L12.07 27.4522ZM72.1137 35.9269C69.7082 55.5155 51.9873 71.4 32.572 71.4V72.6C52.608 72.6 70.8272 56.249 73.3047 36.0731L72.1137 35.9269ZM41.4135 0.6C60.7684 0.6 74.5126 16.3918 72.1137 35.9269L73.3047 36.0731C75.7889 15.8437 61.51 -0.6 41.4135 -0.6V0.6ZM1.87181 36.0731C4.2773 16.4845 21.9982 0.6 41.4135 0.6V-0.6C21.3775 -0.6 3.15835 15.751 0.680759 35.9269L1.87181 36.0731ZM32.572 71.4C13.2171 71.4 -0.527085 55.6082 1.87181 36.0731L0.680759 35.9269C-1.80342 56.1563 12.4755 72.6 32.572 72.6V71.4ZM62.9752 34.913C62.8258 35.6933 62.0722 36.2045 61.2924 36.0552L61.0667 37.2338C62.4975 37.5078 63.8797 36.5697 64.1538 35.1387L62.9752 34.913ZM61.8334 33.23C62.6132 33.3793 63.1246 34.1328 62.9752 34.913L64.1538 35.1387C64.4278 33.7077 63.4899 32.3254 62.0591 32.0514L61.8334 33.23ZM60.1502 34.3721C60.2996 33.592 61.0531 33.0806 61.8334 33.23L62.0591 32.0514C60.628 31.7774 59.2457 32.7153 58.9717 34.1464L60.1502 34.3721ZM61.2924 36.0552C60.5121 35.9058 60.0008 35.1522 60.1502 34.3721L58.9717 34.1464C58.6976 35.5775 59.6356 36.9597 61.0667 37.2338L61.2924 36.0552ZM36.3258 32.7561C35.6474 31.6373 34.6177 30.949 33.2897 30.6947L33.064 31.8733C34.0807 32.068 34.8088 32.5686 35.2997 33.3782L36.3258 32.7561ZM36.9143 36.5277C37.1806 35.1369 36.9974 33.8655 36.326 32.7564L35.2995 33.3778C35.7951 34.1967 35.9547 35.1581 35.7357 36.302L36.9143 36.5277ZM35.7331 42.6956L36.9143 36.5277L35.7357 36.302L34.5545 42.4699L35.7331 42.6956ZM32.9074 42.7653L35.031 43.172L35.2567 41.9934L33.1331 41.5867L32.9074 42.7653ZM33.5501 36.2188L32.431 42.0632L33.6096 42.2889L34.7287 36.4445L33.5501 36.2188ZM33.2497 34.5463C33.5666 35.0196 33.6758 35.5629 33.5501 36.2188L34.7287 36.4445C34.9078 35.5097 34.7563 34.6395 34.2469 33.8787L33.2497 34.5463ZM31.8841 33.6595C32.4874 33.7751 32.9293 34.0676 33.2497 34.5463L34.2469 33.8787C33.7412 33.1234 33.0161 32.6545 32.1098 32.481L31.8841 33.6595ZM30.0922 33.9525C30.5829 33.6332 31.1644 33.5217 31.8841 33.6595L32.1098 32.481C31.1298 32.2933 30.2239 32.435 29.4376 32.9468L30.0922 33.9525ZM29.1673 35.3795C29.291 34.7333 29.5995 34.2732 30.0922 33.9525L29.4376 32.9468C28.6532 33.4574 28.1696 34.2093 27.9887 35.1538L29.1673 35.3795ZM28.0481 41.2239L29.1673 35.3795L27.9887 35.1538L26.8695 40.9982L28.0481 41.2239ZM25.2224 41.2937L27.3459 41.7003L27.5716 40.5217L25.4481 40.1151L25.2224 41.2937ZM26.7246 30.2587L24.7459 40.5915L25.9245 40.8172L27.9032 30.4844L26.7246 30.2587ZM29.5503 30.1889L27.4268 29.7823L27.2011 30.9609L29.3246 31.3675L29.5503 30.1889ZM29.5157 33.5602L30.0268 30.8911L28.8482 30.6654L28.3371 33.3345L29.5157 33.5602ZM30.4608 31.0798C29.5879 31.5288 28.9024 32.2336 28.399 33.1612L29.4537 33.7335C29.8568 32.9907 30.3773 32.4722 31.0097 32.1469L30.4608 31.0798ZM33.2908 30.6949C32.2903 30.5033 31.3383 30.6275 30.4604 31.08L31.0101 32.1467C31.6353 31.8244 32.3125 31.7294 33.0651 31.8735L33.2908 30.6949ZM33.0636 31.8732L33.0647 31.8734L33.2911 30.695L33.2901 30.6948L33.0636 31.8732ZM21.2501 40.5339L23.3737 40.9405L23.5994 39.7619L21.4758 39.3553L21.2501 40.5339ZM22.7525 29.4978L20.7736 39.8317L21.9522 40.0574L23.9311 29.7235L22.7525 29.4978ZM25.5783 29.428L23.4547 29.0214L23.229 30.2L25.3526 30.6066L25.5783 29.428ZM24.0758 40.4641L26.0547 30.1302L24.8761 29.9045L22.8972 40.2384L24.0758 40.4641ZM43.6691 33.9041C45.1672 34.191 46.2494 34.9452 46.9676 36.1722L48.0033 35.566C47.1002 34.0232 45.7129 33.0737 43.8948 32.7256L43.6691 33.9041ZM44.1173 33.8124L44.1185 33.8115L43.4454 32.8181L43.4441 32.819L44.1173 33.8124ZM39.9884 34.6253C41.0792 33.8851 42.2917 33.6415 43.6678 33.905L43.8935 32.7264C42.2204 32.406 40.6816 32.7047 39.3146 33.6323L39.9884 34.6253ZM37.9598 37.7782C38.2231 36.4034 38.8974 35.3664 39.9887 34.6251L39.3144 33.6325C37.9476 34.561 37.1014 35.8804 36.7812 37.5526L37.9598 37.7782ZM38.7085 41.4463C37.9495 40.3593 37.6972 39.1496 37.9598 37.7782L36.7812 37.5526C36.4603 39.2284 36.7725 40.7698 37.7246 42.1333L38.7085 41.4463ZM41.9386 43.4844C40.5324 43.2151 39.4692 42.5357 38.7085 41.4463L37.7246 42.1333C38.6751 43.4945 40.0185 44.3385 41.7129 44.663L41.9386 43.4844ZM44.695 43.286C43.861 43.6056 42.9474 43.6776 41.9386 43.4844L41.7129 44.663C42.9163 44.8934 44.0592 44.8147 45.1244 44.4066L44.695 43.286ZM46.8037 41.7457C46.2458 42.449 45.5459 42.96 44.695 43.286L45.1244 44.4066C46.1727 44.005 47.05 43.366 47.7438 42.4915L46.8037 41.7457ZM45.3031 41.4818L46.9318 42.6116L47.6158 41.6256L45.987 40.4958L45.3031 41.4818ZM44.3579 42.6562C45.0567 42.3891 45.6442 41.9542 46.1148 41.3621L45.1753 40.6155C44.8352 41.0435 44.4225 41.3468 43.9293 41.5354L44.3579 42.6562ZM42.1262 42.834C42.9013 42.9824 43.6502 42.9269 44.358 42.6562L43.9293 41.5354C43.4452 41.7206 42.9242 41.765 42.3519 41.6554L42.1262 42.834ZM39.6792 41.4162C40.2968 42.1722 41.1237 42.642 42.1262 42.834L42.3519 41.6554C41.6013 41.5117 41.0328 41.1764 40.6086 40.657L39.6792 41.4162ZM38.7801 38.7748C38.7666 39.7726 39.0642 40.6634 39.6793 41.4162L40.6085 40.657C40.1817 40.1345 39.9701 39.5221 39.98 38.791L38.7801 38.7748ZM48.0471 39.8317L39.4929 38.1936L39.2672 39.3722L47.8214 41.0103L48.0471 39.8317ZM46.9675 36.172C47.6861 37.4009 47.8272 38.7411 47.3612 40.2432L48.5073 40.5988C49.0648 38.8017 48.9057 37.1093 48.0034 35.5662L46.9675 36.172ZM43.5423 34.5662C42.6287 34.3913 41.762 34.5189 40.9677 34.9602L41.5504 36.0092C42.0864 35.7114 42.6651 35.62 43.3166 35.7448L43.5423 34.5662ZM45.8092 35.8869C45.2327 35.1833 44.4666 34.7432 43.5423 34.5662L43.3166 35.7448C43.9832 35.8724 44.4938 36.175 44.8809 36.6474L45.8092 35.8869ZM46.7086 38.3318C46.6764 37.4058 46.3779 36.5826 45.8095 35.8874L44.8805 36.647C45.2735 37.1276 45.4857 37.695 45.5093 38.3735L46.7086 38.3318ZM39.6456 37.7258L45.9961 38.9419L46.2218 37.7633L39.8713 36.5472L39.6456 37.7258ZM40.9682 34.9599C40.1844 35.3944 39.598 36.0448 39.2128 36.887L40.3041 37.3861C40.5892 36.7628 41.0039 36.3122 41.5499 36.0095L40.9682 34.9599ZM58.2815 36.627C57.5164 35.7001 56.4304 35.1261 55.0843 34.8683L54.8586 36.0469C55.9936 36.2642 56.8059 36.7245 57.356 37.3909L58.2815 36.627ZM59.0471 40.1374C59.3058 38.7866 59.0753 37.5885 58.2815 36.6269L57.3561 37.3909C57.8776 38.0227 58.0744 38.8368 57.8685 39.9117L59.0471 40.1374ZM57.7497 46.9128L59.0471 40.1374L57.8685 39.9117L56.5711 46.6871L57.7497 46.9128ZM54.9238 46.9825L57.0475 47.3892L57.2732 46.2106L55.1495 45.8039L54.9238 46.9825ZM54.974 43.5301L54.4474 46.2804L55.626 46.5061L56.1526 43.7558L54.974 43.5301ZM51.0627 46.4534C52.1248 46.6568 53.1082 46.56 53.9791 46.1191C54.8456 45.6804 55.5424 44.9308 56.0896 43.9311L55.037 43.3549C54.5731 44.2024 54.0332 44.7467 53.4371 45.0484C52.8456 45.3479 52.1407 45.4381 51.2884 45.2748L51.0627 46.4534ZM48.6259 45.0026C49.2177 45.7808 50.0453 46.2586 51.0627 46.4534L51.2884 45.2748C50.525 45.1287 49.9725 44.7909 49.5811 44.2763L48.6259 45.0026ZM48.0256 42.2637C47.8314 43.2779 48.0218 44.2083 48.6259 45.0026L49.5811 44.2763C49.202 43.7777 49.068 43.2005 49.2042 42.4894L48.0256 42.2637ZM49.8748 39.7601C48.8552 40.2223 48.2492 41.096 48.0256 42.2637L49.2042 42.4894C49.3678 41.6349 49.7657 41.127 50.3702 40.8531L49.8748 39.7601ZM53.0803 39.2907C51.8774 39.1949 50.7997 39.3401 49.8744 39.7603L50.3705 40.8529C51.0672 40.5366 51.9311 40.4029 52.985 40.4869L53.0803 39.2907ZM55.1262 39.4716L53.0855 39.2911L52.9798 40.4865L55.0205 40.6669L55.1262 39.4716ZM55.8105 39.1623C55.7776 39.3338 55.7182 39.3865 55.6727 39.4138C55.6051 39.4543 55.4494 39.5041 55.1334 39.4723L55.0132 40.6663C55.4649 40.7117 55.9144 40.6677 56.2891 40.4434C56.6858 40.2059 56.9058 39.8229 56.989 39.388L55.8105 39.1623ZM55.6028 38.3704C55.8026 38.5956 55.8721 38.8401 55.8105 39.1623L56.989 39.388C57.1183 38.7129 56.956 38.0875 56.5004 37.5739L55.6028 38.3704ZM54.5175 37.8277C55.0439 37.9285 55.3842 38.1232 55.6021 38.3696L56.5011 37.5747C56.0639 37.0803 55.4575 36.7859 54.7432 36.6491L54.5175 37.8277ZM53.1889 37.9573C53.5536 37.7824 54.0006 37.7287 54.5175 37.8277L54.7432 36.6491C54.0196 36.5106 53.3047 36.5709 52.67 36.8753L53.1889 37.9573ZM52.3757 38.8955C52.5699 38.4136 52.8459 38.1218 53.1889 37.9573L52.67 36.8753C52.0136 37.1902 51.5495 37.7351 51.2626 38.4471L52.3757 38.8955ZM49.5652 38.309L51.5716 39.2179L52.0667 38.1248L50.0604 37.2159L49.5652 38.309ZM51.5292 35.1892C50.4557 35.6675 49.6896 36.4581 49.2559 37.5391L50.3696 37.9859C50.6856 37.1983 51.2251 36.6384 52.0176 36.2853L51.5292 35.1892ZM55.0841 34.8694C53.7875 34.6211 52.5933 34.7154 51.5293 35.1891L52.0174 36.2854C52.8168 35.9295 53.7548 35.8366 54.8584 36.0479L55.0841 34.8694ZM54.3819 35.346L54.3817 35.3471L55.5607 35.5702L55.5609 35.5692L54.3819 35.346ZM54.2565 43.3198C53.6733 43.7012 53.0354 43.8263 52.3054 43.6865L52.0797 44.8651C53.1028 45.061 54.0592 44.8827 54.9133 44.3241L54.2565 43.3198ZM55.2984 41.8302C55.1817 42.4397 54.8508 42.9311 54.2565 43.3198L54.9133 44.3241C55.7564 43.7727 56.294 43.0115 56.477 42.0559L55.2984 41.8302ZM55.4068 41.2643L55.2984 41.8302L56.477 42.0559L56.5854 41.49L55.4068 41.2643ZM54.6774 42.2555C55.3282 42.3085 56.025 42.2472 56.4443 41.776L55.5479 40.9783C55.5414 40.9856 55.3902 41.1095 54.7747 41.0594L54.6774 42.2555ZM52.6786 42.1229L54.6863 42.2561L54.7658 41.0588L52.758 40.9256L52.6786 42.1229ZM51.6805 42.2791C51.9058 42.1641 52.2279 42.0974 52.6843 42.1233L52.7523 40.9252C52.1576 40.8915 51.6063 40.9697 51.1349 41.2104L51.6805 42.2791ZM51.3582 42.7314C51.403 42.4973 51.5069 42.3678 51.6806 42.2791L51.1348 41.2104C50.6116 41.4775 50.2897 41.9305 50.1796 42.5057L51.3582 42.7314ZM51.4939 43.2863C51.3613 43.1312 51.3133 42.9658 51.3582 42.7314L50.1796 42.5057C50.0695 43.0806 50.2007 43.6203 50.5818 44.066L51.4939 43.2863ZM52.3045 43.6853C51.8833 43.6046 51.6378 43.4546 51.4939 43.2863L50.5817 44.066C50.9515 44.4986 51.475 44.7482 52.0788 44.8639L52.3045 43.6853ZM52.6808 43.927L52.6799 43.9258L51.7034 44.6233L51.7043 44.6245L52.6808 43.927ZM20.0125 39.0751L10.2039 37.1967L9.97821 38.3753L19.7868 40.2536L20.0125 39.0751ZM19.6937 37.5496L19.3104 39.5515L20.489 39.7772L20.8723 37.7753L19.6937 37.5496ZM12.6058 36.8032L20.1702 38.2518L20.3959 37.0732L12.8315 35.6246L12.6058 36.8032ZM13.7249 27.7691L12.1293 36.1011L13.3079 36.3268L14.9035 27.9948L13.7249 27.7691ZM11.9571 28.0414L14.2013 28.4712L14.427 27.2926L12.1828 26.8629L11.9571 28.0414ZM10.6804 37.8989L12.6593 27.565L11.4807 27.3393L9.50177 37.6732L10.6804 37.8989Z" fill="white" fill-opacity="0.2" mask="url(#path-4-inside-1_8108_17752)"/>
<defs>
<filter id="filter0_f_8108_17752" x="0.766602" y="70" width="82.542" height="30" filterUnits="userSpaceOnUse" color-interpolation-filters="sRGB">
<feFlood flood-opacity="0" result="BackgroundImageFix"/>
<feBlend mode="normal" in="SourceGraphic" in2="BackgroundImageFix" result="shape"/>
<feGaussianBlur stdDeviation="5" result="effect1_foregroundBlur_8108_17752"/>
</filter>
<filter id="filter1_i_8108_17752" x="2.52295" y="-10.2852" width="78.4766" height="88.5664" filterUnits="userSpaceOnUse" color-interpolation-filters="sRGB">
<feFlood flood-opacity="0" result="BackgroundImageFix"/>
<feBlend mode="normal" in="SourceGraphic" in2="BackgroundImageFix" result="shape"/>
<feColorMatrix in="SourceAlpha" type="matrix" values="0 0 0 0 0 0 0 0 0 0 0 0 0 0 0 0 0 0 127 0" result="hardAlpha"/>
<feOffset dy="-12"/>
<feGaussianBlur stdDeviation="14"/>
<feComposite in2="hardAlpha" operator="arithmetic" k2="-1" k3="1"/>
<feColorMatrix type="matrix" values="0 0 0 0 0.908698 0 0 0 0 0.995833 0 0 0 0 0.990605 0 0 0 0.25 0"/>
<feBlend mode="normal" in2="shape" result="effect1_innerShadow_8108_17752"/>
</filter>
<filter id="filter2_i_8108_17752" x="2.52295" y="-10.2852" width="78.4766" height="88.5664" filterUnits="userSpaceOnUse" color-interpolation-filters="sRGB">
<feFlood flood-opacity="0" result="BackgroundImageFix"/>
<feBlend mode="normal" in="SourceGraphic" in2="BackgroundImageFix" result="shape"/>
<feColorMatrix in="SourceAlpha" type="matrix" values="0 0 0 0 0 0 0 0 0 0 0 0 0 0 0 0 0 0 127 0" result="hardAlpha"/>
<feOffset dy="-12"/>
<feGaussianBlur stdDeviation="14"/>
<feComposite in2="hardAlpha" operator="arithmetic" k2="-1" k3="1"/>
<feColorMatrix type="matrix" values="0 0 0 0 0.908698 0 0 0 0 0.995833 0 0 0 0 0.990605 0 0 0 0.25 0"/>
<feBlend mode="normal" in2="shape" result="effect1_innerShadow_8108_17752"/>
</filter>
<filter id="filter3_iii_8108_17752" x="1" y="-10" width="71.9854" height="82" filterUnits="userSpaceOnUse" color-interpolation-filters="sRGB">
<feFlood flood-opacity="0" result="BackgroundImageFix"/>
<feBlend mode="normal" in="SourceGraphic" in2="BackgroundImageFix" result="shape"/>
<feColorMatrix in="SourceAlpha" type="matrix" values="0 0 0 0 0 0 0 0 0 0 0 0 0 0 0 0 0 0 127 0" result="hardAlpha"/>
<feOffset dy="-4"/>
<feGaussianBlur stdDeviation="5"/>
<feComposite in2="hardAlpha" operator="arithmetic" k2="-1" k3="1"/>
<feColorMatrix type="matrix" values="0 0 0 0 1 0 0 0 0 1 0 0 0 0 1 0 0 0 0.5 0"/>
<feBlend mode="normal" in2="shape" result="effect1_innerShadow_8108_17752"/>
<feColorMatrix in="SourceAlpha" type="matrix" values="0 0 0 0 0 0 0 0 0 0 0 0 0 0 0 0 0 0 127 0" result="hardAlpha"/>
<feOffset dy="-2"/>
<feGaussianBlur stdDeviation="4"/>
<feComposite in2="hardAlpha" operator="arithmetic" k2="-1" k3="1"/>
<feColorMatrix type="matrix" values="0 0 0 0 1 0 0 0 0 1 0 0 0 0 1 0 0 0 0.5 0"/>
<feBlend mode="normal" in2="effect1_innerShadow_8108_17752" result="effect2_innerShadow_8108_17752"/>
<feColorMatrix in="SourceAlpha" type="matrix" values="0 0 0 0 0 0 0 0 0 0 0 0 0 0 0 0 0 0 127 0" result="hardAlpha"/>
<feOffset dy="-10"/>
<feGaussianBlur stdDeviation="26"/>
<feComposite in2="hardAlpha" operator="arithmetic" k2="-1" k3="1"/>
<feColorMatrix type="matrix" values="0 0 0 0 1 0 0 0 0 1 0 0 0 0 1 0 0 0 0.25 0"/>
<feBlend mode="normal" in2="effect2_innerShadow_8108_17752" result="effect3_innerShadow_8108_17752"/>
</filter>
<linearGradient id="paint0_linear_8108_17752" x1="77.6538" y1="1.71484" x2="6.47721" y2="1.71484" gradientUnits="userSpaceOnUse">
<stop stop-color="#293A4A"/>
<stop offset="0.171875" stop-color="#3E3E52"/>
<stop offset="0.416052"/>
<stop offset="0.697917" stop-color="#5B5B5C"/>
<stop offset="1" stop-color="#323335"/>
</linearGradient>
<radialGradient id="paint1_radial_8108_17752" cx="0" cy="0" r="1" gradientUnits="userSpaceOnUse" gradientTransform="translate(39.9642 39.4665) rotate(28.9799) scale(42.8003 78.729)">
<stop stop-color="#0C0C0E"/>
<stop offset="0.34375" stop-color="#101112"/>
<stop offset="1" stop-color="#180B0B" stop-opacity="0"/>
</radialGradient>
<linearGradient id="paint2_linear_8108_17752" x1="21.0223" y1="28.0645" x2="48.0262" y2="47.2828" gradientUnits="userSpaceOnUse">
<stop stop-color="white"/>
<stop offset="0.71875" stop-color="#080809"/>
<stop offset="1" stop-color="#030507"/>
</linearGradient>
</defs>
</svg>
