<svg width="154" height="36" viewBox="0 0 154 36" fill="none" xmlns="http://www.w3.org/2000/svg">
<mask id="mask0_1510_18008" style="mask-type:luminance" maskUnits="userSpaceOnUse" x="0" y="0" width="151" height="36">
<path d="M150.625 0H0V36H150.625V0Z" fill="white"/>
</mask>
<g mask="url(#mask0_1510_18008)">
<mask id="mask1_1510_18008" style="mask-type:luminance" maskUnits="userSpaceOnUse" x="0" y="0" width="151" height="36">
<path d="M150.406 0H0V36H150.406V0Z" fill="white"/>
</mask>
<g mask="url(#mask1_1510_18008)">
<path fill-rule="evenodd" clip-rule="evenodd" d="M7.59201 9.35858L3.05925 5.90071C2.37368 7.10238 1.78795 8.36361 1.31205 9.67388L6.62023 11.4816C6.89645 10.7529 7.21927 10.0417 7.58868 9.35858H7.59201ZM11.9484 4.06493L7.85825 0.000976562C6.60026 1.11156 5.46208 2.36227 4.46367 3.73211L8.97979 7.17595C9.84175 6.01282 10.8368 4.96531 11.945 4.06143L11.9484 4.06493ZM5.8681 13.9971L0.559916 12.1893C0.230443 13.5416 0.0141209 14.922 -0.0857195 16.3163H5.50534C5.57856 15.5351 5.69837 14.7608 5.8681 13.9971ZM6.39059 23.9958L1.08907 25.8036C1.53835 27.1559 2.10744 28.4627 2.78636 29.7064L7.33242 26.2415C6.96967 25.5128 6.65684 24.756 6.39392 23.9783V23.9923L6.39059 23.9958ZM8.64699 28.4802L4.14086 31.9135C5.18585 33.4235 6.40058 34.8003 7.75508 36.0125L11.8352 31.9555C10.6272 30.9501 9.55554 29.7764 8.64699 28.4662V28.4802ZM5.46541 19.3783H-0.0957031C-0.0324709 20.6921 0.137259 21.9989 0.406828 23.2811L5.74163 21.4628C5.61184 20.7692 5.51865 20.0685 5.46208 19.3608V19.3748L5.46541 19.3783Z" fill="#BEFE00"/>
<path fill-rule="evenodd" clip-rule="evenodd" d="M22.202 6.68164C19.6262 6.68164 17.1335 7.65209 15.1766 9.4178C13.2197 11.1835 11.9251 13.6254 11.5291 16.3055H17.0037C17.403 14.9812 18.245 13.8531 19.3732 13.1314C20.5014 12.4097 21.8426 12.1435 23.1439 12.3817C24.4451 12.6199 25.6199 13.3451 26.4519 14.4277C27.2839 15.5067 27.7132 16.8695 27.6633 18.2604C27.6134 19.6513 27.0876 20.9755 26.1823 21.988C25.2771 23.0005 24.0524 23.6346 22.7379 23.7678C21.4233 23.9044 20.1054 23.533 19.0304 22.7237C17.9555 21.9145 17.1967 20.7233 16.8905 19.371H11.4858C11.7288 21.5466 12.5641 23.6031 13.8887 25.2917C15.2165 26.9804 16.9771 28.2276 18.9639 28.8862C20.9474 29.5449 23.074 29.5834 25.0774 29.0018C27.0842 28.4168 28.8847 27.2361 30.2691 25.6C31.6503 23.9639 32.5555 21.939 32.8716 19.7739C33.1878 17.6088 32.9016 15.3911 32.0496 13.3942C31.1977 11.3972 29.8132 9.69807 28.066 8.51042C26.3188 7.31926 24.2821 6.68865 22.1987 6.68865L22.202 6.68164Z" fill="#BEFE00"/>
</g>
</g>
<path fill-rule="evenodd" clip-rule="evenodd" d="M127.434 10.0562C125.469 8.03502 123.049 7.02441 120.171 7.02441C117.293 7.02441 114.862 8.03502 112.88 10.0527C110.897 12.0705 109.908 14.6318 109.904 17.7368C109.904 20.8349 110.897 23.3997 112.88 25.4314C114.841 27.3864 117.442 28.4736 120.146 28.4736C122.851 28.4736 125.455 27.3829 127.413 25.4314C129.389 23.4032 130.375 20.8383 130.375 17.7368C130.375 14.6353 129.392 12.074 127.431 10.0562H127.434ZM123.99 22.1208C123.032 23.222 121.75 23.7726 120.143 23.7726C118.535 23.7726 117.254 23.2255 116.296 22.1312C115.338 21.0405 114.859 19.5768 114.859 17.7473C114.859 15.9177 115.341 14.4541 116.296 13.3599C117.251 12.2656 118.535 11.7185 120.143 11.7185C121.75 11.7185 123.032 12.2656 123.986 13.3599C124.948 14.4541 125.424 15.9177 125.424 17.7473C125.424 19.5768 124.941 21.0335 123.986 22.1208H123.99Z" fill="white"/>
<path d="M47.0704 7.21094H42.2539V28.5371H47.0704V7.21094Z" fill="white"/>
<path d="M55.6016 28.5477V23.7292H43.918V28.5371L55.6016 28.5477Z" fill="white"/>
<path d="M59.5498 20.0679V7.14453H64.6063V20.0679C64.6063 21.3132 64.9119 22.2718 65.523 22.9438C66.1341 23.6159 67.0311 23.9519 68.2139 23.9519C69.3968 23.9519 70.3036 23.6159 70.9344 22.9438C71.5652 22.2718 71.8807 21.3132 71.8807 20.0679V7.14453H76.9372V20.0679C76.9372 21.9061 76.5035 23.4973 75.6361 24.8413C74.7884 26.1657 73.7042 27.1342 72.3834 27.7469C71.0823 28.3597 69.6629 28.666 68.1252 28.666C65.7202 28.666 63.6897 27.9149 62.0337 26.4127C60.3778 24.9105 59.5498 22.7956 59.5498 20.0679Z" fill="white"/>
<path d="M105.17 7.37695V28.3572H100.114V16.4495L95.2936 28.3572H91.5381L86.7182 16.4495V28.3572H81.6616V7.37695H87.4574L93.4306 21.7269L99.3743 7.37695H105.17Z" fill="white"/>
<path d="M153.094 7.46289H142.872L139.022 9.77912L139.701 12.0499H145.703C149.312 14.4873 145.703 19.5361 145.703 19.5361L154 9.97593L153.094 7.46289Z" fill="white"/>
<rect x="134.644" y="7.46289" width="14.4495" height="4.60976" fill="white"/>
<path d="M135.549 28.0977H145.771L149.621 25.7814L148.942 23.5106H142.94C139.331 21.0733 142.94 16.0245 142.94 16.0245L134.643 25.5846L135.549 28.0977Z" fill="white"/>
<rect x="154" y="28.0977" width="14.4495" height="4.60976" transform="rotate(180 154 28.0977)" fill="white"/>
</svg>
