<svg width="84" height="100" viewBox="0 0 84 100" fill="none" xmlns="http://www.w3.org/2000/svg">
<g opacity="0.8" filter="url(#filter0_f_6056_13897)">
<path d="M73.3069 85C73.3069 87.7609 59.3036 90 42.0296 90C24.7557 90 10.7524 87.7609 10.7524 85C10.7524 82.2391 24.7557 80 42.0296 80C59.3036 80 73.3069 82.2391 73.3069 85Z" fill="black"/>
</g>
<g filter="url(#filter1_i_6056_13897)">
<path d="M44.174 1.71484C24.6408 1.71484 6.20192 17.3336 2.98861 36.6004C1.23341 47.1195 4.38009 56.5508 10.7783 62.9469L17.5752 69.7438C22.8954 75.0618 30.4645 78.2817 39.3322 78.2817C58.8655 78.2817 77.3054 62.6629 80.5187 43.3961C82.2739 32.877 79.1262 23.4446 72.7279 17.0485L65.9321 10.2527C60.6108 4.93471 53.0429 1.71484 44.174 1.71484Z" fill="url(#paint0_linear_6056_13897)"/>
</g>
<g filter="url(#filter2_i_6056_13897)">
<path d="M44.174 1.71484C24.6408 1.71484 6.20192 17.3336 2.98861 36.6004C1.23341 47.1195 4.38009 56.5508 10.7783 62.9469L17.5752 69.7438C22.8954 75.0618 30.4645 78.2817 39.3322 78.2817C58.8655 78.2817 77.3054 62.6629 80.5187 43.3961C82.2739 32.877 79.1262 23.4446 72.7279 17.0485L65.9321 10.2527C60.6108 4.93471 53.0429 1.71484 44.174 1.71484Z" fill="url(#paint1_radial_6056_13897)"/>
</g>
<g filter="url(#filter3_iii_6056_13897)">
<path fill-rule="evenodd" clip-rule="evenodd" d="M32.8422 71.4893C52.7364 71.4893 70.86 55.4859 73.3224 35.7447C75.7848 16.0034 61.6536 0 41.7594 0C21.8651 0 3.74153 16.0034 1.27913 35.7447C-1.18326 55.4859 12.948 71.4893 32.8422 71.4893ZM27.7004 14.1746L31.9221 18.5664C30.4901 19.5441 29.1685 20.675 27.9879 21.9331L23.1743 18.2089C24.5462 16.728 26.0638 15.3753 27.7004 14.1746ZM21.2123 20.5535L26.0406 24.2904C25.5102 25.0305 25.0283 25.7979 24.5979 26.5875L18.6177 24.6321C19.364 23.2164 20.2323 21.8515 21.2123 20.5535ZM23.3476 29.3056L17.3706 27.3501C16.7879 28.8127 16.3356 30.3057 16.0189 31.8116H22.5893C22.7861 30.9681 23.0393 30.1309 23.3476 29.3056ZM16.0326 42.0698L22.5234 40.1143L22.5255 40.0985C22.7229 40.9376 22.9831 41.7549 23.3044 42.5444L17.4639 46.2907C16.8452 44.9464 16.3661 43.5334 16.0326 42.0698ZM24.5314 44.9618L18.7413 48.6733C19.7536 50.3076 20.9815 51.7946 22.3992 53.1032L27.7791 48.7176C26.504 47.6306 25.4121 46.3617 24.5335 44.946L24.5314 44.9618ZM15.5687 35.1213H22.1032L22.1053 35.1054C22.0687 35.8681 22.0769 36.6265 22.1297 37.3773L15.5983 39.3423C15.4642 37.9538 15.4543 36.5418 15.5687 35.1213ZM43.5979 21.3952C40.5696 21.3964 37.502 22.4454 34.9482 24.353C32.3945 26.2606 30.5227 28.9014 29.6705 31.7989H36.1037C36.7635 30.3658 37.9155 29.146 39.3462 28.3655C40.7769 27.585 42.3893 27.2969 43.8845 27.5544C45.3796 27.8119 46.6563 28.5976 47.4778 29.766C48.2993 30.9344 48.6099 32.4061 48.3522 33.9085C48.0944 35.4109 47.2857 36.842 46.0759 37.9366C44.8661 39.0313 43.3373 39.7153 41.7728 39.8618C40.2083 40.0083 38.7142 39.6074 37.5674 38.7334C36.4205 37.8594 35.6988 36.5716 35.5358 35.1086H29.1843C29.156 37.4612 29.8414 39.6839 31.1578 41.5089C32.4742 43.334 34.3655 44.6834 36.6038 45.3947C38.8422 46.1061 41.3321 46.1489 43.7736 45.5182C46.2152 44.8874 48.5042 43.6099 50.3649 41.8396C52.2255 40.0693 53.5785 37.8817 54.2609 35.5403C54.9432 33.199 54.9257 30.8037 54.2106 28.6432C53.4955 26.4826 52.1132 24.6489 50.2302 23.3629C48.3473 22.0769 46.044 21.3936 43.5979 21.3952Z" fill="url(#paint2_linear_6056_13897)"/>
</g>
<path d="M29.2695 32.0989L29.3827 31.7143C30.2543 28.7509 32.166 26.0568 34.7687 24.1127C37.3713 22.1685 40.5012 21.0964 43.5977 21.0952L29.2695 32.0989ZM29.2695 32.0989H29.6705M29.2695 32.0989H29.6705M29.6705 32.0989H36.1037H36.2958M29.6705 32.0989H36.2958M36.2958 32.0989L36.3762 31.9244M36.2958 32.0989L36.3762 31.9244M36.3762 31.9244C37.0081 30.5519 38.1139 29.3795 39.4899 28.6289C40.8659 27.8782 42.4101 27.6049 43.8335 27.85C45.2555 28.0949 46.4598 28.8398 47.2324 29.9386C48.005 31.0374 48.3018 32.4277 48.0565 33.8577C47.8109 35.2891 47.0384 36.6612 45.8746 37.7142C44.7109 38.7672 43.2423 39.4228 41.7449 39.5631C40.248 39.7032 38.8305 39.3188 37.7492 38.4948C36.6691 37.6717 35.9881 36.4588 35.834 35.0754L35.8042 34.8086M36.3762 31.9244L35.8042 34.8086M35.8042 34.8086H35.5358M35.8042 34.8086H35.5358M35.5358 34.8086H29.1843H28.8879M35.5358 34.8086H28.8879M28.8879 34.8086L28.8843 35.105M28.8879 34.8086L28.8843 35.105M28.8843 35.105C28.8553 37.5187 29.5587 39.8049 30.9144 41.6845M28.8843 35.105L30.9144 41.6845M30.9144 41.6845C32.2702 43.564 34.2161 44.9507 36.513 45.6806M30.9144 41.6845L36.513 45.6806M36.513 45.6806C38.8091 46.4103 41.3567 46.4524 43.8487 45.8086M36.513 45.6806L43.8487 45.8086M43.8487 45.8086C46.3406 45.1649 48.6747 43.8618 50.5716 42.057M43.8487 45.8086L50.5716 42.057M50.5716 42.057C52.4686 40.2522 53.8509 38.0192 54.5489 35.6243M50.5716 42.057L54.5489 35.6243M54.5489 35.6243C55.2469 33.229 55.231 30.7714 54.4954 28.5489M54.5489 35.6243L54.4954 28.5489M54.4954 28.5489C53.7596 26.3258 52.3366 24.4382 50.3994 23.1152M54.4954 28.5489L50.3994 23.1152M50.3994 23.1152C48.4629 21.7926 46.0997 21.0936 43.5978 21.0952L50.3994 23.1152ZM32.0913 18.8142L32.3842 18.6142L32.1384 18.3585L27.9167 13.9667L27.7347 13.7773L27.523 13.9327C25.871 15.1446 24.3391 16.5101 22.9542 18.005L22.7314 18.2455L22.9907 18.4461L27.8044 22.1703L28.0201 22.3372L28.2067 22.1384C29.3723 20.8963 30.6772 19.7796 32.0913 18.8142ZM26.2845 24.4651L26.4529 24.2301L26.2243 24.0531L21.3959 20.3162L21.1558 20.1304L20.9729 20.3727C19.9833 21.6834 19.1063 23.062 18.3523 24.4922L18.1865 24.8067L18.5245 24.9172L24.5047 26.8727L24.7419 26.9503L24.8614 26.7311C25.2857 25.9524 25.7612 25.1954 26.2845 24.4651ZM17.4639 27.065L17.1962 26.9774L17.0919 27.2391C16.503 28.7173 16.0456 30.2267 15.7253 31.7498L15.6493 32.1116H16.0189H22.5893H22.8274L22.8815 31.8797C23.0752 31.0489 23.3248 30.2241 23.6286 29.4105L23.738 29.1176L23.4408 29.0204L17.4639 27.065ZM22.8176 40.0298L22.5027 40.0453L22.4369 39.8271L15.9461 41.7825L15.6779 41.8633L15.7401 42.1364C16.0781 43.6199 16.5639 45.0527 17.1914 46.4162L17.3356 46.7295L17.6259 46.5432L23.4664 42.7969L23.6763 42.6623L23.5823 42.4313C23.2669 41.6564 23.0114 40.854 22.8176 40.0298ZM18.5794 48.4208L18.3307 48.5802L18.4862 48.8313C19.5129 50.4887 20.7581 51.9967 22.1957 53.3236L22.387 53.5002L22.5887 53.3357L27.9686 48.9502L28.2476 48.7228L27.9737 48.4894C26.7221 47.4223 25.6506 46.177 24.7884 44.7878L24.3465 44.0759L24.2523 44.7843L18.5794 48.4208ZM22.1032 35.0925V34.8213H15.5687H15.2919L15.2696 35.0972C15.1539 36.535 15.1639 37.9647 15.2997 39.3711L15.3349 39.7348L15.6848 39.6295L22.2161 37.6646L22.4457 37.5955L22.4289 37.3563C22.377 36.6174 22.3689 35.8708 22.4049 35.1198L22.1032 35.0925ZM73.0247 35.7075C70.5811 55.2986 52.5851 71.1893 32.8422 71.1893C13.1284 71.1893 -0.86324 55.344 1.57683 35.7818C4.0205 16.1907 22.0165 0.3 41.7594 0.3C61.4731 0.3 75.4648 16.1453 73.0247 35.7075Z" stroke="white" stroke-opacity="0.2" stroke-width="0.6"/>
<defs>
<filter id="filter0_f_6056_13897" x="0.752441" y="70" width="82.5544" height="30" filterUnits="userSpaceOnUse" color-interpolation-filters="sRGB">
<feFlood flood-opacity="0" result="BackgroundImageFix"/>
<feBlend mode="normal" in="SourceGraphic" in2="BackgroundImageFix" result="shape"/>
<feGaussianBlur stdDeviation="5" result="effect1_foregroundBlur_6056_13897"/>
</filter>
<filter id="filter1_i_6056_13897" x="2.50732" y="-10.2852" width="78.4927" height="88.5664" filterUnits="userSpaceOnUse" color-interpolation-filters="sRGB">
<feFlood flood-opacity="0" result="BackgroundImageFix"/>
<feBlend mode="normal" in="SourceGraphic" in2="BackgroundImageFix" result="shape"/>
<feColorMatrix in="SourceAlpha" type="matrix" values="0 0 0 0 0 0 0 0 0 0 0 0 0 0 0 0 0 0 127 0" result="hardAlpha"/>
<feOffset dy="-12"/>
<feGaussianBlur stdDeviation="14"/>
<feComposite in2="hardAlpha" operator="arithmetic" k2="-1" k3="1"/>
<feColorMatrix type="matrix" values="0 0 0 0 0.908698 0 0 0 0 0.995833 0 0 0 0 0.990605 0 0 0 0.25 0"/>
<feBlend mode="normal" in2="shape" result="effect1_innerShadow_6056_13897"/>
</filter>
<filter id="filter2_i_6056_13897" x="2.50732" y="-10.2852" width="78.4927" height="88.5664" filterUnits="userSpaceOnUse" color-interpolation-filters="sRGB">
<feFlood flood-opacity="0" result="BackgroundImageFix"/>
<feBlend mode="normal" in="SourceGraphic" in2="BackgroundImageFix" result="shape"/>
<feColorMatrix in="SourceAlpha" type="matrix" values="0 0 0 0 0 0 0 0 0 0 0 0 0 0 0 0 0 0 127 0" result="hardAlpha"/>
<feOffset dy="-12"/>
<feGaussianBlur stdDeviation="14"/>
<feComposite in2="hardAlpha" operator="arithmetic" k2="-1" k3="1"/>
<feColorMatrix type="matrix" values="0 0 0 0 0.908698 0 0 0 0 0.995833 0 0 0 0 0.990605 0 0 0 0.25 0"/>
<feBlend mode="normal" in2="shape" result="effect1_innerShadow_6056_13897"/>
</filter>
<filter id="filter3_iii_6056_13897" x="1.00049" y="-10" width="72.6006" height="81.4893" filterUnits="userSpaceOnUse" color-interpolation-filters="sRGB">
<feFlood flood-opacity="0" result="BackgroundImageFix"/>
<feBlend mode="normal" in="SourceGraphic" in2="BackgroundImageFix" result="shape"/>
<feColorMatrix in="SourceAlpha" type="matrix" values="0 0 0 0 0 0 0 0 0 0 0 0 0 0 0 0 0 0 127 0" result="hardAlpha"/>
<feOffset dy="-4"/>
<feGaussianBlur stdDeviation="5"/>
<feComposite in2="hardAlpha" operator="arithmetic" k2="-1" k3="1"/>
<feColorMatrix type="matrix" values="0 0 0 0 1 0 0 0 0 1 0 0 0 0 1 0 0 0 0.5 0"/>
<feBlend mode="normal" in2="shape" result="effect1_innerShadow_6056_13897"/>
<feColorMatrix in="SourceAlpha" type="matrix" values="0 0 0 0 0 0 0 0 0 0 0 0 0 0 0 0 0 0 127 0" result="hardAlpha"/>
<feOffset dy="-2"/>
<feGaussianBlur stdDeviation="4"/>
<feComposite in2="hardAlpha" operator="arithmetic" k2="-1" k3="1"/>
<feColorMatrix type="matrix" values="0 0 0 0 1 0 0 0 0 1 0 0 0 0 1 0 0 0 0.5 0"/>
<feBlend mode="normal" in2="effect1_innerShadow_6056_13897" result="effect2_innerShadow_6056_13897"/>
<feColorMatrix in="SourceAlpha" type="matrix" values="0 0 0 0 0 0 0 0 0 0 0 0 0 0 0 0 0 0 127 0" result="hardAlpha"/>
<feOffset dy="-10"/>
<feGaussianBlur stdDeviation="26"/>
<feComposite in2="hardAlpha" operator="arithmetic" k2="-1" k3="1"/>
<feColorMatrix type="matrix" values="0 0 0 0 1 0 0 0 0 1 0 0 0 0 1 0 0 0 0.25 0"/>
<feBlend mode="normal" in2="effect2_innerShadow_6056_13897" result="effect3_innerShadow_6056_13897"/>
</filter>
<linearGradient id="paint0_linear_6056_13897" x1="77.6533" y1="1.71484" x2="6.46238" y2="1.71484" gradientUnits="userSpaceOnUse">
<stop stop-color="#8DFF83"/>
<stop offset="0.171875" stop-color="#BEFE00"/>
<stop offset="0.416052" stop-color="#BEFE00"/>
<stop offset="0.65625" stop-color="#BEFE00"/>
<stop offset="1" stop-color="#BEFE00"/>
</linearGradient>
<radialGradient id="paint1_radial_6056_13897" cx="0" cy="0" r="1" gradientUnits="userSpaceOnUse" gradientTransform="translate(39.9561 39.4665) rotate(28.975) scale(42.8068 78.7327)">
<stop stop-color="#AEF834"/>
<stop offset="0.34375" stop-color="#4B5608"/>
<stop offset="1" stop-color="#C5F700" stop-opacity="0"/>
</radialGradient>
<linearGradient id="paint2_linear_6056_13897" x1="14.0005" y1="-7" x2="52.9221" y2="71.9949" gradientUnits="userSpaceOnUse">
<stop offset="0.00325446" stop-color="white"/>
<stop offset="0.348958" stop-color="#6FFF17"/>
<stop offset="0.75" stop-color="#BEFE00"/>
<stop offset="1" stop-color="#BAF700"/>
</linearGradient>
</defs>
</svg>
