<svg width="84" height="100" viewBox="0 0 84 100" fill="none" xmlns="http://www.w3.org/2000/svg">
<g opacity="0.8" filter="url(#filter0_f_6073_13906)">
<path d="M73.324 85C73.324 87.7609 59.3521 90 42.1169 90C24.8816 90 10.9098 87.7609 10.9098 85C10.9098 82.2391 24.8816 80 42.1169 80C59.3521 80 73.324 82.2391 73.324 85Z" fill="black"/>
</g>
<g filter="url(#filter1_i_6073_13906)">
<path d="M44.2566 1.71777C24.7672 1.71777 6.36966 17.3338 3.16355 36.5972C1.41229 47.1146 4.55192 56.5443 10.9358 62.9392L17.7175 69.7349C23.0257 75.052 30.5778 78.2713 39.4257 78.2713C58.9152 78.2713 77.3138 62.6553 80.5199 43.3919C82.2711 32.8745 79.1304 23.4437 72.7465 17.0488L65.966 10.2542C60.6566 4.93708 53.1056 1.71777 44.2566 1.71777Z" fill="url(#paint0_linear_6073_13906)"/>
</g>
<g filter="url(#filter2_i_6073_13906)">
<path d="M44.2566 1.71777C24.7672 1.71777 6.36966 17.3338 3.16355 36.5972C1.41229 47.1146 4.55192 56.5443 10.9358 62.9392L17.7175 69.7349C23.0257 75.052 30.5778 78.2713 39.4257 78.2713C58.9152 78.2713 77.3138 62.6553 80.5199 43.3919C82.2711 32.8745 79.1304 23.4437 72.7465 17.0488L65.966 10.2542C60.6566 4.93708 53.1056 1.71777 44.2566 1.71777Z" fill="url(#paint1_radial_6073_13906)"/>
</g>
<mask id="path-4-inside-1_6073_13906" fill="white">
<path fill-rule="evenodd" clip-rule="evenodd" d="M24.8644 34.9594H35.8379L35.8383 34.9572C36.8608 34.9572 37.8841 34.9552 38.9073 34.9533C41.3635 34.9486 43.8211 34.9439 46.2719 34.9662C47.7665 34.9797 49.1803 34.5987 50.5596 33.7803C50.577 33.77 50.5949 33.7579 50.613 33.7456C50.6897 33.6937 50.7717 33.6381 50.8517 33.6946C50.9266 33.7473 50.9053 33.8365 50.885 33.921C50.8801 33.9415 50.8753 33.9617 50.8719 33.981C50.4778 36.2535 50.0833 38.5283 49.6846 40.8009C49.6688 40.8909 49.6523 40.9818 49.636 41.0722C49.6032 41.2532 49.5704 41.4345 49.5418 41.6148C49.4634 42.1266 49.1559 42.494 48.6793 42.7375C47.9482 43.1105 47.2197 43.491 46.4914 43.8714C45.3709 44.4566 44.2503 45.0419 43.1184 45.6008C41.4966 46.4034 39.8796 47.2173 38.2753 48.0627C37.2441 48.6063 36.2063 49.1372 35.1694 49.6676L35.1675 49.6686L35.1637 49.6705C34.7706 49.8716 34.3776 50.0727 33.9849 50.2744C33.3784 50.5855 32.8509 50.6013 32.3547 50.2834C31.0292 49.4357 29.6957 48.5948 28.3592 47.7584C27.1034 46.9738 25.8463 46.1904 24.5892 45.407L24.5681 45.3939C23.3034 44.6057 22.0387 43.8176 20.7754 43.0284C20.7041 42.985 20.6354 42.9378 20.5667 42.8905C20.5067 42.8493 20.4467 42.808 20.3847 42.7691C19.934 42.4895 19.7835 42.0657 19.8877 41.4975C20.0415 40.6558 20.1873 39.8129 20.3331 38.9705C20.4059 38.5494 20.4788 38.1284 20.5526 37.7077C20.5775 37.5657 20.6084 37.4281 20.7225 37.3086C21.5955 36.3978 22.5367 35.5907 23.7253 35.1601C24.106 35.0226 24.4828 34.9594 24.8644 34.9594ZM34.039 39.8054C34.0705 39.5859 34.0996 39.383 34.1411 39.2068C34.183 38.968 34.2213 38.7474 34.2574 38.5396L34.2578 38.537L34.2581 38.5357L34.2585 38.5334C34.3414 38.0557 34.4126 37.6453 34.4891 37.2364C34.5349 36.9884 34.4603 36.8824 34.2014 36.8824C33.8199 36.8838 33.4388 36.8784 33.0574 36.8729C32.8188 36.8695 32.5787 36.8661 32.3397 36.8644C31.9948 36.8621 31.9144 36.932 31.8551 37.2702L31.3282 40.2732C31.2599 40.6497 31.2462 40.6632 30.8578 40.6632C30.0551 40.6677 29.2556 40.6677 28.4545 40.6632C28.012 40.661 28.0124 40.6587 28.0875 40.2304C28.2569 39.2388 28.4309 38.2472 28.6048 37.2556L28.6051 37.2544C28.6414 37.047 28.6381 36.8847 28.3678 36.8847C27.6965 36.8914 27.0291 36.8892 26.3598 36.8847C26.1399 36.8824 26.0222 36.9703 25.9815 37.2025C25.9047 37.6554 25.8239 38.1079 25.7431 38.5604C25.6151 39.2768 25.4871 39.9934 25.3752 40.7106C25.1636 42.0723 26.0892 43.2311 27.4155 43.2582C28.5606 43.283 29.7122 43.283 30.8663 43.2559C32.1439 43.2244 33.3284 42.3248 33.7652 41.0781C33.9194 40.6381 33.983 40.1954 34.039 39.8054ZM39.6404 43.2467C39.4465 43.2467 39.2512 43.252 39.0559 43.2572C38.6247 43.2688 38.1933 43.2805 37.7775 43.2355C36.3756 43.0821 35.5889 41.9729 35.8197 40.5278C35.9276 39.8495 36.0493 39.1703 36.171 38.4914C36.247 38.0671 36.3232 37.642 36.3958 37.2181C36.4385 36.9746 36.5684 36.8687 36.791 36.8687C37.2564 36.8702 37.721 36.8757 38.185 36.8812L38.1863 36.8813C38.4165 36.884 38.6474 36.8867 38.8772 36.889C39.1062 36.8912 39.0914 37.0536 39.0617 37.2226L38.6235 39.7207C38.6094 39.8013 38.5967 39.8816 38.5841 39.9618C38.5615 40.1058 38.5387 40.2501 38.5075 40.3948C38.4667 40.5886 38.5381 40.6608 38.7289 40.6608C39.6236 40.6608 40.5191 40.6608 41.4118 40.6721C41.6454 40.6743 41.6846 40.5413 41.7159 40.3632C41.8328 39.6882 41.9517 39.0131 42.0707 38.3374L42.0727 38.3264L42.0728 38.3254C42.1328 37.9853 42.1928 37.6444 42.2526 37.3038C42.3226 36.9048 42.3416 36.8867 42.7346 36.8867C43.3365 36.8867 43.9408 36.8867 44.5411 36.8957C45.0075 36.9048 45.0134 36.9228 44.9373 37.3692L44.4157 40.3429C44.3528 40.7014 44.2479 41.0531 44.0837 41.3935C43.538 42.523 42.4438 43.2445 41.2481 43.2625C40.8901 43.267 40.5322 43.2655 40.1746 43.264H40.1735C39.9948 43.2633 39.8162 43.2625 39.6376 43.2625L39.6404 43.2467Z"/>
<path fill-rule="evenodd" clip-rule="evenodd" d="M36.6578 32.4096L36.6597 32.4118C35.67 32.4118 34.6797 32.4115 33.6898 32.4111H33.6875C31.2112 32.4102 28.734 32.4092 26.2559 32.4141L26.2069 32.4141C25.6028 32.414 24.9927 32.414 24.3817 32.493C23.4104 32.617 22.4904 33.0318 21.607 33.5616C21.59 33.5721 21.5725 33.5843 21.5546 33.5967C21.4845 33.6455 21.4093 33.6977 21.3389 33.6653C21.2525 33.6251 21.2769 33.5385 21.3001 33.4565C21.3068 33.4329 21.3134 33.4097 21.3172 33.388C21.4568 32.5828 21.5982 31.7772 21.7397 30.9716C21.9989 29.4948 22.2583 28.0172 22.507 26.541C22.6128 25.912 22.955 25.5017 23.5411 25.2041C25.3244 24.3008 27.1059 23.3892 28.8868 22.4778L29.7581 22.032C31.6815 21.0473 33.6045 20.0612 35.5275 19.075L37.6177 18.0032C37.6793 17.9715 37.7408 17.9395 37.802 17.9075C37.902 17.8553 38.0019 17.8033 38.1023 17.7529C38.6529 17.4756 39.1607 17.4688 39.6114 17.7484C41.3863 18.8477 43.1609 19.9493 44.9355 21.0509L44.9397 21.0535C45.6581 21.4994 46.3758 21.9467 47.0936 22.394C48.5861 23.3242 50.0789 24.2546 51.579 25.1726C52.1126 25.4972 52.3286 25.9233 52.1852 26.6109C52.0208 27.3884 51.8924 28.1687 51.7641 28.9484C51.7261 29.1794 51.6881 29.4102 51.6491 29.641C51.6079 29.889 51.5117 30.1009 51.3074 30.2813C50.6435 30.8675 49.9681 31.4289 49.1979 31.8572C48.5535 32.2157 47.8971 32.4096 47.2043 32.4096C44.2769 32.4039 41.3498 32.4061 38.4216 32.4083L36.6578 32.4096ZM27.6762 27.5662C27.6418 27.8045 27.609 28.0314 27.5608 28.2388H27.5654L27.2418 30.083C27.1691 30.4978 27.1859 30.5181 27.6175 30.5181H29.3688C29.755 30.5181 29.7915 30.4911 29.8596 30.1033L30.3911 27.0732C30.4548 26.7102 30.4663 26.6967 30.8411 26.6967C31.6709 26.6922 32.5 26.6922 33.3283 26.6967C33.7095 26.6989 33.711 26.7035 33.6418 27.098C33.5907 27.3891 33.5404 27.6803 33.4901 27.9714C33.3642 28.6993 33.2384 29.4272 33.101 30.1551C33.0482 30.4302 33.1418 30.5181 33.4011 30.5159C34.0429 30.5091 34.6834 30.5091 35.3228 30.5159C35.5564 30.5181 35.6804 30.4324 35.7231 30.1889C35.7967 29.7543 35.8745 29.3195 35.9521 28.885C36.0751 28.1972 36.198 27.5095 36.3045 26.8229C36.5858 25.0126 35.3684 24.1829 34.2068 24.1491C33.0921 24.1198 31.9688 24.1265 30.845 24.1491C29.6236 24.1716 28.3615 25.1118 27.9464 26.2999C27.7968 26.73 27.7341 27.1646 27.6762 27.5662ZM38.0908 27.8245C38.0594 28.0054 38.0279 28.1863 37.9961 28.3675H37.9938L37.6837 30.135C37.6228 30.4822 37.6464 30.5161 38.0076 30.5161H39.7884C40.1723 30.5161 40.2013 30.4935 40.2709 30.0967C40.3155 29.8425 40.3605 29.5884 40.4054 29.3344L40.4059 29.3317C40.5414 28.5666 40.6769 27.8015 40.8008 27.0373C40.8436 26.7803 40.9457 26.6901 41.202 26.6924C42.0473 26.7037 42.8968 26.7037 43.7464 26.6901C44.0266 26.6856 44.1115 26.7713 44.0568 27.0576C43.9371 27.6924 43.8269 28.3263 43.7167 28.9603L43.7164 28.9616L43.7158 28.9652C43.6458 29.3678 43.5758 29.7704 43.5034 30.1734C43.4694 30.3673 43.4754 30.5138 43.7071 30.5138C44.4045 30.5138 45.1018 30.5138 45.8004 30.507C46.0097 30.5048 46.1589 30.4056 46.1939 30.1801C46.2611 29.7522 46.3432 29.3244 46.4251 28.8967C46.5816 28.0804 46.738 27.2648 46.7913 26.4511C46.8742 25.1886 45.9739 24.1831 44.7006 24.1515C43.5586 24.1222 42.407 24.1222 41.2525 24.1515C39.8901 24.1876 38.5272 25.3915 38.2816 26.7397C38.2166 27.1019 38.1537 27.463 38.0908 27.8245Z"/>
<path fill-rule="evenodd" clip-rule="evenodd" d="M32.5735 71.0338C52.3 71.0338 70.2709 55.1324 72.7126 35.5169C75.1542 15.9015 61.142 0 41.4155 0C21.6889 0 3.71807 15.9015 1.27642 35.5169C-1.16523 55.1324 12.847 71.0338 32.5735 71.0338ZM19.0661 31.8476C18.9346 32.5775 18.8031 33.3074 18.6751 34.0373L18.6747 34.0396C18.5291 34.8696 18.3837 35.6998 18.2383 36.5302L18.2293 36.5815C17.9337 38.2692 17.6381 39.9571 17.3407 41.6441C17.1023 42.99 17.5505 43.9956 18.5065 44.7486C19.0273 45.1605 19.6064 45.5004 20.1833 45.839L20.1843 45.8396C20.2762 45.8935 20.3688 45.9479 20.4604 46.0021C21.6908 46.7288 22.8913 47.4955 24.0919 48.2623C25.2229 48.9847 26.3541 49.7072 27.5103 50.3961C28.0332 50.7083 28.5465 51.034 29.0598 51.3597C29.7512 51.7985 30.4432 52.2377 31.1592 52.6439C31.5207 52.8491 31.9309 52.9708 32.3591 53.0159C33.1554 53.0993 33.9513 52.8874 34.7251 52.4906C35.2946 52.1988 35.8634 51.9043 36.432 51.6098L36.4342 51.6087C37.2575 51.1824 38.0808 50.756 38.9075 50.3375C39.4433 50.0668 39.9805 49.7994 40.5177 49.532L40.5214 49.5302C41.392 49.0968 42.2633 48.6631 43.1276 48.216C43.7205 47.9099 44.312 47.5997 44.9034 47.2895L44.9051 47.2886L44.9061 47.2881C46.2867 46.564 47.6671 45.84 49.0661 45.1679C50.8846 44.2932 51.9137 42.9585 52.2377 41.112C52.5778 39.16 52.9215 37.2073 53.2652 35.2547L53.2658 35.2512L53.2667 35.2463L53.2672 35.2434C53.6111 33.2893 53.9551 31.3352 54.2955 29.3817C54.3424 29.1144 54.3927 28.8464 54.4429 28.5788C54.5841 27.8268 54.7253 27.0745 54.7932 26.3246C54.8854 25.2808 54.6438 24.379 53.967 23.6665C53.6576 23.3415 53.2765 23.1095 52.8944 22.8768C52.7862 22.8109 52.6778 22.7449 52.571 22.6768C50.6261 21.4368 48.6685 20.2171 46.6968 19.0132C45.8228 18.4791 44.9563 17.9346 44.0899 17.3901C43.0692 16.7486 42.048 16.1069 41.0151 15.4826C40.0435 14.8964 38.9255 14.8085 37.7034 15.4172C36.0853 16.2244 34.4684 17.0382 32.8566 17.8611L31.6134 18.4955C28.6222 20.0218 25.6311 21.5479 22.6498 23.0984C21.1379 23.883 20.2055 25.0418 19.9512 26.6853C19.6862 28.4051 19.3764 30.1249 19.0666 31.8446L19.0661 31.8476Z"/>
</mask>
<g filter="url(#filter3_iii_6073_13906)">
<path fill-rule="evenodd" clip-rule="evenodd" d="M24.8644 34.9594H35.8379L35.8383 34.9572C36.8608 34.9572 37.8841 34.9552 38.9073 34.9533C41.3635 34.9486 43.8211 34.9439 46.2719 34.9662C47.7665 34.9797 49.1803 34.5987 50.5596 33.7803C50.577 33.77 50.5949 33.7579 50.613 33.7456C50.6897 33.6937 50.7717 33.6381 50.8517 33.6946C50.9266 33.7473 50.9053 33.8365 50.885 33.921C50.8801 33.9415 50.8753 33.9617 50.8719 33.981C50.4778 36.2535 50.0833 38.5283 49.6846 40.8009C49.6688 40.8909 49.6523 40.9818 49.636 41.0722C49.6032 41.2532 49.5704 41.4345 49.5418 41.6148C49.4634 42.1266 49.1559 42.494 48.6793 42.7375C47.9482 43.1105 47.2197 43.491 46.4914 43.8714C45.3709 44.4566 44.2503 45.0419 43.1184 45.6008C41.4966 46.4034 39.8796 47.2173 38.2753 48.0627C37.2441 48.6063 36.2063 49.1372 35.1694 49.6676L35.1675 49.6686L35.1637 49.6705C34.7706 49.8716 34.3776 50.0727 33.9849 50.2744C33.3784 50.5855 32.8509 50.6013 32.3547 50.2834C31.0292 49.4357 29.6957 48.5948 28.3592 47.7584C27.1034 46.9738 25.8463 46.1904 24.5892 45.407L24.5681 45.3939C23.3034 44.6057 22.0387 43.8176 20.7754 43.0284C20.7041 42.985 20.6354 42.9378 20.5667 42.8905C20.5067 42.8493 20.4467 42.808 20.3847 42.7691C19.934 42.4895 19.7835 42.0657 19.8877 41.4975C20.0415 40.6558 20.1873 39.8129 20.3331 38.9705C20.4059 38.5494 20.4788 38.1284 20.5526 37.7077C20.5775 37.5657 20.6084 37.4281 20.7225 37.3086C21.5955 36.3978 22.5367 35.5907 23.7253 35.1601C24.106 35.0226 24.4828 34.9594 24.8644 34.9594ZM34.039 39.8054C34.0705 39.5859 34.0996 39.383 34.1411 39.2068C34.183 38.968 34.2213 38.7474 34.2574 38.5396L34.2578 38.537L34.2581 38.5357L34.2585 38.5334C34.3414 38.0557 34.4126 37.6453 34.4891 37.2364C34.5349 36.9884 34.4603 36.8824 34.2014 36.8824C33.8199 36.8838 33.4388 36.8784 33.0574 36.8729C32.8188 36.8695 32.5787 36.8661 32.3397 36.8644C31.9948 36.8621 31.9144 36.932 31.8551 37.2702L31.3282 40.2732C31.2599 40.6497 31.2462 40.6632 30.8578 40.6632C30.0551 40.6677 29.2556 40.6677 28.4545 40.6632C28.012 40.661 28.0124 40.6587 28.0875 40.2304C28.2569 39.2388 28.4309 38.2472 28.6048 37.2556L28.6051 37.2544C28.6414 37.047 28.6381 36.8847 28.3678 36.8847C27.6965 36.8914 27.0291 36.8892 26.3598 36.8847C26.1399 36.8824 26.0222 36.9703 25.9815 37.2025C25.9047 37.6554 25.8239 38.1079 25.7431 38.5604C25.6151 39.2768 25.4871 39.9934 25.3752 40.7106C25.1636 42.0723 26.0892 43.2311 27.4155 43.2582C28.5606 43.283 29.7122 43.283 30.8663 43.2559C32.1439 43.2244 33.3284 42.3248 33.7652 41.0781C33.9194 40.6381 33.983 40.1954 34.039 39.8054ZM39.6404 43.2467C39.4465 43.2467 39.2512 43.252 39.0559 43.2572C38.6247 43.2688 38.1933 43.2805 37.7775 43.2355C36.3756 43.0821 35.5889 41.9729 35.8197 40.5278C35.9276 39.8495 36.0493 39.1703 36.171 38.4914C36.247 38.0671 36.3232 37.642 36.3958 37.2181C36.4385 36.9746 36.5684 36.8687 36.791 36.8687C37.2564 36.8702 37.721 36.8757 38.185 36.8812L38.1863 36.8813C38.4165 36.884 38.6474 36.8867 38.8772 36.889C39.1062 36.8912 39.0914 37.0536 39.0617 37.2226L38.6235 39.7207C38.6094 39.8013 38.5967 39.8816 38.5841 39.9618C38.5615 40.1058 38.5387 40.2501 38.5075 40.3948C38.4667 40.5886 38.5381 40.6608 38.7289 40.6608C39.6236 40.6608 40.5191 40.6608 41.4118 40.6721C41.6454 40.6743 41.6846 40.5413 41.7159 40.3632C41.8328 39.6882 41.9517 39.0131 42.0707 38.3374L42.0727 38.3264L42.0728 38.3254C42.1328 37.9853 42.1928 37.6444 42.2526 37.3038C42.3226 36.9048 42.3416 36.8867 42.7346 36.8867C43.3365 36.8867 43.9408 36.8867 44.5411 36.8957C45.0075 36.9048 45.0134 36.9228 44.9373 37.3692L44.4157 40.3429C44.3528 40.7014 44.2479 41.0531 44.0837 41.3935C43.538 42.523 42.4438 43.2445 41.2481 43.2625C40.8901 43.267 40.5322 43.2655 40.1746 43.264H40.1735C39.9948 43.2633 39.8162 43.2625 39.6376 43.2625L39.6404 43.2467Z" fill="url(#paint2_linear_6073_13906)"/>
<path fill-rule="evenodd" clip-rule="evenodd" d="M36.6578 32.4096L36.6597 32.4118C35.67 32.4118 34.6797 32.4115 33.6898 32.4111H33.6875C31.2112 32.4102 28.734 32.4092 26.2559 32.4141L26.2069 32.4141C25.6028 32.414 24.9927 32.414 24.3817 32.493C23.4104 32.617 22.4904 33.0318 21.607 33.5616C21.59 33.5721 21.5725 33.5843 21.5546 33.5967C21.4845 33.6455 21.4093 33.6977 21.3389 33.6653C21.2525 33.6251 21.2769 33.5385 21.3001 33.4565C21.3068 33.4329 21.3134 33.4097 21.3172 33.388C21.4568 32.5828 21.5982 31.7772 21.7397 30.9716C21.9989 29.4948 22.2583 28.0172 22.507 26.541C22.6128 25.912 22.955 25.5017 23.5411 25.2041C25.3244 24.3008 27.1059 23.3892 28.8868 22.4778L29.7581 22.032C31.6815 21.0473 33.6045 20.0612 35.5275 19.075L37.6177 18.0032C37.6793 17.9715 37.7408 17.9395 37.802 17.9075C37.902 17.8553 38.0019 17.8033 38.1023 17.7529C38.6529 17.4756 39.1607 17.4688 39.6114 17.7484C41.3863 18.8477 43.1609 19.9493 44.9355 21.0509L44.9397 21.0535C45.6581 21.4994 46.3758 21.9467 47.0936 22.394C48.5861 23.3242 50.0789 24.2546 51.579 25.1726C52.1126 25.4972 52.3286 25.9233 52.1852 26.6109C52.0208 27.3884 51.8924 28.1687 51.7641 28.9484C51.7261 29.1794 51.6881 29.4102 51.6491 29.641C51.6079 29.889 51.5117 30.1009 51.3074 30.2813C50.6435 30.8675 49.9681 31.4289 49.1979 31.8572C48.5535 32.2157 47.8971 32.4096 47.2043 32.4096C44.2769 32.4039 41.3498 32.4061 38.4216 32.4083L36.6578 32.4096ZM27.6762 27.5662C27.6418 27.8045 27.609 28.0314 27.5608 28.2388H27.5654L27.2418 30.083C27.1691 30.4978 27.1859 30.5181 27.6175 30.5181H29.3688C29.755 30.5181 29.7915 30.4911 29.8596 30.1033L30.3911 27.0732C30.4548 26.7102 30.4663 26.6967 30.8411 26.6967C31.6709 26.6922 32.5 26.6922 33.3283 26.6967C33.7095 26.6989 33.711 26.7035 33.6418 27.098C33.5907 27.3891 33.5404 27.6803 33.4901 27.9714C33.3642 28.6993 33.2384 29.4272 33.101 30.1551C33.0482 30.4302 33.1418 30.5181 33.4011 30.5159C34.0429 30.5091 34.6834 30.5091 35.3228 30.5159C35.5564 30.5181 35.6804 30.4324 35.7231 30.1889C35.7967 29.7543 35.8745 29.3195 35.9521 28.885C36.0751 28.1972 36.198 27.5095 36.3045 26.8229C36.5858 25.0126 35.3684 24.1829 34.2068 24.1491C33.0921 24.1198 31.9688 24.1265 30.845 24.1491C29.6236 24.1716 28.3615 25.1118 27.9464 26.2999C27.7968 26.73 27.7341 27.1646 27.6762 27.5662ZM38.0908 27.8245C38.0594 28.0054 38.0279 28.1863 37.9961 28.3675H37.9938L37.6837 30.135C37.6228 30.4822 37.6464 30.5161 38.0076 30.5161H39.7884C40.1723 30.5161 40.2013 30.4935 40.2709 30.0967C40.3155 29.8425 40.3605 29.5884 40.4054 29.3344L40.4059 29.3317C40.5414 28.5666 40.6769 27.8015 40.8008 27.0373C40.8436 26.7803 40.9457 26.6901 41.202 26.6924C42.0473 26.7037 42.8968 26.7037 43.7464 26.6901C44.0266 26.6856 44.1115 26.7713 44.0568 27.0576C43.9371 27.6924 43.8269 28.3263 43.7167 28.9603L43.7164 28.9616L43.7158 28.9652C43.6458 29.3678 43.5758 29.7704 43.5034 30.1734C43.4694 30.3673 43.4754 30.5138 43.7071 30.5138C44.4045 30.5138 45.1018 30.5138 45.8004 30.507C46.0097 30.5048 46.1589 30.4056 46.1939 30.1801C46.2611 29.7522 46.3432 29.3244 46.4251 28.8967C46.5816 28.0804 46.738 27.2648 46.7913 26.4511C46.8742 25.1886 45.9739 24.1831 44.7006 24.1515C43.5586 24.1222 42.407 24.1222 41.2525 24.1515C39.8901 24.1876 38.5272 25.3915 38.2816 26.7397C38.2166 27.1019 38.1537 27.463 38.0908 27.8245Z" fill="url(#paint3_linear_6073_13906)"/>
<path fill-rule="evenodd" clip-rule="evenodd" d="M32.5735 71.0338C52.3 71.0338 70.2709 55.1324 72.7126 35.5169C75.1542 15.9015 61.142 0 41.4155 0C21.6889 0 3.71807 15.9015 1.27642 35.5169C-1.16523 55.1324 12.847 71.0338 32.5735 71.0338ZM19.0661 31.8476C18.9346 32.5775 18.8031 33.3074 18.6751 34.0373L18.6747 34.0396C18.5291 34.8696 18.3837 35.6998 18.2383 36.5302L18.2293 36.5815C17.9337 38.2692 17.6381 39.9571 17.3407 41.6441C17.1023 42.99 17.5505 43.9956 18.5065 44.7486C19.0273 45.1605 19.6064 45.5004 20.1833 45.839L20.1843 45.8396C20.2762 45.8935 20.3688 45.9479 20.4604 46.0021C21.6908 46.7288 22.8913 47.4955 24.0919 48.2623C25.2229 48.9847 26.3541 49.7072 27.5103 50.3961C28.0332 50.7083 28.5465 51.034 29.0598 51.3597C29.7512 51.7985 30.4432 52.2377 31.1592 52.6439C31.5207 52.8491 31.9309 52.9708 32.3591 53.0159C33.1554 53.0993 33.9513 52.8874 34.7251 52.4906C35.2946 52.1988 35.8634 51.9043 36.432 51.6098L36.4342 51.6087C37.2575 51.1824 38.0808 50.756 38.9075 50.3375C39.4433 50.0668 39.9805 49.7994 40.5177 49.532L40.5214 49.5302C41.392 49.0968 42.2633 48.6631 43.1276 48.216C43.7205 47.9099 44.312 47.5997 44.9034 47.2895L44.9051 47.2886L44.9061 47.2881C46.2867 46.564 47.6671 45.84 49.0661 45.1679C50.8846 44.2932 51.9137 42.9585 52.2377 41.112C52.5778 39.16 52.9215 37.2073 53.2652 35.2547L53.2658 35.2512L53.2667 35.2463L53.2672 35.2434C53.6111 33.2893 53.9551 31.3352 54.2955 29.3817C54.3424 29.1144 54.3927 28.8464 54.4429 28.5788C54.5841 27.8268 54.7253 27.0745 54.7932 26.3246C54.8854 25.2808 54.6438 24.379 53.967 23.6665C53.6576 23.3415 53.2765 23.1095 52.8944 22.8768C52.7862 22.8109 52.6778 22.7449 52.571 22.6768C50.6261 21.4368 48.6685 20.2171 46.6968 19.0132C45.8228 18.4791 44.9563 17.9346 44.0899 17.3901C43.0692 16.7486 42.048 16.1069 41.0151 15.4826C40.0435 14.8964 38.9255 14.8085 37.7034 15.4172C36.0853 16.2244 34.4684 17.0382 32.8566 17.8611L31.6134 18.4955C28.6222 20.0218 25.6311 21.5479 22.6498 23.0984C21.1379 23.883 20.2055 25.0418 19.9512 26.6853C19.6862 28.4051 19.3764 30.1249 19.0666 31.8446L19.0661 31.8476Z" fill="url(#paint4_linear_6073_13906)"/>
</g>
<path fill-rule="evenodd" clip-rule="evenodd" d="M24.8644 34.9594H35.8379L35.8383 34.9572C36.8608 34.9572 37.8841 34.9552 38.9073 34.9533C41.3635 34.9486 43.8211 34.9439 46.2719 34.9662C47.7665 34.9797 49.1803 34.5987 50.5596 33.7803C50.577 33.77 50.5949 33.7579 50.613 33.7456C50.6897 33.6937 50.7717 33.6381 50.8517 33.6946C50.9266 33.7473 50.9053 33.8365 50.885 33.921C50.8801 33.9415 50.8753 33.9617 50.8719 33.981C50.4778 36.2535 50.0833 38.5283 49.6846 40.8009C49.6688 40.8909 49.6523 40.9818 49.636 41.0722C49.6032 41.2532 49.5704 41.4345 49.5418 41.6148C49.4634 42.1266 49.1559 42.494 48.6793 42.7375C47.9482 43.1105 47.2197 43.491 46.4914 43.8714C45.3709 44.4566 44.2503 45.0419 43.1184 45.6008C41.4966 46.4034 39.8796 47.2173 38.2753 48.0627C37.2441 48.6063 36.2063 49.1372 35.1694 49.6676L35.1675 49.6686L35.1637 49.6705C34.7706 49.8716 34.3776 50.0727 33.9849 50.2744C33.3784 50.5855 32.8509 50.6013 32.3547 50.2834C31.0292 49.4357 29.6957 48.5948 28.3592 47.7584C27.1034 46.9738 25.8463 46.1904 24.5892 45.407L24.5681 45.3939C23.3034 44.6057 22.0387 43.8176 20.7754 43.0284C20.7041 42.985 20.6354 42.9378 20.5667 42.8905C20.5067 42.8493 20.4467 42.808 20.3847 42.7691C19.934 42.4895 19.7835 42.0657 19.8877 41.4975C20.0415 40.6558 20.1873 39.8129 20.3331 38.9705C20.4059 38.5494 20.4788 38.1284 20.5526 37.7077C20.5775 37.5657 20.6084 37.4281 20.7225 37.3086C21.5955 36.3978 22.5367 35.5907 23.7253 35.1601C24.106 35.0226 24.4828 34.9594 24.8644 34.9594ZM34.039 39.8054C34.0705 39.5859 34.0996 39.383 34.1411 39.2068C34.183 38.968 34.2213 38.7474 34.2574 38.5396L34.2578 38.537L34.2581 38.5357L34.2585 38.5334C34.3414 38.0557 34.4126 37.6453 34.4891 37.2364C34.5349 36.9884 34.4603 36.8824 34.2014 36.8824C33.8199 36.8838 33.4388 36.8784 33.0574 36.8729C32.8188 36.8695 32.5787 36.8661 32.3397 36.8644C31.9948 36.8621 31.9144 36.932 31.8551 37.2702L31.3282 40.2732C31.2599 40.6497 31.2462 40.6632 30.8578 40.6632C30.0551 40.6677 29.2556 40.6677 28.4545 40.6632C28.012 40.661 28.0124 40.6587 28.0875 40.2304C28.2569 39.2388 28.4309 38.2472 28.6048 37.2556L28.6051 37.2544C28.6414 37.047 28.6381 36.8847 28.3678 36.8847C27.6965 36.8914 27.0291 36.8892 26.3598 36.8847C26.1399 36.8824 26.0222 36.9703 25.9815 37.2025C25.9047 37.6554 25.8239 38.1079 25.7431 38.5604C25.6151 39.2768 25.4871 39.9934 25.3752 40.7106C25.1636 42.0723 26.0892 43.2311 27.4155 43.2582C28.5606 43.283 29.7122 43.283 30.8663 43.2559C32.1439 43.2244 33.3284 42.3248 33.7652 41.0781C33.9194 40.6381 33.983 40.1954 34.039 39.8054ZM39.6404 43.2467C39.4465 43.2467 39.2512 43.252 39.0559 43.2572C38.6247 43.2688 38.1933 43.2805 37.7775 43.2355C36.3756 43.0821 35.5889 41.9729 35.8197 40.5278C35.9276 39.8495 36.0493 39.1703 36.171 38.4914C36.247 38.0671 36.3232 37.642 36.3958 37.2181C36.4385 36.9746 36.5684 36.8687 36.791 36.8687C37.2564 36.8702 37.721 36.8757 38.185 36.8812L38.1863 36.8813C38.4165 36.884 38.6474 36.8867 38.8772 36.889C39.1062 36.8912 39.0914 37.0536 39.0617 37.2226L38.6235 39.7207C38.6094 39.8013 38.5967 39.8816 38.5841 39.9618C38.5615 40.1058 38.5387 40.2501 38.5075 40.3948C38.4667 40.5886 38.5381 40.6608 38.7289 40.6608C39.6236 40.6608 40.5191 40.6608 41.4118 40.6721C41.6454 40.6743 41.6846 40.5413 41.7159 40.3632C41.8328 39.6882 41.9517 39.0131 42.0707 38.3374L42.0727 38.3264L42.0728 38.3254C42.1328 37.9853 42.1928 37.6444 42.2526 37.3038C42.3226 36.9048 42.3416 36.8867 42.7346 36.8867C43.3365 36.8867 43.9408 36.8867 44.5411 36.8957C45.0075 36.9048 45.0134 36.9228 44.9373 37.3692L44.4157 40.3429C44.3528 40.7014 44.2479 41.0531 44.0837 41.3935C43.538 42.523 42.4438 43.2445 41.2481 43.2625C40.8901 43.267 40.5322 43.2655 40.1746 43.264H40.1735C39.9948 43.2633 39.8162 43.2625 39.6376 43.2625L39.6404 43.2467Z" stroke="white" stroke-opacity="0.2" stroke-width="1.2" mask="url(#path-4-inside-1_6073_13906)"/>
<path fill-rule="evenodd" clip-rule="evenodd" d="M36.6578 32.4096L36.6597 32.4118C35.67 32.4118 34.6797 32.4115 33.6898 32.4111H33.6875C31.2112 32.4102 28.734 32.4092 26.2559 32.4141L26.2069 32.4141C25.6028 32.414 24.9927 32.414 24.3817 32.493C23.4104 32.617 22.4904 33.0318 21.607 33.5616C21.59 33.5721 21.5725 33.5843 21.5546 33.5967C21.4845 33.6455 21.4093 33.6977 21.3389 33.6653C21.2525 33.6251 21.2769 33.5385 21.3001 33.4565C21.3068 33.4329 21.3134 33.4097 21.3172 33.388C21.4568 32.5828 21.5982 31.7772 21.7397 30.9716C21.9989 29.4948 22.2583 28.0172 22.507 26.541C22.6128 25.912 22.955 25.5017 23.5411 25.2041C25.3244 24.3008 27.1059 23.3892 28.8868 22.4778L29.7581 22.032C31.6815 21.0473 33.6045 20.0612 35.5275 19.075L37.6177 18.0032C37.6793 17.9715 37.7408 17.9395 37.802 17.9075C37.902 17.8553 38.0019 17.8033 38.1023 17.7529C38.6529 17.4756 39.1607 17.4688 39.6114 17.7484C41.3863 18.8477 43.1609 19.9493 44.9355 21.0509L44.9397 21.0535C45.6581 21.4994 46.3758 21.9467 47.0936 22.394C48.5861 23.3242 50.0789 24.2546 51.579 25.1726C52.1126 25.4972 52.3286 25.9233 52.1852 26.6109C52.0208 27.3884 51.8924 28.1687 51.7641 28.9484C51.7261 29.1794 51.6881 29.4102 51.6491 29.641C51.6079 29.889 51.5117 30.1009 51.3074 30.2813C50.6435 30.8675 49.9681 31.4289 49.1979 31.8572C48.5535 32.2157 47.8971 32.4096 47.2043 32.4096C44.2769 32.4039 41.3498 32.4061 38.4216 32.4083L36.6578 32.4096ZM27.6762 27.5662C27.6418 27.8045 27.609 28.0314 27.5608 28.2388H27.5654L27.2418 30.083C27.1691 30.4978 27.1859 30.5181 27.6175 30.5181H29.3688C29.755 30.5181 29.7915 30.4911 29.8596 30.1033L30.3911 27.0732C30.4548 26.7102 30.4663 26.6967 30.8411 26.6967C31.6709 26.6922 32.5 26.6922 33.3283 26.6967C33.7095 26.6989 33.711 26.7035 33.6418 27.098C33.5907 27.3891 33.5404 27.6803 33.4901 27.9714C33.3642 28.6993 33.2384 29.4272 33.101 30.1551C33.0482 30.4302 33.1418 30.5181 33.4011 30.5159C34.0429 30.5091 34.6834 30.5091 35.3228 30.5159C35.5564 30.5181 35.6804 30.4324 35.7231 30.1889C35.7967 29.7543 35.8745 29.3195 35.9521 28.885C36.0751 28.1972 36.198 27.5095 36.3045 26.8229C36.5858 25.0126 35.3684 24.1829 34.2068 24.1491C33.0921 24.1198 31.9688 24.1265 30.845 24.1491C29.6236 24.1716 28.3615 25.1118 27.9464 26.2999C27.7968 26.73 27.7341 27.1646 27.6762 27.5662ZM38.0908 27.8245C38.0594 28.0054 38.0279 28.1863 37.9961 28.3675H37.9938L37.6837 30.135C37.6228 30.4822 37.6464 30.5161 38.0076 30.5161H39.7884C40.1723 30.5161 40.2013 30.4935 40.2709 30.0967C40.3155 29.8425 40.3605 29.5884 40.4054 29.3344L40.4059 29.3317C40.5414 28.5666 40.6769 27.8015 40.8008 27.0373C40.8436 26.7803 40.9457 26.6901 41.202 26.6924C42.0473 26.7037 42.8968 26.7037 43.7464 26.6901C44.0266 26.6856 44.1115 26.7713 44.0568 27.0576C43.9371 27.6924 43.8269 28.3263 43.7167 28.9603L43.7164 28.9616L43.7158 28.9652C43.6458 29.3678 43.5758 29.7704 43.5034 30.1734C43.4694 30.3673 43.4754 30.5138 43.7071 30.5138C44.4045 30.5138 45.1018 30.5138 45.8004 30.507C46.0097 30.5048 46.1589 30.4056 46.1939 30.1801C46.2611 29.7522 46.3432 29.3244 46.4251 28.8967C46.5816 28.0804 46.738 27.2648 46.7913 26.4511C46.8742 25.1886 45.9739 24.1831 44.7006 24.1515C43.5586 24.1222 42.407 24.1222 41.2525 24.1515C39.8901 24.1876 38.5272 25.3915 38.2816 26.7397C38.2166 27.1019 38.1537 27.463 38.0908 27.8245Z" stroke="white" stroke-opacity="0.2" stroke-width="1.2" mask="url(#path-4-inside-1_6073_13906)"/>
<path fill-rule="evenodd" clip-rule="evenodd" d="M32.5735 71.0338C52.3 71.0338 70.2709 55.1324 72.7126 35.5169C75.1542 15.9015 61.142 0 41.4155 0C21.6889 0 3.71807 15.9015 1.27642 35.5169C-1.16523 55.1324 12.847 71.0338 32.5735 71.0338ZM19.0661 31.8476C18.9346 32.5775 18.8031 33.3074 18.6751 34.0373L18.6747 34.0396C18.5291 34.8696 18.3837 35.6998 18.2383 36.5302L18.2293 36.5815C17.9337 38.2692 17.6381 39.9571 17.3407 41.6441C17.1023 42.99 17.5505 43.9956 18.5065 44.7486C19.0273 45.1605 19.6064 45.5004 20.1833 45.839L20.1843 45.8396C20.2762 45.8935 20.3688 45.9479 20.4604 46.0021C21.6908 46.7288 22.8913 47.4955 24.0919 48.2623C25.2229 48.9847 26.3541 49.7072 27.5103 50.3961C28.0332 50.7083 28.5465 51.034 29.0598 51.3597C29.7512 51.7985 30.4432 52.2377 31.1592 52.6439C31.5207 52.8491 31.9309 52.9708 32.3591 53.0159C33.1554 53.0993 33.9513 52.8874 34.7251 52.4906C35.2946 52.1988 35.8634 51.9043 36.432 51.6098L36.4342 51.6087C37.2575 51.1824 38.0808 50.756 38.9075 50.3375C39.4433 50.0668 39.9805 49.7994 40.5177 49.532L40.5214 49.5302C41.392 49.0968 42.2633 48.6631 43.1276 48.216C43.7205 47.9099 44.312 47.5997 44.9034 47.2895L44.9051 47.2886L44.9061 47.2881C46.2867 46.564 47.6671 45.84 49.0661 45.1679C50.8846 44.2932 51.9137 42.9585 52.2377 41.112C52.5778 39.16 52.9215 37.2073 53.2652 35.2547L53.2658 35.2512L53.2667 35.2463L53.2672 35.2434C53.6111 33.2893 53.9551 31.3352 54.2955 29.3817C54.3424 29.1144 54.3927 28.8464 54.4429 28.5788C54.5841 27.8268 54.7253 27.0745 54.7932 26.3246C54.8854 25.2808 54.6438 24.379 53.967 23.6665C53.6576 23.3415 53.2765 23.1095 52.8944 22.8768C52.7862 22.8109 52.6778 22.7449 52.571 22.6768C50.6261 21.4368 48.6685 20.2171 46.6968 19.0132C45.8228 18.4791 44.9563 17.9346 44.0899 17.3901C43.0692 16.7486 42.048 16.1069 41.0151 15.4826C40.0435 14.8964 38.9255 14.8085 37.7034 15.4172C36.0853 16.2244 34.4684 17.0382 32.8566 17.8611L31.6134 18.4955C28.6222 20.0218 25.6311 21.5479 22.6498 23.0984C21.1379 23.883 20.2055 25.0418 19.9512 26.6853C19.6862 28.4051 19.3764 30.1249 19.0666 31.8446L19.0661 31.8476Z" stroke="white" stroke-opacity="0.2" stroke-width="1.2" mask="url(#path-4-inside-1_6073_13906)"/>
<defs>
<filter id="filter0_f_6073_13906" x="0.90979" y="70" width="82.4142" height="30" filterUnits="userSpaceOnUse" color-interpolation-filters="sRGB">
<feFlood flood-opacity="0" result="BackgroundImageFix"/>
<feBlend mode="normal" in="SourceGraphic" in2="BackgroundImageFix" result="shape"/>
<feGaussianBlur stdDeviation="5" result="effect1_foregroundBlur_6073_13906"/>
</filter>
<filter id="filter1_i_6073_13906" x="2.68335" y="-10.2822" width="78.3167" height="88.5537" filterUnits="userSpaceOnUse" color-interpolation-filters="sRGB">
<feFlood flood-opacity="0" result="BackgroundImageFix"/>
<feBlend mode="normal" in="SourceGraphic" in2="BackgroundImageFix" result="shape"/>
<feColorMatrix in="SourceAlpha" type="matrix" values="0 0 0 0 0 0 0 0 0 0 0 0 0 0 0 0 0 0 127 0" result="hardAlpha"/>
<feOffset dy="-12"/>
<feGaussianBlur stdDeviation="14"/>
<feComposite in2="hardAlpha" operator="arithmetic" k2="-1" k3="1"/>
<feColorMatrix type="matrix" values="0 0 0 0 0.908698 0 0 0 0 0.995833 0 0 0 0 0.990605 0 0 0 0.25 0"/>
<feBlend mode="normal" in2="shape" result="effect1_innerShadow_6073_13906"/>
</filter>
<filter id="filter2_i_6073_13906" x="2.68335" y="-10.2822" width="78.3167" height="88.5537" filterUnits="userSpaceOnUse" color-interpolation-filters="sRGB">
<feFlood flood-opacity="0" result="BackgroundImageFix"/>
<feBlend mode="normal" in="SourceGraphic" in2="BackgroundImageFix" result="shape"/>
<feColorMatrix in="SourceAlpha" type="matrix" values="0 0 0 0 0 0 0 0 0 0 0 0 0 0 0 0 0 0 127 0" result="hardAlpha"/>
<feOffset dy="-12"/>
<feGaussianBlur stdDeviation="14"/>
<feComposite in2="hardAlpha" operator="arithmetic" k2="-1" k3="1"/>
<feColorMatrix type="matrix" values="0 0 0 0 0.908698 0 0 0 0 0.995833 0 0 0 0 0.990605 0 0 0 0.25 0"/>
<feBlend mode="normal" in2="shape" result="effect1_innerShadow_6073_13906"/>
</filter>
<filter id="filter3_iii_6073_13906" x="1.00012" y="-10" width="71.9888" height="81.0342" filterUnits="userSpaceOnUse" color-interpolation-filters="sRGB">
<feFlood flood-opacity="0" result="BackgroundImageFix"/>
<feBlend mode="normal" in="SourceGraphic" in2="BackgroundImageFix" result="shape"/>
<feColorMatrix in="SourceAlpha" type="matrix" values="0 0 0 0 0 0 0 0 0 0 0 0 0 0 0 0 0 0 127 0" result="hardAlpha"/>
<feOffset dy="-4"/>
<feGaussianBlur stdDeviation="5"/>
<feComposite in2="hardAlpha" operator="arithmetic" k2="-1" k3="1"/>
<feColorMatrix type="matrix" values="0 0 0 0 1 0 0 0 0 1 0 0 0 0 1 0 0 0 0.5 0"/>
<feBlend mode="normal" in2="shape" result="effect1_innerShadow_6073_13906"/>
<feColorMatrix in="SourceAlpha" type="matrix" values="0 0 0 0 0 0 0 0 0 0 0 0 0 0 0 0 0 0 127 0" result="hardAlpha"/>
<feOffset dy="-2"/>
<feGaussianBlur stdDeviation="4"/>
<feComposite in2="hardAlpha" operator="arithmetic" k2="-1" k3="1"/>
<feColorMatrix type="matrix" values="0 0 0 0 1 0 0 0 0 1 0 0 0 0 1 0 0 0 0.5 0"/>
<feBlend mode="normal" in2="effect1_innerShadow_6073_13906" result="effect2_innerShadow_6073_13906"/>
<feColorMatrix in="SourceAlpha" type="matrix" values="0 0 0 0 0 0 0 0 0 0 0 0 0 0 0 0 0 0 127 0" result="hardAlpha"/>
<feOffset dy="-10"/>
<feGaussianBlur stdDeviation="26"/>
<feComposite in2="hardAlpha" operator="arithmetic" k2="-1" k3="1"/>
<feColorMatrix type="matrix" values="0 0 0 0 1 0 0 0 0 1 0 0 0 0 1 0 0 0 0.25 0"/>
<feBlend mode="normal" in2="effect2_innerShadow_6073_13906" result="effect3_innerShadow_6073_13906"/>
</filter>
<linearGradient id="paint0_linear_6073_13906" x1="77.6609" y1="1.71777" x2="6.62954" y2="1.71777" gradientUnits="userSpaceOnUse">
<stop stop-color="#C183FF"/>
<stop offset="0.171875" stop-color="#D299FF"/>
<stop offset="0.416052" stop-color="#7F3CE0"/>
<stop offset="0.65625" stop-color="#6928F2"/>
<stop offset="1" stop-color="#988AF1"/>
</linearGradient>
<radialGradient id="paint1_radial_6073_13906" cx="0" cy="0" r="1" gradientUnits="userSpaceOnUse" gradientTransform="translate(40.0481 39.4629) rotate(29.0253) scale(42.7317 78.6808)">
<stop stop-color="#7F3CE0"/>
<stop offset="0.34375" stop-color="#250055"/>
<stop offset="1" stop-color="#7F3CE0" stop-opacity="0"/>
</radialGradient>
<linearGradient id="paint2_linear_6073_13906" x1="22.9393" y1="19.4827" x2="55.4373" y2="40.4218" gradientUnits="userSpaceOnUse">
<stop stop-color="white"/>
<stop offset="0.71875" stop-color="#7F3CE0"/>
<stop offset="1" stop-color="#A800F7"/>
</linearGradient>
<linearGradient id="paint3_linear_6073_13906" x1="22.9393" y1="19.4827" x2="55.4373" y2="40.4218" gradientUnits="userSpaceOnUse">
<stop stop-color="white"/>
<stop offset="0.71875" stop-color="#7F3CE0"/>
<stop offset="1" stop-color="#A800F7"/>
</linearGradient>
<linearGradient id="paint4_linear_6073_13906" x1="22.9393" y1="19.4827" x2="55.4373" y2="40.4218" gradientUnits="userSpaceOnUse">
<stop stop-color="white"/>
<stop offset="0.71875" stop-color="#7F3CE0"/>
<stop offset="1" stop-color="#A800F7"/>
</linearGradient>
</defs>
</svg>
