<svg width="84" height="100" viewBox="0 0 84 100" fill="none" xmlns="http://www.w3.org/2000/svg">
<g opacity="0.8" filter="url(#filter0_f_6056_13880)">
<path d="M73.3064 85C73.3064 87.7609 59.3031 90 42.0292 90C24.7552 90 10.752 87.7609 10.752 85C10.752 82.2391 24.7552 80 42.0292 80C59.3031 80 73.3064 82.2391 73.3064 85Z" fill="black"/>
</g>
<g filter="url(#filter1_i_6056_13880)">
<path d="M44.1737 1.71484C24.6404 1.71484 6.20155 17.3336 2.98824 36.6004C1.23304 47.1195 4.37973 56.5508 10.778 62.9469L17.5748 69.7438C22.895 75.0618 30.4641 78.2817 39.3319 78.2817C58.8651 78.2817 77.3051 62.6629 80.5184 43.3961C82.2736 32.877 79.1258 23.4446 72.7276 17.0485L65.9318 10.2527C60.6105 4.93471 53.0425 1.71484 44.1737 1.71484Z" fill="url(#paint0_linear_6056_13880)"/>
</g>
<g filter="url(#filter2_i_6056_13880)">
<path d="M44.1737 1.71484C24.6404 1.71484 6.20155 17.3336 2.98824 36.6004C1.23304 47.1195 4.37973 56.5508 10.778 62.9469L17.5748 69.7438C22.895 75.0618 30.4641 78.2817 39.3319 78.2817C58.8651 78.2817 77.3051 62.6629 80.5184 43.3961C82.2736 32.877 79.1258 23.4446 72.7276 17.0485L65.9318 10.2527C60.6105 4.93471 53.0425 1.71484 44.1737 1.71484Z" fill="url(#paint1_radial_6056_13880)"/>
</g>
<g filter="url(#filter3_iii_6056_13880)">
<path fill-rule="evenodd" clip-rule="evenodd" d="M32.8417 71.4893C52.7359 71.4893 70.8596 55.4859 73.322 35.7447C75.7844 16.0034 61.6531 0 41.7589 0C21.8647 0 3.74105 16.0034 1.27865 35.7447C-1.18375 55.4859 12.9475 71.4893 32.8417 71.4893ZM36.508 38.8715C36.4238 38.8715 36.3397 38.8715 35.8966 39.0398C35.215 39.4186 34.5363 39.7763 33.8576 40.1339C33.1789 40.4916 32.5002 40.8493 31.8187 41.2281C31.6392 41.3122 31.628 41.3964 31.6056 41.5647L31.292 43.9213C31.124 45.1838 31.5899 46.1096 32.5942 46.7829C33.5315 47.3728 34.4705 47.95 35.4048 48.5243C36.87 49.4249 38.3239 50.3185 39.7422 51.2436C40.9036 52.001 42.1658 52.001 43.5288 51.2436C46.2548 49.7286 48.9697 48.2978 51.6845 46.867C53.0363 46.1937 53.7597 45.1838 53.9501 43.753L55.1373 34.8316C55.4007 33.485 54.8731 32.3909 53.7846 31.7176C52.5811 30.9601 51.3959 30.2237 50.2106 29.4872C49.0254 28.7508 47.8401 28.0144 46.6366 27.2569C45.6323 26.5836 44.4543 26.5836 43.1866 27.2569C40.239 28.856 37.2943 30.434 34.3495 32.0121C31.4047 33.5902 28.4598 35.1683 25.5122 36.7674C25.3215 36.9357 25.1532 36.9357 24.9232 36.7674C22.8304 35.4208 20.8105 34.1583 18.7907 32.8959C18.6448 32.7275 18.5719 32.6434 18.6055 32.3909L19.6135 24.8161C19.6471 24.5637 19.7424 24.4795 20.0172 24.3112C22.4684 22.9645 24.8243 21.7021 27.1801 20.4396C27.4437 20.3555 27.612 20.3555 27.7691 20.4396C29.2423 21.4273 30.7668 22.3696 32.2717 23.2999C32.8187 23.6381 33.3631 23.9746 33.9016 24.3112C34.0587 24.3953 34.1316 24.4795 34.098 24.732L33.5941 28.5194C33.5605 28.7718 33.6334 28.856 33.9082 28.6877C34.8491 28.1304 35.8294 27.6187 36.7866 27.1191C37.1305 26.9395 37.4715 26.7616 37.8066 26.5836C37.9973 26.4153 38.0926 26.3311 38.115 26.1628L38.3838 24.1428C38.6584 22.7121 38.1308 21.6179 36.9694 20.8605C35.8023 20.145 34.6563 19.4296 33.5103 18.7142C32.3644 17.9989 31.2184 17.2835 30.0514 16.5681C28.89 15.8106 27.6278 15.8106 26.2648 16.5681C23.5388 18.0831 20.8239 19.5138 18.1091 20.9446C16.8414 21.6179 16.118 22.6279 15.9388 23.9745L14.7292 33.0642C14.55 34.4108 15.0046 35.4208 16.0931 36.0941C16.988 36.6412 17.9012 37.2093 18.8143 37.7774C19.7274 38.3455 20.6406 38.9136 21.5355 39.4606C22.2256 39.9656 22.9157 40.4706 23.7124 40.8073C24.8233 41.3122 25.962 40.9756 27.0501 40.3864L44.4497 31.0443C44.6292 30.9601 44.7975 30.9601 44.9546 31.0443C46.0066 31.6755 47.0347 32.3278 48.0629 32.98C49.091 33.6323 50.1192 34.2846 51.1712 34.9158C51.3283 35 51.39 35.1683 51.3676 35.3366L50.3372 43.0797C50.3036 43.3322 50.2083 43.4163 50.0288 43.5005C47.5888 44.7629 45.233 46.0254 42.7818 47.372C42.6023 47.4562 42.5182 47.4562 42.3611 47.372C41.3091 46.7408 40.2809 46.0885 39.2528 45.4363C38.2246 44.784 37.1964 44.1317 36.1444 43.5005C35.9873 43.4163 35.9256 43.248 35.948 43.0797L36.508 38.8715Z" fill="url(#paint2_linear_6056_13880)"/>
</g>
<path d="M36.8506 38.5715L36.8054 38.9111L36.2454 43.1192C36.2405 43.1558 36.246 43.1838 36.2537 43.2012C36.2603 43.2163 36.2696 43.2272 36.2861 43.236L36.2925 43.2395L36.2988 43.2432C37.3542 43.8765 38.3851 44.5305 39.4124 45.1823L39.4135 45.183C40.4399 45.8341 41.4627 46.483 42.5086 47.1107C42.542 47.1282 42.5582 47.1336 42.5639 47.135C42.5695 47.1341 42.5917 47.1293 42.6462 47.1042C45.096 45.7584 47.4513 44.4963 49.8909 43.234L49.9013 43.2287L49.9014 43.2289C49.9789 43.1926 49.9967 43.1743 50.0034 43.1659C50.0079 43.1602 50.0272 43.1349 50.0399 43.0401L51.0703 35.297C51.0751 35.2605 51.0696 35.2325 51.062 35.2151C51.0554 35.2 51.046 35.1891 51.0295 35.1802L51.0231 35.1768L51.0168 35.173C49.9614 34.5397 48.9304 33.8857 47.903 33.2339L47.9022 33.2333C46.8759 32.5823 45.8532 31.9335 44.8075 31.3059C44.7471 31.2751 44.6818 31.2684 44.5837 31.3128L27.193 40.6503C27.1927 40.6504 27.1925 40.6505 27.1922 40.6507L27.1921 40.6507L27.0501 40.3864C25.962 40.9756 24.8233 41.3122 23.7124 40.8073L36.8506 38.5715ZM36.8506 38.5715H36.508C36.451 38.5715 36.3837 38.5726 36.2663 38.6009C36.1608 38.6265 36.015 38.6739 35.79 38.7594L35.7698 38.7671L35.7508 38.7776C35.0727 39.1544 34.3969 39.5106 33.7178 39.8685L33.7165 39.8692C33.0414 40.225 32.363 40.5826 31.6813 40.9612C31.5626 41.0184 31.4562 41.0967 31.3885 41.2237C31.334 41.3261 31.3193 41.4398 31.3103 41.5097C31.3096 41.5151 31.3089 41.5203 31.3082 41.5252L30.9946 43.8817C30.9044 44.5599 30.9825 45.1663 31.2316 45.6999C31.4804 46.2328 31.8895 46.6717 32.4271 47.0321L32.4271 47.0322L32.4344 47.0368C33.3727 47.6274 34.3126 48.2051 35.2463 48.779L35.2477 48.7799C36.7135 49.6808 38.1639 50.5724 39.5783 51.4948C40.2027 51.9021 40.8649 52.1117 41.5599 52.1117C42.2527 52.1117 42.9588 51.9035 43.6745 51.5058C46.3961 49.9933 49.107 48.5646 51.8212 47.1341C53.2576 46.4177 54.0437 45.324 54.2475 43.7926L55.4335 34.8801C55.7173 33.4115 55.1315 32.1984 53.9434 31.463C52.7396 30.7053 51.5541 29.9688 50.3694 29.2327L50.369 29.2324C49.1848 28.4967 48.0014 27.7614 46.8001 27.0053C45.6857 26.2602 44.3878 26.2792 43.0459 26.9919L43.0435 26.9932C40.0968 28.5919 37.1527 30.1696 34.2078 31.7477C31.2631 33.3257 28.3176 34.9041 25.3691 36.5037L25.3392 36.5199L25.3137 36.5425C25.2817 36.5707 25.2601 36.5834 25.2477 36.5891C25.2434 36.591 25.2402 36.5922 25.2379 36.5928C25.2345 36.5937 25.2329 36.5936 25.2324 36.5936C25.2293 36.5936 25.1922 36.5925 25.1003 36.5253L25.0931 36.52L25.0855 36.5151C23.0042 35.1759 20.9951 33.9199 18.9883 32.6656C18.9309 32.5983 18.9145 32.575 18.9055 32.5545C18.9022 32.5469 18.8906 32.5224 18.9028 32.4305L19.9108 24.8557C19.9228 24.7661 19.9398 24.7425 19.9538 24.726C19.9804 24.6946 20.0313 24.6546 20.168 24.5706C22.6066 23.231 24.951 21.9745 27.2966 20.7175C27.4908 20.6586 27.5649 20.6735 27.6164 20.6984C29.0897 21.6856 30.6131 22.6273 32.1116 23.5536L32.1139 23.5551C32.6611 23.8933 33.2049 24.2295 33.7426 24.5656L33.7511 24.5709L33.7599 24.5756C33.7837 24.5884 33.7976 24.5974 33.8052 24.6028C33.8065 24.616 33.8072 24.6434 33.8007 24.6924L33.2967 28.4798C33.2868 28.5543 33.281 28.64 33.294 28.7224C33.3066 28.8026 33.3457 28.9305 33.4716 29.0126C33.5973 29.0946 33.7314 29.08 33.8148 29.058C33.9001 29.0356 33.9842 28.9928 34.0628 28.9448C34.995 28.3927 35.9676 27.885 36.9254 27.385L36.9265 27.3845C37.2699 27.2052 37.6115 27.0269 37.9473 26.8485L37.9786 26.8319L38.0051 26.8085C38.0148 26.8 38.0245 26.7915 38.0342 26.7829C38.1982 26.639 38.3749 26.484 38.4124 26.2023L38.6801 24.1908C38.8249 23.4282 38.7595 22.7365 38.4893 22.1275C38.2185 21.5173 37.7522 21.0129 37.1333 20.6092L37.1333 20.6091L37.1262 20.6047C35.9605 19.8901 34.8156 19.1754 33.6696 18.46L33.6692 18.4597C32.5246 17.7452 31.3787 17.0299 30.2118 16.3145C29.5883 15.9088 28.9274 15.7 28.2337 15.7C27.5409 15.7 26.8348 15.9081 26.1191 16.3059C23.3964 17.8189 20.6845 19.2482 17.9692 20.6792L17.9684 20.6797C16.6209 21.3954 15.8342 22.4861 15.6414 23.9349L14.4318 33.0246C14.3365 33.7408 14.4073 34.3884 14.6622 34.9548C14.9178 35.5224 15.3483 35.9861 15.9353 36.3492L15.9366 36.35C16.8304 36.8964 17.7425 37.4639 18.6558 38.0321C19.5652 38.5978 20.4757 39.1643 21.3684 39.7101L21.3712 39.7122C22.0518 40.2102 22.7646 40.7318 23.592 41.0821L36.8506 38.5715ZM73.0243 35.7075C70.5806 55.2986 52.5846 71.1893 32.8417 71.1893C13.1279 71.1893 -0.863729 55.344 1.57634 35.7818C4.02001 16.1907 22.016 0.3 41.7589 0.3C61.4727 0.3 75.4643 16.1453 73.0243 35.7075Z" stroke="white" stroke-opacity="0.2" stroke-width="0.6"/>
<defs>
<filter id="filter0_f_6056_13880" x="0.751953" y="70" width="82.5544" height="30" filterUnits="userSpaceOnUse" color-interpolation-filters="sRGB">
<feFlood flood-opacity="0" result="BackgroundImageFix"/>
<feBlend mode="normal" in="SourceGraphic" in2="BackgroundImageFix" result="shape"/>
<feGaussianBlur stdDeviation="5" result="effect1_foregroundBlur_6056_13880"/>
</filter>
<filter id="filter1_i_6056_13880" x="2.50696" y="-10.2852" width="78.4926" height="88.5664" filterUnits="userSpaceOnUse" color-interpolation-filters="sRGB">
<feFlood flood-opacity="0" result="BackgroundImageFix"/>
<feBlend mode="normal" in="SourceGraphic" in2="BackgroundImageFix" result="shape"/>
<feColorMatrix in="SourceAlpha" type="matrix" values="0 0 0 0 0 0 0 0 0 0 0 0 0 0 0 0 0 0 127 0" result="hardAlpha"/>
<feOffset dy="-12"/>
<feGaussianBlur stdDeviation="14"/>
<feComposite in2="hardAlpha" operator="arithmetic" k2="-1" k3="1"/>
<feColorMatrix type="matrix" values="0 0 0 0 0.908698 0 0 0 0 0.995833 0 0 0 0 0.990605 0 0 0 0.25 0"/>
<feBlend mode="normal" in2="shape" result="effect1_innerShadow_6056_13880"/>
</filter>
<filter id="filter2_i_6056_13880" x="2.50696" y="-10.2852" width="78.4926" height="88.5664" filterUnits="userSpaceOnUse" color-interpolation-filters="sRGB">
<feFlood flood-opacity="0" result="BackgroundImageFix"/>
<feBlend mode="normal" in="SourceGraphic" in2="BackgroundImageFix" result="shape"/>
<feColorMatrix in="SourceAlpha" type="matrix" values="0 0 0 0 0 0 0 0 0 0 0 0 0 0 0 0 0 0 127 0" result="hardAlpha"/>
<feOffset dy="-12"/>
<feGaussianBlur stdDeviation="14"/>
<feComposite in2="hardAlpha" operator="arithmetic" k2="-1" k3="1"/>
<feColorMatrix type="matrix" values="0 0 0 0 0.908698 0 0 0 0 0.995833 0 0 0 0 0.990605 0 0 0 0.25 0"/>
<feBlend mode="normal" in2="shape" result="effect1_innerShadow_6056_13880"/>
</filter>
<filter id="filter3_iii_6056_13880" x="1" y="-10" width="72.6006" height="81.4893" filterUnits="userSpaceOnUse" color-interpolation-filters="sRGB">
<feFlood flood-opacity="0" result="BackgroundImageFix"/>
<feBlend mode="normal" in="SourceGraphic" in2="BackgroundImageFix" result="shape"/>
<feColorMatrix in="SourceAlpha" type="matrix" values="0 0 0 0 0 0 0 0 0 0 0 0 0 0 0 0 0 0 127 0" result="hardAlpha"/>
<feOffset dy="-4"/>
<feGaussianBlur stdDeviation="5"/>
<feComposite in2="hardAlpha" operator="arithmetic" k2="-1" k3="1"/>
<feColorMatrix type="matrix" values="0 0 0 0 1 0 0 0 0 1 0 0 0 0 1 0 0 0 0.5 0"/>
<feBlend mode="normal" in2="shape" result="effect1_innerShadow_6056_13880"/>
<feColorMatrix in="SourceAlpha" type="matrix" values="0 0 0 0 0 0 0 0 0 0 0 0 0 0 0 0 0 0 127 0" result="hardAlpha"/>
<feOffset dy="-2"/>
<feGaussianBlur stdDeviation="4"/>
<feComposite in2="hardAlpha" operator="arithmetic" k2="-1" k3="1"/>
<feColorMatrix type="matrix" values="0 0 0 0 1 0 0 0 0 1 0 0 0 0 1 0 0 0 0.5 0"/>
<feBlend mode="normal" in2="effect1_innerShadow_6056_13880" result="effect2_innerShadow_6056_13880"/>
<feColorMatrix in="SourceAlpha" type="matrix" values="0 0 0 0 0 0 0 0 0 0 0 0 0 0 0 0 0 0 127 0" result="hardAlpha"/>
<feOffset dy="-10"/>
<feGaussianBlur stdDeviation="26"/>
<feComposite in2="hardAlpha" operator="arithmetic" k2="-1" k3="1"/>
<feColorMatrix type="matrix" values="0 0 0 0 1 0 0 0 0 1 0 0 0 0 1 0 0 0 0.25 0"/>
<feBlend mode="normal" in2="effect2_innerShadow_6056_13880" result="effect3_innerShadow_6056_13880"/>
</filter>
<linearGradient id="paint0_linear_6056_13880" x1="77.653" y1="1.71484" x2="6.46201" y2="1.71484" gradientUnits="userSpaceOnUse">
<stop stop-color="#C883FF"/>
<stop offset="0.171875" stop-color="#8E00FE"/>
<stop offset="0.416052" stop-color="#7B3FE3"/>
<stop offset="0.65625" stop-color="#8E00FE"/>
<stop offset="1" stop-color="#6000FE"/>
</linearGradient>
<radialGradient id="paint1_radial_6056_13880" cx="0" cy="0" r="1" gradientUnits="userSpaceOnUse" gradientTransform="translate(39.9557 39.4665) rotate(28.975) scale(42.8068 78.7327)">
<stop stop-color="#7B3FE3"/>
<stop offset="0.34375" stop-color="#420856"/>
<stop offset="1" stop-color="#6C00F7" stop-opacity="0"/>
</radialGradient>
<linearGradient id="paint2_linear_6056_13880" x1="21.1322" y1="5.00625" x2="49.1587" y2="61.0179" gradientUnits="userSpaceOnUse">
<stop offset="0.00325446" stop-color="white"/>
<stop offset="0.348958" stop-color="#8B17FF"/>
<stop offset="0.75" stop-color="#7000FE"/>
<stop offset="1" stop-color="#7C00F7"/>
</linearGradient>
</defs>
</svg>
