<svg width="84" height="100" viewBox="0 0 84 100" fill="none" xmlns="http://www.w3.org/2000/svg">
<g filter="url(#filter0_f_6073_13888)">
<path d="M73.324 85C73.324 87.7609 59.3522 90 42.117 90C24.8818 90 10.9099 87.7609 10.9099 85C10.9099 82.2391 24.8818 80 42.117 80C59.3522 80 73.324 82.2391 73.324 85Z" fill="black"/>
</g>
<g filter="url(#filter1_i_6073_13888)">
<path d="M44.2567 1.71289C24.7673 1.71289 6.36978 17.2966 3.16368 36.5202C1.41242 47.0157 4.55204 56.4259 10.9359 62.8076L17.7176 69.5892C23.0258 74.8953 30.5779 78.108 39.4258 78.108C58.9152 78.108 77.3138 62.5243 80.5199 43.3007C82.2712 32.8051 79.1305 23.3939 72.7466 17.0122L65.966 10.2316C60.6567 4.92554 53.1057 1.71289 44.2567 1.71289Z" fill="url(#paint0_linear_6073_13888)"/>
</g>
<g filter="url(#filter2_i_6073_13888)">
<path d="M44.2567 1.71289C24.7673 1.71289 6.36978 17.2966 3.16368 36.5202C1.41242 47.0157 4.55204 56.4259 10.9359 62.8076L17.7176 69.5892C23.0258 74.8953 30.5779 78.108 39.4258 78.108C58.9152 78.108 77.3138 62.5243 80.5199 43.3007C82.2712 32.8051 79.1305 23.3939 72.7466 17.0122L65.966 10.2316C60.6567 4.92554 53.1057 1.71289 44.2567 1.71289Z" fill="url(#paint1_radial_6073_13888)"/>
</g>
<path opacity="0.2" fill-rule="evenodd" clip-rule="evenodd" d="M57.3852 27.7996C56.6625 26.8494 55.4163 26.3144 54.1673 26.095C52.907 25.8843 51.5557 25.9038 50.2571 26.1318C47.6325 26.5708 45.1638 27.6457 42.9621 28.9717C41.8235 29.6224 40.8277 30.3754 39.7978 31.1423C39.2994 31.5301 38.8375 31.9431 38.3592 32.3502L37.0449 33.5239C35.6088 34.8638 34.2057 36.0842 32.8693 37.0957C31.5286 38.1026 30.2971 38.8673 29.111 39.4014C27.9252 39.9381 26.6887 40.2539 25.1219 40.3044C23.5683 40.3595 21.7735 40.0775 19.8741 39.6121C17.9639 39.1488 15.9798 38.4883 13.7413 37.9199C14.2655 40.1779 15.23 42.1733 16.5603 43.9973C17.9129 45.7897 19.6773 47.4234 22.0715 48.4977C24.4264 49.5959 27.5087 49.9901 30.5108 49.3953C33.5176 48.8246 36.2651 47.4524 38.5455 45.8655C40.8331 44.2623 42.75 42.4362 44.4109 40.5376C44.8693 40.0131 45.1139 39.7195 45.4495 39.3095L46.3823 38.1331C47.0196 37.4055 47.6202 36.577 48.251 35.8561C49.4997 34.3462 50.7331 32.838 52.1212 31.4485C52.8206 30.7439 53.5491 30.0697 54.3911 29.4219C54.8102 29.1057 55.2589 28.7962 55.7479 28.5175C56.2465 28.2169 56.7629 27.9815 57.3852 27.7996Z" fill="url(#paint2_linear_6073_13888)"/>
<g filter="url(#filter3_iii_6073_13888)">
<path fill-rule="evenodd" clip-rule="evenodd" d="M32.5734 70.8868C52.2999 70.8868 70.2707 55.0182 72.7124 35.4434C75.154 15.8685 61.1419 0 41.4153 0C21.6888 0 3.71794 15.8685 1.2763 35.4434C-1.16535 55.0182 12.8468 70.8868 32.5734 70.8868ZM57.5763 27.7953C57.2848 26.7325 56.8118 25.7488 56.1766 24.8598C55.4639 23.8639 54.548 22.986 53.4545 22.2463C51.3968 20.8627 48.3875 20.1564 45.2441 20.758C43.6911 21.0487 42.1525 21.6102 40.7704 22.3566C39.3943 23.0997 38.1327 23.9953 37.0178 24.9556C36.4608 25.4369 35.9471 25.9393 35.4364 26.4451L34.0907 27.9156L32.0016 30.2829C31.8456 30.4611 31.6888 30.641 31.531 30.8221C28.9908 33.7366 26.1824 36.9589 22.2537 37.9553C19.06 38.7642 17.3802 38.384 15.6708 37.9971C15.1908 37.8884 14.7084 37.7793 14.1896 37.6957L14.1764 37.6935L14.1802 37.708C14.7079 39.9082 15.6697 41.8566 16.9936 43.6369C18.3434 45.3892 20.1016 46.9879 22.4869 48.0384C24.8312 49.1123 27.8985 49.4978 30.8845 48.9163C33.8744 48.3581 36.6053 47.0157 38.8709 45.4639C39.2686 45.1898 39.6549 44.908 40.0307 44.6205C40.3208 44.3989 40.6059 44.1727 40.8835 43.9443C42.2998 42.7802 43.558 41.5336 44.695 40.2524C45.1504 39.74 45.3927 39.4526 45.7254 39.0515L46.6509 37.9007C46.9692 37.5432 47.2771 37.1612 47.5849 36.7792L47.6087 36.7521L47.62 36.7381C47.9135 36.3741 48.2058 36.0114 48.5061 35.6738L48.688 35.4565L48.7266 35.4164L48.7447 35.3949C49.9039 34.0107 51.0562 32.6348 52.3466 31.3624C52.8176 30.8957 53.3015 30.4434 53.8231 30.0033C54.0726 29.7928 54.3307 29.5856 54.6008 29.3806C55.0175 29.0709 55.4637 28.7679 55.9486 28.496C56.4441 28.2019 56.9575 27.9713 57.5763 27.7953ZM26.2475 26.9553L25.3432 28.9617C25.2178 29.2391 24.8222 29.2358 24.7705 28.9573L24.3981 26.942C24.3225 26.532 24.0431 26.2089 23.65 26.0775L21.7094 25.428C21.6082 25.3935 21.5528 25.3166 21.5391 25.2286C21.5316 25.1807 21.5356 25.1306 21.5517 25.0826C21.5841 24.9846 21.6636 24.8955 21.7847 24.8598L23.8926 24.2404C24.3211 24.1146 24.685 23.7971 24.8682 23.3893L25.7725 21.3829C25.898 21.1055 26.2936 21.1089 26.3441 21.3874L26.7165 23.4027C26.7921 23.8126 27.0717 24.1346 27.4657 24.2672L29.4054 24.9155C29.5076 24.9501 29.5639 25.0292 29.5775 25.1183C29.5989 25.262 29.5104 25.4313 29.3299 25.4848L27.2231 26.1042C27.1242 26.1332 27.0284 26.1722 26.9372 26.2201C26.8807 26.2502 26.8272 26.2836 26.7755 26.3203C26.5481 26.4796 26.3624 26.7002 26.2475 26.9553ZM45.2604 46.5122C45.0541 48.1665 46.2385 49.5089 47.9044 49.5089C49.5704 49.5089 51.0886 48.1665 51.2949 46.5122C51.5013 44.8578 50.318 43.5154 48.652 43.5154C46.9861 43.5154 45.4668 44.8578 45.2604 46.5122Z" fill="url(#paint3_linear_6073_13888)"/>
</g>
<path d="M57.9442 28.0026L57.6584 28.0839C57.066 28.2524 56.5763 28.4723 56.1017 28.754L56.0953 28.7578L56.0952 28.7577C55.6251 29.0213 55.1903 29.3163 54.7809 29.6205C54.5155 29.822 54.2619 30.0256 54.0166 30.2326L54.0165 30.2326C53.5025 30.6663 53.0247 31.1129 52.5577 31.5755L52.5572 31.5761C51.2787 32.8367 50.1353 34.2015 48.9747 35.5875L48.9566 35.609L48.9499 35.6171L48.9426 35.6246L48.9112 35.6572L48.7361 35.8664L48.7304 35.8732L48.7303 35.8731C48.4357 36.2044 48.1479 36.5613 47.8535 36.9264L47.8535 36.9265L47.8422 36.9405L47.8342 36.9504L47.834 36.9502L47.8145 36.9724C47.5104 37.3498 47.2008 37.7338 46.88 38.0945L45.9592 39.2395L45.9564 39.2431L45.9563 39.243C45.622 39.646 45.3775 39.9361 44.9192 40.4517C43.7735 41.7427 42.5041 43.0005 41.0741 44.176C40.7938 44.4066 40.5059 44.635 40.2129 44.8588C40.2129 44.8589 40.2128 44.8589 40.2128 44.8589L40.0307 44.6205C39.6549 44.908 39.2686 45.1898 38.8709 45.4639L57.9442 28.0026ZM57.9442 28.0026L57.8656 27.716C57.5646 26.6184 57.076 25.6026 56.4207 24.6854L56.4206 24.6853C55.6855 23.658 54.7431 22.7558 53.6226 21.9978L53.6219 21.9974C51.4958 20.5677 48.4056 19.8476 45.1883 20.4632M57.9442 28.0026L45.1883 20.4632M45.1883 20.4632C43.6031 20.7601 42.0354 21.3325 40.6279 22.0926C39.2308 22.847 37.9515 23.7554 36.822 24.7283L36.8217 24.7286C36.2562 25.2172 35.7362 25.726 35.2253 26.2319L35.2201 26.2371L35.2151 26.2426L33.8694 27.7131L33.8694 27.7131L33.8658 27.7171L31.7767 30.0844L31.7759 30.0853C31.6197 30.2637 31.4626 30.4439 31.3048 30.625C28.7508 33.5554 26.002 36.6952 22.1799 37.6645C20.6072 38.0628 19.418 38.1658 18.4179 38.1249C17.4157 38.0838 16.5928 37.8982 15.737 37.7045L15.7332 37.7036C15.2555 37.5955 14.7654 37.4846 14.2372 37.3995L14.2264 37.3977L13.7682 37.3203L13.8862 37.7697L13.8892 37.7811C14.4274 40.0231 15.4078 42.0072 16.7529 43.8159L16.7528 43.8159L16.7559 43.8199C18.1289 45.6024 19.9242 47.237 22.3639 48.312C24.7679 49.4128 27.898 49.8032 30.9406 49.211L45.1883 20.4632ZM26.5211 27.0785L26.521 27.0786L25.6167 29.085L25.6166 29.0853C25.502 29.3387 25.2592 29.4698 25.0268 29.4679C24.788 29.466 24.532 29.3165 24.4755 29.0119L24.4755 29.0118L24.1031 26.9965L24.1031 26.9964C24.0471 26.6929 23.8435 26.4585 23.5548 26.362L23.5548 26.362L21.6142 25.7125L21.6125 25.7119C21.4002 25.6394 21.2725 25.4669 21.2426 25.2747M26.5211 27.0785L26.3441 21.3874L26.6393 21.3339C26.6393 21.3338 26.6392 21.3337 26.6392 21.3336C26.5837 21.0285 26.3276 20.8786 26.0888 20.8767C25.8565 20.8748 25.6137 21.006 25.4992 21.2593L25.499 21.2597L24.5947 23.266L24.5946 23.2663C24.4472 23.5943 24.1524 23.8515 23.808 23.9526L23.808 23.9526L21.7002 24.572L21.7 24.572C21.4779 24.6374 21.3279 24.8037 21.2668 24.9884L21.5517 25.0826L21.2672 24.9872C21.2359 25.0806 21.2277 25.1793 21.2426 25.2747M26.5211 27.0785C26.6131 26.874 26.7631 26.6953 26.9476 26.5661L26.9493 26.5648C26.991 26.5352 27.0333 26.5088 27.0775 26.4853L26.5211 27.0785ZM21.2426 25.2747L21.5391 25.2286L21.2427 25.2749C21.2427 25.2749 21.2426 25.2748 21.2426 25.2747ZM27.5611 23.9827L27.5609 23.9826L27.4657 24.2672L27.5611 23.9827ZM72.4147 35.4063C69.9918 54.8309 52.1486 70.5868 32.5734 70.5868C13.0272 70.5868 -0.845323 54.8763 1.57399 35.4805C3.99691 16.0558 21.8401 0.3 41.4153 0.3C60.9614 0.3 74.834 16.0104 72.4147 35.4063ZM44.9627 46.475C44.7341 48.3082 46.0578 49.8089 47.9044 49.8089C49.722 49.8089 51.3676 48.3535 51.5926 46.5493C51.8213 44.7164 50.4988 43.2154 48.652 43.2154C46.8346 43.2154 45.1878 44.6707 44.9627 46.475Z" stroke="white" stroke-opacity="0.2" stroke-width="0.6"/>
<defs>
<filter id="filter0_f_6073_13888" x="0.909912" y="70" width="82.4141" height="30" filterUnits="userSpaceOnUse" color-interpolation-filters="sRGB">
<feFlood flood-opacity="0" result="BackgroundImageFix"/>
<feBlend mode="normal" in="SourceGraphic" in2="BackgroundImageFix" result="shape"/>
<feGaussianBlur stdDeviation="5" result="effect1_foregroundBlur_6073_13888"/>
</filter>
<filter id="filter1_i_6073_13888" x="2.68347" y="-10.2871" width="78.3165" height="88.3955" filterUnits="userSpaceOnUse" color-interpolation-filters="sRGB">
<feFlood flood-opacity="0" result="BackgroundImageFix"/>
<feBlend mode="normal" in="SourceGraphic" in2="BackgroundImageFix" result="shape"/>
<feColorMatrix in="SourceAlpha" type="matrix" values="0 0 0 0 0 0 0 0 0 0 0 0 0 0 0 0 0 0 127 0" result="hardAlpha"/>
<feOffset dy="-12"/>
<feGaussianBlur stdDeviation="14"/>
<feComposite in2="hardAlpha" operator="arithmetic" k2="-1" k3="1"/>
<feColorMatrix type="matrix" values="0 0 0 0 0.908698 0 0 0 0 0.995833 0 0 0 0 0.990605 0 0 0 0.25 0"/>
<feBlend mode="normal" in2="shape" result="effect1_innerShadow_6073_13888"/>
</filter>
<filter id="filter2_i_6073_13888" x="2.68347" y="-10.2871" width="78.3165" height="88.3955" filterUnits="userSpaceOnUse" color-interpolation-filters="sRGB">
<feFlood flood-opacity="0" result="BackgroundImageFix"/>
<feBlend mode="normal" in="SourceGraphic" in2="BackgroundImageFix" result="shape"/>
<feColorMatrix in="SourceAlpha" type="matrix" values="0 0 0 0 0 0 0 0 0 0 0 0 0 0 0 0 0 0 127 0" result="hardAlpha"/>
<feOffset dy="-12"/>
<feGaussianBlur stdDeviation="14"/>
<feComposite in2="hardAlpha" operator="arithmetic" k2="-1" k3="1"/>
<feColorMatrix type="matrix" values="0 0 0 0 0.908698 0 0 0 0 0.995833 0 0 0 0 0.990605 0 0 0 0.25 0"/>
<feBlend mode="normal" in2="shape" result="effect1_innerShadow_6073_13888"/>
</filter>
<filter id="filter3_iii_6073_13888" x="1" y="-10" width="71.9886" height="80.8867" filterUnits="userSpaceOnUse" color-interpolation-filters="sRGB">
<feFlood flood-opacity="0" result="BackgroundImageFix"/>
<feBlend mode="normal" in="SourceGraphic" in2="BackgroundImageFix" result="shape"/>
<feColorMatrix in="SourceAlpha" type="matrix" values="0 0 0 0 0 0 0 0 0 0 0 0 0 0 0 0 0 0 127 0" result="hardAlpha"/>
<feOffset dy="-4"/>
<feGaussianBlur stdDeviation="5"/>
<feComposite in2="hardAlpha" operator="arithmetic" k2="-1" k3="1"/>
<feColorMatrix type="matrix" values="0 0 0 0 1 0 0 0 0 1 0 0 0 0 1 0 0 0 0.5 0"/>
<feBlend mode="normal" in2="shape" result="effect1_innerShadow_6073_13888"/>
<feColorMatrix in="SourceAlpha" type="matrix" values="0 0 0 0 0 0 0 0 0 0 0 0 0 0 0 0 0 0 127 0" result="hardAlpha"/>
<feOffset dy="-2"/>
<feGaussianBlur stdDeviation="4"/>
<feComposite in2="hardAlpha" operator="arithmetic" k2="-1" k3="1"/>
<feColorMatrix type="matrix" values="0 0 0 0 1 0 0 0 0 1 0 0 0 0 1 0 0 0 0.5 0"/>
<feBlend mode="normal" in2="effect1_innerShadow_6073_13888" result="effect2_innerShadow_6073_13888"/>
<feColorMatrix in="SourceAlpha" type="matrix" values="0 0 0 0 0 0 0 0 0 0 0 0 0 0 0 0 0 0 127 0" result="hardAlpha"/>
<feOffset dy="-10"/>
<feGaussianBlur stdDeviation="26"/>
<feComposite in2="hardAlpha" operator="arithmetic" k2="-1" k3="1"/>
<feColorMatrix type="matrix" values="0 0 0 0 1 0 0 0 0 1 0 0 0 0 1 0 0 0 0.25 0"/>
<feBlend mode="normal" in2="effect2_innerShadow_6073_13888" result="effect3_innerShadow_6073_13888"/>
</filter>
<linearGradient id="paint0_linear_6073_13888" x1="77.6609" y1="1.71289" x2="6.62966" y2="1.71289" gradientUnits="userSpaceOnUse">
<stop stop-color="#1F4365"/>
<stop offset="0.171875" stop-color="#292879"/>
<stop offset="0.416052" stop-color="#0E0C4D"/>
<stop offset="0.697917" stop-color="#1A2D73"/>
<stop offset="1" stop-color="#8AA1F1"/>
</linearGradient>
<radialGradient id="paint1_radial_6073_13888" cx="0" cy="0" r="1" gradientUnits="userSpaceOnUse" gradientTransform="translate(40.0482 39.3799) rotate(28.975) scale(42.7108 78.5561)">
<stop stop-color="#0E0C4D"/>
<stop offset="0.34375" stop-color="#003655"/>
<stop offset="1" stop-color="#4D0C0C" stop-opacity="0"/>
</radialGradient>
<linearGradient id="paint2_linear_6073_13888" x1="57.2592" y1="26.9913" x2="15.9207" y2="44.5748" gradientUnits="userSpaceOnUse">
<stop stop-color="#FFD7D2"/>
<stop offset="1" stop-color="#E175B1"/>
</linearGradient>
<linearGradient id="paint3_linear_6073_13888" x1="11.9911" y1="18.3797" x2="56.5716" y2="47.5503" gradientUnits="userSpaceOnUse">
<stop stop-color="white"/>
<stop offset="0.71875" stop-color="#0E0C4D"/>
<stop offset="1" stop-color="#0C2452"/>
</linearGradient>
</defs>
</svg>
