<svg width="26" height="26" viewBox="0 0 26 26" fill="none" xmlns="http://www.w3.org/2000/svg">
<rect width="26" height="26" rx="8" fill="#BEFE00" fill-opacity="0.2"/>
<path d="M11.4443 12.4986C10.915 12.4986 10.4971 12.9454 10.4971 13.4906C10.4971 14.0358 10.9243 14.4827 11.4443 14.4827C11.9736 14.4827 12.3914 14.0358 12.3914 13.4906C12.4007 12.9454 11.9736 12.4986 11.4443 12.4986ZM14.8336 12.4986C14.3043 12.4986 13.8864 12.9454 13.8864 13.4906C13.8864 14.0358 14.3136 14.4827 14.8336 14.4827C15.3629 14.4827 15.7807 14.0358 15.7807 13.4906C15.7807 12.9454 15.3629 12.4986 14.8336 12.4986Z" fill="#BEFE00"/>
<path d="M19.3464 5H6.90357C5.85429 5 5 5.82225 5 6.84112V18.9246C5 19.9435 5.85429 20.7657 6.90357 20.7657H17.4336L16.9414 19.1123L18.13 20.1759L19.2536 21.1769L21.25 22.875V6.84112C21.25 5.82225 20.3957 5 19.3464 5ZM15.7621 16.6724C15.7621 16.6724 15.4279 16.2881 15.1493 15.9484C16.3657 15.6177 16.83 14.8849 16.83 14.8849C16.4493 15.1262 16.0871 15.296 15.7621 15.4122C15.2979 15.5999 14.8521 15.725 14.4157 15.7965C13.5243 15.9574 12.7071 15.9127 12.0107 15.7876C11.4814 15.6892 11.0264 15.5462 10.6457 15.4032C10.4321 15.3228 10.2 15.2245 9.96786 15.0994C9.94 15.0815 9.91214 15.0726 9.88429 15.0547C9.86571 15.0457 9.85643 15.0368 9.84714 15.0279C9.68 14.9385 9.58714 14.8759 9.58714 14.8759C9.58714 14.8759 10.0329 15.5909 11.2121 15.9306C10.9336 16.2702 10.59 16.6724 10.59 16.6724C8.53786 16.6098 7.75786 15.3139 7.75786 15.3139C7.75786 12.436 9.095 10.1033 9.095 10.1033C10.4321 9.13806 11.7043 9.16487 11.7043 9.16487L11.7971 9.27213C10.1257 9.73688 9.355 10.4429 9.355 10.4429C9.355 10.4429 9.55929 10.3357 9.90286 10.1837C10.8964 9.76369 11.6857 9.6475 12.0107 9.62069C12.0664 9.61175 12.1129 9.60281 12.1686 9.60281C12.735 9.53131 13.3757 9.51344 14.0443 9.58494C14.9264 9.68325 15.8736 9.9335 16.8393 10.4429C16.8393 10.4429 16.1057 9.77262 14.5271 9.30787L14.6571 9.16487C14.6571 9.16487 15.9293 9.13806 17.2664 10.1033C17.2664 10.1033 18.6036 12.436 18.6036 15.3139C18.6036 15.3139 17.8143 16.6098 15.7621 16.6724Z" fill="#BEFE00"/>
</svg>
