<svg width="26" height="26" viewBox="0 0 26 26" fill="none" xmlns="http://www.w3.org/2000/svg">
<rect width="26" height="26" rx="8" fill="#BEFE00" fill-opacity="0.2"/>
<g clip-path="url(#clip0_4188_44284)">
<path d="M12.9925 5.5C8.8525 5.5 5.5 8.86 5.5 13C5.5 17.14 8.8525 20.5 12.9925 20.5C17.14 20.5 20.5 17.14 20.5 13C20.5 8.86 17.14 5.5 12.9925 5.5ZM18.19 10H15.9775C15.7375 9.0625 15.3925 8.1625 14.9425 7.33C16.3225 7.8025 17.47 8.7625 18.19 10ZM13 7.03C13.6225 7.93 14.11 8.9275 14.4325 10H11.5675C11.89 8.9275 12.3775 7.93 13 7.03ZM7.195 14.5C7.075 14.02 7 13.5175 7 13C7 12.4825 7.075 11.98 7.195 11.5H9.73C9.67 11.995 9.625 12.49 9.625 13C9.625 13.51 9.67 14.005 9.73 14.5H7.195ZM7.81 16H10.0225C10.2625 16.9375 10.6075 17.8375 11.0575 18.67C9.6775 18.1975 8.53 17.245 7.81 16ZM10.0225 10H7.81C8.53 8.755 9.6775 7.8025 11.0575 7.33C10.6075 8.1625 10.2625 9.0625 10.0225 10ZM13 18.97C12.3775 18.07 11.89 17.0725 11.5675 16H14.4325C14.11 17.0725 13.6225 18.07 13 18.97ZM14.755 14.5H11.245C11.1775 14.005 11.125 13.51 11.125 13C11.125 12.49 11.1775 11.9875 11.245 11.5H14.755C14.8225 11.9875 14.875 12.49 14.875 13C14.875 13.51 14.8225 14.005 14.755 14.5ZM14.9425 18.67C15.3925 17.8375 15.7375 16.9375 15.9775 16H18.19C17.47 17.2375 16.3225 18.1975 14.9425 18.67ZM16.27 14.5C16.33 14.005 16.375 13.51 16.375 13C16.375 12.49 16.33 11.995 16.27 11.5H18.805C18.925 11.98 19 12.4825 19 13C19 13.5175 18.925 14.02 18.805 14.5H16.27Z" fill="#BEFE00"/>
</g>
<defs>
<clipPath id="clip0_4188_44284">
<rect width="18" height="18" fill="white" transform="translate(4 4)"/>
</clipPath>
</defs>
</svg>
