<svg width="26" height="26" viewBox="0 0 26 26" fill="none" xmlns="http://www.w3.org/2000/svg">
<rect width="26" height="26" rx="8" fill="#BEFE00" fill-opacity="0.2"/>
<g clip-path="url(#clip0_4188_44273)">
<g clip-path="url(#clip1_4188_44273)">
<path d="M20.5 8.4905C19.9205 8.74775 19.2978 8.921 18.6441 8.99909C19.3115 8.59944 19.8241 7.96616 20.0649 7.21147C19.4408 7.58159 18.7491 7.85066 18.0128 7.99569C17.4242 7.36766 16.5835 6.97522 15.6542 6.97522C13.568 6.97522 12.035 8.92166 12.5062 10.9423C9.8215 10.8077 7.44062 9.52147 5.84659 7.5665C5.00003 9.01878 5.40756 10.9186 6.84606 11.8807C6.31712 11.8636 5.81837 11.7186 5.38328 11.4764C5.34784 12.9733 6.42081 14.3738 7.97481 14.6855C7.52003 14.8089 7.02194 14.8378 6.51531 14.7406C6.92613 16.0243 8.11919 16.9581 9.53406 16.9843C8.17563 18.0494 6.46413 18.5252 4.75 18.3231C6.17997 19.2399 7.879 19.7747 9.70337 19.7747C15.7028 19.7747 19.0923 14.7078 18.8876 10.1633C19.5189 9.70719 20.0669 9.13822 20.5 8.4905Z" fill="#BEFE00"/>
</g>
</g>
<defs>
<clipPath id="clip0_4188_44273">
<rect width="18" height="18" fill="white" transform="translate(4 4)"/>
</clipPath>
<clipPath id="clip1_4188_44273">
<rect width="15.75" height="15.75" fill="white" transform="translate(4.75 5.5)"/>
</clipPath>
</defs>
</svg>
