<svg width="55" height="62" viewBox="0 0 55 62" fill="none" xmlns="http://www.w3.org/2000/svg">
<path d="M55 21.6378C55 9.68854 43.9448 0.00124339 30.3059 0.00124339C23.8774 -0.0609382 17.6484 2.21105 12.7955 6.38808C9.97318 8.4454 7.79597 11.2517 6.51537 14.4828C5.67932 16.6356 5.19536 18.9067 5.08176 21.2106C5.04069 23.8562 6.34619 26.4466 5.19617 29.0224C4.39624 30.8243 2.31721 32.3481 0.980415 33.7847C0.980415 33.7847 -2.76301 36.2521 4.37962 36.5892C4.58107 36.5989 5.48466 40.8274 5.70957 41.7951C5.55172 42.0063 5.47227 42.265 5.48465 42.5275C5.48465 43.3383 6.51635 44 7.78469 44H8.56017C6.88502 44.2257 5.67535 44.8718 5.67535 45.7727C5.67535 46.3927 6.47039 47.2103 7.65854 47.7005C7.65854 47.7005 6.19168 52.2468 8.36655 53.2833C8.83422 53.4612 9.34453 53.4983 9.83341 53.3899C12.9177 53.5565 18.439 53.3395 21.5077 53.3395C21.5077 53.2843 23.1212 61.9999 23.1212 61.9999H50.8517C50.8517 62.0435 48.1859 42.2969 48.1859 42.2969C53.0657 35.3744 54.7555 29.1774 54.8474 23.9986C54.9452 23.2159 54.9961 22.4273 54.9971 21.6378H55ZM40.3871 17.9702C39.437 17.9679 38.5072 17.6972 37.707 17.1898C36.9067 16.6824 36.2692 15.9594 35.8692 15.1057L32.1238 17.2543C32.6962 18.4174 32.9498 19.7092 32.8592 21.0001C32.7685 22.2909 32.3369 23.5355 31.6075 24.6089L38.6328 28.6408C39.0461 28.2376 39.5876 27.9887 40.1652 27.9364C40.7428 27.884 41.3209 28.0314 41.8012 28.3535C42.2815 28.6756 42.6344 29.1525 42.7999 29.7032C42.9654 30.2539 42.9333 30.8444 42.709 31.3743C42.4848 31.9041 42.0822 32.3407 41.5697 32.6099C41.0572 32.879 40.4665 32.964 39.8979 32.8504C39.3293 32.7369 38.818 32.4318 38.4508 31.987C38.0836 31.5422 37.8832 30.9852 37.8837 30.4106C37.8965 30.1775 37.9433 29.9475 38.0226 29.7277L30.8036 25.5854C29.7351 26.703 28.3438 27.4658 26.8204 27.7691C25.297 28.0724 23.7161 27.9015 22.2947 27.2796C20.8733 26.6578 19.6808 25.6156 18.8809 24.2959C18.0811 22.9762 17.7129 21.4437 17.827 19.9086C17.941 18.3735 18.5317 16.9109 19.5181 15.7214C20.5044 14.532 21.838 13.674 23.336 13.265C24.8341 12.856 26.4231 12.9162 27.8853 13.4372C29.3474 13.9582 30.611 14.9146 31.5028 16.1751L35.4722 13.8986C35.2887 12.8972 35.4211 11.8641 35.8514 10.9399C36.2817 10.0157 36.9889 9.2452 37.8769 8.73326C38.7648 8.22133 39.7905 7.99281 40.8142 8.07878C41.838 8.16475 42.8101 8.56105 43.5984 9.21376C44.3867 9.86646 44.9529 10.7439 45.22 11.7267C45.4871 12.7095 45.442 13.7499 45.091 14.7064C44.74 15.6629 44.1001 16.4891 43.2582 17.0726C42.4164 17.6561 41.4136 17.9685 40.3862 17.9673L40.3871 17.9702Z" fill="url(#paint0_linear_181_1272)"/>
<defs>
<linearGradient id="paint0_linear_181_1272" x1="27.5" y1="0" x2="27.5" y2="62" gradientUnits="userSpaceOnUse">
<stop/>
<stop offset="1" stop-color="#666666"/>
</linearGradient>
</defs>
</svg>
