<svg width="101" height="100" viewBox="0 0 101 100" fill="none" xmlns="http://www.w3.org/2000/svg">
<rect x="0.5" width="100" height="100" rx="50" fill="url(#paint0_linear_623_4783)"/>
<path d="M76.435 63.5507L76.4854 41.52C76.4935 37.9839 73.6216 35.1108 70.0708 35.1027C68.358 35.0988 66.7144 35.7756 65.5048 36.983L45.3571 57.0919C44.5877 57.86 44.5908 59.1042 45.3642 59.8684L46.9334 61.4191C50.7724 65.2124 56.9653 65.2113 60.8027 61.4166L68.4274 53.8767C68.7894 53.5188 69.3709 53.5103 69.7433 53.8574C70.1309 54.2188 70.145 54.8266 69.7746 55.2053L67.2024 57.8351C66.8237 58.222 66.8311 58.8412 67.2187 59.2192L73.0886 64.9467C74.333 66.1607 76.4311 65.2857 76.435 63.5507Z" fill="white"/>
<path d="M24.565 36.9698L24.5147 58.9637C24.5066 62.5172 27.3855 65.4044 30.9449 65.4126C32.65 65.4165 34.2872 64.7456 35.4979 63.5469L55.6351 43.6088C56.4116 42.8399 56.4118 41.5866 55.6355 40.8175L54.0732 39.2699C50.2333 35.4662 44.039 35.4673 40.2006 39.2724L32.5741 46.8329C32.212 47.1918 31.6305 47.2004 31.258 46.8524C30.8702 46.4901 30.8561 45.8805 31.2267 45.5007L33.808 42.8551C34.1833 42.4704 34.18 41.8563 33.8006 41.4758L27.9298 35.5875C26.6922 34.3461 24.569 35.2184 24.565 36.9698Z" fill="white"/>
<defs>
<linearGradient id="paint0_linear_623_4783" x1="0.5" y1="-0.241569" x2="164.456" y2="3.6094" gradientUnits="userSpaceOnUse">
<stop stop-color="#06C17E"/>
<stop offset="1" stop-color="#06C1A8"/>
</linearGradient>
</defs>
</svg>
