<svg width="28" height="28" viewBox="0 0 28 28" fill="none" xmlns="http://www.w3.org/2000/svg">
<path d="M14.001 0C6.26847 0 0 6.26894 0 14C0 21.7311 6.26847 28 14.001 28C21.7336 28 28 21.7331 28 14C28 6.26686 21.7315 0 14.001 0ZM24.2945 14.7888H16.4058C16.2206 14.7888 16.128 15.0126 16.2591 15.1437L21.8387 20.7237C21.9917 20.8767 21.9917 21.1244 21.8387 21.2773L21.2758 21.8372C21.1228 21.9902 20.8751 21.9902 20.7222 21.8372L15.1446 16.2593C15.0135 16.1282 14.7898 16.2208 14.7898 16.406V24.2952C14.7898 24.5107 14.615 24.6855 14.3996 24.6855H13.6025C13.3871 24.6855 13.2123 24.5107 13.2123 24.2952V16.4039C13.2123 16.2187 12.9886 16.1261 12.8574 16.2572L7.27784 21.8372C7.12487 21.9902 6.87721 21.9902 6.72425 21.8372L6.16441 21.2773C6.01145 21.1244 6.01145 20.8767 6.16441 20.7237L11.744 15.1437C11.8751 15.0126 11.7825 14.7888 11.5973 14.7888H3.70552C3.48907 14.7888 3.31322 14.6129 3.31322 14.3965V13.6035C3.31322 13.3871 3.48907 13.2112 3.70552 13.2112H11.5963C11.7815 13.2112 11.8741 12.9874 11.743 12.8563L6.16337 7.2763C6.01041 7.12332 6.01041 6.87772 6.16337 6.72475L6.72321 6.16175C6.87617 6.00877 7.12383 6.00877 7.2768 6.16175L12.8564 11.7418C12.9875 11.8729 13.2112 11.7803 13.2112 11.595V3.70371C13.2112 3.48829 13.3861 3.31346 13.6015 3.31346H14.3965C14.6119 3.31346 14.7888 3.49037 14.7888 3.70579V11.593C14.7888 11.7782 15.0125 11.8708 15.1436 11.7397L20.7211 6.16175C20.8741 6.00877 21.1217 6.00877 21.2747 6.16175L21.8377 6.72475C21.9906 6.87772 21.9906 7.12332 21.8377 7.2763L16.2581 12.8563C16.127 12.9874 16.2196 13.2112 16.4048 13.2112H24.2934C24.5099 13.2112 24.6857 13.3871 24.6857 13.6035V14.3965C24.6857 14.6129 24.5099 14.7888 24.2934 14.7888H24.2945Z" fill="#FF5C33"/>
</svg>
