<svg width="18" height="19" viewBox="0 0 18 19" fill="none" xmlns="http://www.w3.org/2000/svg">
<g clip-path="url(#clip0_2844_1307)">
<g filter="url(#filter0_d_2844_1307)">
<path fill-rule="evenodd" clip-rule="evenodd" d="M0.640387 6.12495L0.320068 8.05504L1.28082 13.2018L2.56189 14.4886L6.40489 15.7752L10.5684 15.4537L13.771 13.5236L14.7317 11.5935L14.0911 5.48145L0.640387 6.12495Z" fill="#F49D00"/>
<path fill-rule="evenodd" clip-rule="evenodd" d="M2.56198 11.5302L2.24166 13.7821L3.20261 14.4254V11.5302H2.56198ZM4.48348 12.4953V15.0687L5.44423 15.3904L5.12411 12.4953H4.48348ZM7.04561 12.817L6.72529 15.3904H7.68604V12.817H7.04561ZM8.96711 12.4953L8.64679 15.3904H9.60754L9.58095 12.4953H8.96711ZM11.1287 12.0395L10.942 14.7739L11.5826 14.5861L11.7694 11.7984L11.1287 12.0395ZM12.7301 11.2085L12.57 13.916L13.3974 13.2995L13.1038 10.8601L12.7301 11.2085ZM13.9044 9.68052L14.0646 12.4417L14.5183 11.9324L14.1714 9.09082L13.9044 9.68052ZM2.13509 9.94868L1.60123 13.4335L1.04077 12.8706L1.54784 9.38578L2.13509 9.94868Z" fill="#F48A00"/>
<path fill-rule="evenodd" clip-rule="evenodd" d="M0.640381 5.80282L2.8822 2.58614L7.36584 1.62109L11.8493 2.26439L14.0911 5.48107L14.4114 10.3063L13.4507 12.2364L10.2481 13.5232L5.44413 13.8447L2.56188 12.5581L0.960699 9.34125L0.640381 5.80282Z" fill="#FFD640"/>
<path fill-rule="evenodd" clip-rule="evenodd" d="M11.5292 7.08984L9.92783 9.34148L5.12409 10.3065L3.84302 8.05489L4.16334 10.95L8.96709 11.5933L11.5292 9.98478L11.8493 7.73314L11.5292 7.08984Z" fill="#FFE952"/>
<path fill-rule="evenodd" clip-rule="evenodd" d="M8.22241 10.4158L8.86673 11.7044L11.8735 10.4158V6.76465L8.22241 10.4158Z" fill="white"/>
<path fill-rule="evenodd" clip-rule="evenodd" d="M6.72527 4.83815L4.48345 5.48144L3.84302 7.73328L4.80377 10.6284H8.32665L10.8886 9.66337L11.5292 6.76824L9.2874 4.5166L6.72527 4.83815Z" fill="#FFC12C"/>
<path fill-rule="evenodd" clip-rule="evenodd" d="M4.16334 8.69827L5.12409 6.76818L8.96709 5.80314L11.5292 7.73323L11.8493 6.44643L9.60752 3.87305L5.12409 4.51655L3.52271 5.48139V8.37652L4.16334 8.69827Z" fill="#F49D00"/>
</g>
</g>
<defs>
<filter id="filter0_d_2844_1307" x="0.320068" y="1.62109" width="16.3838" height="16.5047" filterUnits="userSpaceOnUse" color-interpolation-filters="sRGB">
<feFlood flood-opacity="0" result="BackgroundImageFix"/>
<feColorMatrix in="SourceAlpha" type="matrix" values="0 0 0 0 0 0 0 0 0 0 0 0 0 0 0 0 0 0 127 0" result="hardAlpha"/>
<feOffset dx="1.97223" dy="2.35043"/>
<feColorMatrix type="matrix" values="0 0 0 0 0 0 0 0 0 0 0 0 0 0 0 0 0 0 1 0"/>
<feBlend mode="normal" in2="BackgroundImageFix" result="effect1_dropShadow_2844_1307"/>
<feBlend mode="normal" in="SourceGraphic" in2="effect1_dropShadow_2844_1307" result="shape"/>
</filter>
<clipPath id="clip0_2844_1307">
<rect width="18" height="18" fill="white" transform="translate(0 0.5)"/>
</clipPath>
</defs>
</svg>
