<svg width="29" height="31" viewBox="0 0 29 31" fill="none" xmlns="http://www.w3.org/2000/svg">
<path fill-rule="evenodd" clip-rule="evenodd" d="M7.38071 8.62833L3.60325 5.75426C3.03191 6.75305 2.54378 7.80134 2.14718 8.8904L6.57086 10.393C6.80105 9.78728 7.07008 9.19616 7.37794 8.62833H7.38071ZM11.0112 4.22842L7.60259 0.850586C6.55422 1.77367 5.60569 2.81322 4.77365 3.95178L8.53725 6.8142C9.25557 5.84745 10.0848 4.97678 11.0084 4.22551L11.0112 4.22842ZM5.94405 12.4837L1.52037 10.9812C1.2458 12.1052 1.06552 13.2525 0.982319 14.4114H5.64175C5.70276 13.762 5.80261 13.1185 5.94405 12.4837ZM6.37949 20.7943L1.96135 22.2969C2.33577 23.4209 2.81004 24.507 3.37582 25.5408L7.16438 22.6609C6.86207 22.0552 6.60136 21.4262 6.38226 20.7798V20.7914L6.37949 20.7943ZM8.2599 24.5216L4.50462 27.3753C5.37549 28.6303 6.38781 29.7747 7.51661 30.7822L10.9169 27.4102C9.91011 26.5745 9.01706 25.599 8.2599 24.51V24.5216ZM5.60846 16.9564H0.973999C1.02669 18.0484 1.16814 19.1345 1.39279 20.2003L5.83866 18.689C5.7305 18.1125 5.65284 17.5301 5.60569 16.9419V16.9535L5.60846 16.9564Z" fill="#BEFE00"/>
<path fill-rule="evenodd" clip-rule="evenodd" d="M19.5561 6.4043C17.4094 6.4043 15.3321 7.2109 13.7013 8.67851C12.0705 10.1461 10.9916 12.1757 10.6615 14.4033H15.2239C15.5567 13.3026 16.2584 12.365 17.1986 11.7651C18.1388 11.1653 19.2565 10.944 20.3409 11.142C21.4254 11.34 22.4044 11.9428 23.0978 12.8426C23.7911 13.7394 24.1489 14.8722 24.1073 16.0282C24.0657 17.1842 23.6275 18.2849 22.8731 19.1265C22.1187 19.968 21.0981 20.4951 20.0026 20.6057C18.9071 20.7193 17.8088 20.4106 16.9129 19.738C16.0171 19.0653 15.3848 18.0753 15.1296 16.9513H10.6255C10.828 18.7596 11.5241 20.4689 12.6279 21.8724C13.7345 23.276 15.2017 24.3126 16.8575 24.8601C18.5105 25.4075 20.2827 25.4395 21.9523 24.9562C23.6247 24.4699 25.1252 23.4885 26.2789 22.1287C27.4299 20.7688 28.1843 19.0857 28.4478 17.2862C28.7113 15.4866 28.4728 13.6433 27.7627 11.9835C27.0527 10.3237 25.899 8.91146 24.4429 7.92432C22.9868 6.93427 21.2895 6.41012 19.5533 6.41012L19.5561 6.4043Z" fill="#BEFE00"/>
</svg>
