<svg width="114" height="84" viewBox="0 0 114 84" fill="none" xmlns="http://www.w3.org/2000/svg">
<g filter="url(#filter0_d_3683_4061)">
<path d="M4 6.49927C4.61898 3.69927 7.3528 1.66593 8.64234 0.999268C12.3562 0.599268 15.3479 4.49927 16.3796 6.49927H4Z" fill="#7A6A50"/>
<path d="M110 6.49927C109.381 3.69927 106.647 1.66593 105.358 0.999268C101.644 0.599268 98.6521 4.49927 97.6204 6.49927H110Z" fill="#7A6A50"/>
<path d="M14.0587 9.32842C14.0587 3.32842 9.93216 1.16175 7.8689 0.828419C14.8324 -1.17158 20.2484 0.828465 27.9857 2.82842C38.0441 5.42835 72.0879 6.32842 81.3726 2.82842C88.8003 0.0284185 100.458 0.328419 105.358 0.828419C100.406 4.02842 100.2 7.82842 100.716 9.32842V50.3284C74.7185 59.5284 60.482 71.1618 56.6134 75.8284C47.3288 61.4284 24.375 53.8284 14.0587 51.8284V9.32842Z" fill="#25251B"/>
<path d="M12.5105 0.5C14.3773 0.79892 18.1108 6.98483 18.1108 12.3654C18.1108 17.746 18.1108 40.0155 18.1108 50.4777C27.4446 52.2713 48.2123 59.0867 56.6127 72C60.1129 67.8151 72.9935 57.3828 96.5147 49.1326V12.3654C96.048 11.0203 97.0084 3.36964 101.489 0.5" stroke="#4F4534"/>
<g filter="url(#filter1_di_3683_4061)">
<path d="M30.5273 22.0156C31.0221 22.1328 31.4648 22.224 31.8555 22.2891C32.2591 22.3411 32.5977 22.3802 32.8711 22.4062C33.1966 22.4453 33.4831 22.4583 33.7305 22.4453C34.043 22.4323 34.4336 22.3867 34.9023 22.3086C35.3711 22.2305 35.8659 22.1523 36.3867 22.0742C36.9076 21.9961 37.4219 21.931 37.9297 21.8789C38.4375 21.8268 38.8802 21.8203 39.2578 21.8594C39.6354 21.8984 40.0326 21.9896 40.4492 22.1328C40.8659 22.263 41.2565 22.4453 41.6211 22.6797C41.9857 22.901 42.2982 23.1745 42.5586 23.5C42.832 23.8255 43.0013 24.2031 43.0664 24.6328C43.1315 25.0495 43.0924 25.4987 42.9492 25.9805C42.806 26.4492 42.5781 26.9115 42.2656 27.3672C41.9531 27.8099 41.5625 28.2201 41.0938 28.5977C40.625 28.9753 40.1042 29.2812 39.5312 29.5156C39.0755 29.6849 38.5807 29.8151 38.0469 29.9062C37.5911 29.9844 37.0573 30.0365 36.4453 30.0625C35.8464 30.0755 35.2083 30.0104 34.5312 29.8672C34.4401 30.2448 34.388 30.5964 34.375 30.9219C34.375 31.2344 34.388 31.5143 34.4141 31.7617C34.4531 32.0482 34.5052 32.3086 34.5703 32.543C34.6484 32.7773 34.7461 33.0508 34.8633 33.3633C34.9674 33.6237 35.0846 33.9427 35.2148 34.3203C35.3581 34.6849 35.5273 35.0951 35.7227 35.5508C35.4883 35.5508 35.2604 35.5573 35.0391 35.5703C34.8177 35.5703 34.6159 35.5768 34.4336 35.5898C34.2253 35.6029 34.0299 35.6159 33.8477 35.6289C33.6393 35.6419 33.4049 35.668 33.1445 35.707C32.9232 35.7331 32.6432 35.7721 32.3047 35.8242C31.9792 35.8763 31.6081 35.9414 31.1914 36.0195C31.4648 35.6289 31.6797 35.2708 31.8359 34.9453C32.0052 34.6068 32.1289 34.3138 32.207 34.0664C32.2982 33.7799 32.3568 33.5195 32.3828 33.2852C32.3958 33.0898 32.3958 32.7448 32.3828 32.25C32.3828 31.7552 32.3763 31.1823 32.3633 30.5312C32.3503 29.8802 32.3307 29.1966 32.3047 28.4805C32.2786 27.7643 32.2461 27.0938 32.207 26.4688C32.168 25.8307 32.1224 25.2839 32.0703 24.8281C32.0312 24.3724 31.9922 24.0729 31.9531 23.9297C31.901 23.7604 31.8099 23.5781 31.6797 23.3828C31.5755 23.2135 31.4258 23.0182 31.2305 22.7969C31.0482 22.5625 30.8138 22.3021 30.5273 22.0156ZM34.5703 25.8633C34.5573 25.9935 34.5508 26.1302 34.5508 26.2734C34.5508 26.5469 34.5703 26.8984 34.6094 27.3281C34.7005 27.5495 34.8112 27.7318 34.9414 27.875C35.0846 28.0182 35.2344 28.1289 35.3906 28.207C35.5599 28.2852 35.7292 28.3372 35.8984 28.3633C36.0677 28.3893 36.237 28.4023 36.4062 28.4023C36.7969 28.3893 37.207 28.2982 37.6367 28.1289C38.2096 27.8815 38.6133 27.5299 38.8477 27.0742C39.082 26.6185 39.2057 26.1497 39.2188 25.668C39.2318 25.1862 39.1471 24.7435 38.9648 24.3398C38.7956 23.9362 38.5872 23.6628 38.3398 23.5195C38.1315 23.4284 37.8646 23.3893 37.5391 23.4023C37.2526 23.4154 36.8945 23.487 36.4648 23.6172C36.0352 23.7474 35.5078 23.9818 34.8828 24.3203C34.8177 24.5547 34.7656 24.763 34.7266 24.9453C34.6875 25.1276 34.6549 25.2904 34.6289 25.4336C34.6029 25.5898 34.5833 25.7331 34.5703 25.8633ZM47.0117 27.25C47.3503 27.25 47.7018 27.3151 48.0664 27.4453C48.431 27.5625 48.7826 27.7188 49.1211 27.9141C49.4596 28.0964 49.7656 28.2982 50.0391 28.5195C50.3255 28.7279 50.5599 28.9297 50.7422 29.125C51.0677 29.4766 51.2891 29.9518 51.4062 30.5508C51.5365 31.1367 51.5625 31.7422 51.4844 32.3672C51.4062 32.9792 51.224 33.5586 50.9375 34.1055C50.651 34.6523 50.2539 35.056 49.7461 35.3164C49.3815 35.4987 49.0234 35.6419 48.6719 35.7461C48.3203 35.8503 47.9818 35.9284 47.6562 35.9805C47.3307 36.0326 47.0247 36.0586 46.7383 36.0586C46.4518 36.0586 46.2044 36.0521 45.9961 36.0391C45.6055 36.013 45.1953 35.8763 44.7656 35.6289C44.349 35.3815 43.9518 35.0755 43.5742 34.7109C43.2096 34.3464 42.8971 33.9492 42.6367 33.5195C42.3763 33.0768 42.2201 32.6602 42.168 32.2695C42.0898 31.7357 42.0768 31.1758 42.1289 30.5898C42.181 30.0039 42.3698 29.4635 42.6953 28.9688C43.0339 28.474 43.5417 28.0638 44.2188 27.7383C44.9089 27.4128 45.8398 27.25 47.0117 27.25ZM46.3672 34.8281C46.5104 34.8542 46.7057 34.8216 46.9531 34.7305C47.2005 34.6263 47.4414 34.4635 47.6758 34.2422C47.9232 34.0208 48.138 33.7409 48.3203 33.4023C48.5156 33.0508 48.6328 32.6276 48.6719 32.1328C48.7109 31.651 48.7109 31.2083 48.6719 30.8047C48.6458 30.401 48.5872 30.0495 48.4961 29.75C48.4049 29.4375 48.3008 29.1836 48.1836 28.9883C48.0664 28.793 47.9427 28.6562 47.8125 28.5781C47.5911 28.4609 47.3242 28.3698 47.0117 28.3047C46.6992 28.2266 46.4323 28.2396 46.2109 28.3438C46.1068 28.3958 45.9766 28.5065 45.8203 28.6758C45.6641 28.8451 45.5078 29.0599 45.3516 29.3203C45.1953 29.5677 45.0521 29.8542 44.9219 30.1797C44.8047 30.5052 44.7201 30.8438 44.668 31.1953C44.6159 31.5469 44.6029 31.9245 44.6289 32.3281C44.668 32.7318 44.7526 33.1159 44.8828 33.4805C45.013 33.832 45.1953 34.138 45.4297 34.3984C45.6771 34.6458 45.9896 34.7891 46.3672 34.8281ZM52.4219 27.2695L56.0156 27.3086C55.8073 28.1029 55.651 28.7799 55.5469 29.3398C55.4557 29.8997 55.3971 30.3685 55.3711 30.7461C55.319 31.1758 55.306 31.5404 55.332 31.8398C55.3711 32.1133 55.4362 32.4062 55.5273 32.7188C55.6055 32.9792 55.7227 33.2786 55.8789 33.6172C56.0352 33.9557 56.2435 34.2943 56.5039 34.6328C56.3477 34.5807 56.1784 34.5417 55.9961 34.5156C55.8138 34.4896 55.6445 34.4701 55.4883 34.457C55.306 34.444 55.1237 34.444 54.9414 34.457C54.7591 34.4701 54.5573 34.4896 54.3359 34.5156C54.1536 34.5417 53.9323 34.5742 53.6719 34.6133C53.4115 34.6523 53.138 34.7044 52.8516 34.7695C53.0469 34.1836 53.1966 33.6758 53.3008 33.2461C53.418 32.8164 53.5026 32.4583 53.5547 32.1719C53.6068 31.8333 53.6393 31.5599 53.6523 31.3516C53.6523 31.0911 53.6523 30.7982 53.6523 30.4727C53.6523 30.1341 53.6523 29.8086 53.6523 29.4961C53.6523 29.1836 53.6458 28.9102 53.6328 28.6758C53.6198 28.4284 53.5938 28.2721 53.5547 28.207L53.3594 28.0117C53.2812 27.9466 53.1641 27.8555 53.0078 27.7383C52.8646 27.6081 52.6693 27.4518 52.4219 27.2695ZM53.8086 24.2617C54.082 24.1185 54.3555 24.0794 54.6289 24.1445C54.9154 24.2096 55.1367 24.3333 55.293 24.5156C55.4492 24.6979 55.5013 24.9128 55.4492 25.1602C55.4102 25.4076 55.2018 25.6484 54.8242 25.8828C54.4466 26.1042 54.1146 26.1823 53.8281 26.1172C53.5417 26.0521 53.3398 25.9154 53.2227 25.707C53.1055 25.4987 53.0859 25.2578 53.1641 24.9844C53.2422 24.6979 53.457 24.457 53.8086 24.2617ZM57.8125 33.8516C57.9036 33.4219 57.9688 33.0443 58.0078 32.7188C58.0599 32.3802 58.099 32.1003 58.125 31.8789C58.151 31.6185 58.1641 31.3971 58.1641 31.2148C58.151 30.9935 58.138 30.7331 58.125 30.4336C58.125 30.1211 58.112 29.8151 58.0859 29.5156C58.0729 29.2031 58.0534 28.9297 58.0273 28.6953C58.0013 28.4479 57.9688 28.2721 57.9297 28.168C57.8776 28.0638 57.806 27.9531 57.7148 27.8359C57.5326 27.6146 57.2656 27.3997 56.9141 27.1914C57.2135 27.1263 57.4674 27.0742 57.6758 27.0352C57.8971 26.9831 58.0794 26.9375 58.2227 26.8984C58.3789 26.8464 58.5156 26.8008 58.6328 26.7617C58.737 26.7227 58.8607 26.6836 59.0039 26.6445C59.1211 26.6185 59.2643 26.5859 59.4336 26.5469C59.6029 26.5078 59.7982 26.4622 60.0195 26.4102L59.9609 28.1875C60.3776 27.6927 60.8008 27.3216 61.2305 27.0742C61.6602 26.8268 62.0638 26.651 62.4414 26.5469C62.8711 26.4167 63.2943 26.3516 63.7109 26.3516C64.2318 26.3776 64.7135 26.4622 65.1562 26.6055C65.612 26.7487 66.0026 26.918 66.3281 27.1133C66.6667 27.2956 66.9401 27.4909 67.1484 27.6992C67.3568 27.9076 67.4805 28.0898 67.5195 28.2461C67.6758 28.7539 67.7148 29.2227 67.6367 29.6523C67.5586 30.069 67.4544 30.4792 67.3242 30.8828C67.207 31.2734 67.1029 31.6641 67.0117 32.0547C66.9336 32.4453 66.9661 32.8685 67.1094 33.3242C67.1615 33.4414 67.2135 33.5586 67.2656 33.6758C67.3177 33.7799 67.3828 33.8841 67.4609 33.9883C67.5391 34.0924 67.6302 34.1771 67.7344 34.2422C67.5911 34.2292 67.4479 34.2227 67.3047 34.2227C67.1615 34.2096 67.0312 34.1966 66.9141 34.1836C66.7708 34.1706 66.6406 34.1576 66.5234 34.1445C66.3932 34.1315 66.2174 34.125 65.9961 34.125C65.6185 34.125 65.0326 34.1445 64.2383 34.1836C64.3555 33.9102 64.4466 33.6823 64.5117 33.5C64.5898 33.3047 64.6549 33.1484 64.707 33.0312C64.7591 32.888 64.7982 32.7773 64.8242 32.6992C64.9805 32.3216 65.0716 31.8919 65.0977 31.4102C65.1367 30.9284 65.1042 30.4401 65 29.9453C64.9609 29.776 64.8958 29.5742 64.8047 29.3398C64.7135 29.1055 64.5898 28.8776 64.4336 28.6562C64.2904 28.4349 64.1146 28.2461 63.9062 28.0898C63.7109 27.9336 63.4831 27.8424 63.2227 27.8164C62.9622 27.7904 62.6693 27.8555 62.3438 28.0117C62.0312 28.168 61.6927 28.4544 61.3281 28.8711C61.0547 29.2227 60.8398 29.6523 60.6836 30.1602C60.5404 30.5898 60.4427 31.1302 60.3906 31.7812C60.3385 32.4193 60.4167 33.168 60.625 34.0273C60.4427 34.0013 60.2734 33.9883 60.1172 33.9883C59.9609 33.9753 59.8307 33.9622 59.7266 33.9492C59.5964 33.9362 59.4792 33.9232 59.375 33.9102C59.2578 33.9102 59.1276 33.9036 58.9844 33.8906C58.8542 33.8906 58.6914 33.8906 58.4961 33.8906C58.3008 33.8776 58.0729 33.8646 57.8125 33.8516ZM68.6914 23.6953C69.082 23.7344 69.4076 23.7669 69.668 23.793C69.9414 23.819 70.1628 23.8385 70.332 23.8516C70.5273 23.8646 70.6836 23.8711 70.8008 23.8711C70.918 23.8841 71.0742 23.8841 71.2695 23.8711C71.4388 23.8581 71.6602 23.8451 71.9336 23.832C72.207 23.806 72.5521 23.7669 72.9688 23.7148C72.8776 23.8451 72.806 23.9622 72.7539 24.0664C72.7018 24.1576 72.6562 24.2422 72.6172 24.3203L72.5 24.5547C72.474 24.6328 72.4479 24.7109 72.4219 24.7891C72.3958 24.8542 72.3698 24.9323 72.3438 25.0234C72.3307 25.1146 72.3177 25.2122 72.3047 25.3164H75.3125L75.0391 26.8984L72.2852 26.7422C72.2201 27.4062 72.1745 27.9206 72.1484 28.2852C72.1224 28.6497 72.0964 28.9167 72.0703 29.0859L72.0312 29.4375C71.9922 29.9323 71.9531 30.4727 71.9141 31.0586C71.875 31.6315 71.862 32.1654 71.875 32.6602C71.888 33.1549 71.9336 33.5716 72.0117 33.9102C72.0898 34.2357 72.2266 34.3984 72.4219 34.3984C72.6172 34.3984 72.7995 34.3464 72.9688 34.2422C73.138 34.138 73.2812 34.0143 73.3984 33.8711C73.5286 33.7279 73.6263 33.5846 73.6914 33.4414C73.7565 33.2852 73.7891 33.168 73.7891 33.0898C73.7891 33.0117 73.7695 32.9206 73.7305 32.8164C73.6654 32.6211 73.5482 32.3737 73.3789 32.0742C73.7565 32.1654 74.0885 32.2565 74.375 32.3477C74.5182 32.3997 74.6484 32.4518 74.7656 32.5039C74.8958 32.556 75.0456 32.6146 75.2148 32.6797C75.3581 32.7448 75.5404 32.8229 75.7617 32.9141C75.9831 33.0052 76.2435 33.1159 76.543 33.2461C76.2565 33.2982 76.0482 33.3828 75.918 33.5C75.8398 33.5521 75.7812 33.6107 75.7422 33.6758C75.651 33.819 75.5469 34.0143 75.4297 34.2617C75.3125 34.4961 75.1367 34.7305 74.9023 34.9648C74.668 35.1992 74.349 35.4076 73.9453 35.5898C73.5547 35.7721 73.0273 35.8763 72.3633 35.9023C71.6732 35.9284 71.1458 35.8112 70.7812 35.5508C70.4297 35.2904 70.1693 34.9909 70 34.6523C69.8438 34.3008 69.7526 33.9557 69.7266 33.6172C69.7005 33.2786 69.681 33.0508 69.668 32.9336C69.6549 32.8164 69.6549 32.5234 69.668 32.0547C69.681 31.5859 69.7005 31.0716 69.7266 30.5117C69.7526 29.9388 69.7786 29.3919 69.8047 28.8711C69.8307 28.3372 69.8438 27.9466 69.8438 27.6992C69.8438 27.569 69.8503 27.4323 69.8633 27.2891C69.8633 27.1719 69.8633 27.0482 69.8633 26.918C69.8763 26.7747 69.8828 26.638 69.8828 26.5078L67.0508 26.4883L66.9336 25.375L69.7852 25.4531C69.7591 25.3099 69.7266 25.1797 69.6875 25.0625C69.6615 24.9323 69.6354 24.8281 69.6094 24.75C69.5703 24.6589 69.5312 24.5807 69.4922 24.5156C69.4401 24.4505 69.3815 24.3789 69.3164 24.3008C69.2513 24.2357 69.1667 24.151 69.0625 24.0469C68.9583 23.9427 68.8346 23.8255 68.6914 23.6953ZM84.3555 24.8477C84.2383 25.1341 84.1341 25.3945 84.043 25.6289C83.9648 25.8633 83.8932 26.0716 83.8281 26.2539C83.763 26.4622 83.7044 26.6445 83.6523 26.8008C83.6003 26.9831 83.5417 27.1914 83.4766 27.4258C83.4115 27.6341 83.3268 27.8945 83.2227 28.207C83.1315 28.5065 83.0208 28.8646 82.8906 29.2812C82.7865 28.6562 82.5977 28.1615 82.3242 27.7969C82.0508 27.4193 81.7708 27.1263 81.4844 26.918C81.1458 26.6836 80.7812 26.5143 80.3906 26.4102C79.6875 26.293 79.1797 26.306 78.8672 26.4492C78.5547 26.5924 78.3464 26.7747 78.2422 26.9961C78.1901 27.0872 78.1315 27.2044 78.0664 27.3477C78.0143 27.4779 77.9688 27.6146 77.9297 27.7578C77.9036 27.901 77.8971 28.0443 77.9102 28.1875C77.9232 28.3307 77.9818 28.4479 78.0859 28.5391C78.151 28.6042 78.3203 28.6953 78.5938 28.8125C78.8672 28.9167 79.1927 29.0404 79.5703 29.1836C79.9609 29.3138 80.3711 29.457 80.8008 29.6133C81.2435 29.7695 81.6602 29.9258 82.0508 30.082C82.4414 30.2383 82.7799 30.3945 83.0664 30.5508C83.3529 30.707 83.5417 30.8503 83.6328 30.9805C83.7109 31.1107 83.7956 31.2865 83.8867 31.5078C83.9909 31.7161 84.0625 31.9505 84.1016 32.2109C84.1536 32.4583 84.1667 32.7188 84.1406 32.9922C84.1276 33.2526 84.056 33.513 83.9258 33.7734C83.7956 34.0339 83.5872 34.2747 83.3008 34.4961C83.0273 34.7174 82.6562 34.8997 82.1875 35.043C81.6406 35.2122 81.1133 35.2578 80.6055 35.1797C80.0977 35.1016 79.6289 34.9844 79.1992 34.8281C78.7826 34.6719 78.418 34.5221 78.1055 34.3789C77.793 34.2227 77.5716 34.1576 77.4414 34.1836C77.2982 34.2096 77.1354 34.2812 76.9531 34.3984C76.7708 34.5156 76.5951 34.6393 76.4258 34.7695C76.2695 34.8867 76.1328 34.9974 76.0156 35.1016C75.8984 35.1927 75.8398 35.2253 75.8398 35.1992C75.8398 35.1732 75.8594 35.0951 75.8984 34.9648C75.9505 34.8346 76.0026 34.6784 76.0547 34.4961C76.1198 34.3008 76.1784 34.0924 76.2305 33.8711C76.2956 33.6367 76.3411 33.4154 76.3672 33.207C76.3932 33.0378 76.4258 32.8294 76.4648 32.582C76.4909 32.3607 76.5234 32.0938 76.5625 31.7812C76.6146 31.4557 76.6732 31.0651 76.7383 30.6094C76.8034 30.9479 76.8945 31.2409 77.0117 31.4883C77.1419 31.7357 77.2656 31.9505 77.3828 32.1328C77.526 32.3411 77.6628 32.5169 77.793 32.6602C77.9883 32.8424 78.2161 33.0117 78.4766 33.168C78.75 33.3242 79.0234 33.4609 79.2969 33.5781C79.5703 33.6823 79.8307 33.7474 80.0781 33.7734C80.3255 33.7995 80.5339 33.7734 80.7031 33.6953C80.8724 33.6172 81.0156 33.474 81.1328 33.2656C81.263 33.0573 81.3542 32.8294 81.4062 32.582C81.4583 32.3346 81.4779 32.1003 81.4648 31.8789C81.4518 31.6445 81.3932 31.4557 81.2891 31.3125C81.2109 31.2214 81.0286 31.1042 80.7422 30.9609C80.4688 30.8177 80.1367 30.6615 79.7461 30.4922C79.3685 30.3229 78.9648 30.1471 78.5352 29.9648C78.1185 29.7826 77.7214 29.6003 77.3438 29.418C76.9792 29.2227 76.6732 29.0404 76.4258 28.8711C76.1914 28.6888 76.0612 28.526 76.0352 28.3828C76.0091 28.1745 75.9896 27.9466 75.9766 27.6992C75.9635 27.4388 75.9766 27.1849 76.0156 26.9375C76.0677 26.6771 76.1589 26.4297 76.2891 26.1953C76.4323 25.9609 76.6406 25.7656 76.9141 25.6094C77.0964 25.5052 77.3372 25.4271 77.6367 25.375C77.9362 25.3229 78.2682 25.2969 78.6328 25.2969C78.9974 25.2839 79.375 25.2969 79.7656 25.3359C80.1562 25.362 80.5273 25.401 80.8789 25.4531C81.2435 25.4922 81.569 25.5443 81.8555 25.6094C82.1549 25.6745 82.3828 25.7331 82.5391 25.7852C82.7214 25.8503 82.9167 25.8568 83.125 25.8047C83.3073 25.7656 83.5026 25.681 83.7109 25.5508C83.9193 25.4206 84.1341 25.1862 84.3555 24.8477Z" fill="#F5F08C"/>
</g>
</g>
<defs>
<filter id="filter0_d_3683_4061" x="0" y="0" width="114" height="83.8281" filterUnits="userSpaceOnUse" color-interpolation-filters="sRGB">
<feFlood flood-opacity="0" result="BackgroundImageFix"/>
<feColorMatrix in="SourceAlpha" type="matrix" values="0 0 0 0 0 0 0 0 0 0 0 0 0 0 0 0 0 0 127 0" result="hardAlpha"/>
<feOffset dy="4"/>
<feGaussianBlur stdDeviation="2"/>
<feComposite in2="hardAlpha" operator="out"/>
<feColorMatrix type="matrix" values="0 0 0 0 0.145098 0 0 0 0 0.145098 0 0 0 0 0.105882 0 0 0 0.46 0"/>
<feBlend mode="normal" in2="BackgroundImageFix" result="effect1_dropShadow_3683_4061"/>
<feBlend mode="normal" in="SourceGraphic" in2="effect1_dropShadow_3683_4061" result="shape"/>
</filter>
<filter id="filter1_di_3683_4061" x="20.5273" y="11.8008" width="73.8281" height="34.2578" filterUnits="userSpaceOnUse" color-interpolation-filters="sRGB">
<feFlood flood-opacity="0" result="BackgroundImageFix"/>
<feColorMatrix in="SourceAlpha" type="matrix" values="0 0 0 0 0 0 0 0 0 0 0 0 0 0 0 0 0 0 127 0" result="hardAlpha"/>
<feOffset/>
<feGaussianBlur stdDeviation="5"/>
<feComposite in2="hardAlpha" operator="out"/>
<feColorMatrix type="matrix" values="0 0 0 0 1 0 0 0 0 0.606667 0 0 0 0 0.0166667 0 0 0 1 0"/>
<feBlend mode="normal" in2="BackgroundImageFix" result="effect1_dropShadow_3683_4061"/>
<feBlend mode="normal" in="SourceGraphic" in2="effect1_dropShadow_3683_4061" result="shape"/>
<feColorMatrix in="SourceAlpha" type="matrix" values="0 0 0 0 0 0 0 0 0 0 0 0 0 0 0 0 0 0 127 0" result="hardAlpha"/>
<feOffset/>
<feGaussianBlur stdDeviation="1"/>
<feComposite in2="hardAlpha" operator="arithmetic" k2="-1" k3="1"/>
<feColorMatrix type="matrix" values="0 0 0 0 1 0 0 0 0 0.594833 0 0 0 0 0.220833 0 0 0 0.58 0"/>
<feBlend mode="normal" in2="shape" result="effect2_innerShadow_3683_4061"/>
</filter>
</defs>
</svg>
