<svg width="84" height="100" viewBox="0 0 84 100" fill="none" xmlns="http://www.w3.org/2000/svg">
<g opacity="0.8" filter="url(#filter0_f_6073_14445)">
<path d="M73.3183 85C73.3183 87.7609 59.3356 90 42.087 90C24.8384 90 10.8557 87.7609 10.8557 85C10.8557 82.2391 24.8384 80 42.087 80C59.3356 80 73.3183 82.2391 73.3183 85Z" fill="black"/>
</g>
<g filter="url(#filter1_i_6073_14445)">
<path d="M44.2283 1.69336C24.7237 1.69336 6.31197 17.0975 3.10338 36.0996C1.35076 46.4743 4.49282 55.7761 10.8816 62.0842L17.6686 68.7877C22.9809 74.0327 30.5389 77.2083 39.3936 77.2083C58.8982 77.2083 77.3111 61.8042 80.5197 42.8021C82.2723 32.4274 79.1291 23.1246 72.7403 16.8164L65.9545 10.114C60.641 4.86899 53.0841 1.69336 44.2283 1.69336Z" fill="url(#paint0_linear_6073_14445)"/>
</g>
<g filter="url(#filter2_i_6073_14445)">
<path d="M44.2283 1.69336C24.7237 1.69336 6.31197 17.0975 3.10338 36.0996C1.35076 46.4743 4.49282 55.7761 10.8816 62.0842L17.6686 68.7877C22.9809 74.0327 30.5389 77.2083 39.3936 77.2083C58.8982 77.2083 77.3111 61.8042 80.5197 42.8021C82.2723 32.4274 79.1291 23.1246 72.7403 16.8164L65.9545 10.114C60.641 4.86899 53.0841 1.69336 44.2283 1.69336Z" fill="url(#paint1_radial_6073_14445)"/>
</g>
<mask id="path-4-inside-1_6073_14445" fill="white">
<path fill-rule="evenodd" clip-rule="evenodd" d="M32.5979 70.0701C52.3397 70.0701 70.3245 54.3844 72.768 35.0351C75.2116 15.6857 61.1885 0 41.4467 0C21.7049 0 3.72005 15.6857 1.27651 35.0351C-1.16703 54.3844 12.856 70.0701 32.5979 70.0701ZM33.339 18.9474H25.2105L19.5722 51.0881H43.9006L45.3028 43.0952H37.2312L38.6433 35.0459H46.7148L48.1837 26.9967H52.2195L53.6316 18.9474H49.5958L48.1837 26.9967H44.0911L45.5032 18.9474H37.5453L36.8442 22.9439H40.7095L38.6433 35.0459H34.5506L33.1386 43.0952H29.1028L33.339 18.9474Z"/>
</mask>
<g filter="url(#filter3_iii_6073_14445)">
<path fill-rule="evenodd" clip-rule="evenodd" d="M32.5979 70.0701C52.3397 70.0701 70.3245 54.3844 72.768 35.0351C75.2116 15.6857 61.1885 0 41.4467 0C21.7049 0 3.72005 15.6857 1.27651 35.0351C-1.16703 54.3844 12.856 70.0701 32.5979 70.0701ZM33.339 18.9474H25.2105L19.5722 51.0881H43.9006L45.3028 43.0952H37.2312L38.6433 35.0459H46.7148L48.1837 26.9967H52.2195L53.6316 18.9474H49.5958L48.1837 26.9967H44.0911L45.5032 18.9474H37.5453L36.8442 22.9439H40.7095L38.6433 35.0459H34.5506L33.1386 43.0952H29.1028L33.339 18.9474Z" fill="url(#paint2_linear_6073_14445)"/>
</g>
<path d="M72.768 35.0351L72.1728 34.9599L72.768 35.0351ZM1.27651 35.0351L0.68124 34.9599L1.27651 35.0351ZM25.2105 18.9474V18.3474H24.7066L24.6196 18.8437L25.2105 18.9474ZM33.339 18.9474L33.9299 19.051L34.0534 18.3474H33.339V18.9474ZM19.5722 51.0881L18.9812 50.9845L18.8578 51.6881H19.5722V51.0881ZM43.9006 51.0881V51.6881H44.4045L44.4916 51.1918L43.9006 51.0881ZM45.3028 43.0952L45.8938 43.1989L46.0172 42.4952H45.3028V43.0952ZM37.2312 43.0952L36.6402 42.9915L36.5168 43.6952H37.2312V43.0952ZM46.7148 35.0459V35.6459H47.2153L47.3051 35.1536L46.7148 35.0459ZM52.2195 26.9967V27.5967H52.7234L52.8105 27.1003L52.2195 26.9967ZM53.6316 18.9474L54.2226 19.051L54.346 18.3474H53.6316V18.9474ZM49.5958 18.9474V18.3474H49.0919L49.0048 18.8437L49.5958 18.9474ZM44.0911 26.9967L43.5001 26.893L43.3767 27.5967H44.0911V26.9967ZM45.5032 18.9474L46.0942 19.051L46.2176 18.3474H45.5032V18.9474ZM37.5453 18.9474V18.3474H37.0414L36.9543 18.8437L37.5453 18.9474ZM36.8442 22.9439L36.2532 22.8402L36.1298 23.5439H36.8442V22.9439ZM40.7095 22.9439L41.3009 23.0449L41.4206 22.3439H40.7095V22.9439ZM34.5506 35.0459V34.4459H34.0467L33.9597 34.9422L34.5506 35.0459ZM33.1386 43.0952V43.6952H33.6425L33.7295 43.1989L33.1386 43.0952ZM29.1028 43.0952L28.5118 42.9915L28.3884 43.6952H29.1028V43.0952ZM72.1728 34.9599C69.7678 54.0037 52.0431 69.4701 32.5979 69.4701V70.6701C52.6363 70.6701 70.8812 54.7652 73.3633 35.1102L72.1728 34.9599ZM41.4467 0.6C60.8357 0.6 74.57 15.9772 72.1728 34.9599L73.3633 35.1102C75.8532 15.3943 61.5414 -0.6 41.4467 -0.6V0.6ZM1.87178 35.1102C4.27673 16.0665 22.0014 0.6 41.4467 0.6V-0.6C21.4083 -0.6 3.16337 15.305 0.68124 34.9599L1.87178 35.1102ZM32.5979 69.4701C13.2088 69.4701 -0.525457 54.093 1.87178 35.1102L0.68124 34.9599C-1.8086 54.6759 12.5032 70.6701 32.5979 70.6701V69.4701ZM25.2105 19.5474H33.339V18.3474H25.2105V19.5474ZM20.1632 51.1918L25.8015 19.051L24.6196 18.8437L18.9812 50.9845L20.1632 51.1918ZM43.9006 50.4881H19.5722V51.6881H43.9006V50.4881ZM44.7118 42.9915L43.3096 50.9845L44.4916 51.1918L45.8938 43.1989L44.7118 42.9915ZM37.2312 43.6952H45.3028V42.4952H37.2312V43.6952ZM38.0523 34.9422L36.6402 42.9915L37.8222 43.1989L39.2342 35.1496L38.0523 34.9422ZM46.7148 34.4459H38.6433V35.6459H46.7148V34.4459ZM47.5935 26.889L46.1246 34.9382L47.3051 35.1536L48.774 27.1044L47.5935 26.889ZM52.2195 26.3967H48.1837V27.5967H52.2195V26.3967ZM53.0406 18.8437L51.6286 26.893L52.8105 27.1003L54.2226 19.051L53.0406 18.8437ZM49.5958 19.5474H53.6316V18.3474H49.5958V19.5474ZM48.7747 27.1003L50.1868 19.051L49.0048 18.8437L47.5928 26.893L48.7747 27.1003ZM44.0911 27.5967H48.1837V26.3967H44.0911V27.5967ZM44.9122 18.8437L43.5001 26.893L44.6821 27.1003L46.0942 19.051L44.9122 18.8437ZM37.5453 19.5474H45.5032V18.3474H37.5453V19.5474ZM37.4352 23.0476L38.1363 19.051L36.9543 18.8437L36.2532 22.8402L37.4352 23.0476ZM40.7095 22.3439H36.8442V23.5439H40.7095V22.3439ZM39.2347 35.1469L41.3009 23.0449L40.118 22.8429L38.0518 34.9449L39.2347 35.1469ZM34.5506 35.6459H38.6433V34.4459H34.5506V35.6459ZM33.7295 43.1989L35.1416 35.1496L33.9597 34.9422L32.5476 42.9915L33.7295 43.1989ZM29.1028 43.6952H33.1386V42.4952H29.1028V43.6952ZM32.748 18.8437L28.5118 42.9915L29.6938 43.1989L33.9299 19.051L32.748 18.8437Z" fill="white" fill-opacity="0.2" mask="url(#path-4-inside-1_6073_14445)"/>
<defs>
<filter id="filter0_f_6073_14445" x="0.855713" y="70" width="82.4625" height="30" filterUnits="userSpaceOnUse" color-interpolation-filters="sRGB">
<feFlood flood-opacity="0" result="BackgroundImageFix"/>
<feBlend mode="normal" in="SourceGraphic" in2="BackgroundImageFix" result="shape"/>
<feGaussianBlur stdDeviation="5" result="effect1_foregroundBlur_6073_14445"/>
</filter>
<filter id="filter1_i_6073_14445" x="2.6228" y="-10.3066" width="78.3773" height="87.5146" filterUnits="userSpaceOnUse" color-interpolation-filters="sRGB">
<feFlood flood-opacity="0" result="BackgroundImageFix"/>
<feBlend mode="normal" in="SourceGraphic" in2="BackgroundImageFix" result="shape"/>
<feColorMatrix in="SourceAlpha" type="matrix" values="0 0 0 0 0 0 0 0 0 0 0 0 0 0 0 0 0 0 127 0" result="hardAlpha"/>
<feOffset dy="-12"/>
<feGaussianBlur stdDeviation="14"/>
<feComposite in2="hardAlpha" operator="arithmetic" k2="-1" k3="1"/>
<feColorMatrix type="matrix" values="0 0 0 0 0.908698 0 0 0 0 0.995833 0 0 0 0 0.990605 0 0 0 0.25 0"/>
<feBlend mode="normal" in2="shape" result="effect1_innerShadow_6073_14445"/>
</filter>
<filter id="filter2_i_6073_14445" x="2.6228" y="-10.3066" width="78.3773" height="87.5146" filterUnits="userSpaceOnUse" color-interpolation-filters="sRGB">
<feFlood flood-opacity="0" result="BackgroundImageFix"/>
<feBlend mode="normal" in="SourceGraphic" in2="BackgroundImageFix" result="shape"/>
<feColorMatrix in="SourceAlpha" type="matrix" values="0 0 0 0 0 0 0 0 0 0 0 0 0 0 0 0 0 0 127 0" result="hardAlpha"/>
<feOffset dy="-12"/>
<feGaussianBlur stdDeviation="14"/>
<feComposite in2="hardAlpha" operator="arithmetic" k2="-1" k3="1"/>
<feColorMatrix type="matrix" values="0 0 0 0 0.908698 0 0 0 0 0.995833 0 0 0 0 0.990605 0 0 0 0.25 0"/>
<feBlend mode="normal" in2="shape" result="effect1_innerShadow_6073_14445"/>
</filter>
<filter id="filter3_iii_6073_14445" x="1" y="-10" width="72.0446" height="80.0703" filterUnits="userSpaceOnUse" color-interpolation-filters="sRGB">
<feFlood flood-opacity="0" result="BackgroundImageFix"/>
<feBlend mode="normal" in="SourceGraphic" in2="BackgroundImageFix" result="shape"/>
<feColorMatrix in="SourceAlpha" type="matrix" values="0 0 0 0 0 0 0 0 0 0 0 0 0 0 0 0 0 0 127 0" result="hardAlpha"/>
<feOffset dy="-4"/>
<feGaussianBlur stdDeviation="5"/>
<feComposite in2="hardAlpha" operator="arithmetic" k2="-1" k3="1"/>
<feColorMatrix type="matrix" values="0 0 0 0 1 0 0 0 0 1 0 0 0 0 1 0 0 0 0.5 0"/>
<feBlend mode="normal" in2="shape" result="effect1_innerShadow_6073_14445"/>
<feColorMatrix in="SourceAlpha" type="matrix" values="0 0 0 0 0 0 0 0 0 0 0 0 0 0 0 0 0 0 127 0" result="hardAlpha"/>
<feOffset dy="-2"/>
<feGaussianBlur stdDeviation="4"/>
<feComposite in2="hardAlpha" operator="arithmetic" k2="-1" k3="1"/>
<feColorMatrix type="matrix" values="0 0 0 0 1 0 0 0 0 1 0 0 0 0 1 0 0 0 0.5 0"/>
<feBlend mode="normal" in2="effect1_innerShadow_6073_14445" result="effect2_innerShadow_6073_14445"/>
<feColorMatrix in="SourceAlpha" type="matrix" values="0 0 0 0 0 0 0 0 0 0 0 0 0 0 0 0 0 0 127 0" result="hardAlpha"/>
<feOffset dy="-10"/>
<feGaussianBlur stdDeviation="26"/>
<feComposite in2="hardAlpha" operator="arithmetic" k2="-1" k3="1"/>
<feColorMatrix type="matrix" values="0 0 0 0 1 0 0 0 0 1 0 0 0 0 1 0 0 0 0.25 0"/>
<feBlend mode="normal" in2="effect2_innerShadow_6073_14445" result="effect3_innerShadow_6073_14445"/>
</filter>
<linearGradient id="paint0_linear_6073_14445" x1="77.6585" y1="1.69336" x2="6.57205" y2="1.69336" gradientUnits="userSpaceOnUse">
<stop stop-color="#0E0BB5"/>
<stop offset="0.171875" stop-color="#442AEE"/>
<stop offset="0.416052" stop-color="#1A0C6D"/>
<stop offset="0.65625" stop-color="#083D8D"/>
<stop offset="1" stop-color="#294197"/>
</linearGradient>
<radialGradient id="paint1_radial_6073_14445" cx="0" cy="0" r="1" gradientUnits="userSpaceOnUse" gradientTransform="translate(40.0166 38.9264) rotate(28.6758) scale(42.6213 77.8746)">
<stop stop-color="#1A0C6D"/>
<stop offset="0.34375" stop-color="#07174F"/>
<stop offset="1" stop-color="#4575F0" stop-opacity="0"/>
</radialGradient>
<linearGradient id="paint2_linear_6073_14445" x1="21.3682" y1="24.3485" x2="51.5506" y2="43.5567" gradientUnits="userSpaceOnUse">
<stop stop-color="white"/>
<stop offset="0.71875" stop-color="#5F4BDB"/>
<stop offset="1" stop-color="#4931DC"/>
</linearGradient>
</defs>
</svg>
