<svg width="84" height="100" viewBox="0 0 84 100" fill="none" xmlns="http://www.w3.org/2000/svg">
<g opacity="0.8" filter="url(#filter0_f_6073_14273)">
<path d="M73.318 85C73.318 87.7609 59.3353 90 42.0868 90C24.8382 90 10.8555 87.7609 10.8555 85C10.8555 82.2391 24.8382 80 42.0868 80C59.3353 80 73.318 82.2391 73.318 85Z" fill="black"/>
</g>
<g filter="url(#filter1_i_6073_14273)">
<path d="M44.2281 1.69336C24.7235 1.69336 6.31173 17.0975 3.10314 36.0996C1.35052 46.4743 4.49258 55.7761 10.8814 62.0842L17.6683 68.7877C22.9807 74.0327 30.5387 77.2083 39.3934 77.2083C58.898 77.2083 77.3108 61.8042 80.5194 42.8021C82.272 32.4274 79.1289 23.1246 72.7401 16.8164L65.9542 10.114C60.6408 4.86899 53.0839 1.69336 44.2281 1.69336Z" fill="url(#paint0_linear_6073_14273)"/>
</g>
<g filter="url(#filter2_i_6073_14273)">
<path d="M44.2281 1.69336C24.7235 1.69336 6.31173 17.0975 3.10314 36.0996C1.35052 46.4743 4.49258 55.7761 10.8814 62.0842L17.6683 68.7877C22.9807 74.0327 30.5387 77.2083 39.3934 77.2083C58.898 77.2083 77.3108 61.8042 80.5194 42.8021C82.272 32.4274 79.1289 23.1246 72.7401 16.8164L65.9542 10.114C60.6408 4.86899 53.0839 1.69336 44.2281 1.69336Z" fill="url(#paint1_radial_6073_14273)"/>
</g>
<mask id="path-4-inside-1_6073_14273" fill="white">
<path fill-rule="evenodd" clip-rule="evenodd" d="M32.5979 70.0701C52.3397 70.0701 70.3245 54.3844 72.768 35.0351C75.2116 15.6857 61.1885 0 41.4467 0C21.7049 0 3.72005 15.6857 1.27651 35.0351C-1.16703 54.3844 12.856 70.0701 32.5979 70.0701ZM42.694 27.0811C42.3129 27.0081 41.916 26.9674 41.5021 26.9674C41.0879 26.9674 40.6774 27.0076 40.2722 27.0811L41.9727 16.8868H44.3944L42.694 27.0811ZM29.4947 17.9782L37.6934 28.0666C36.9195 28.5334 36.2209 29.1294 35.6358 29.8219L27.1355 19.9914L29.4947 17.9782ZM22.4273 23.6819L35.6078 29.8572H35.6068H35.6058C35.0264 30.5511 34.573 31.3281 34.2708 32.145L20.7749 26.5148L22.4273 23.6819ZM53.1163 29.4213L46.9891 31.9037C46.9402 31.2554 46.7856 30.6355 46.5319 30.0661L52.7122 27.8029L53.1163 29.4213ZM49.3176 20.2203L44.844 27.9955H44.8431C44.2688 27.5827 43.5997 27.2807 42.8544 27.114L47.4237 19.3824L49.3176 20.2203ZM52.1147 24.6478L46.3409 29.6851L46.34 29.6841C46.0176 29.0963 45.5849 28.5814 45.064 28.1618L50.9458 23.2538L52.1147 24.6478ZM37.452 15.7895L40.1861 27.0953C39.341 27.2601 38.5095 27.5809 37.7378 28.0402L34.8439 16.7946L37.452 15.7895ZM38.1547 39.7755C38.5354 39.8491 38.9325 39.8893 39.3461 39.8893H39.3466C39.7603 39.8893 40.1713 39.8491 40.576 39.7755L38.8712 49.9959H36.4499L38.1547 39.7755ZM40.7483 39.7426L40.7481 39.7417L40.7479 39.7427C40.748 39.7427 40.7482 39.7426 40.7483 39.7426ZM40.7483 39.7426L42.7429 47.4939L44.9168 46.6564L43.0316 38.8611C42.3086 39.2806 41.5351 39.5792 40.7483 39.7426ZM43.3073 38.6941L43.3072 38.6939L43.306 38.6949C43.3065 38.6946 43.3069 38.6944 43.3073 38.6941ZM43.3073 38.6941L47.5601 43.6131L49.1937 42.2187L45.0916 37.1715C44.572 37.7604 43.9689 38.275 43.3073 38.6941ZM18.457 40.3458L33.8447 34.7117L33.8441 34.7122L33.8449 34.7132C33.8743 35.5298 34.0683 36.3065 34.4163 36.9999L19.1648 43.1787L18.457 40.3458ZM29.2799 50.0861L35.9405 38.815C36.559 39.2744 37.2833 39.5954 38.0736 39.7603L31.5527 51.0912L29.2799 50.0861ZM34.433 37.0344L34.4332 37.0343L34.4324 37.0333C34.4326 37.0337 34.4328 37.0341 34.433 37.0344ZM22.6345 46.8805L34.433 37.0344C34.7869 37.7265 35.2863 38.322 35.904 38.7886L24.3217 48.8932L22.6345 46.8805ZM17.7852 35.0623L52.666 34.1993L52.9218 32.6662L18.3342 31.7772L17.7852 35.0623Z"/>
</mask>
<g filter="url(#filter3_iii_6073_14273)">
<path fill-rule="evenodd" clip-rule="evenodd" d="M32.5979 70.0701C52.3397 70.0701 70.3245 54.3844 72.768 35.0351C75.2116 15.6857 61.1885 0 41.4467 0C21.7049 0 3.72005 15.6857 1.27651 35.0351C-1.16703 54.3844 12.856 70.0701 32.5979 70.0701ZM42.694 27.0811C42.3129 27.0081 41.916 26.9674 41.5021 26.9674C41.0879 26.9674 40.6774 27.0076 40.2722 27.0811L41.9727 16.8868H44.3944L42.694 27.0811ZM29.4947 17.9782L37.6934 28.0666C36.9195 28.5334 36.2209 29.1294 35.6358 29.8219L27.1355 19.9914L29.4947 17.9782ZM22.4273 23.6819L35.6078 29.8572H35.6068H35.6058C35.0264 30.5511 34.573 31.3281 34.2708 32.145L20.7749 26.5148L22.4273 23.6819ZM53.1163 29.4213L46.9891 31.9037C46.9402 31.2554 46.7856 30.6355 46.5319 30.0661L52.7122 27.8029L53.1163 29.4213ZM49.3176 20.2203L44.844 27.9955H44.8431C44.2688 27.5827 43.5997 27.2807 42.8544 27.114L47.4237 19.3824L49.3176 20.2203ZM52.1147 24.6478L46.3409 29.6851L46.34 29.6841C46.0176 29.0963 45.5849 28.5814 45.064 28.1618L50.9458 23.2538L52.1147 24.6478ZM37.452 15.7895L40.1861 27.0953C39.341 27.2601 38.5095 27.5809 37.7378 28.0402L34.8439 16.7946L37.452 15.7895ZM38.1547 39.7755C38.5354 39.8491 38.9325 39.8893 39.3461 39.8893H39.3466C39.7603 39.8893 40.1713 39.8491 40.576 39.7755L38.8712 49.9959H36.4499L38.1547 39.7755ZM40.7483 39.7426L40.7481 39.7417L40.7479 39.7427C40.748 39.7427 40.7482 39.7426 40.7483 39.7426ZM40.7483 39.7426L42.7429 47.4939L44.9168 46.6564L43.0316 38.8611C42.3086 39.2806 41.5351 39.5792 40.7483 39.7426ZM43.3073 38.6941L43.3072 38.6939L43.306 38.6949C43.3065 38.6946 43.3069 38.6944 43.3073 38.6941ZM43.3073 38.6941L47.5601 43.6131L49.1937 42.2187L45.0916 37.1715C44.572 37.7604 43.9689 38.275 43.3073 38.6941ZM18.457 40.3458L33.8447 34.7117L33.8441 34.7122L33.8449 34.7132C33.8743 35.5298 34.0683 36.3065 34.4163 36.9999L19.1648 43.1787L18.457 40.3458ZM29.2799 50.0861L35.9405 38.815C36.559 39.2744 37.2833 39.5954 38.0736 39.7603L31.5527 51.0912L29.2799 50.0861ZM34.433 37.0344L34.4332 37.0343L34.4324 37.0333C34.4326 37.0337 34.4328 37.0341 34.433 37.0344ZM22.6345 46.8805L34.433 37.0344C34.7869 37.7265 35.2863 38.322 35.904 38.7886L24.3217 48.8932L22.6345 46.8805ZM17.7852 35.0623L52.666 34.1993L52.9218 32.6662L18.3342 31.7772L17.7852 35.0623Z" fill="url(#paint2_linear_6073_14273)"/>
</g>
<path d="M72.768 35.0351L72.1728 34.9599L72.768 35.0351ZM1.27651 35.0351L0.68124 34.9599L1.27651 35.0351ZM41.5021 26.9674L41.5021 26.3674H41.5021V26.9674ZM42.694 27.0811L42.5811 27.6704L43.1847 27.7861L43.2858 27.1798L42.694 27.0811ZM40.2722 27.0811L39.6804 26.9824L39.54 27.8238L40.3794 27.6715L40.2722 27.0811ZM41.9727 16.8868V16.2868H41.4645L41.3809 16.788L41.9727 16.8868ZM44.3944 16.8868L44.9863 16.9855L45.1028 16.2868H44.3944V16.8868ZM37.6934 28.0666L38.0033 28.5804L38.5944 28.2239L38.1591 27.6882L37.6934 28.0666ZM29.4947 17.9782L29.9603 17.5998L29.5727 17.1228L29.1052 17.5218L29.4947 17.9782ZM35.6358 29.8219L35.1819 30.2144L35.6411 30.7454L36.0941 30.2091L35.6358 29.8219ZM27.1355 19.9914L26.746 19.5349L26.2866 19.927L26.6816 20.3838L27.1355 19.9914ZM35.6078 29.8572V30.4572L35.8623 29.3139L35.6078 29.8572ZM22.4273 23.6819L22.6819 23.1385L22.1853 22.9059L21.9091 23.3796L22.4273 23.6819ZM35.6058 29.8572V29.2572H35.3251L35.1452 29.4727L35.6058 29.8572ZM34.2708 32.145L34.0398 32.6987L34.6167 32.9394L34.8336 32.3531L34.2708 32.145ZM20.7749 26.5148L20.2567 26.2125L19.9113 26.8046L20.5439 27.0686L20.7749 26.5148ZM46.9891 31.9037L46.3908 31.9489L46.4526 32.7685L47.2144 32.4598L46.9891 31.9037ZM53.1163 29.4213L53.3416 29.9774L53.8248 29.7817L53.6985 29.276L53.1163 29.4213ZM46.5319 30.0661L46.3256 29.5027L45.7224 29.7236L45.9839 30.3103L46.5319 30.0661ZM52.7122 27.8029L53.2943 27.6575L53.1326 27.0099L52.5059 27.2394L52.7122 27.8029ZM44.844 27.9955V28.5955H45.191L45.3641 28.2948L44.844 27.9955ZM49.3176 20.2203L49.8377 20.5196L50.1703 19.9415L49.5604 19.6716L49.3176 20.2203ZM44.8431 27.9955L44.4928 28.4827L44.6498 28.5955H44.8431V27.9955ZM42.8544 27.114L42.3379 26.8087L41.9179 27.5193L42.7235 27.6995L42.8544 27.114ZM47.4237 19.3824L47.6664 18.8337L47.1786 18.6179L46.9071 19.0771L47.4237 19.3824ZM46.3409 29.6851L45.8807 30.0701L46.2737 30.5399L46.7353 30.1372L46.3409 29.6851ZM52.1147 24.6478L52.5092 25.0999L52.9526 24.7131L52.5745 24.2622L52.1147 24.6478ZM46.34 29.6841L45.814 29.9727L45.8422 30.0241L45.8798 30.0691L46.34 29.6841ZM45.064 28.1618L44.6796 27.7011L44.1178 28.1699L44.6876 28.629L45.064 28.1618ZM50.9458 23.2538L51.4055 22.8683L51.021 22.4097L50.5614 22.7931L50.9458 23.2538ZM40.1861 27.0953L40.3009 27.6843L40.9168 27.5642L40.7693 26.9543L40.1861 27.0953ZM37.452 15.7895L38.0352 15.6484L37.8745 14.9837L37.2363 15.2296L37.452 15.7895ZM37.7378 28.0402L37.1567 28.1897L37.3563 28.9653L38.0446 28.5558L37.7378 28.0402ZM34.8439 16.7946L34.6281 16.2347L34.1297 16.4268L34.2628 16.9441L34.8439 16.7946ZM38.1547 39.7755L38.2685 39.1864L37.6642 39.0697L37.5629 39.6768L38.1547 39.7755ZM40.576 39.7755L41.1678 39.8743L41.3082 39.0327L40.4687 39.1852L40.576 39.7755ZM38.8712 49.9959V50.5959H39.3794L39.463 50.0946L38.8712 49.9959ZM36.4499 49.9959L35.8581 49.8972L35.7416 50.5959H36.4499V49.9959ZM40.7481 39.7417L41.3288 39.591L40.1563 39.6427L40.7481 39.7417ZM40.7479 39.7427L40.1561 39.6437L40.0126 40.5016L40.8656 40.331L40.7479 39.7427ZM42.7429 47.4939L42.1619 47.6434L42.3298 48.296L42.9586 48.0538L42.7429 47.4939ZM44.9168 46.6564L45.1325 47.2163L45.6238 47.0271L45.5 46.5154L44.9168 46.6564ZM43.0316 38.8611L43.6148 38.7201L43.4258 37.9387L42.7305 38.3421L43.0316 38.8611ZM43.3072 38.6939L43.762 38.3026L43.3721 37.8495L42.9176 38.2376L43.3072 38.6939ZM43.306 38.6949L42.9164 38.2386L43.6252 39.2029L43.306 38.6949ZM47.5601 43.6131L47.1062 44.0055L47.4962 44.4566L47.9497 44.0695L47.5601 43.6131ZM49.1937 42.2187L49.5832 42.6751L50.0287 42.2948L49.6593 41.8403L49.1937 42.2187ZM45.0916 37.1715L45.5572 36.7931L45.1104 36.2434L44.6417 36.7745L45.0916 37.1715ZM33.8447 34.7117L34.2359 35.1666L33.6384 34.1483L33.8447 34.7117ZM18.457 40.3458L18.2508 39.7823L17.7442 39.9678L17.8749 40.4912L18.457 40.3458ZM33.8441 34.7122L33.4529 34.2573L33.0041 34.6432L33.3839 35.0972L33.8441 34.7122ZM33.8449 34.7132L34.4445 34.6916L34.4371 34.486L34.3051 34.3282L33.8449 34.7132ZM34.4163 36.9999L34.6416 37.556L35.2442 37.3119L34.9526 36.7308L34.4163 36.9999ZM19.1648 43.1787L18.5827 43.3242L18.7501 43.9941L19.3901 43.7348L19.1648 43.1787ZM35.9405 38.815L36.2982 38.3333L35.763 37.9359L35.4239 38.5098L35.9405 38.815ZM29.2799 50.0861L28.7634 49.7808L28.42 50.3619L29.0372 50.6348L29.2799 50.0861ZM38.0736 39.7603L38.5936 40.0596L39.0065 39.3421L38.1961 39.173L38.0736 39.7603ZM31.5527 51.0912L31.31 51.6399L31.8036 51.8582L32.0728 51.3905L31.5527 51.0912ZM34.4332 37.0343L34.8212 37.492L35.277 37.1057L34.8926 36.6482L34.4332 37.0343ZM34.4324 37.0333L34.8917 36.6472L33.8979 37.3058L34.4324 37.0333ZM22.6345 46.8805L22.2501 46.4198L21.7884 46.8051L22.1747 47.2659L22.6345 46.8805ZM35.904 38.7886L36.2984 39.2407L36.8551 38.755L36.2656 38.3098L35.904 38.7886ZM24.3217 48.8932L23.8619 49.2786L24.255 49.7476L24.7161 49.3453L24.3217 48.8932ZM52.666 34.1993L52.6809 34.7991L53.1763 34.7869L53.2578 34.298L52.666 34.1993ZM17.7852 35.0623L17.1934 34.9634L17.0737 35.68L17.8001 35.6621L17.7852 35.0623ZM52.9218 32.6662L53.5136 32.7649L53.6271 32.0841L52.9372 32.0664L52.9218 32.6662ZM18.3342 31.7772L18.3496 31.1774L17.8283 31.164L17.7424 31.6783L18.3342 31.7772ZM72.1728 34.9599C69.7678 54.0037 52.0431 69.4701 32.5979 69.4701V70.6701C52.6363 70.6701 70.8812 54.7652 73.3633 35.1102L72.1728 34.9599ZM41.4467 0.6C60.8357 0.6 74.57 15.9772 72.1728 34.9599L73.3633 35.1102C75.8532 15.3943 61.5414 -0.6 41.4467 -0.6V0.6ZM1.87178 35.1102C4.27673 16.0665 22.0014 0.6 41.4467 0.6V-0.6C21.4083 -0.6 3.16337 15.305 0.68124 34.9599L1.87178 35.1102ZM32.5979 69.4701C13.2088 69.4701 -0.525457 54.093 1.87178 35.1102L0.68124 34.9599C-1.8086 54.6759 12.5032 70.6701 32.5979 70.6701V69.4701ZM41.502 27.5674C41.8764 27.5674 42.2354 27.6042 42.5811 27.6704L42.8069 26.4918C42.3903 26.412 41.9557 26.3674 41.5021 26.3674L41.502 27.5674ZM40.3794 27.6715C40.7523 27.6038 41.1269 27.5674 41.5021 27.5674V26.3674C41.049 26.3674 40.6026 26.4114 40.1651 26.4908L40.3794 27.6715ZM41.3809 16.788L39.6804 26.9824L40.864 27.1798L42.5645 16.9855L41.3809 16.788ZM44.3944 16.2868H41.9727V17.4868H44.3944V16.2868ZM43.2858 27.1798L44.9863 16.9855L43.8026 16.788L42.1021 26.9824L43.2858 27.1798ZM38.1591 27.6882L29.9603 17.5998L29.0291 18.3566L37.2278 28.445L38.1591 27.6882ZM36.0941 30.2091C36.6371 29.5664 37.2856 29.0133 38.0033 28.5804L37.3836 27.5528C36.5534 28.0535 35.8047 28.6923 35.1775 29.4347L36.0941 30.2091ZM26.6816 20.3838L35.1819 30.2144L36.0897 29.4295L27.5894 19.5989L26.6816 20.3838ZM29.1052 17.5218L26.746 19.5349L27.525 20.4478L29.8842 18.4346L29.1052 17.5218ZM35.8623 29.3139L22.6819 23.1385L22.1728 24.2252L35.3532 30.4005L35.8623 29.3139ZM35.6068 30.4572H35.6078V29.2572H35.6068V30.4572ZM35.6058 30.4572H35.6068V29.2572H35.6058V30.4572ZM34.8336 32.3531C35.1111 31.6029 35.5292 30.8851 36.0663 30.2418L35.1452 29.4727C34.5237 30.2171 34.0349 31.0533 33.7081 31.9368L34.8336 32.3531ZM20.5439 27.0686L34.0398 32.6987L34.5018 31.5912L21.0059 25.9611L20.5439 27.0686ZM21.9091 23.3796L20.2567 26.2125L21.2932 26.8171L22.9456 23.9842L21.9091 23.3796ZM47.2144 32.4598L53.3416 29.9774L52.891 28.8652L46.7638 31.3476L47.2144 32.4598ZM45.9839 30.3103C46.2085 30.8143 46.3469 31.3666 46.3908 31.9489L47.5874 31.8586C47.5335 31.1442 47.3628 30.4566 47.0799 29.8218L45.9839 30.3103ZM52.5059 27.2394L46.3256 29.5027L46.7382 30.6295L52.9185 28.3663L52.5059 27.2394ZM53.6985 29.276L53.2943 27.6575L52.1301 27.9482L52.5342 29.5667L53.6985 29.276ZM45.3641 28.2948L49.8377 20.5196L48.7976 19.9211L44.324 27.6963L45.3641 28.2948ZM44.8431 28.5955H44.844V27.3955H44.8431V28.5955ZM42.7235 27.6995C43.392 27.849 43.9861 28.1184 44.4928 28.4827L45.1933 27.5084C44.5516 27.047 43.8075 26.7123 42.9854 26.5284L42.7235 27.6995ZM46.9071 19.0771L42.3379 26.8087L43.371 27.4192L47.9402 19.6877L46.9071 19.0771ZM49.5604 19.6716L47.6664 18.8337L47.1809 19.9311L49.0749 20.769L49.5604 19.6716ZM46.7353 30.1372L52.5092 25.0999L51.7203 24.1956L45.9464 29.233L46.7353 30.1372ZM45.8798 30.0691L45.8807 30.0701L46.8011 29.3001L46.8002 29.2991L45.8798 30.0691ZM44.6876 28.629C45.1479 28.9999 45.5295 29.4541 45.814 29.9727L46.8661 29.3956C46.5056 28.7384 46.0219 28.163 45.4404 27.6945L44.6876 28.629ZM50.5614 22.7931L44.6796 27.7011L45.4484 28.6224L51.3302 23.7145L50.5614 22.7931ZM52.5745 24.2622L51.4055 22.8683L50.4861 23.6394L51.655 25.0333L52.5745 24.2622ZM40.7693 26.9543L38.0352 15.6484L36.8688 15.9305L39.6029 27.2364L40.7693 26.9543ZM38.0446 28.5558C38.7596 28.1303 39.5264 27.8352 40.3009 27.6843L40.0713 26.5064C39.1555 26.6849 38.2595 27.0316 37.4309 27.5245L38.0446 28.5558ZM34.2628 16.9441L37.1567 28.1897L38.3188 27.8906L35.425 16.6451L34.2628 16.9441ZM37.2363 15.2296L34.6281 16.2347L35.0597 17.3545L37.6678 16.3493L37.2363 15.2296ZM39.3461 39.2893C38.9717 39.2893 38.6127 39.2529 38.2685 39.1864L38.0409 40.3646C38.4582 40.4452 38.8933 40.4893 39.3461 40.4893V39.2893ZM39.3466 39.2893H39.3461V40.4893H39.3466V39.2893ZM40.4687 39.1852C40.0964 39.2529 39.7214 39.2893 39.3466 39.2893V40.4893C39.7992 40.4893 40.2461 40.4453 40.6833 40.3659L40.4687 39.1852ZM39.463 50.0946L41.1678 39.8743L39.9842 39.6768L38.2794 49.8972L39.463 50.0946ZM36.4499 50.5959H38.8712V49.3959H36.4499V50.5959ZM37.5629 39.6768L35.8581 49.8972L37.0418 50.0946L38.7466 39.8742L37.5629 39.6768ZM40.1673 39.8924L40.1676 39.8933L41.3291 39.5918L41.3288 39.591L40.1673 39.8924ZM41.3397 39.8417L41.3399 39.8407L40.1563 39.6427L40.1561 39.6437L41.3397 39.8417ZM40.6306 39.1542C40.6274 39.1549 40.6248 39.1554 40.6232 39.1558C40.6224 39.156 40.6217 39.1561 40.6213 39.1562C40.6211 39.1562 40.6209 39.1563 40.6208 39.1563C40.6208 39.1563 40.6207 39.1563 40.6207 39.1563C40.6207 39.1563 40.6207 39.1563 40.6207 39.1563C40.6198 39.1565 40.6246 39.1555 40.6302 39.1543L40.8656 40.331C40.8688 40.3304 40.8714 40.3298 40.873 40.3295C40.8738 40.3293 40.8745 40.3292 40.8749 40.3291C40.8751 40.329 40.8753 40.329 40.8754 40.329C40.8754 40.329 40.8755 40.329 40.8755 40.329C40.8755 40.3289 40.8756 40.3289 40.8756 40.3289C40.8764 40.3288 40.8716 40.3298 40.866 40.3309L40.6306 39.1542ZM40.1672 39.8921L42.1619 47.6434L43.324 47.3443L41.3294 39.5931L40.1672 39.8921ZM42.9586 48.0538L45.1325 47.2163L44.7011 46.0965L42.5272 46.934L42.9586 48.0538ZM45.5 46.5154L43.6148 38.7201L42.4484 39.0022L44.3336 46.7975L45.5 46.5154ZM42.7305 38.3421C42.0609 38.7306 41.3476 39.0053 40.6263 39.1551L40.8703 40.3301C41.7226 40.153 42.5563 39.8305 43.3327 39.3801L42.7305 38.3421ZM42.8524 39.0853L42.8525 39.0854L43.7621 38.3027L43.762 38.3026L42.8524 39.0853ZM43.6956 39.1512L43.6968 39.1502L42.9176 38.2376L42.9164 38.2386L43.6956 39.1512ZM42.9881 38.186C42.9872 38.1867 42.9864 38.1872 42.9858 38.1875C42.9853 38.1878 42.9849 38.1881 42.9848 38.1881C42.9844 38.1884 42.9855 38.1877 42.9868 38.1869L43.6252 39.2029C43.6262 39.2023 43.627 39.2018 43.6275 39.2015C43.628 39.2012 43.6285 39.2009 43.6285 39.2009C43.6289 39.2006 43.6279 39.2013 43.6265 39.2021L42.9881 38.186ZM42.8534 39.0865L47.1062 44.0055L48.014 43.2207L43.7612 38.3017L42.8534 39.0865ZM47.9497 44.0695L49.5832 42.6751L48.8041 41.7624L47.1706 43.1568L47.9497 44.0695ZM49.6593 41.8403L45.5572 36.7931L44.626 37.55L48.7281 42.5971L49.6593 41.8403ZM44.6417 36.7745C44.1595 37.321 43.5998 37.7985 42.9862 38.1872L43.6284 39.2009C44.3381 38.7514 44.9844 38.1998 45.5415 37.5685L44.6417 36.7745ZM33.6384 34.1483L18.2508 39.7823L18.6633 40.9092L34.051 35.2751L33.6384 34.1483ZM34.2353 35.1671L34.2359 35.1666L33.4534 34.2568L33.4529 34.2573L34.2353 35.1671ZM34.3051 34.3282L34.3043 34.3272L33.3839 35.0972L33.3847 35.0982L34.3051 34.3282ZM34.9526 36.7308C34.6453 36.1185 34.4709 35.4268 34.4445 34.6916L33.2453 34.7347C33.2776 35.6327 33.4914 36.4945 33.88 37.269L34.9526 36.7308ZM19.3901 43.7348L34.6416 37.556L34.191 36.4438L18.9396 42.6226L19.3901 43.7348ZM17.8749 40.4912L18.5827 43.3242L19.747 43.0333L19.0392 40.2003L17.8749 40.4912ZM35.4239 38.5098L28.7634 49.7808L29.7965 50.3913L36.457 39.1203L35.4239 38.5098ZM38.1961 39.173C37.4869 39.025 36.8436 38.7384 36.2982 38.3333L35.5827 39.2967C36.2744 39.8104 37.0798 40.1658 37.951 40.3477L38.1961 39.173ZM32.0728 51.3905L38.5936 40.0596L37.5535 39.4611L31.0327 50.7919L32.0728 51.3905ZM29.0372 50.6348L31.31 51.6399L31.7954 50.5425L29.5226 49.5373L29.0372 50.6348ZM34.0453 36.5765L34.0451 36.5767L34.8209 37.4922L34.8212 37.492L34.0453 36.5765ZM33.9731 37.4193L33.9739 37.4203L34.8926 36.6482L34.8917 36.6472L33.9731 37.4193ZM34.9676 36.7619C34.9672 36.7611 34.9668 36.7604 34.9667 36.7603C34.9666 36.76 34.9668 36.7604 34.967 36.7608L33.8979 37.3058C33.8983 37.3066 33.8986 37.3073 33.8987 37.3074C33.8988 37.3077 33.8987 37.3074 33.8985 37.307L34.9676 36.7619ZM34.0486 36.5738L22.2501 46.4198L23.019 47.3412L34.8174 37.4951L34.0486 36.5738ZM36.2656 38.3098C35.7205 37.8981 35.28 37.373 34.9672 36.7613L33.8988 37.3076C34.2937 38.08 34.852 38.746 35.5424 39.2673L36.2656 38.3098ZM24.7161 49.3453L36.2984 39.2407L35.5096 38.3364L23.9272 48.4411L24.7161 49.3453ZM22.1747 47.2659L23.8619 49.2786L24.7815 48.5077L23.0943 46.495L22.1747 47.2659ZM52.6512 33.5995L17.7704 34.4624L17.8001 35.6621L52.6809 34.7991L52.6512 33.5995ZM52.3299 32.5674L52.0742 34.1006L53.2578 34.298L53.5136 32.7649L52.3299 32.5674ZM18.3188 32.377L52.9063 33.266L52.9372 32.0664L18.3496 31.1774L18.3188 32.377ZM18.377 35.1612L18.926 31.8761L17.7424 31.6783L17.1934 34.9634L18.377 35.1612Z" fill="white" fill-opacity="0.2" mask="url(#path-4-inside-1_6073_14273)"/>
<defs>
<filter id="filter0_f_6073_14273" x="0.855469" y="70" width="82.4624" height="30" filterUnits="userSpaceOnUse" color-interpolation-filters="sRGB">
<feFlood flood-opacity="0" result="BackgroundImageFix"/>
<feBlend mode="normal" in="SourceGraphic" in2="BackgroundImageFix" result="shape"/>
<feGaussianBlur stdDeviation="5" result="effect1_foregroundBlur_6073_14273"/>
</filter>
<filter id="filter1_i_6073_14273" x="2.62256" y="-10.3066" width="78.3774" height="87.5146" filterUnits="userSpaceOnUse" color-interpolation-filters="sRGB">
<feFlood flood-opacity="0" result="BackgroundImageFix"/>
<feBlend mode="normal" in="SourceGraphic" in2="BackgroundImageFix" result="shape"/>
<feColorMatrix in="SourceAlpha" type="matrix" values="0 0 0 0 0 0 0 0 0 0 0 0 0 0 0 0 0 0 127 0" result="hardAlpha"/>
<feOffset dy="-12"/>
<feGaussianBlur stdDeviation="14"/>
<feComposite in2="hardAlpha" operator="arithmetic" k2="-1" k3="1"/>
<feColorMatrix type="matrix" values="0 0 0 0 0.908698 0 0 0 0 0.995833 0 0 0 0 0.990605 0 0 0 0.25 0"/>
<feBlend mode="normal" in2="shape" result="effect1_innerShadow_6073_14273"/>
</filter>
<filter id="filter2_i_6073_14273" x="2.62256" y="-10.3066" width="78.3774" height="87.5146" filterUnits="userSpaceOnUse" color-interpolation-filters="sRGB">
<feFlood flood-opacity="0" result="BackgroundImageFix"/>
<feBlend mode="normal" in="SourceGraphic" in2="BackgroundImageFix" result="shape"/>
<feColorMatrix in="SourceAlpha" type="matrix" values="0 0 0 0 0 0 0 0 0 0 0 0 0 0 0 0 0 0 127 0" result="hardAlpha"/>
<feOffset dy="-12"/>
<feGaussianBlur stdDeviation="14"/>
<feComposite in2="hardAlpha" operator="arithmetic" k2="-1" k3="1"/>
<feColorMatrix type="matrix" values="0 0 0 0 0.908698 0 0 0 0 0.995833 0 0 0 0 0.990605 0 0 0 0.25 0"/>
<feBlend mode="normal" in2="shape" result="effect1_innerShadow_6073_14273"/>
</filter>
<filter id="filter3_iii_6073_14273" x="1" y="-10" width="72.0444" height="80.0703" filterUnits="userSpaceOnUse" color-interpolation-filters="sRGB">
<feFlood flood-opacity="0" result="BackgroundImageFix"/>
<feBlend mode="normal" in="SourceGraphic" in2="BackgroundImageFix" result="shape"/>
<feColorMatrix in="SourceAlpha" type="matrix" values="0 0 0 0 0 0 0 0 0 0 0 0 0 0 0 0 0 0 127 0" result="hardAlpha"/>
<feOffset dy="-4"/>
<feGaussianBlur stdDeviation="5"/>
<feComposite in2="hardAlpha" operator="arithmetic" k2="-1" k3="1"/>
<feColorMatrix type="matrix" values="0 0 0 0 1 0 0 0 0 1 0 0 0 0 1 0 0 0 0.5 0"/>
<feBlend mode="normal" in2="shape" result="effect1_innerShadow_6073_14273"/>
<feColorMatrix in="SourceAlpha" type="matrix" values="0 0 0 0 0 0 0 0 0 0 0 0 0 0 0 0 0 0 127 0" result="hardAlpha"/>
<feOffset dy="-2"/>
<feGaussianBlur stdDeviation="4"/>
<feComposite in2="hardAlpha" operator="arithmetic" k2="-1" k3="1"/>
<feColorMatrix type="matrix" values="0 0 0 0 1 0 0 0 0 1 0 0 0 0 1 0 0 0 0.5 0"/>
<feBlend mode="normal" in2="effect1_innerShadow_6073_14273" result="effect2_innerShadow_6073_14273"/>
<feColorMatrix in="SourceAlpha" type="matrix" values="0 0 0 0 0 0 0 0 0 0 0 0 0 0 0 0 0 0 127 0" result="hardAlpha"/>
<feOffset dy="-10"/>
<feGaussianBlur stdDeviation="26"/>
<feComposite in2="hardAlpha" operator="arithmetic" k2="-1" k3="1"/>
<feColorMatrix type="matrix" values="0 0 0 0 1 0 0 0 0 1 0 0 0 0 1 0 0 0 0.25 0"/>
<feBlend mode="normal" in2="effect2_innerShadow_6073_14273" result="effect3_innerShadow_6073_14273"/>
</filter>
<linearGradient id="paint0_linear_6073_14273" x1="77.6582" y1="1.69336" x2="6.57181" y2="1.69336" gradientUnits="userSpaceOnUse">
<stop stop-color="#B2742B"/>
<stop offset="0.171875" stop-color="#B11107"/>
<stop offset="0.416052" stop-color="#956336"/>
<stop offset="0.65625" stop-color="#F27128"/>
<stop offset="1" stop-color="#A14224"/>
</linearGradient>
<radialGradient id="paint1_radial_6073_14273" cx="0" cy="0" r="1" gradientUnits="userSpaceOnUse" gradientTransform="translate(40.0163 38.9264) rotate(28.6758) scale(42.6213 77.8746)">
<stop stop-color="#B67237"/>
<stop offset="0.34375" stop-color="#552E00"/>
<stop offset="1" stop-color="#F0AC45" stop-opacity="0"/>
</radialGradient>
<linearGradient id="paint2_linear_6073_14273" x1="21.3682" y1="24.3485" x2="51.5506" y2="43.5567" gradientUnits="userSpaceOnUse">
<stop stop-color="white"/>
<stop offset="0.71875" stop-color="#B67237"/>
<stop offset="1" stop-color="#D04B00"/>
</linearGradient>
</defs>
</svg>
