<svg width="84" height="100" viewBox="0 0 84 100" fill="none" xmlns="http://www.w3.org/2000/svg">
<g opacity="0.8" filter="url(#filter0_f_6073_14458)">
<path d="M73.3183 85C73.3183 87.7609 59.3356 90 42.087 90C24.8384 90 10.8557 87.7609 10.8557 85C10.8557 82.2391 24.8384 80 42.087 80C59.3356 80 73.3183 82.2391 73.3183 85Z" fill="black"/>
</g>
<g filter="url(#filter1_i_6073_14458)">
<path d="M44.2283 1.69336C24.7237 1.69336 6.31197 17.0975 3.10338 36.0996C1.35076 46.4743 4.49282 55.7761 10.8816 62.0842L17.6686 68.7877C22.9809 74.0327 30.5389 77.2083 39.3936 77.2083C58.8982 77.2083 77.3111 61.8042 80.5197 42.8021C82.2723 32.4274 79.1291 23.1246 72.7403 16.8164L65.9545 10.114C60.641 4.86899 53.0841 1.69336 44.2283 1.69336Z" fill="url(#paint0_linear_6073_14458)"/>
</g>
<g filter="url(#filter2_i_6073_14458)">
<path d="M44.2283 1.69336C24.7237 1.69336 6.31197 17.0975 3.10338 36.0996C1.35076 46.4743 4.49282 55.7761 10.8816 62.0842L17.6686 68.7877C22.9809 74.0327 30.5389 77.2083 39.3936 77.2083C58.8982 77.2083 77.3111 61.8042 80.5197 42.8021C82.2723 32.4274 79.1291 23.1246 72.7403 16.8164L65.9545 10.114C60.641 4.86899 53.0841 1.69336 44.2283 1.69336Z" fill="url(#paint1_linear_6073_14458)"/>
</g>
<mask id="path-4-inside-1_6073_14458" fill="white">
<path fill-rule="evenodd" clip-rule="evenodd" d="M32.5979 70.0701C52.3397 70.0701 70.3245 54.3844 72.768 35.0351C75.2116 15.6857 61.1885 0 41.4467 0C21.7049 0 3.72005 15.6857 1.27651 35.0351C-1.16703 54.3844 12.856 70.0701 32.5979 70.0701ZM16.3066 43.9268L16.8103 40.9073C16.8182 40.9494 16.8266 40.9919 16.8351 41.0352L16.8351 41.0356C16.8487 41.1049 16.8627 41.1761 16.8761 41.2502C16.8864 41.2409 16.8965 41.2332 16.9054 41.2263L16.9055 41.2263C16.9222 41.2134 16.9352 41.2035 16.9391 41.1913C17.1096 40.7109 17.2785 40.2299 17.4473 39.7487L17.4475 39.7482L17.4477 39.7477L17.4479 39.7472C17.7489 38.8898 18.0499 38.0321 18.3607 37.1778C18.9715 35.5001 19.5874 33.8224 20.2032 32.1447L20.2035 32.1437L20.2039 32.1427L20.2043 32.1417C20.7171 30.7446 21.2299 29.3476 21.7398 27.9505C22.1286 26.8878 22.5151 25.8244 22.9016 24.7609L22.9019 24.7603L22.902 24.76L22.902 24.7598L22.9021 24.7596C23.5426 22.9975 24.1831 21.2352 24.8339 19.4761C25.5111 17.6462 26.8326 16.4459 28.8063 15.9288C28.8249 15.9237 28.8446 15.9203 28.8644 15.9168C28.9382 15.904 29.0136 15.8909 29.0393 15.7895H48.753C48.7452 15.8917 48.823 15.9073 48.8956 15.9219L48.8957 15.9219C48.9106 15.9249 48.9253 15.9278 48.939 15.9315C50.7878 16.4486 51.6386 17.7185 51.7123 19.5565C51.7705 20.9667 51.8136 22.3803 51.8567 23.7947L51.8568 23.8003L51.857 23.8058C51.8672 24.1398 51.8774 24.4738 51.8877 24.8078C51.9318 26.2197 51.9753 27.6317 52.0187 29.0436L52.0194 29.0667C52.0625 30.4709 52.1057 31.8752 52.1496 33.2795C52.2043 34.9969 52.2589 36.7143 52.3132 38.4343C52.3309 38.9772 52.3479 39.5193 52.3652 40.0719C52.3788 40.5038 52.3925 40.9421 52.407 41.3922C52.4877 41.21 52.5377 41.0948 52.5881 40.9769L52.1636 43.5222C52.0337 43.6105 51.9919 43.7347 51.9504 43.8579C51.9364 43.8993 51.9226 43.9406 51.9054 43.9804C51.0171 46.0702 49.481 47.5678 47.2891 48.4707C46.9465 48.611 46.5973 48.704 46.2478 48.7969L46.2478 48.797C46.1901 48.8123 46.1325 48.8276 46.0749 48.8432C46.0693 48.8447 46.0631 48.846 46.0566 48.8473C46.0501 48.8485 46.0432 48.8497 46.0361 48.8508C46.032 48.8515 46.0278 48.8521 46.0235 48.8528C45.9398 48.8657 45.8381 48.8813 45.9345 49.0146H20.4912C20.5393 48.9939 20.5872 48.9738 20.6416 48.951L20.6419 48.9509C20.6999 48.9266 20.7654 48.8992 20.8462 48.8646C19.6962 48.6342 18.7961 48.1466 18.0574 47.4285C17.1 46.4962 16.5688 45.3387 16.4927 43.9509C16.4827 43.7466 16.4191 43.8119 16.3406 43.8925C16.3295 43.9038 16.3182 43.9155 16.3066 43.9268ZM33.6853 46.8445H44.4453C44.8312 46.8445 45.2211 46.8203 45.6079 46.748C48.3688 46.2389 50.3941 43.4686 49.7928 41.0386C49.3723 39.3346 47.9642 38.3218 45.9928 38.3218H24.6768C24.3721 38.3218 24.0664 38.3414 23.7609 38.3609H23.7608H23.7608H23.7608L23.6598 38.3674C21.4969 38.5094 18.8971 40.5 18.9857 43.4391C19.0478 45.4807 20.6108 46.8391 22.7826 46.8445C25.2051 46.848 27.627 46.8468 30.0494 46.8456H30.0497H30.05H30.0504C31.2619 46.845 32.4735 46.8445 33.6853 46.8445ZM32.8315 26.6162C33.0001 26.6481 33.1401 26.5993 33.2763 26.5517L33.3142 26.5386C33.6298 26.4321 33.9461 26.3272 34.2624 26.2223L34.2626 26.2223L34.2627 26.2222L34.2628 26.2222C35.0454 25.9627 35.8288 25.7029 36.6049 25.4186C37.1292 25.2257 37.5564 25.2632 38.0069 25.4454C38.7728 25.7572 39.5556 26.0417 40.3381 26.3261C40.5375 26.3985 40.7369 26.471 40.936 26.5439C40.9553 26.551 40.9754 26.5606 40.9962 26.5706C41.0775 26.6095 41.1681 26.6528 41.254 26.5653C41.3206 26.4963 41.278 26.4273 41.2376 26.3618C41.2247 26.3408 41.212 26.3202 41.2031 26.3001L40.4697 24.6344C39.8056 23.1257 39.1411 21.6163 38.4749 20.1084C38.2622 19.6235 38.245 19.6261 37.8599 20.1245C37.4017 20.7145 36.9459 21.306 36.4902 21.8974L36.49 21.8975C35.3979 23.3147 34.306 24.7317 33.1813 26.1286C33.1494 26.1684 33.115 26.2069 33.0802 26.2458L33.08 26.246L33.0797 26.2464L33.0796 26.2465C32.9835 26.3539 32.8848 26.4643 32.8291 26.6136L32.8315 26.6162ZM40.9809 28.0684C40.8623 28.0684 40.7634 28.1262 40.6654 28.1835L40.6653 28.1836C40.6385 28.1992 40.6119 28.2148 40.5849 28.2291C40.2919 28.3867 39.9988 28.5439 39.7057 28.7011L39.7053 28.7013C38.7572 29.2098 37.8095 29.7182 36.8667 30.2359C36.5682 30.3993 36.3497 30.402 36.1033 30.2359C35.2125 29.634 34.3112 29.0458 33.4104 28.4579L32.9492 28.1568C32.9329 28.146 32.9174 28.1328 32.9015 28.1193C32.8464 28.0724 32.7867 28.0217 32.6726 28.055C32.6526 28.1879 32.7113 28.29 32.768 28.3886C32.7821 28.4132 32.7961 28.4376 32.8088 28.4622C33.7804 30.3484 34.7122 32.256 35.6133 34.1797C35.7638 34.5012 35.8006 34.4986 36.0986 34.1369C36.6212 33.5011 37.144 32.8657 37.6668 32.2303L37.6698 32.2267C38.7149 30.9566 39.76 29.6865 40.803 28.414C40.8182 28.3958 40.8349 28.3778 40.852 28.3596L40.8521 28.3595C40.9249 28.2814 41.0022 28.1987 40.9809 28.0684ZM41.2998 27.3128C40.8899 27.1579 40.4896 27.0078 40.0963 26.8604L40.0962 26.8604L40.0961 26.8603L40.096 26.8603C39.2856 26.5564 38.5048 26.2637 37.7305 25.9625C37.3945 25.8312 37.0613 25.8339 36.6819 25.9625C35.9382 26.2164 35.1936 26.4621 34.4489 26.7078C33.9912 26.8588 33.5335 27.0098 33.0759 27.1628C33.046 27.173 33.0119 27.1795 32.9775 27.186L32.9775 27.186C32.8856 27.2034 32.7911 27.2213 32.7656 27.3128C32.7388 27.4078 32.8279 27.4529 32.909 27.494C32.9308 27.5051 32.9521 27.5158 32.9703 27.5272C33.3365 27.7638 33.7031 27.9998 34.0697 28.2358L34.0704 28.2362L34.0711 28.2367L34.0743 28.2387L34.0751 28.2392L34.0752 28.2393L34.0754 28.2394C34.8112 28.7131 35.5471 29.1868 36.2796 29.6652C36.4913 29.8045 36.6937 29.7643 36.93 29.6384C37.9194 29.1053 38.9106 28.5774 39.9018 28.0496C40.252 27.8632 40.6036 27.6785 41.0059 27.4672L41.0066 27.4669L41.2998 27.3128ZM33.7682 43.6783L33.7675 43.6783C33.4189 43.6823 33.0707 43.6863 32.7273 43.6695C31.8229 43.6266 31.3953 42.8872 31.8371 42.1664C32.1246 41.7003 32.5762 41.5074 33.0674 41.4966C34.106 41.4725 35.1433 41.4565 36.1712 41.4966C37.16 41.5368 37.5271 42.437 36.8971 43.1631C36.5786 43.5302 36.1606 43.6561 35.7277 43.6695C35.3815 43.6806 35.0377 43.6777 34.6948 43.6748C34.5392 43.6735 34.3838 43.6722 34.2284 43.6722L34.2289 43.6695L34.2252 43.6749C34.073 43.6749 33.9206 43.6766 33.7682 43.6783Z"/>
</mask>
<g filter="url(#filter3_iii_6073_14458)">
<path fill-rule="evenodd" clip-rule="evenodd" d="M32.5979 70.0701C52.3397 70.0701 70.3245 54.3844 72.768 35.0351C75.2116 15.6857 61.1885 0 41.4467 0C21.7049 0 3.72005 15.6857 1.27651 35.0351C-1.16703 54.3844 12.856 70.0701 32.5979 70.0701ZM16.3066 43.9268L16.8103 40.9073C16.8182 40.9494 16.8266 40.9919 16.8351 41.0352L16.8351 41.0356C16.8487 41.1049 16.8627 41.1761 16.8761 41.2502C16.8864 41.2409 16.8965 41.2332 16.9054 41.2263L16.9055 41.2263C16.9222 41.2134 16.9352 41.2035 16.9391 41.1913C17.1096 40.7109 17.2785 40.2299 17.4473 39.7487L17.4475 39.7482L17.4477 39.7477L17.4479 39.7472C17.7489 38.8898 18.0499 38.0321 18.3607 37.1778C18.9715 35.5001 19.5874 33.8224 20.2032 32.1447L20.2035 32.1437L20.2039 32.1427L20.2043 32.1417C20.7171 30.7446 21.2299 29.3476 21.7398 27.9505C22.1286 26.8878 22.5151 25.8244 22.9016 24.7609L22.9019 24.7603L22.902 24.76L22.902 24.7598L22.9021 24.7596C23.5426 22.9975 24.1831 21.2352 24.8339 19.4761C25.5111 17.6462 26.8326 16.4459 28.8063 15.9288C28.8249 15.9237 28.8446 15.9203 28.8644 15.9168C28.9382 15.904 29.0136 15.8909 29.0393 15.7895H48.753C48.7452 15.8917 48.823 15.9073 48.8956 15.9219L48.8957 15.9219C48.9106 15.9249 48.9253 15.9278 48.939 15.9315C50.7878 16.4486 51.6386 17.7185 51.7123 19.5565C51.7705 20.9667 51.8136 22.3803 51.8567 23.7947L51.8568 23.8003L51.857 23.8058C51.8672 24.1398 51.8774 24.4738 51.8877 24.8078C51.9318 26.2197 51.9753 27.6317 52.0187 29.0436L52.0194 29.0667C52.0625 30.4709 52.1057 31.8752 52.1496 33.2795C52.2043 34.9969 52.2589 36.7143 52.3132 38.4343C52.3309 38.9772 52.3479 39.5193 52.3652 40.0719C52.3788 40.5038 52.3925 40.9421 52.407 41.3922C52.4877 41.21 52.5377 41.0948 52.5881 40.9769L52.1636 43.5222C52.0337 43.6105 51.9919 43.7347 51.9504 43.8579C51.9364 43.8993 51.9226 43.9406 51.9054 43.9804C51.0171 46.0702 49.481 47.5678 47.2891 48.4707C46.9465 48.611 46.5973 48.704 46.2478 48.7969L46.2478 48.797C46.1901 48.8123 46.1325 48.8276 46.0749 48.8432C46.0693 48.8447 46.0631 48.846 46.0566 48.8473C46.0501 48.8485 46.0432 48.8497 46.0361 48.8508C46.032 48.8515 46.0278 48.8521 46.0235 48.8528C45.9398 48.8657 45.8381 48.8813 45.9345 49.0146H20.4912C20.5393 48.9939 20.5872 48.9738 20.6416 48.951L20.6419 48.9509C20.6999 48.9266 20.7654 48.8992 20.8462 48.8646C19.6962 48.6342 18.7961 48.1466 18.0574 47.4285C17.1 46.4962 16.5688 45.3387 16.4927 43.9509C16.4827 43.7466 16.4191 43.8119 16.3406 43.8925C16.3295 43.9038 16.3182 43.9155 16.3066 43.9268ZM33.6853 46.8445H44.4453C44.8312 46.8445 45.2211 46.8203 45.6079 46.748C48.3688 46.2389 50.3941 43.4686 49.7928 41.0386C49.3723 39.3346 47.9642 38.3218 45.9928 38.3218H24.6768C24.3721 38.3218 24.0664 38.3414 23.7609 38.3609H23.7608H23.7608H23.7608L23.6598 38.3674C21.4969 38.5094 18.8971 40.5 18.9857 43.4391C19.0478 45.4807 20.6108 46.8391 22.7826 46.8445C25.2051 46.848 27.627 46.8468 30.0494 46.8456H30.0497H30.05H30.0504C31.2619 46.845 32.4735 46.8445 33.6853 46.8445ZM32.8315 26.6162C33.0001 26.6481 33.1401 26.5993 33.2763 26.5517L33.3142 26.5386C33.6298 26.4321 33.9461 26.3272 34.2624 26.2223L34.2626 26.2223L34.2627 26.2222L34.2628 26.2222C35.0454 25.9627 35.8288 25.7029 36.6049 25.4186C37.1292 25.2257 37.5564 25.2632 38.0069 25.4454C38.7728 25.7572 39.5556 26.0417 40.3381 26.3261C40.5375 26.3985 40.7369 26.471 40.936 26.5439C40.9553 26.551 40.9754 26.5606 40.9962 26.5706C41.0775 26.6095 41.1681 26.6528 41.254 26.5653C41.3206 26.4963 41.278 26.4273 41.2376 26.3618C41.2247 26.3408 41.212 26.3202 41.2031 26.3001L40.4697 24.6344C39.8056 23.1257 39.1411 21.6163 38.4749 20.1084C38.2622 19.6235 38.245 19.6261 37.8599 20.1245C37.4017 20.7145 36.9459 21.306 36.4902 21.8974L36.49 21.8975C35.3979 23.3147 34.306 24.7317 33.1813 26.1286C33.1494 26.1684 33.115 26.2069 33.0802 26.2458L33.08 26.246L33.0797 26.2464L33.0796 26.2465C32.9835 26.3539 32.8848 26.4643 32.8291 26.6136L32.8315 26.6162ZM40.9809 28.0684C40.8623 28.0684 40.7634 28.1262 40.6654 28.1835L40.6653 28.1836C40.6385 28.1992 40.6119 28.2148 40.5849 28.2291C40.2919 28.3867 39.9988 28.5439 39.7057 28.7011L39.7053 28.7013C38.7572 29.2098 37.8095 29.7182 36.8667 30.2359C36.5682 30.3993 36.3497 30.402 36.1033 30.2359C35.2125 29.634 34.3112 29.0458 33.4104 28.4579L32.9492 28.1568C32.9329 28.146 32.9174 28.1328 32.9015 28.1193C32.8464 28.0724 32.7867 28.0217 32.6726 28.055C32.6526 28.1879 32.7113 28.29 32.768 28.3886C32.7821 28.4132 32.7961 28.4376 32.8088 28.4622C33.7804 30.3484 34.7122 32.256 35.6133 34.1797C35.7638 34.5012 35.8006 34.4986 36.0986 34.1369C36.6212 33.5011 37.144 32.8657 37.6668 32.2303L37.6698 32.2267C38.7149 30.9566 39.76 29.6865 40.803 28.414C40.8182 28.3958 40.8349 28.3778 40.852 28.3596L40.8521 28.3595C40.9249 28.2814 41.0022 28.1987 40.9809 28.0684ZM41.2998 27.3128C40.8899 27.1579 40.4896 27.0078 40.0963 26.8604L40.0962 26.8604L40.0961 26.8603L40.096 26.8603C39.2856 26.5564 38.5048 26.2637 37.7305 25.9625C37.3945 25.8312 37.0613 25.8339 36.6819 25.9625C35.9382 26.2164 35.1936 26.4621 34.4489 26.7078C33.9912 26.8588 33.5335 27.0098 33.0759 27.1628C33.046 27.173 33.0119 27.1795 32.9775 27.186L32.9775 27.186C32.8856 27.2034 32.7911 27.2213 32.7656 27.3128C32.7388 27.4078 32.8279 27.4529 32.909 27.494C32.9308 27.5051 32.9521 27.5158 32.9703 27.5272C33.3365 27.7638 33.7031 27.9998 34.0697 28.2358L34.0704 28.2362L34.0711 28.2367L34.0743 28.2387L34.0751 28.2392L34.0752 28.2393L34.0754 28.2394C34.8112 28.7131 35.5471 29.1868 36.2796 29.6652C36.4913 29.8045 36.6937 29.7643 36.93 29.6384C37.9194 29.1053 38.9106 28.5774 39.9018 28.0496C40.252 27.8632 40.6036 27.6785 41.0059 27.4672L41.0066 27.4669L41.2998 27.3128ZM33.7682 43.6783L33.7675 43.6783C33.4189 43.6823 33.0707 43.6863 32.7273 43.6695C31.8229 43.6266 31.3953 42.8872 31.8371 42.1664C32.1246 41.7003 32.5762 41.5074 33.0674 41.4966C34.106 41.4725 35.1433 41.4565 36.1712 41.4966C37.16 41.5368 37.5271 42.437 36.8971 43.1631C36.5786 43.5302 36.1606 43.6561 35.7277 43.6695C35.3815 43.6806 35.0377 43.6777 34.6948 43.6748C34.5392 43.6735 34.3838 43.6722 34.2284 43.6722L34.2289 43.6695L34.2252 43.6749C34.073 43.6749 33.9206 43.6766 33.7682 43.6783Z" fill="url(#paint2_linear_6073_14458)"/>
</g>
<path d="M72.768 35.0351L72.1728 34.9599L72.768 35.0351ZM1.27651 35.0351L0.68124 34.9599L1.27651 35.0351ZM16.8103 40.9073L17.3998 40.7955L16.2184 40.8086L16.8103 40.9073ZM16.3066 43.9268L15.7148 43.828L15.4134 45.6348L16.7253 44.3565L16.3066 43.9268ZM16.8351 41.0352L17.4241 40.921L17.4239 40.9198L16.8351 41.0352ZM16.8351 41.0356L16.2461 41.1498L16.2463 41.151L16.8351 41.0356ZM16.8761 41.2502L16.2857 41.3571L16.4779 42.4186L17.2784 41.6954L16.8761 41.2502ZM16.9054 41.2263L17.2704 41.7025L17.2834 41.6926L17.2959 41.6819L16.9054 41.2263ZM16.9055 41.2263L16.5404 40.7501L16.5274 40.7601L16.515 40.7707L16.9055 41.2263ZM16.9391 41.1913L16.3736 40.9905L16.3701 41.0005L16.3669 41.0105L16.9391 41.1913ZM17.4473 39.7487L16.882 39.5477L16.8812 39.55L17.4473 39.7487ZM17.4479 39.7472L18.0132 39.9482L18.014 39.9459L17.4479 39.7472ZM18.3607 37.1778L17.7969 36.9725L17.7969 36.9727L18.3607 37.1778ZM20.2032 32.1447L20.7664 32.3515L20.7668 32.3505L20.2032 32.1447ZM20.2043 32.1417L19.641 31.9349L19.6407 31.9359L20.2043 32.1417ZM21.7398 27.9505L21.1763 27.7444L21.1762 27.7448L21.7398 27.9505ZM22.9016 24.7609L23.4655 24.9659L23.4663 24.9637L22.9016 24.7609ZM22.9019 24.7603L22.34 24.5496L22.3372 24.5576L22.9019 24.7603ZM22.9021 24.7596L23.464 24.9703L23.466 24.9645L22.9021 24.7596ZM24.8339 19.4761L24.2712 19.2679L24.2712 19.2679L24.8339 19.4761ZM28.8063 15.9288L28.9584 16.5092L28.9651 16.5074L28.8063 15.9288ZM28.8644 15.9168L28.9672 16.508L28.9672 16.508L28.8644 15.9168ZM29.0393 15.7895V15.1895H28.5726L28.4577 15.6419L29.0393 15.7895ZM48.753 15.7895L49.3513 15.835L49.4004 15.1895H48.753V15.7895ZM48.8956 15.9219L49.018 15.3344L49.0137 15.3336L48.8956 15.9219ZM48.8957 15.9219L48.7733 16.5093L48.7776 16.5101L48.8957 15.9219ZM48.939 15.9315L49.1007 15.3536L49.0937 15.3518L48.939 15.9315ZM51.7123 19.5565L51.1128 19.5805L51.1128 19.5812L51.7123 19.5565ZM51.8567 23.7947L51.2569 23.813L51.2569 23.8132L51.8567 23.7947ZM51.8568 23.8003L51.2571 23.8187L51.2571 23.8188L51.8568 23.8003ZM51.857 23.8058L52.4567 23.7876L52.4567 23.7873L51.857 23.8058ZM51.8877 24.8078L51.288 24.8264L51.288 24.8265L51.8877 24.8078ZM52.0187 29.0436L51.4189 29.0621V29.0621L52.0187 29.0436ZM52.0194 29.0667L52.6191 29.0482V29.0482L52.0194 29.0667ZM52.1496 33.2795L51.5499 33.2982L51.5499 33.2986L52.1496 33.2795ZM52.3132 38.4343L51.7135 38.4532L51.7135 38.4539L52.3132 38.4343ZM52.3652 40.0719L51.7655 40.0907V40.0907L52.3652 40.0719ZM52.407 41.3922L51.8073 41.4115L52.9556 41.6353L52.407 41.3922ZM52.5881 40.9769L53.1799 41.0757L52.0365 40.741L52.5881 40.9769ZM52.1636 43.5222L52.5008 44.0184L52.7131 43.8741L52.7554 43.6209L52.1636 43.5222ZM51.9504 43.8579L52.519 44.0494H52.519L51.9504 43.8579ZM51.9054 43.9804L51.3546 43.7424L51.3532 43.7456L51.9054 43.9804ZM47.2891 48.4707L47.5165 49.026L47.5176 49.0255L47.2891 48.4707ZM46.2478 48.7969L46.3465 49.3888L46.3746 49.3841L46.4021 49.3768L46.2478 48.7969ZM46.2478 48.797L46.1491 48.2051L46.121 48.2098L46.0935 48.2171L46.2478 48.797ZM46.0749 48.8432L45.9186 48.2639L45.918 48.2641L46.0749 48.8432ZM46.0566 48.8473L46.1694 49.4366L46.1696 49.4366L46.0566 48.8473ZM46.0361 48.8508L45.9422 48.2582L45.942 48.2582L46.0361 48.8508ZM46.0235 48.8528L46.1147 49.4458L46.115 49.4458L46.0235 48.8528ZM45.9345 49.0146V49.6146H47.1086L46.4207 48.6631L45.9345 49.0146ZM20.4912 49.0146L20.2537 48.4636L20.4912 49.6146V49.0146ZM20.6416 48.951L20.4188 48.3939L20.4097 48.3976L20.6416 48.951ZM20.6419 48.9509L20.8647 49.5081L20.8737 49.5043L20.6419 48.9509ZM20.8462 48.8646L21.0822 49.4162L22.8594 48.656L20.9641 48.2763L20.8462 48.8646ZM18.0574 47.4285L17.6388 47.8584L17.6392 47.8588L18.0574 47.4285ZM16.4927 43.9509L15.8934 43.9803L15.8936 43.9837L16.4927 43.9509ZM16.3406 43.8925L15.9108 43.4738L15.9108 43.4738L16.3406 43.8925ZM45.6079 46.748L45.4991 46.1579L45.4976 46.1582L45.6079 46.748ZM49.7928 41.0386L49.2102 41.1823L49.2103 41.1827L49.7928 41.0386ZM23.7609 38.3609V38.9609H23.78L23.7992 38.9597L23.7609 38.3609ZM23.7608 38.3609V37.7609H23.7417L23.7226 37.7621L23.7608 38.3609ZM23.6598 38.3674L23.6216 37.7686L23.6205 37.7687L23.6598 38.3674ZM18.9857 43.4391L18.3859 43.4572L18.3859 43.4574L18.9857 43.4391ZM22.7826 46.8445L22.7812 47.4445H22.7817L22.7826 46.8445ZM30.0494 46.8456V46.2456H30.0491L30.0494 46.8456ZM30.0504 46.8456V47.4456H30.0506L30.0504 46.8456ZM33.2763 26.5517L33.0795 25.9849L33.0785 25.9852L33.2763 26.5517ZM32.8315 26.6162L32.3805 27.012L32.5169 27.1674L32.7201 27.2058L32.8315 26.6162ZM33.3142 26.5386L33.1225 25.97L33.1174 25.9717L33.3142 26.5386ZM34.2624 26.2223L34.0805 25.6505L34.0736 25.6528L34.2624 26.2223ZM34.2628 26.2222L34.4448 26.794L34.4517 26.7917L34.2628 26.2222ZM36.6049 25.4186L36.8112 25.982L36.8121 25.9817L36.6049 25.4186ZM38.0069 25.4454L38.2332 24.8897L38.2319 24.8892L38.0069 25.4454ZM40.3381 26.3261L40.1331 26.89L40.1331 26.89L40.3381 26.3261ZM40.936 26.5439L41.1428 25.9807L41.1423 25.9805L40.936 26.5439ZM40.9962 26.5706L41.2552 26.0293L41.2552 26.0293L40.9962 26.5706ZM41.254 26.5653L41.6822 26.9856L41.6857 26.982L41.254 26.5653ZM41.2376 26.3618L41.7483 26.0469L41.7483 26.0468L41.2376 26.3618ZM41.2031 26.3001L41.7525 26.0589L41.7523 26.0583L41.2031 26.3001ZM40.4697 24.6344L39.9206 24.8761L39.9206 24.8762L40.4697 24.6344ZM38.4749 20.1084L37.9255 20.3494L37.9261 20.3509L38.4749 20.1084ZM37.8599 20.1245L38.3338 20.4925L38.3346 20.4914L37.8599 20.1245ZM36.4902 21.8974L36.0149 21.5312L36.0123 21.5345L36.4902 21.8974ZM36.49 21.8975L36.9653 22.2638L36.9678 22.2604L36.49 21.8975ZM33.1813 26.1286L32.7139 25.7523L32.7129 25.7537L33.1813 26.1286ZM33.0802 26.2458L32.6329 25.8459L32.6318 25.8472L33.0802 26.2458ZM33.08 26.246L33.5253 26.6482L33.5285 26.6446L33.08 26.246ZM33.0797 26.2464L33.5184 26.6558L33.525 26.6485L33.0797 26.2464ZM33.0796 26.2465L32.6408 25.8371L32.6323 25.8465L33.0796 26.2465ZM32.8291 26.6136L32.2669 26.404L32.1417 26.7399L32.3781 27.0093L32.8291 26.6136ZM40.6654 28.1835L40.9652 28.7032L40.9683 28.7015L40.6654 28.1835ZM40.9809 28.0684L41.573 27.9715L41.4906 27.4684H40.9809V28.0684ZM40.6653 28.1836L40.3654 27.6639L40.3624 27.6656L40.6653 28.1836ZM40.5849 28.2291L40.303 27.6995L40.3008 27.7007L40.5849 28.2291ZM39.7057 28.7011L39.9872 29.231L39.9893 29.2299L39.7057 28.7011ZM39.7053 28.7013L39.4238 28.1714L39.4217 28.1726L39.7053 28.7013ZM36.8667 30.2359L37.1549 30.7622L37.1555 30.7618L36.8667 30.2359ZM36.1033 30.2359L35.7674 30.7331L35.7679 30.7333L36.1033 30.2359ZM33.4104 28.4579L33.0824 28.9603L33.0825 28.9604L33.4104 28.4579ZM32.9492 28.1568L32.6186 28.6575L32.6212 28.6592L32.9492 28.1568ZM32.9015 28.1193L33.2902 27.6623L33.2902 27.6623L32.9015 28.1193ZM32.6726 28.055L32.5046 27.479L32.1361 27.5865L32.0792 27.966L32.6726 28.055ZM32.768 28.3886L33.2882 28.0897V28.0897L32.768 28.3886ZM32.8088 28.4622L32.2751 28.7365L32.2754 28.737L32.8088 28.4622ZM35.6133 34.1797L36.1567 33.9253L36.1566 33.9252L35.6133 34.1797ZM36.0986 34.1369L36.5616 34.5184L36.5621 34.5179L36.0986 34.1369ZM37.6668 32.2303L38.1302 32.6116L38.1304 32.6112L37.6668 32.2303ZM37.6698 32.2267L37.2065 31.8455L37.2062 31.8458L37.6698 32.2267ZM40.803 28.414L40.3421 28.0298L40.3389 28.0337L40.803 28.414ZM40.852 28.3596L40.4164 27.9469L40.4134 27.9502L40.852 28.3596ZM40.8521 28.3595L41.2876 28.7721L41.2906 28.7689L40.8521 28.3595ZM40.0963 26.8604L39.8856 27.4222L39.8857 27.4222L40.0963 26.8604ZM41.2998 27.3128L41.5789 27.844L42.7603 27.2234L41.512 26.7516L41.2998 27.3128ZM40.096 26.8603L40.3067 26.2985L40.3067 26.2985L40.096 26.8603ZM37.7305 25.9625L37.5122 26.5214L37.513 26.5217L37.7305 25.9625ZM36.6819 25.9625L36.4893 25.3943L36.4881 25.3947L36.6819 25.9625ZM34.4489 26.7078L34.6369 27.2776L34.4489 26.7078ZM33.0759 27.1628L32.8857 26.5937L32.8817 26.5951L33.0759 27.1628ZM32.9775 27.186L32.866 26.5964L32.8489 26.5997L32.832 26.6039L32.9775 27.186ZM32.9775 27.186L33.089 27.7755L33.1061 27.7723L33.123 27.7681L32.9775 27.186ZM32.7656 27.3128L33.343 27.4761L33.3437 27.4735L32.7656 27.3128ZM32.909 27.494L32.638 28.0293L32.638 28.0294L32.909 27.494ZM32.9703 27.5272L33.296 27.0231L33.2873 27.0177L32.9703 27.5272ZM34.0697 28.2358L34.3959 27.7321L34.3945 27.7312L34.0697 28.2358ZM34.0711 28.2367L33.745 28.7403L33.7462 28.7411L34.0711 28.2367ZM34.0743 28.2387L34.3995 27.7344L34.3992 27.7343L34.0743 28.2387ZM34.0751 28.2392L34.4079 27.7399L34.4002 27.735L34.0751 28.2392ZM34.0754 28.2394L33.7425 28.7387L33.7506 28.7439L34.0754 28.2394ZM36.2796 29.6652L36.6095 29.164L36.6077 29.1629L36.2796 29.6652ZM36.93 29.6384L37.2122 30.1679L37.2147 30.1666L36.93 29.6384ZM39.9018 28.0496L40.1838 28.5792L40.1838 28.5792L39.9018 28.0496ZM41.0059 27.4672L40.7299 26.9345L40.727 26.936L41.0059 27.4672ZM41.0066 27.4669L41.2826 27.9996L41.2856 27.9981L41.0066 27.4669ZM33.7675 43.6783L33.7743 44.2783L33.7764 44.2783L33.7675 43.6783ZM33.7682 43.6783L33.7614 43.0784L33.7593 43.0784L33.7682 43.6783ZM32.7273 43.6695L32.7566 43.0702L32.7557 43.0702L32.7273 43.6695ZM31.8371 42.1664L31.3264 41.8515L31.3256 41.8529L31.8371 42.1664ZM33.0674 41.4966L33.0805 42.0965L33.0813 42.0965L33.0674 41.4966ZM36.1712 41.4966L36.1956 40.8971L36.1947 40.8971L36.1712 41.4966ZM36.8971 43.1631L36.4439 42.7699L36.4439 42.7699L36.8971 43.1631ZM35.7277 43.6695L35.7091 43.0698L35.7085 43.0698L35.7277 43.6695ZM34.6948 43.6748L34.6998 43.0748H34.6998L34.6948 43.6748ZM34.2284 43.6722L33.6366 43.5735L33.5202 44.2722H34.2284V43.6722ZM34.2289 43.6695L34.8207 43.7681L33.7346 43.3293L34.2289 43.6695ZM34.2252 43.6749V44.2749H34.5406L34.7195 44.015L34.2252 43.6749ZM72.1728 34.9599C69.7678 54.0037 52.0431 69.4701 32.5979 69.4701V70.6701C52.6363 70.6701 70.8812 54.7652 73.3633 35.1102L72.1728 34.9599ZM41.4467 0.6C60.8357 0.6 74.57 15.9772 72.1728 34.9599L73.3633 35.1102C75.8532 15.3943 61.5414 -0.6 41.4467 -0.6V0.6ZM1.87178 35.1102C4.27673 16.0665 22.0014 0.6 41.4467 0.6V-0.6C21.4083 -0.6 3.16337 15.305 0.68124 34.9599L1.87178 35.1102ZM32.5979 69.4701C13.2088 69.4701 -0.525457 54.093 1.87178 35.1102L0.68124 34.9599C-1.8086 54.6759 12.5032 70.6701 32.5979 70.6701V69.4701ZM16.2184 40.8086L15.7148 43.828L16.8984 44.0255L17.4021 41.006L16.2184 40.8086ZM17.4239 40.9198C17.4153 40.8762 17.4073 40.8355 17.3998 40.7955L16.2208 41.019C16.2292 41.0633 16.2378 41.1076 16.2463 41.1506L17.4239 40.9198ZM17.4242 40.9215L17.4241 40.921L16.246 41.1493L16.2461 41.1498L17.4242 40.9215ZM17.4665 41.1433C17.4522 41.0642 17.4374 40.989 17.4239 40.9202L16.2463 41.151C16.26 41.2209 16.2732 41.2879 16.2857 41.3571L17.4665 41.1433ZM16.5404 40.7501C16.5326 40.7561 16.5045 40.7774 16.4738 40.805L17.2784 41.6954C17.2727 41.7005 17.2685 41.704 17.2668 41.7053C17.2658 41.7061 17.2654 41.7064 17.2704 41.7025L16.5404 40.7501ZM16.515 40.7707L16.5149 40.7708L17.2959 41.6819L17.2959 41.6818L16.515 40.7707ZM16.3669 41.0105C16.4086 40.8785 16.4857 40.8007 16.5104 40.7769C16.5343 40.7538 16.5571 40.7373 16.5404 40.7501L17.2705 41.7024C17.2706 41.7024 17.3083 41.6745 17.3438 41.6402C17.3802 41.6051 17.4656 41.5163 17.5112 41.372L16.3669 41.0105ZM16.8812 39.55C16.7123 40.0313 16.5438 40.5113 16.3736 40.9905L17.5045 41.392C17.6754 40.9105 17.8447 40.4284 18.0135 39.9474L16.8812 39.55ZM16.8822 39.5472L16.882 39.5477L18.0127 39.9497L18.0129 39.9492L16.8822 39.5472ZM16.8824 39.5467L16.8822 39.5472L18.0129 39.9492L18.013 39.9487L16.8824 39.5467ZM16.8826 39.5462L16.8824 39.5467L18.013 39.9487L18.0132 39.9482L16.8826 39.5462ZM17.7969 36.9727C17.4847 37.8307 17.1825 38.6916 16.8818 39.5485L18.014 39.9459C18.3152 39.088 18.6151 38.2335 18.9246 37.3829L17.7969 36.9727ZM19.6399 31.938C19.0241 33.6155 18.4081 35.294 17.7969 36.9725L18.9245 37.3831C19.535 35.7062 20.1506 34.0293 20.7664 32.3515L19.6399 31.938ZM19.6399 31.9379L19.6396 31.9389L20.7668 32.3505L20.7671 32.3495L19.6399 31.9379ZM19.6403 31.9369L19.6399 31.9379L20.7671 32.3495L20.7675 32.3485L19.6403 31.9369ZM19.6407 31.9359L19.6403 31.9369L20.7675 32.3485L20.7679 32.3475L19.6407 31.9359ZM21.1762 27.7448C20.6665 29.1412 20.1539 30.5378 19.641 31.9349L20.7675 32.3484C21.2803 30.9514 21.7933 29.5539 22.3034 28.1562L21.1762 27.7448ZM22.3377 24.556C21.9512 25.6196 21.5648 26.6824 21.1763 27.7444L22.3033 28.1566C22.6923 27.0933 23.079 26.0293 23.4655 24.9659L22.3377 24.556ZM22.3372 24.5576L22.3369 24.5582L23.4663 24.9637L23.4666 24.963L22.3372 24.5576ZM22.3402 24.5494L22.3401 24.5496L23.4637 24.9709L23.4638 24.9707L22.3402 24.5494ZM22.3402 24.5491L22.3402 24.5494L23.4638 24.9707L23.4638 24.9705L22.3402 24.5491ZM22.3403 24.5489L22.3402 24.5491L23.4638 24.9705L23.4639 24.9703L22.3403 24.5489ZM24.2712 19.2679C23.6197 21.0289 22.9786 22.7928 22.3382 24.5546L23.466 24.9645C24.1066 23.2021 24.7465 21.4415 25.3967 19.6843L24.2712 19.2679ZM28.6543 15.3484C26.4957 15.9139 25.018 17.2499 24.2712 19.2679L25.3967 19.6843C26.0042 18.0425 27.1695 16.9779 28.9584 16.5092L28.6543 15.3484ZM28.7616 15.3257C28.7473 15.3282 28.6987 15.3361 28.6476 15.3502L28.9651 16.5074C28.9558 16.51 28.9503 16.511 28.9514 16.5108C28.9517 16.5107 28.953 16.5105 28.9558 16.51C28.9587 16.5094 28.9619 16.5089 28.9672 16.508L28.7616 15.3257ZM28.4577 15.6419C28.468 15.6014 28.4896 15.5459 28.5325 15.489C28.5762 15.4311 28.6281 15.3901 28.6762 15.3631C28.7207 15.3382 28.7568 15.3281 28.7689 15.3249C28.7787 15.3224 28.7844 15.3217 28.7616 15.3257L28.9672 16.508C28.982 16.5054 29.1265 16.4865 29.2635 16.4096C29.4439 16.3083 29.5692 16.1406 29.6209 15.9371L28.4577 15.6419ZM48.753 15.1895H29.0393V16.3895H48.753V15.1895ZM49.0137 15.3336C48.9906 15.3289 48.9985 15.3301 49.0109 15.3338C49.024 15.3376 49.0719 15.3523 49.1286 15.3904C49.1921 15.433 49.2619 15.502 49.3076 15.602C49.3516 15.6982 49.3552 15.784 49.3513 15.835L48.1547 15.744C48.147 15.846 48.1574 15.9721 48.216 16.1005C48.2763 16.2326 48.3687 16.3255 48.4597 16.3867C48.6062 16.485 48.7744 16.5095 48.7776 16.5101L49.0137 15.3336ZM49.0181 15.3345L49.018 15.3345L48.7733 16.5092L48.7733 16.5093L49.0181 15.3345ZM49.0937 15.3518C49.0586 15.3424 49.0248 15.3358 49.0138 15.3336L48.7776 16.5101C48.7815 16.5109 48.7841 16.5114 48.7866 16.5119C48.7889 16.5124 48.7902 16.5127 48.7909 16.5129C48.7927 16.5132 48.7898 16.5127 48.7844 16.5112L49.0937 15.3518ZM52.3118 19.5324C52.2715 18.5282 52.0165 17.625 51.4735 16.8916C50.9272 16.1537 50.1289 15.6412 49.1007 15.3536L48.7774 16.5093C49.598 16.7388 50.1494 17.1199 50.5091 17.6057C50.8721 18.0961 51.0793 18.7468 51.1128 19.5805L52.3118 19.5324ZM52.4564 23.7764C52.4133 22.3626 52.3702 20.9457 52.3118 19.5317L51.1128 19.5812C51.1709 20.9876 51.2138 22.3981 51.2569 23.813L52.4564 23.7764ZM52.4566 23.7818L52.4564 23.7762L51.2569 23.8132L51.2571 23.8187L52.4566 23.7818ZM52.4567 23.7873L52.4565 23.7817L51.2571 23.8188L51.2573 23.8244L52.4567 23.7873ZM52.4874 24.7891C52.4771 24.4554 52.4669 24.1215 52.4567 23.7876L51.2573 23.8241C51.2675 24.158 51.2776 24.4922 51.288 24.8264L52.4874 24.7891ZM52.6184 29.0252C52.575 27.6133 52.5316 26.2012 52.4874 24.789L51.288 24.8265C51.3321 26.2383 51.3755 27.6501 51.4189 29.0621L52.6184 29.0252ZM52.6191 29.0482L52.6184 29.0252L51.4189 29.0621L51.4197 29.0851L52.6191 29.0482ZM52.7493 33.2608C52.7054 31.8567 52.6623 30.4525 52.6191 29.0482L51.4197 29.0851C51.4628 30.4893 51.506 31.8938 51.5499 33.2982L52.7493 33.2608ZM52.9129 38.4154C52.8586 36.6953 52.804 34.9778 52.7493 33.2604L51.5499 33.2986C51.6046 35.016 51.6592 36.7333 51.7135 38.4532L52.9129 38.4154ZM52.9649 40.0531C52.9476 39.5006 52.9306 38.9581 52.9128 38.4147L51.7135 38.4539C51.7312 38.9964 51.7482 39.538 51.7655 40.0907L52.9649 40.0531ZM53.0067 41.373C52.9922 40.9231 52.9785 40.485 52.9649 40.0531L51.7655 40.0907C51.7791 40.5225 51.7928 40.9611 51.8073 41.4115L53.0067 41.373ZM52.0365 40.741C51.9871 40.8563 51.9382 40.9692 51.8584 41.1492L52.9556 41.6353C53.0373 41.4509 53.0883 41.3333 53.1398 41.2129L52.0365 40.741ZM52.7554 43.6209L53.1799 41.0757L51.9963 40.8782L51.5717 43.4235L52.7554 43.6209ZM52.519 44.0494C52.5244 44.0335 52.5285 44.0213 52.5325 44.0097C52.5365 43.9984 52.5396 43.9899 52.5423 43.9831C52.5477 43.9691 52.5498 43.9657 52.5486 43.9679C52.547 43.9708 52.5417 43.9796 52.5321 43.9906C52.522 44.002 52.511 44.0115 52.5008 44.0184L51.8263 43.026C51.5098 43.2411 51.4184 43.5576 51.3817 43.6665L52.519 44.0494ZM52.4562 44.2183C52.4849 44.1519 52.5065 44.0867 52.519 44.0494L51.3817 43.6665C51.3664 43.7119 51.3602 43.7294 51.3546 43.7424L52.4562 44.2183ZM47.5176 49.0255C49.8489 48.0652 51.505 46.4562 52.4576 44.2151L51.3532 43.7456C50.5292 45.6841 49.1132 47.0705 47.0606 47.916L47.5176 49.0255ZM46.4021 49.3768C46.746 49.2853 47.1323 49.1833 47.5165 49.026L47.0618 47.9155C46.7606 48.0388 46.4486 48.1226 46.0935 48.2171L46.4021 49.3768ZM46.3464 49.3888L46.3465 49.3888L46.1492 48.2051L46.1491 48.2051L46.3464 49.3888ZM46.2313 49.4224C46.2877 49.4072 46.3443 49.3922 46.402 49.3768L46.0935 48.2171C46.036 48.2324 45.9774 48.248 45.9186 48.2639L46.2313 49.4224ZM46.1696 49.4366C46.185 49.4336 46.2069 49.429 46.2319 49.4223L45.918 48.2641C45.9316 48.2604 45.9412 48.2585 45.9435 48.258L46.1696 49.4366ZM46.1301 49.4434C46.14 49.4418 46.1539 49.4396 46.1694 49.4366L45.9437 48.258C45.9462 48.2575 45.9464 48.2575 45.9422 48.2582L46.1301 49.4434ZM46.115 49.4458C46.1189 49.4452 46.1246 49.4443 46.1303 49.4434L45.942 48.2582C45.9394 48.2587 45.9366 48.2591 45.932 48.2598L46.115 49.4458ZM46.4207 48.6631C46.4241 48.6677 46.4359 48.6846 46.4491 48.7124C46.4621 48.7396 46.4818 48.7889 46.4907 48.8559C46.5001 48.9265 46.497 49.0152 46.4635 49.1094C46.4298 49.204 46.3753 49.2765 46.3202 49.3277C46.2241 49.4172 46.1272 49.4413 46.1175 49.4439C46.099 49.4489 46.0866 49.4501 46.1147 49.4458L45.9323 48.2598C45.9186 48.2619 45.862 48.2699 45.8039 48.2856C45.7547 48.2989 45.6227 48.3377 45.5027 48.4493C45.3468 48.5945 45.2732 48.8032 45.3012 49.0139C45.3231 49.1788 45.4012 49.3011 45.4482 49.3661L46.4207 48.6631ZM20.4912 49.6146H45.9345V48.4146H20.4912V49.6146ZM20.4097 48.3976C20.3558 48.4202 20.305 48.4415 20.2537 48.4636L20.7287 49.5656C20.7735 49.5463 20.8186 49.5274 20.8735 49.5044L20.4097 48.3976ZM20.419 48.3938L20.4188 48.3939L20.8645 49.5081L20.8647 49.508L20.419 48.3938ZM20.6102 48.3129C20.5317 48.3465 20.468 48.3732 20.41 48.3975L20.8737 49.5043C20.9319 49.4799 20.9991 49.4518 21.0822 49.4162L20.6102 48.3129ZM17.6392 47.8588C18.4629 48.6595 19.4682 49.2004 20.7283 49.4529L20.9641 48.2763C19.9242 48.0679 19.1292 47.6336 18.4756 46.9983L17.6392 47.8588ZM15.8936 43.9837C15.9779 45.5201 16.5723 46.8198 17.6388 47.8584L18.476 46.9987C17.6277 46.1725 17.1598 45.1574 17.0918 43.918L15.8936 43.9837ZM16.7704 44.3111C16.7969 44.2839 16.7918 44.2902 16.7796 44.3003C16.7718 44.3067 16.7459 44.328 16.7052 44.3499C16.6675 44.3702 16.5815 44.4107 16.4614 44.4146C16.3222 44.419 16.183 44.3722 16.0734 44.2795C15.9783 44.1991 15.936 44.1101 15.9192 44.0684C15.8888 43.9929 15.8917 43.9439 15.8934 43.9803L17.092 43.9214C17.0888 43.8558 17.0799 43.7383 17.0323 43.6201C17.0069 43.557 16.9546 43.4532 16.8484 43.3633C16.7276 43.2611 16.576 43.2103 16.4233 43.2152C16.2897 43.2194 16.1891 43.2648 16.136 43.2935C16.0798 43.3237 16.0375 43.3567 16.0126 43.3774C15.9661 43.4161 15.9236 43.4607 15.9108 43.4738L16.7704 44.3111ZM16.7253 44.3565C16.7434 44.3389 16.7602 44.3216 16.7704 44.3111L15.9108 43.4738C15.8989 43.486 15.8929 43.4921 15.8879 43.497L16.7253 44.3565ZM44.4453 46.2445H33.6853V47.4445H44.4453V46.2445ZM45.4976 46.1582C45.1581 46.2217 44.8072 46.2445 44.4453 46.2445V47.4445C44.8553 47.4445 45.2842 47.4189 45.7182 47.3378L45.4976 46.1582ZM49.2103 41.1827C49.4593 42.1891 49.1725 43.3097 48.4771 44.2592C47.7833 45.2065 46.7163 45.9335 45.4991 46.1579L45.7167 47.3381C47.2605 47.0534 48.5865 46.1408 49.4452 44.9682C50.3024 43.7977 50.7275 42.3181 50.3752 40.8944L49.2103 41.1827ZM45.9928 38.9218C46.8762 38.9218 47.5931 39.1481 48.125 39.529C48.653 39.9071 49.0322 40.4608 49.2102 41.1823L50.3753 40.8948C50.1329 39.9123 49.5978 39.1077 48.8237 38.5534C48.0536 38.0019 47.0808 37.7218 45.9928 37.7218V38.9218ZM24.6768 38.9218H45.9928V37.7218H24.6768V38.9218ZM23.7992 38.9597C24.1079 38.9399 24.3945 38.9218 24.6768 38.9218V37.7218C24.3497 37.7218 24.0248 37.7428 23.7226 37.7621L23.7992 38.9597ZM23.7608 38.9609H23.7609V37.7609H23.7608V38.9609ZM23.7608 38.9609H23.7608V37.7609H23.7608V38.9609ZM23.7608 38.9609H23.7608V37.7609H23.7608V38.9609ZM23.6979 38.9661L23.7989 38.9597L23.7226 37.7621L23.6216 37.7686L23.6979 38.9661ZM19.5854 43.4211C19.5086 40.8722 21.787 39.0916 23.6991 38.9661L23.6205 37.7687C21.2069 37.9271 18.2856 40.1279 18.3859 43.4572L19.5854 43.4211ZM22.7841 46.2445C21.8226 46.2421 21.0367 45.9414 20.4916 45.4569C19.9509 44.9763 19.6117 44.2848 19.5854 43.4209L18.3859 43.4574C18.4218 44.6351 18.8952 45.6435 19.6944 46.3539C20.4893 47.0603 21.5709 47.4415 22.7812 47.4445L22.7841 46.2445ZM30.0491 46.2456C27.6266 46.2468 25.2053 46.248 22.7835 46.2445L22.7817 47.4445C25.2049 47.448 27.6274 47.4468 30.0497 47.4456L30.0491 46.2456ZM30.0497 46.2456H30.0494V47.4456H30.0497V46.2456ZM30.05 46.2456H30.0497V47.4456H30.05V46.2456ZM30.0504 46.2456H30.05V47.4456H30.0504V46.2456ZM33.6853 46.2445C32.4733 46.2445 31.2615 46.245 30.0501 46.2456L30.0506 47.4456C31.2622 47.445 32.4736 47.4445 33.6853 47.4445V46.2445ZM33.0785 25.9852C33.0428 25.9977 33.0189 26.006 32.9962 26.013C32.9748 26.0196 32.961 26.0229 32.9518 26.0247C32.9371 26.0276 32.938 26.0258 32.9429 26.0267L32.7201 27.2058C33.0662 27.2712 33.3498 27.1616 33.474 27.1182L33.0785 25.9852ZM33.1174 25.9717L33.0795 25.9849L33.473 27.1185L33.511 27.1054L33.1174 25.9717ZM34.0736 25.6528C33.7574 25.7577 33.4397 25.863 33.1225 25.97L33.506 27.1071C33.8199 27.0012 34.1347 26.8968 34.4513 26.7918L34.0736 25.6528ZM34.0806 25.6505L34.0805 25.6506L34.4444 26.7941L34.4445 26.794L34.0806 25.6505ZM34.0808 25.6505L34.0806 25.6505L34.4445 26.794L34.4446 26.794L34.0808 25.6505ZM34.0809 25.6504L34.0808 25.6505L34.4446 26.794L34.4447 26.7939L34.0809 25.6504ZM36.3985 24.8552C35.6326 25.1358 34.858 25.3927 34.074 25.6527L34.4517 26.7917C35.2328 26.5327 36.025 26.27 36.8112 25.982L36.3985 24.8552ZM38.2319 24.8892C37.6588 24.6575 37.077 24.6056 36.3977 24.8555L36.8121 25.9817C37.1814 25.8459 37.4539 25.869 37.782 26.0017L38.2319 24.8892ZM40.543 25.7622C39.7587 25.4771 38.9866 25.1964 38.2332 24.8897L37.7807 26.0012C38.5589 26.3179 39.3525 26.6062 40.1331 26.89L40.543 25.7622ZM41.1423 25.9805C40.9424 25.9073 40.7423 25.8346 40.543 25.7621L40.1331 26.89C40.3326 26.9625 40.5313 27.0347 40.7296 27.1073L41.1423 25.9805ZM41.2552 26.0293C41.2404 26.0223 41.1937 25.9994 41.1428 25.9807L40.7292 27.1071C40.7245 27.1054 40.7212 27.1041 40.7196 27.1034C40.718 27.1028 40.7175 27.1025 40.7185 27.103C40.7196 27.1034 40.7214 27.1043 40.7247 27.1058C40.7281 27.1075 40.7318 27.1092 40.7373 27.1118L41.2552 26.0293ZM40.8257 26.1451C40.8602 26.11 40.9149 26.0687 40.991 26.0421C41.067 26.0156 41.1368 26.0132 41.1886 26.0189C41.2362 26.0241 41.2674 26.0359 41.2738 26.0383C41.2786 26.0402 41.2792 26.0408 41.2552 26.0293L40.7373 27.1118C40.7568 27.1212 40.8944 27.1939 41.0581 27.2118C41.2784 27.2359 41.5062 27.1649 41.6822 26.9856L40.8257 26.1451ZM40.7269 26.6767C40.7393 26.6968 40.7369 26.6936 40.7331 26.6862C40.7289 26.6779 40.7111 26.6428 40.6994 26.589C40.6868 26.5303 40.6811 26.4474 40.7068 26.3541C40.7326 26.2605 40.7803 26.1922 40.8222 26.1487L41.6857 26.982C41.7609 26.904 41.8283 26.8012 41.8636 26.6732C41.8988 26.5455 41.8924 26.4282 41.8723 26.3355C41.839 26.1812 41.7541 26.0563 41.7483 26.0469L40.7269 26.6767ZM40.6538 26.5413C40.6826 26.6069 40.7193 26.6644 40.7269 26.6767L41.7483 26.0468C41.7448 26.0413 41.7429 26.038 41.7411 26.0352C41.7395 26.0326 41.7391 26.0318 41.7394 26.0323C41.7396 26.0327 41.7411 26.0352 41.7432 26.0394C41.7453 26.0435 41.7487 26.0501 41.7525 26.0589L40.6538 26.5413ZM39.9206 24.8762L40.654 26.5419L41.7523 26.0583L41.0189 24.3926L39.9206 24.8762ZM37.9261 20.3509C38.5921 21.8584 39.2564 23.3674 39.9206 24.8761L41.0189 24.3927C40.3547 22.884 39.6901 21.3743 39.0238 19.8659L37.9261 20.3509ZM38.3346 20.4914C38.4368 20.3592 38.4906 20.2918 38.5253 20.2549C38.5419 20.2373 38.5333 20.2495 38.5043 20.2692C38.4762 20.2882 38.3865 20.3434 38.2499 20.3474C38.0963 20.352 37.9783 20.2901 37.91 20.2346C37.8795 20.2098 37.8598 20.1874 37.8497 20.1749C37.8394 20.1622 37.8343 20.154 37.8343 20.1539C37.834 20.1536 37.8364 20.1573 37.8415 20.1671C37.8466 20.1766 37.8531 20.1896 37.8614 20.2072C37.8786 20.2433 37.8989 20.2887 37.9255 20.3494L39.0244 19.8674C38.9769 19.759 38.9177 19.6234 38.8523 19.5186C38.8098 19.4506 38.6128 19.1361 38.2143 19.148C38.0382 19.1532 37.9062 19.2249 37.831 19.2759C37.7549 19.3274 37.6943 19.387 37.6517 19.4322C37.5683 19.5208 37.4755 19.6406 37.3851 19.7576L38.3346 20.4914ZM36.9654 22.2636C37.4213 21.6721 37.8764 21.0815 38.3338 20.4925L37.386 19.7565C36.927 20.3476 36.4705 20.9399 36.0149 21.5312L36.9654 22.2636ZM36.9678 22.2604L36.968 22.2603L36.0123 21.5345L36.0122 21.5346L36.9678 22.2604ZM33.6486 26.5049C34.778 25.1022 35.8738 23.6801 36.9653 22.2638L36.0148 21.5313C34.922 22.9493 33.834 24.3612 32.7139 25.7523L33.6486 26.5049ZM33.5275 26.6457C33.5603 26.609 33.6059 26.5583 33.6497 26.5036L32.7129 25.7537C32.6929 25.7786 32.6696 25.8049 32.6329 25.8459L33.5275 26.6457ZM33.5285 26.6446L33.5287 26.6444L32.6318 25.8472L32.6316 25.8474L33.5285 26.6446ZM33.525 26.6485L33.5253 26.6482L32.6348 25.8438L32.6345 25.8442L33.525 26.6485ZM33.5182 26.6559L33.5184 26.6558L32.6411 25.837L32.6409 25.8372L33.5182 26.6559ZM33.3913 26.8232C33.3951 26.8131 33.4029 26.7967 33.4235 26.7686C33.4469 26.7366 33.4757 26.7037 33.5268 26.6466L32.6323 25.8465C32.5454 25.9438 32.3679 26.1332 32.2669 26.404L33.3913 26.8232ZM33.2825 26.2205L33.2801 26.2178L32.3781 27.0093L32.3805 27.012L33.2825 26.2205ZM40.9683 28.7015C40.9809 28.6941 40.991 28.6882 41.0008 28.6825C41.0104 28.6771 41.0182 28.6727 41.0249 28.669C41.0387 28.6616 41.045 28.6588 41.0465 28.6582C41.0476 28.6577 41.0415 28.6604 41.0297 28.6631C41.0174 28.6659 41.0007 28.6684 40.9809 28.6684V27.4684C40.6738 27.4684 40.4364 27.6223 40.3625 27.6656L40.9683 28.7015ZM40.9651 28.7033L40.9652 28.7032L40.3656 27.6638L40.3654 27.6639L40.9651 28.7033ZM40.8669 28.7588C40.9062 28.7379 40.9432 28.7161 40.9681 28.7015L40.3624 27.6656C40.3338 27.6823 40.3176 27.6917 40.303 27.6995L40.8669 28.7588ZM39.9893 29.2299C40.2823 29.0727 40.5757 28.9153 40.869 28.7576L40.3008 27.7007C40.0081 27.858 39.7152 28.0151 39.4221 28.1724L39.9893 29.2299ZM39.9868 29.2312L39.9872 29.231L39.4242 28.1713L39.4238 28.1715L39.9868 29.2312ZM37.1555 30.7618C38.0953 30.2458 39.0404 29.7388 39.9889 29.2301L39.4217 28.1726C38.4741 28.6809 37.5237 29.1906 36.5779 29.71L37.1555 30.7618ZM35.7679 30.7333C35.9643 30.8658 36.196 30.9602 36.4671 30.9595C36.7271 30.9588 36.9574 30.8703 37.1549 30.7622L36.5786 29.7096C36.4775 29.7649 36.4493 29.7595 36.4638 29.7595C36.467 29.7595 36.4707 29.7597 36.4744 29.7604C36.478 29.761 36.4799 29.7616 36.4796 29.7615C36.4789 29.7613 36.466 29.7568 36.4388 29.7384L35.7679 30.7333ZM33.0825 28.9604C33.984 29.5487 34.8812 30.1343 35.7674 30.7331L36.4392 29.7387C35.5438 29.1337 34.6385 28.5429 33.7383 27.9554L33.0825 28.9604ZM32.6212 28.6592L33.0824 28.9603L33.7384 27.9555L33.2772 27.6544L32.6212 28.6592ZM32.5128 28.5764C32.523 28.5851 32.5665 28.6231 32.6186 28.6575L33.2798 27.6561C33.292 27.6642 33.2996 27.6702 33.3004 27.6709C33.301 27.6713 33.3006 27.6711 33.2988 27.6695C33.2968 27.6679 33.2945 27.6659 33.2902 27.6623L32.5128 28.5764ZM32.8406 28.631C32.8157 28.6383 32.7766 28.6458 32.7272 28.644C32.6766 28.6422 32.6287 28.6311 32.5869 28.6144C32.5473 28.5986 32.5206 28.5808 32.5093 28.5727C32.5007 28.5666 32.496 28.5621 32.5128 28.5764L33.2902 27.6623C33.2736 27.6482 33.1732 27.5563 33.0314 27.4998C32.8617 27.4321 32.6803 27.4277 32.5046 27.479L32.8406 28.631ZM33.2882 28.0897C33.2729 28.0631 33.2655 28.05 33.2596 28.0386C33.2545 28.0286 33.255 28.0284 33.2572 28.0347C33.2597 28.0418 33.2643 28.0568 33.2668 28.0778C33.2694 28.0995 33.2692 28.1222 33.2659 28.144L32.0792 27.966C32.0242 28.3326 32.2024 28.6086 32.2478 28.6876L33.2882 28.0897ZM33.3424 28.188C33.3223 28.1487 33.3011 28.1121 33.2882 28.0897L32.2478 28.6876C32.2632 28.7144 32.27 28.7265 32.2751 28.7365L33.3424 28.188ZM36.1566 33.9252C35.2528 31.9957 34.3177 30.0812 33.3422 28.1875L32.2754 28.737C33.2432 30.6156 34.1716 32.5164 35.0699 34.4342L36.1566 33.9252ZM35.6355 33.7553C35.5586 33.8487 35.5209 33.8909 35.5013 33.9098C35.4926 33.9182 35.5049 33.9047 35.5344 33.8862C35.5635 33.8679 35.6381 33.8264 35.7485 33.8168C35.8728 33.8059 35.986 33.8402 36.0716 33.8935C36.1447 33.9391 36.1827 33.9889 36.1919 34.0012C36.2047 34.0183 36.1979 34.0134 36.1567 33.9253L35.0699 34.4341C35.1039 34.5068 35.1581 34.6221 35.2294 34.7179C35.3003 34.813 35.5047 35.0426 35.8527 35.0122C36.1138 34.9894 36.2851 34.8211 36.3351 34.7729C36.4109 34.6996 36.4896 34.6059 36.5616 34.5184L35.6355 33.7553ZM37.2035 31.8491C36.6807 32.4845 36.1578 33.12 35.6351 33.7558L36.5621 34.5179C37.0846 33.8823 37.6073 33.247 38.1302 32.6116L37.2035 31.8491ZM37.2062 31.8458L37.2033 31.8494L38.1304 32.6112L38.1334 32.6076L37.2062 31.8458ZM40.3389 28.0337C39.2964 29.3056 38.2516 30.5753 37.2065 31.8455L38.1331 32.608C39.1781 31.3379 40.2236 30.0674 41.267 28.7944L40.3389 28.0337ZM40.4134 27.9502C40.3986 27.966 40.37 27.9964 40.3421 28.0298L41.2639 28.7982C41.2664 28.7952 41.2713 28.7897 41.2905 28.769L40.4134 27.9502ZM40.4165 27.9468L40.4164 27.9469L41.2875 28.7722L41.2876 28.7721L40.4165 27.9468ZM40.3887 28.1653C40.3828 28.1287 40.3826 28.0862 40.3913 28.0418C40.3999 27.9985 40.4146 27.9652 40.4263 27.9439C40.4373 27.924 40.4458 27.9143 40.4433 27.9173C40.4397 27.9217 40.4338 27.9283 40.4135 27.95L41.2906 28.7689C41.3369 28.7194 41.6479 28.429 41.573 27.9715L40.3887 28.1653ZM39.8857 27.4222C40.2791 27.5697 40.6786 27.7195 41.0877 27.8741L41.512 26.7516C41.1012 26.5963 40.7001 26.446 40.3069 26.2986L39.8857 27.4222ZM39.8855 27.4222L39.8856 27.4222L40.307 26.2986L40.3069 26.2986L39.8855 27.4222ZM39.8854 27.4221L39.8855 27.4222L40.3069 26.2986L40.3068 26.2985L39.8854 27.4221ZM39.8854 27.4221L39.8854 27.4221L40.3068 26.2985L40.3067 26.2985L39.8854 27.4221ZM37.513 26.5217C38.2913 26.8245 39.0756 27.1185 39.8854 27.4221L40.3067 26.2985C39.4956 25.9944 38.7183 25.703 37.9481 25.4033L37.513 26.5217ZM36.8746 26.5308C37.1408 26.4405 37.3267 26.4489 37.5122 26.5214L37.9489 25.4037C37.4623 25.2135 36.9819 25.2273 36.4893 25.3943L36.8746 26.5308ZM34.6369 27.2776C35.3811 27.032 36.1286 26.7854 36.8758 26.5303L36.4881 25.3947C35.7477 25.6474 35.0061 25.8921 34.2609 26.138L34.6369 27.2776ZM33.2661 27.7319C33.7224 27.5793 34.1791 27.4287 34.6369 27.2776L34.2609 26.138C33.8034 26.289 33.3446 26.4404 32.8857 26.5938L33.2661 27.7319ZM33.089 27.7755C33.1133 27.7709 33.1919 27.7572 33.27 27.7305L32.8817 26.5951C32.8888 26.5927 32.8939 26.5912 32.8963 26.5906C32.8986 26.59 32.8993 26.5898 32.8974 26.5903C32.8956 26.5907 32.8924 26.5913 32.8869 26.5924C32.8812 26.5936 32.875 26.5947 32.866 26.5964L33.089 27.7755ZM33.123 27.7681L33.123 27.7681L32.832 26.6039L32.832 26.6039L33.123 27.7681ZM33.3437 27.4735C33.3245 27.5427 33.2876 27.6102 33.2346 27.6668C33.1846 27.7203 33.1339 27.7495 33.1029 27.7641C33.0873 27.7715 33.0748 27.776 33.0673 27.7786C33.0597 27.7811 33.0551 27.7823 33.0549 27.7823C33.0547 27.7824 33.0568 27.7818 33.063 27.7806C33.0695 27.7792 33.0768 27.7778 33.089 27.7755L32.866 26.5964C32.8392 26.6015 32.7114 26.6219 32.5903 26.6791C32.4381 26.751 32.2585 26.8969 32.1875 27.1522L33.3437 27.4735ZM33.18 26.9587C33.1563 26.9467 33.1539 26.9452 33.155 26.9459C33.1559 26.9464 33.1824 26.9617 33.2153 26.9937C33.2501 27.0276 33.3047 27.0925 33.3366 27.1923C33.3706 27.2981 33.3649 27.3987 33.343 27.4761L32.1883 27.1496C32.1529 27.2745 32.1483 27.4164 32.1939 27.5586C32.2376 27.6948 32.3145 27.7915 32.3783 27.8536C32.4863 27.9587 32.6208 28.0206 32.638 28.0293L33.18 26.9587ZM33.2873 27.0177C33.2423 26.9897 33.1959 26.9668 33.1799 26.9587L32.638 28.0294C32.6437 28.0322 32.6478 28.0343 32.6516 28.0363C32.6553 28.0381 32.6577 28.0394 32.6593 28.0402C32.6609 28.0411 32.661 28.0412 32.6602 28.0407C32.6594 28.0403 32.657 28.0389 32.6534 28.0366L33.2873 27.0177ZM34.3945 27.7312C34.0278 27.4952 33.6616 27.2595 33.2959 27.0232L32.6447 28.0312C33.0114 28.2681 33.3784 28.5043 33.745 28.7403L34.3945 27.7312ZM34.3965 27.7326L34.3959 27.7321L33.7436 28.7394L33.7443 28.7398L34.3965 27.7326ZM34.3972 27.733L34.3965 27.7326L33.7443 28.7398L33.745 28.7403L34.3972 27.733ZM34.3992 27.7343L34.396 27.7322L33.7462 28.7411L33.7493 28.7431L34.3992 27.7343ZM34.4002 27.735L34.3995 27.7344L33.7491 28.7429L33.7499 28.7434L34.4002 27.735ZM34.408 27.7401L34.4079 27.74L33.7422 28.7384L33.7424 28.7385L34.408 27.7401ZM34.4082 27.7402L34.408 27.7401L33.7424 28.7385L33.7426 28.7386L34.4082 27.7402ZM36.6077 29.1629C35.8732 28.6832 35.1357 28.2084 34.4002 27.7349L33.7506 28.7439C34.4867 29.2178 35.2209 29.6904 35.9515 30.1676L36.6077 29.1629ZM36.6479 29.1089C36.6074 29.1304 36.5796 29.1423 36.5615 29.1486C36.5439 29.1547 36.5407 29.1537 36.5486 29.1531C36.5582 29.1524 36.5736 29.1529 36.5906 29.1574C36.6071 29.1618 36.6139 29.1669 36.6095 29.1641L35.9497 30.1664C36.1623 30.3063 36.3976 30.3687 36.6426 30.3494C36.8676 30.3318 37.0621 30.2479 37.2122 30.1679L36.6479 29.1089ZM39.6198 27.52C38.6288 28.0477 37.6363 28.5762 36.6454 29.1102L37.2147 30.1666C38.2025 29.6343 39.1924 29.1072 40.1838 28.5792L39.6198 27.52ZM40.727 26.936C40.3249 27.1472 39.9717 27.3327 39.6198 27.52L40.1838 28.5792C40.5322 28.3938 40.8823 28.2099 41.2849 27.9984L40.727 26.936ZM40.7305 26.9342L40.7299 26.9345L41.282 28L41.2826 27.9996L40.7305 26.9342ZM41.0208 26.7817L40.7275 26.9357L41.2856 27.9981L41.5789 27.844L41.0208 26.7817ZM33.7764 44.2783L33.7772 44.2783L33.7593 43.0784L33.7585 43.0784L33.7764 44.2783ZM32.698 44.2688C33.0625 44.2866 33.4289 44.2822 33.7743 44.2783L33.7606 43.0784C33.4088 43.0824 33.0788 43.086 32.7566 43.0702L32.698 44.2688ZM31.3256 41.8529C31.0074 42.372 30.9662 42.976 31.2601 43.4761C31.5487 43.9673 32.09 44.24 32.6989 44.2688L32.7557 43.0702C32.4601 43.0562 32.3355 42.9377 32.2947 42.8682C32.2591 42.8077 32.2251 42.6816 32.3487 42.48L31.3256 41.8529ZM33.0543 40.8968C32.4034 40.911 31.7418 41.1779 31.3264 41.8515L32.3478 42.4814C32.5074 42.2226 32.7491 42.1037 33.0805 42.0965L33.0543 40.8968ZM36.1947 40.8971C35.1466 40.8561 34.0933 40.8727 33.0534 40.8968L33.0813 42.0965C34.1187 42.0724 35.14 42.0568 36.1478 42.0962L36.1947 40.8971ZM37.3503 43.5564C37.7849 43.0555 37.9368 42.4096 37.6932 41.8376C37.4482 41.2621 36.8727 40.9247 36.1956 40.8971L36.1469 42.0961C36.4585 42.1088 36.561 42.2416 36.5892 42.3078C36.6189 42.3774 36.6394 42.5446 36.4439 42.7699L37.3503 43.5564ZM35.7463 44.2692C36.286 44.2525 36.8879 44.0892 37.3503 43.5563L36.4439 42.7699C36.2693 42.9711 36.0351 43.0597 35.7091 43.0698L35.7463 44.2692ZM34.6898 44.2748C35.0307 44.2776 35.3866 44.2807 35.7469 44.2692L35.7085 43.0698C35.3765 43.0804 35.0447 43.0777 34.6998 43.0748L34.6898 44.2748ZM34.2284 44.2722C34.3809 44.2722 34.5337 44.2735 34.6898 44.2748L34.6998 43.0748C34.5447 43.0735 34.3867 43.0722 34.2284 43.0722V44.2722ZM33.6371 43.5709L33.6366 43.5735L34.8203 43.7708L34.8207 43.7681L33.6371 43.5709ZM34.7195 44.015L34.7231 44.0097L33.7346 43.3293L33.7309 43.3347L34.7195 44.015ZM33.775 44.2783C33.928 44.2765 34.077 44.2749 34.2252 44.2749V43.0749C34.0691 43.0749 33.9132 43.0766 33.7614 43.0784L33.775 44.2783Z" fill="white" fill-opacity="0.2" mask="url(#path-4-inside-1_6073_14458)"/>
<defs>
<filter id="filter0_f_6073_14458" x="0.855713" y="70" width="82.4625" height="30" filterUnits="userSpaceOnUse" color-interpolation-filters="sRGB">
<feFlood flood-opacity="0" result="BackgroundImageFix"/>
<feBlend mode="normal" in="SourceGraphic" in2="BackgroundImageFix" result="shape"/>
<feGaussianBlur stdDeviation="5" result="effect1_foregroundBlur_6073_14458"/>
</filter>
<filter id="filter1_i_6073_14458" x="2.6228" y="-10.3066" width="78.3773" height="87.5146" filterUnits="userSpaceOnUse" color-interpolation-filters="sRGB">
<feFlood flood-opacity="0" result="BackgroundImageFix"/>
<feBlend mode="normal" in="SourceGraphic" in2="BackgroundImageFix" result="shape"/>
<feColorMatrix in="SourceAlpha" type="matrix" values="0 0 0 0 0 0 0 0 0 0 0 0 0 0 0 0 0 0 127 0" result="hardAlpha"/>
<feOffset dy="-12"/>
<feGaussianBlur stdDeviation="14"/>
<feComposite in2="hardAlpha" operator="arithmetic" k2="-1" k3="1"/>
<feColorMatrix type="matrix" values="0 0 0 0 0.908698 0 0 0 0 0.995833 0 0 0 0 0.990605 0 0 0 0.25 0"/>
<feBlend mode="normal" in2="shape" result="effect1_innerShadow_6073_14458"/>
</filter>
<filter id="filter2_i_6073_14458" x="2.6228" y="-10.3066" width="78.3773" height="87.5146" filterUnits="userSpaceOnUse" color-interpolation-filters="sRGB">
<feFlood flood-opacity="0" result="BackgroundImageFix"/>
<feBlend mode="normal" in="SourceGraphic" in2="BackgroundImageFix" result="shape"/>
<feColorMatrix in="SourceAlpha" type="matrix" values="0 0 0 0 0 0 0 0 0 0 0 0 0 0 0 0 0 0 127 0" result="hardAlpha"/>
<feOffset dy="-12"/>
<feGaussianBlur stdDeviation="14"/>
<feComposite in2="hardAlpha" operator="arithmetic" k2="-1" k3="1"/>
<feColorMatrix type="matrix" values="0 0 0 0 0.908698 0 0 0 0 0.995833 0 0 0 0 0.990605 0 0 0 0.25 0"/>
<feBlend mode="normal" in2="shape" result="effect1_innerShadow_6073_14458"/>
</filter>
<filter id="filter3_iii_6073_14458" x="1" y="-10" width="72.0446" height="80.0703" filterUnits="userSpaceOnUse" color-interpolation-filters="sRGB">
<feFlood flood-opacity="0" result="BackgroundImageFix"/>
<feBlend mode="normal" in="SourceGraphic" in2="BackgroundImageFix" result="shape"/>
<feColorMatrix in="SourceAlpha" type="matrix" values="0 0 0 0 0 0 0 0 0 0 0 0 0 0 0 0 0 0 127 0" result="hardAlpha"/>
<feOffset dy="-4"/>
<feGaussianBlur stdDeviation="5"/>
<feComposite in2="hardAlpha" operator="arithmetic" k2="-1" k3="1"/>
<feColorMatrix type="matrix" values="0 0 0 0 1 0 0 0 0 1 0 0 0 0 1 0 0 0 0.5 0"/>
<feBlend mode="normal" in2="shape" result="effect1_innerShadow_6073_14458"/>
<feColorMatrix in="SourceAlpha" type="matrix" values="0 0 0 0 0 0 0 0 0 0 0 0 0 0 0 0 0 0 127 0" result="hardAlpha"/>
<feOffset dy="-2"/>
<feGaussianBlur stdDeviation="4"/>
<feComposite in2="hardAlpha" operator="arithmetic" k2="-1" k3="1"/>
<feColorMatrix type="matrix" values="0 0 0 0 1 0 0 0 0 1 0 0 0 0 1 0 0 0 0.5 0"/>
<feBlend mode="normal" in2="effect1_innerShadow_6073_14458" result="effect2_innerShadow_6073_14458"/>
<feColorMatrix in="SourceAlpha" type="matrix" values="0 0 0 0 0 0 0 0 0 0 0 0 0 0 0 0 0 0 127 0" result="hardAlpha"/>
<feOffset dy="-10"/>
<feGaussianBlur stdDeviation="26"/>
<feComposite in2="hardAlpha" operator="arithmetic" k2="-1" k3="1"/>
<feColorMatrix type="matrix" values="0 0 0 0 1 0 0 0 0 1 0 0 0 0 1 0 0 0 0.25 0"/>
<feBlend mode="normal" in2="effect2_innerShadow_6073_14458" result="effect3_innerShadow_6073_14458"/>
</filter>
<linearGradient id="paint0_linear_6073_14458" x1="77.6585" y1="1.69336" x2="6.57205" y2="1.69336" gradientUnits="userSpaceOnUse">
<stop stop-color="#FFA883"/>
<stop offset="0.171875" stop-color="#FFB899"/>
<stop offset="0.416052" stop-color="#9874FE"/>
<stop offset="0.65625" stop-color="#5D36CD"/>
<stop offset="1" stop-color="#F1B58A"/>
</linearGradient>
<linearGradient id="paint1_linear_6073_14458" x1="41.8115" y1="1.69336" x2="41.8115" y2="77.2083" gradientUnits="userSpaceOnUse">
<stop stop-color="#9874FE"/>
<stop offset="0.192708" stop-color="#1A1823"/>
<stop offset="0.494792" stop-color="#2A1B56"/>
<stop offset="0.833333" stop-color="#A75759" stop-opacity="0.329897"/>
<stop offset="1" stop-color="#FE8D74" stop-opacity="0"/>
</linearGradient>
<linearGradient id="paint2_linear_6073_14458" x1="21.3682" y1="24.3485" x2="51.5506" y2="43.5567" gradientUnits="userSpaceOnUse">
<stop stop-color="white"/>
<stop offset="0.552083" stop-color="#9874FE"/>
<stop offset="1" stop-color="#FFAE8B"/>
</linearGradient>
</defs>
</svg>
