<svg width="84" height="100" viewBox="0 0 84 100" fill="none" xmlns="http://www.w3.org/2000/svg">
<g opacity="0.8" filter="url(#filter0_f_558_1581)">
<path d="M73.3064 85C73.3064 87.7609 59.3031 90 42.0292 90C24.7552 90 10.752 87.7609 10.752 85C10.752 82.2391 24.7552 80 42.0292 80C59.3031 80 73.3064 82.2391 73.3064 85Z" fill="black"/>
</g>
<g filter="url(#filter1_i_558_1581)">
<path d="M44.1745 1.71472C24.6413 1.71472 6.20241 17.3335 2.9891 36.6002C1.2339 47.1194 4.38058 56.5507 10.7788 62.9468L17.5757 69.7436C22.8959 75.0617 30.465 78.2815 39.3327 78.2815C58.866 78.2815 77.3059 62.6628 80.5192 43.396C82.2744 32.8769 79.1266 23.4444 72.7284 17.0484L65.9326 10.2526C60.6113 4.93459 53.0433 1.71472 44.1745 1.71472Z" fill="url(#paint0_linear_558_1581)"/>
</g>
<g filter="url(#filter2_i_558_1581)">
<path d="M44.1745 1.71472C24.6413 1.71472 6.20241 17.3335 2.9891 36.6002C1.2339 47.1194 4.38058 56.5507 10.7788 62.9468L17.5757 69.7436C22.8959 75.0617 30.465 78.2815 39.3327 78.2815C58.866 78.2815 77.3059 62.6628 80.5192 43.396C82.2744 32.8769 79.1266 23.4444 72.7284 17.0484L65.9326 10.2526C60.6113 4.93459 53.0433 1.71472 44.1745 1.71472Z" fill="url(#paint1_radial_558_1581)"/>
</g>
<g filter="url(#filter3_iii_558_1581)">
<path fill-rule="evenodd" clip-rule="evenodd" d="M26.4841 25.2384C23.9169 28.1768 21.9516 31.3904 20.7538 34.5863C18.6955 40.0778 18.903 45.5171 22.216 49.4185C24.618 52.2393 28.2362 53.8208 32.2817 53.8181C36.3266 53.821 40.4728 52.2396 43.8162 49.4185C46.2579 47.3546 48.1118 44.7542 49.1873 41.9493C49.5777 40.9311 49.8656 39.886 50.0417 38.8298L50.0437 38.8179C50.4894 36.1857 50.258 33.5942 49.3707 31.2834C49.0277 30.3891 48.3782 29.4754 47.5801 28.6187C46.0863 30.5258 43.5901 32.775 40.0316 32.7944C38.5818 32.8159 37.1706 32.4952 35.9727 31.6967C34.7745 30.9003 34.0206 29.7789 33.5723 28.5972C32.7274 26.3662 32.8547 23.6101 33.2947 20.9723C33.4005 20.3418 33.5336 19.7117 33.6934 19.0836C33.1814 19.4301 32.6844 19.7842 32.2021 20.1415C29.2526 22.3337 27.1648 24.4603 26.4841 25.2384ZM46.7365 34.7184C46.6003 34.0083 46.4421 33.1834 46.0372 32.7488C44.8852 34.2194 41.6975 35.6471 38.9531 35.662C37.835 35.6786 36.2518 35.662 35.2028 34.9648C34.9874 34.8217 34.8062 34.7171 34.6392 34.6206C34.0897 34.3033 33.694 34.0748 32.7402 32.8556L32.6402 32.6979C31.9679 31.6384 31.5466 30.9744 30.8242 28.7694C30.6421 28.2136 30.6767 27.1749 30.7054 26.3105C30.7215 25.8263 30.7358 25.3966 30.7092 25.1372C30.2905 25.6788 29.8224 26.2023 29.3936 26.6819C29.0596 27.0553 28.7494 27.4022 28.5052 27.71C27.5011 28.9754 27.2893 29.2735 26.8394 29.9064C26.7692 30.0052 26.693 30.1124 26.6074 30.2324C22.6697 35.747 21.1715 43.722 25.2137 48.4815C27.0661 50.6567 29.8566 51.8762 32.9765 51.8742C36.096 51.8765 39.2936 50.6569 41.872 48.4815C44.4386 46.3121 46.163 43.3743 46.6731 40.3161L46.6747 40.307C47.0184 38.2771 47.1238 37.6145 46.9628 35.662C46.8722 35.426 46.8074 35.0877 46.7365 34.7184Z" fill="url(#paint2_linear_558_1581)"/>
<path fill-rule="evenodd" clip-rule="evenodd" d="M32.8417 71.4893C52.7359 71.4893 70.8596 55.4859 73.322 35.7447C75.7844 16.0034 61.6531 0 41.7589 0C21.8647 0 3.74105 16.0034 1.27865 35.7447C-1.18375 55.4859 12.9475 71.4893 32.8417 71.4893ZM54.3346 38.971C53.481 44.0884 50.597 48.9948 46.3165 52.613C42.0258 56.2353 36.7037 58.2667 31.5113 58.2641C26.3177 58.2672 21.6729 56.2361 18.59 52.6141C11.5705 44.3488 15.5326 31.7809 23.2828 22.9108C24.7223 21.2642 29.59 16.4643 35.8697 13.2443C37.7412 12.2844 39.738 11.4654 41.808 10.9111C40.6088 12.844 39.7113 14.609 39.0501 16.2018C38.2721 18.0776 37.8205 19.7166 37.5875 21.1136C36.788 25.907 37.6242 28.6911 40.6519 28.6298C42.2426 28.6298 43.5134 27.4997 44.4558 26.1685C45.8056 24.2647 46.4868 21.953 46.4868 21.953C46.4868 21.953 48.1768 22.928 49.9503 24.5553C51.3263 25.8166 52.7509 27.4707 53.4771 29.3637C54.6082 32.3104 54.9031 35.6147 54.3346 38.971Z" fill="url(#paint3_linear_558_1581)"/>
</g>
<path d="M32.2815 53.5181H32.2819C36.2499 53.521 40.3288 51.9686 43.6227 49.1892C46.0272 47.1567 47.8505 44.5976 48.9072 41.8419C49.2907 40.8417 49.5731 39.816 49.7458 38.7804L49.7478 38.7685L49.7479 38.7678C50.1854 36.1843 49.9571 33.6477 49.0907 31.3909L49.0906 31.3909C48.7995 30.6319 48.2679 29.8435 47.5942 29.0806C46.055 30.9542 43.5538 33.0746 40.0349 33.0944C38.5393 33.1164 37.0655 32.7856 35.8067 31.9465L32.2815 53.5181ZM32.2815 53.5181C28.315 53.5207 24.784 51.9713 22.4447 49.2243C19.2272 45.4353 18.9988 40.1235 21.0347 34.6916C22.2183 31.5337 24.1634 28.3508 26.7099 25.4359C27.3768 24.6735 29.449 22.5615 32.3811 20.3822C32.6565 20.1783 32.9365 19.9754 33.2213 19.7745C33.1373 20.1568 33.0631 20.5396 32.9988 20.9226L32.9987 20.9229C32.5566 23.5735 32.4177 26.3955 33.2917 28.7035L33.2918 28.7036M32.2815 53.5181L33.2918 28.7036M33.2918 28.7036C33.7573 29.9307 34.5456 31.1082 35.8063 31.9463L33.2918 28.7036ZM32.9765 52.1742C36.1728 52.1765 39.4377 50.9279 42.0655 48.7108L42.0657 48.7106C44.6819 46.4993 46.4463 43.4996 46.9691 40.3655L46.6731 40.3161L46.9691 40.3654L46.9705 40.3571C47.316 38.3165 47.4257 37.6257 47.2618 35.6373L47.2582 35.5946L47.2429 35.5545C47.1641 35.3492 47.104 35.042 47.0311 34.6618L47.0296 34.6541C46.9625 34.3042 46.8864 33.9072 46.7744 33.5423C46.6628 33.1786 46.5057 32.8115 46.2567 32.5443L46.0174 32.2875L45.801 32.5638C45.2696 33.2422 44.2372 33.9418 42.9755 34.4749C41.7202 35.0054 40.2764 35.3548 38.9515 35.362L38.9487 35.362C38.3912 35.3703 37.7349 35.3698 37.0918 35.2837C36.4463 35.1973 35.8394 35.0277 35.3688 34.715C35.1456 34.5666 34.9576 34.4581 34.791 34.3619L34.7892 34.3608C34.5156 34.2028 34.3013 34.0786 34.0381 33.8499C33.7733 33.6199 33.4518 33.2775 32.9856 32.6824L32.8935 32.5372L32.8935 32.5371L32.8867 32.5264C32.229 31.4899 31.82 30.8454 31.1093 28.676C31.033 28.4431 30.9961 28.0827 30.9857 27.6485C30.9754 27.2214 30.9908 26.7545 31.0053 26.3204L31.0061 26.2949C31.0216 25.8309 31.0364 25.3865 31.0076 25.1066L30.931 24.3598L30.4719 24.9537C30.0608 25.4854 29.5999 26.0011 29.1699 26.4819L29.1654 26.487C28.8349 26.8565 28.5199 27.2088 28.2702 27.5235C27.263 28.7928 27.048 29.0951 26.5949 29.7326L26.8394 29.9064L26.5949 29.7327C26.5247 29.8314 26.4487 29.9383 26.3632 30.058C24.3673 32.8532 22.9875 36.2737 22.6199 39.6072C22.2523 42.9405 22.8953 46.2151 24.985 48.6757L24.9853 48.676C26.9004 50.9248 29.7778 52.1762 32.9765 52.1742ZM32.9765 52.1742C32.9764 52.1742 32.9764 52.1742 32.9763 52.1742L32.9765 51.8742L32.9767 52.1742C32.9766 52.1742 32.9766 52.1742 32.9765 52.1742ZM46.4868 21.953L46.6367 21.6931L46.3067 21.5027L46.199 21.8681L46.4868 21.953ZM46.4868 21.953C46.6367 21.6931 46.6367 21.6932 46.6368 21.6932L46.6369 21.6933L46.6373 21.6935L46.6385 21.6942L46.6427 21.6966L46.6583 21.7058C46.6719 21.7138 46.6917 21.7255 46.7173 21.7409C46.7686 21.7717 46.8432 21.8172 46.938 21.8767C47.1276 21.9957 47.3982 22.171 47.7245 22.3975C48.3767 22.8502 49.2539 23.5092 50.1531 24.3342M46.4868 21.953L50.1531 24.3342M50.1531 24.3342C51.5443 25.6094 53.0071 27.3009 53.7572 29.2563M50.1531 24.3342L53.7572 29.2563M53.7572 29.2563C54.909 32.257 55.2071 35.6161 54.6304 39.0211C53.764 44.2142 50.8401 49.1821 46.5102 52.8421L46.51 52.8422C42.1699 56.5062 36.7805 58.5667 31.5113 58.5641M53.7572 29.2563L46.199 21.8682L46.199 21.8683L46.1987 21.8692L46.1974 21.8735L46.1919 21.8917C46.1869 21.9081 46.1792 21.9328 46.169 21.9652C46.1484 22.03 46.1173 22.1254 46.0756 22.2462C45.9924 22.4878 45.8672 22.8304 45.7004 23.2317C45.3661 24.0364 44.8683 25.068 44.2111 25.995L44.211 25.9951C43.284 27.3045 42.0915 28.3298 40.6519 28.3298V28.3297L40.6458 28.3298C39.9356 28.3442 39.3794 28.1917 38.9496 27.9056C38.5202 27.6198 38.1914 27.1837 37.965 26.5859C37.5067 25.3755 37.4858 23.547 37.8834 21.1629C38.1124 19.7905 38.5572 18.1734 39.3272 16.3167C39.9817 14.7402 40.8715 12.9896 42.063 11.0693L42.4625 10.4253L41.7304 10.6213C39.6361 11.1821 37.6193 12.0097 35.7328 12.9774C29.4096 16.2197 24.5131 21.0477 23.0569 22.7134L23.0569 22.7134C19.1552 27.1788 16.1982 32.5841 15.1039 37.9291C14.0086 43.2784 14.7772 48.588 18.3614 52.8083L18.3616 52.8085C21.5071 56.5042 26.2389 58.5672 31.5113 58.5641M31.5113 58.5641C31.5113 58.5641 31.5114 58.5641 31.5114 58.5641L31.5113 58.2641L31.5111 58.5641C31.5112 58.5641 31.5112 58.5641 31.5113 58.5641ZM73.0243 35.7075C70.5806 55.2986 52.5846 71.1893 32.8417 71.1893C13.1279 71.1893 -0.863729 55.344 1.57634 35.7818C4.02001 16.1907 22.016 0.3 41.7589 0.3C61.4727 0.3 75.4643 16.1453 73.0243 35.7075Z" stroke="white" stroke-opacity="0.2" stroke-width="0.6"/>
<defs>
<filter id="filter0_f_558_1581" x="0.751953" y="70" width="82.5547" height="30" filterUnits="userSpaceOnUse" color-interpolation-filters="sRGB">
<feFlood flood-opacity="0" result="BackgroundImageFix"/>
<feBlend mode="normal" in="SourceGraphic" in2="BackgroundImageFix" result="shape"/>
<feGaussianBlur stdDeviation="5" result="effect1_foregroundBlur_558_1581"/>
</filter>
<filter id="filter1_i_558_1581" x="2.50781" y="-10.2853" width="78.4922" height="88.5668" filterUnits="userSpaceOnUse" color-interpolation-filters="sRGB">
<feFlood flood-opacity="0" result="BackgroundImageFix"/>
<feBlend mode="normal" in="SourceGraphic" in2="BackgroundImageFix" result="shape"/>
<feColorMatrix in="SourceAlpha" type="matrix" values="0 0 0 0 0 0 0 0 0 0 0 0 0 0 0 0 0 0 127 0" result="hardAlpha"/>
<feOffset dy="-12"/>
<feGaussianBlur stdDeviation="14"/>
<feComposite in2="hardAlpha" operator="arithmetic" k2="-1" k3="1"/>
<feColorMatrix type="matrix" values="0 0 0 0 0.908698 0 0 0 0 0.995833 0 0 0 0 0.990605 0 0 0 0.25 0"/>
<feBlend mode="normal" in2="shape" result="effect1_innerShadow_558_1581"/>
</filter>
<filter id="filter2_i_558_1581" x="2.50781" y="-10.2853" width="78.4922" height="88.5668" filterUnits="userSpaceOnUse" color-interpolation-filters="sRGB">
<feFlood flood-opacity="0" result="BackgroundImageFix"/>
<feBlend mode="normal" in="SourceGraphic" in2="BackgroundImageFix" result="shape"/>
<feColorMatrix in="SourceAlpha" type="matrix" values="0 0 0 0 0 0 0 0 0 0 0 0 0 0 0 0 0 0 127 0" result="hardAlpha"/>
<feOffset dy="-12"/>
<feGaussianBlur stdDeviation="14"/>
<feComposite in2="hardAlpha" operator="arithmetic" k2="-1" k3="1"/>
<feColorMatrix type="matrix" values="0 0 0 0 0.908698 0 0 0 0 0.995833 0 0 0 0 0.990605 0 0 0 0.25 0"/>
<feBlend mode="normal" in2="shape" result="effect1_innerShadow_558_1581"/>
</filter>
<filter id="filter3_iii_558_1581" x="1" y="-10" width="72.6016" height="81.4893" filterUnits="userSpaceOnUse" color-interpolation-filters="sRGB">
<feFlood flood-opacity="0" result="BackgroundImageFix"/>
<feBlend mode="normal" in="SourceGraphic" in2="BackgroundImageFix" result="shape"/>
<feColorMatrix in="SourceAlpha" type="matrix" values="0 0 0 0 0 0 0 0 0 0 0 0 0 0 0 0 0 0 127 0" result="hardAlpha"/>
<feOffset dy="-4"/>
<feGaussianBlur stdDeviation="5"/>
<feComposite in2="hardAlpha" operator="arithmetic" k2="-1" k3="1"/>
<feColorMatrix type="matrix" values="0 0 0 0 1 0 0 0 0 1 0 0 0 0 1 0 0 0 0.5 0"/>
<feBlend mode="normal" in2="shape" result="effect1_innerShadow_558_1581"/>
<feColorMatrix in="SourceAlpha" type="matrix" values="0 0 0 0 0 0 0 0 0 0 0 0 0 0 0 0 0 0 127 0" result="hardAlpha"/>
<feOffset dy="-2"/>
<feGaussianBlur stdDeviation="4"/>
<feComposite in2="hardAlpha" operator="arithmetic" k2="-1" k3="1"/>
<feColorMatrix type="matrix" values="0 0 0 0 1 0 0 0 0 1 0 0 0 0 1 0 0 0 0.5 0"/>
<feBlend mode="normal" in2="effect1_innerShadow_558_1581" result="effect2_innerShadow_558_1581"/>
<feColorMatrix in="SourceAlpha" type="matrix" values="0 0 0 0 0 0 0 0 0 0 0 0 0 0 0 0 0 0 127 0" result="hardAlpha"/>
<feOffset dy="-10"/>
<feGaussianBlur stdDeviation="26"/>
<feComposite in2="hardAlpha" operator="arithmetic" k2="-1" k3="1"/>
<feColorMatrix type="matrix" values="0 0 0 0 1 0 0 0 0 1 0 0 0 0 1 0 0 0 0.25 0"/>
<feBlend mode="normal" in2="effect2_innerShadow_558_1581" result="effect3_innerShadow_558_1581"/>
</filter>
<linearGradient id="paint0_linear_558_1581" x1="77.6538" y1="1.71472" x2="6.46287" y2="1.71472" gradientUnits="userSpaceOnUse">
<stop stop-color="#50FEBF"/>
<stop offset="0.171875" stop-color="#4AAD89"/>
<stop offset="0.416052" stop-color="#06FFFF"/>
<stop offset="0.65625" stop-color="#53E6C3"/>
<stop offset="1" stop-color="#00FE84"/>
</linearGradient>
<radialGradient id="paint1_radial_558_1581" cx="0" cy="0" r="1" gradientUnits="userSpaceOnUse" gradientTransform="translate(39.9566 39.4664) rotate(28.975) scale(42.8068 78.7327)">
<stop stop-color="#34F88E"/>
<stop offset="0.34375" stop-color="#03442D"/>
<stop offset="1" stop-color="#00FF66" stop-opacity="0"/>
</radialGradient>
<linearGradient id="paint2_linear_558_1581" x1="20.9526" y1="6.10416" x2="48.4296" y2="61.0175" gradientUnits="userSpaceOnUse">
<stop offset="0.00325446" stop-color="white"/>
<stop offset="0.348958" stop-color="#32CD79"/>
<stop offset="0.75" stop-color="#05D98D"/>
<stop offset="1" stop-color="#049E79"/>
</linearGradient>
<linearGradient id="paint3_linear_558_1581" x1="20.9526" y1="6.10416" x2="48.4296" y2="61.0175" gradientUnits="userSpaceOnUse">
<stop offset="0.00325446" stop-color="white"/>
<stop offset="0.348958" stop-color="#32CD79"/>
<stop offset="0.75" stop-color="#05D98D"/>
<stop offset="1" stop-color="#049E79"/>
</linearGradient>
</defs>
</svg>
