<svg width="81" height="79" viewBox="0 0 81 79" fill="none" xmlns="http://www.w3.org/2000/svg">
<g filter="url(#filter0_i_2822_5569)">
<path d="M43.5097 1.72949C23.8248 1.72949 5.2428 17.4698 2.00455 36.8865C0.23573 47.4875 3.40684 56.9922 9.85472 63.438L16.7044 70.2878C22.0659 75.6472 29.6937 78.8921 38.6303 78.8921C58.3151 78.8921 76.8982 63.1518 80.1365 43.7352C81.9053 33.1341 78.7331 23.6283 72.2852 17.1825L65.4366 10.3338C60.0741 4.97442 52.4473 1.72949 43.5097 1.72949Z" fill="url(#paint0_linear_2822_5569)"/>
</g>
<g filter="url(#filter1_i_2822_5569)">
<path d="M43.5097 1.72949C23.8248 1.72949 5.2428 17.4698 2.00455 36.8865C0.23573 47.4875 3.40684 56.9922 9.85472 63.438L16.7044 70.2878C22.0659 75.6472 29.6937 78.8921 38.6303 78.8921C58.3151 78.8921 76.8982 63.1518 80.1365 43.7352C81.9053 33.1341 78.7331 23.6283 72.2852 17.1825L65.4366 10.3338C60.0741 4.97442 52.4473 1.72949 43.5097 1.72949Z" fill="url(#paint1_radial_2822_5569)"/>
</g>
<g filter="url(#filter2_iii_2822_5569)">
<path fill-rule="evenodd" clip-rule="evenodd" d="M32.0889 72.0456C52.1375 72.0456 70.4018 55.9177 72.8833 36.0228C75.3648 16.128 61.1239 0 41.0752 0C21.0266 0 2.76232 16.128 0.28081 36.0228C-2.2007 55.9177 12.0403 72.0456 32.0889 72.0456Z" fill="url(#paint2_linear_2822_5569)"/>
</g>
<path d="M72.7643 36.008C70.2902 55.8428 52.077 71.9256 32.0889 71.9256C12.1124 71.9256 -2.07269 55.8609 0.399887 36.0377C2.87391 16.2029 21.0871 0.120001 41.0752 0.120001C61.0517 0.120001 75.2368 16.1847 72.7643 36.008Z" stroke="white" stroke-opacity="0.2" stroke-width="0.240001"/>
<g filter="url(#filter3_i_2822_5569)">
<path fill-rule="evenodd" clip-rule="evenodd" d="M19.2362 29.0841L46.2236 25.9867C47.024 25.8957 47.7963 25.4783 48.3704 24.8318L52.9323 19.7023C53.7201 18.8189 53.1959 17.5196 52.1038 17.6452L25.2069 20.7301C24.419 20.8211 23.6561 21.2259 23.082 21.8599L18.4171 27.0145C17.6183 27.8963 18.1379 29.2097 19.2362 29.0841ZM48.2808 29.7562C47.7269 29.2384 46.9671 28.9998 46.1668 29.0909L19.1809 32.1883C18.0826 32.3138 17.5131 33.7512 18.2823 34.4526L22.7771 38.5559C23.3309 39.0595 24.0813 39.2933 24.8692 39.2023L51.7661 36.1159C52.8582 35.9903 53.4308 34.5656 52.6726 33.8579L48.2808 29.7546V29.7562ZM24.8132 42.3071L51.7102 39.2206V39.2222C52.8023 39.0966 53.3265 40.3959 52.5386 41.2809L47.9767 46.4103C47.4026 47.0568 46.6303 47.4742 45.83 47.5652L18.8425 50.6627C17.7442 50.7882 17.2247 49.4749 18.0235 48.593L22.6883 43.4384C23.2624 42.8045 24.0254 42.3981 24.8132 42.3071Z" fill="#9534B1"/>
</g>
<defs>
<filter id="filter0_i_2822_5569" x="1.51953" y="-3.07053" width="79.1016" height="81.9631" filterUnits="userSpaceOnUse" color-interpolation-filters="sRGB">
<feFlood flood-opacity="0" result="BackgroundImageFix"/>
<feBlend mode="normal" in="SourceGraphic" in2="BackgroundImageFix" result="shape"/>
<feColorMatrix in="SourceAlpha" type="matrix" values="0 0 0 0 0 0 0 0 0 0 0 0 0 0 0 0 0 0 127 0" result="hardAlpha"/>
<feOffset dy="-4.80002"/>
<feGaussianBlur stdDeviation="5.60003"/>
<feComposite in2="hardAlpha" operator="arithmetic" k2="-1" k3="1"/>
<feColorMatrix type="matrix" values="0 0 0 0 0.908698 0 0 0 0 0.995833 0 0 0 0 0.990605 0 0 0 0.25 0"/>
<feBlend mode="normal" in2="shape" result="effect1_innerShadow_2822_5569"/>
</filter>
<filter id="filter1_i_2822_5569" x="1.51953" y="-3.07053" width="79.1016" height="81.9631" filterUnits="userSpaceOnUse" color-interpolation-filters="sRGB">
<feFlood flood-opacity="0" result="BackgroundImageFix"/>
<feBlend mode="normal" in="SourceGraphic" in2="BackgroundImageFix" result="shape"/>
<feColorMatrix in="SourceAlpha" type="matrix" values="0 0 0 0 0 0 0 0 0 0 0 0 0 0 0 0 0 0 127 0" result="hardAlpha"/>
<feOffset dy="-4.80002"/>
<feGaussianBlur stdDeviation="5.60003"/>
<feComposite in2="hardAlpha" operator="arithmetic" k2="-1" k3="1"/>
<feColorMatrix type="matrix" values="0 0 0 0 0.995833 0 0 0 0 0.971435 0 0 0 0 0.908698 0 0 0 0.25 0"/>
<feBlend mode="normal" in2="shape" result="effect1_innerShadow_2822_5569"/>
</filter>
<filter id="filter2_iii_2822_5569" x="0" y="-4.00002" width="73.1641" height="76.0459" filterUnits="userSpaceOnUse" color-interpolation-filters="sRGB">
<feFlood flood-opacity="0" result="BackgroundImageFix"/>
<feBlend mode="normal" in="SourceGraphic" in2="BackgroundImageFix" result="shape"/>
<feColorMatrix in="SourceAlpha" type="matrix" values="0 0 0 0 0 0 0 0 0 0 0 0 0 0 0 0 0 0 127 0" result="hardAlpha"/>
<feOffset dy="-1.60001"/>
<feGaussianBlur stdDeviation="2.00001"/>
<feComposite in2="hardAlpha" operator="arithmetic" k2="-1" k3="1"/>
<feColorMatrix type="matrix" values="0 0 0 0 1 0 0 0 0 1 0 0 0 0 1 0 0 0 0.5 0"/>
<feBlend mode="normal" in2="shape" result="effect1_innerShadow_2822_5569"/>
<feColorMatrix in="SourceAlpha" type="matrix" values="0 0 0 0 0 0 0 0 0 0 0 0 0 0 0 0 0 0 127 0" result="hardAlpha"/>
<feOffset dy="-0.800004"/>
<feGaussianBlur stdDeviation="1.60001"/>
<feComposite in2="hardAlpha" operator="arithmetic" k2="-1" k3="1"/>
<feColorMatrix type="matrix" values="0 0 0 0 1 0 0 0 0 1 0 0 0 0 1 0 0 0 0.5 0"/>
<feBlend mode="normal" in2="effect1_innerShadow_2822_5569" result="effect2_innerShadow_2822_5569"/>
<feColorMatrix in="SourceAlpha" type="matrix" values="0 0 0 0 0 0 0 0 0 0 0 0 0 0 0 0 0 0 127 0" result="hardAlpha"/>
<feOffset dy="-4.00002"/>
<feGaussianBlur stdDeviation="10.4"/>
<feComposite in2="hardAlpha" operator="arithmetic" k2="-1" k3="1"/>
<feColorMatrix type="matrix" values="0 0 0 0 1 0 0 0 0 1 0 0 0 0 1 0 0 0 0.25 0"/>
<feBlend mode="normal" in2="effect2_innerShadow_2822_5569" result="effect3_innerShadow_2822_5569"/>
</filter>
<filter id="filter3_i_2822_5569" x="17.6367" y="17.6367" width="36.6738" height="34.0342" filterUnits="userSpaceOnUse" color-interpolation-filters="sRGB">
<feFlood flood-opacity="0" result="BackgroundImageFix"/>
<feBlend mode="normal" in="SourceGraphic" in2="BackgroundImageFix" result="shape"/>
<feColorMatrix in="SourceAlpha" type="matrix" values="0 0 0 0 0 0 0 0 0 0 0 0 0 0 0 0 0 0 127 0" result="hardAlpha"/>
<feOffset dx="2" dy="2"/>
<feGaussianBlur stdDeviation="0.5"/>
<feComposite in2="hardAlpha" operator="arithmetic" k2="-1" k3="1"/>
<feColorMatrix type="matrix" values="0 0 0 0 0.408056 0 0 0 0 0.0159201 0 0 0 0 0.545833 0 0 0 0.88 0"/>
<feBlend mode="normal" in2="shape" result="effect1_innerShadow_2822_5569"/>
</filter>
<linearGradient id="paint0_linear_2822_5569" x1="77.2488" y1="1.72949" x2="5.50529" y2="1.72949" gradientUnits="userSpaceOnUse">
<stop stop-color="#1FE4B5"/>
<stop offset="0.171875" stop-color="#55B1C5"/>
<stop offset="0.416052" stop-color="#4EB9C3"/>
<stop offset="0.65625" stop-color="#9A72D9"/>
<stop offset="1" stop-color="#2BD9B9"/>
</linearGradient>
<radialGradient id="paint1_radial_2822_5569" cx="0" cy="0" r="1" gradientUnits="userSpaceOnUse" gradientTransform="translate(39.259 39.775) rotate(28.9755) scale(43.1393 79.345)">
<stop stop-color="#2BD9B9"/>
<stop offset="0.34375" stop-color="#563708"/>
<stop offset="1" stop-color="#BA54E2"/>
</radialGradient>
<linearGradient id="paint2_linear_2822_5569" x1="20.2884" y1="5.0452" x2="48.5334" y2="61.4923" gradientUnits="userSpaceOnUse">
<stop offset="0.00325446" stop-color="white"/>
<stop offset="0.348958" stop-color="#1BE8B4"/>
<stop offset="0.75" stop-color="#48BEC1"/>
<stop offset="1" stop-color="#8289D2"/>
</linearGradient>
</defs>
</svg>
