<svg width="84" height="100" viewBox="0 0 84 100" fill="none" xmlns="http://www.w3.org/2000/svg">
<g opacity="0.8" filter="url(#filter0_f_8108_17737)">
<path d="M73.3084 85C73.3084 87.7609 59.308 90 42.0375 90C24.767 90 10.7666 87.7609 10.7666 85C10.7666 82.2391 24.767 80 42.0375 80C59.308 80 73.3084 82.2391 73.3084 85Z" fill="black"/>
</g>
<g filter="url(#filter1_i_8108_17737)">
<path d="M44.1813 1.71484C24.6519 1.71484 6.2168 17.3336 3.00414 36.6004C1.24929 47.1195 4.39534 56.5508 10.7923 62.9469L17.5878 69.7438C22.9069 75.0618 30.4745 78.2817 39.3404 78.2817C58.8698 78.2817 77.306 62.6629 80.5187 43.3961C82.2735 32.877 79.1264 23.4446 72.7294 17.0485L65.935 10.2527C60.6148 4.93471 53.0483 1.71484 44.1813 1.71484Z" fill="url(#paint0_linear_8108_17737)"/>
</g>
<g filter="url(#filter2_i_8108_17737)">
<path d="M44.1813 1.71484C24.6519 1.71484 6.2168 17.3336 3.00414 36.6004C1.24929 47.1195 4.39534 56.5508 10.7923 62.9469L17.5878 69.7438C22.9069 75.0618 30.4745 78.2817 39.3404 78.2817C58.8698 78.2817 77.306 62.6629 80.5187 43.3961C82.2735 32.877 79.1264 23.4446 72.7294 17.0485L65.935 10.2527C60.6148 4.93471 53.0483 1.71484 44.1813 1.71484Z" fill="url(#paint1_radial_8108_17737)"/>
</g>
<mask id="path-4-inside-1_8108_17737" fill="white">
<path fill-rule="evenodd" clip-rule="evenodd" d="M32.572 72C52.2976 72 70.2677 55.8822 72.7092 36C75.1507 16.1178 61.1392 0 41.4135 0C21.6879 0 3.71782 16.1178 1.27629 36C-1.16525 55.8822 12.8463 72 32.572 72ZM48.1509 35.1694L52.8178 45.7263C53.5101 47.2927 53.2049 49.1142 52.0413 50.3695C50.8752 51.6242 49.0714 52.0727 47.4461 51.5115L36.4837 47.7349C35.2929 47.3252 34.3824 46.455 33.9039 45.3777C33.7927 45.1309 33.5734 44.9499 33.3095 44.8904C33.0458 44.831 32.7677 44.8999 32.5637 45.0756C31.6693 45.8435 30.4736 46.2389 29.2221 46.0982L17.6996 44.8067C15.9912 44.6141 14.5542 43.4351 14.0387 41.8037C13.5259 40.1706 14.0318 38.3944 15.329 37.2764L24.0736 29.7425C25.0236 28.9238 26.235 28.5781 27.413 28.7073C27.6814 28.7361 27.9465 28.6376 28.1308 28.4403C28.3127 28.2426 28.3912 27.9705 28.3405 27.7057C28.1178 26.5496 28.3674 25.3222 29.1119 24.3159L35.9675 15.0506C36.9837 13.6768 38.7263 13.0319 40.4051 13.4103C42.0839 13.7887 43.3819 15.1165 43.71 16.7957L45.9278 28.1061C46.1709 29.335 45.8676 30.5504 45.1704 31.4991C45.0109 31.7165 44.9628 31.9955 45.0446 32.2527C45.1243 32.5094 45.3238 32.7126 45.5784 32.8017C46.6979 33.1904 47.6439 34.0224 48.1509 35.1694ZM38.6186 16.9928L31.7535 26.2681L31.7512 26.2675C31.5356 26.56 31.4813 26.9424 31.6106 27.2833C31.7398 27.6242 32.0335 27.8779 32.3907 27.9585L41.4058 29.9904C41.7654 30.0715 42.1371 29.9677 42.4001 29.7152C42.6631 29.4627 42.7782 29.094 42.7089 28.7374L40.4867 17.4138C40.4062 17.0084 40.0935 16.687 39.6894 16.5959C39.2856 16.5049 38.8653 16.661 38.6186 16.9928ZM29.5944 42.857C29.9583 42.8977 30.3191 42.7549 30.5518 42.4736L30.5536 42.4764C30.7858 42.1976 30.8612 41.82 30.7509 41.471L30.7465 41.458L27.9939 32.7162L27.9895 32.7029C27.8792 32.3541 27.6014 32.0845 27.2483 31.9854C26.8958 31.8841 26.5183 31.9695 26.2416 32.2067L17.4879 39.7483C17.1742 40.0186 17.0508 40.4462 17.1756 40.8398C17.3003 41.2334 17.6487 41.5164 18.0602 41.5629L29.5944 42.857ZM34.3629 40.2171C34.7459 40.3035 35.142 40.1783 35.4072 39.8947L40.1963 34.7358C40.4614 34.4521 40.5524 34.0487 40.435 33.6765C40.3177 33.304 40.0102 33.0253 39.6296 32.9395L32.7253 31.3833C32.3424 31.297 31.9462 31.4219 31.681 31.7057C31.4159 31.9894 31.3245 32.3951 31.4423 32.7651L33.5575 39.4802C33.6753 39.8503 33.9823 40.1314 34.3629 40.2171ZM48.5137 48.4295C48.9076 48.5646 49.342 48.4555 49.6235 48.1535L49.6258 48.154C49.905 47.8515 49.9794 47.4128 49.8121 47.0341L45.1401 36.4664C44.9919 36.1334 44.6871 35.8966 44.3256 35.8346C43.9642 35.7726 43.5976 35.897 43.3483 36.1648L43.3387 36.1749L37.1021 42.8905L37.0924 42.9004C36.8437 43.1658 36.7497 43.5394 36.8393 43.8932C36.9288 44.2471 37.1935 44.5309 37.5396 44.6503L48.5137 48.4295Z"/>
</mask>
<g filter="url(#filter3_iii_8108_17737)">
<path fill-rule="evenodd" clip-rule="evenodd" d="M32.572 72C52.2976 72 70.2677 55.8822 72.7092 36C75.1507 16.1178 61.1392 0 41.4135 0C21.6879 0 3.71782 16.1178 1.27629 36C-1.16525 55.8822 12.8463 72 32.572 72ZM48.1509 35.1694L52.8178 45.7263C53.5101 47.2927 53.2049 49.1142 52.0413 50.3695C50.8752 51.6242 49.0714 52.0727 47.4461 51.5115L36.4837 47.7349C35.2929 47.3252 34.3824 46.455 33.9039 45.3777C33.7927 45.1309 33.5734 44.9499 33.3095 44.8904C33.0458 44.831 32.7677 44.8999 32.5637 45.0756C31.6693 45.8435 30.4736 46.2389 29.2221 46.0982L17.6996 44.8067C15.9912 44.6141 14.5542 43.4351 14.0387 41.8037C13.5259 40.1706 14.0318 38.3944 15.329 37.2764L24.0736 29.7425C25.0236 28.9238 26.235 28.5781 27.413 28.7073C27.6814 28.7361 27.9465 28.6376 28.1308 28.4403C28.3127 28.2426 28.3912 27.9705 28.3405 27.7057C28.1178 26.5496 28.3674 25.3222 29.1119 24.3159L35.9675 15.0506C36.9837 13.6768 38.7263 13.0319 40.4051 13.4103C42.0839 13.7887 43.3819 15.1165 43.71 16.7957L45.9278 28.1061C46.1709 29.335 45.8676 30.5504 45.1704 31.4991C45.0109 31.7165 44.9628 31.9955 45.0446 32.2527C45.1243 32.5094 45.3238 32.7126 45.5784 32.8017C46.6979 33.1904 47.6439 34.0224 48.1509 35.1694ZM38.6186 16.9928L31.7535 26.2681L31.7512 26.2675C31.5356 26.56 31.4813 26.9424 31.6106 27.2833C31.7398 27.6242 32.0335 27.8779 32.3907 27.9585L41.4058 29.9904C41.7654 30.0715 42.1371 29.9677 42.4001 29.7152C42.6631 29.4627 42.7782 29.094 42.7089 28.7374L40.4867 17.4138C40.4062 17.0084 40.0935 16.687 39.6894 16.5959C39.2856 16.5049 38.8653 16.661 38.6186 16.9928ZM29.5944 42.857C29.9583 42.8977 30.3191 42.7549 30.5518 42.4736L30.5536 42.4764C30.7858 42.1976 30.8612 41.82 30.7509 41.471L30.7465 41.458L27.9939 32.7162L27.9895 32.7029C27.8792 32.3541 27.6014 32.0845 27.2483 31.9854C26.8958 31.8841 26.5183 31.9695 26.2416 32.2067L17.4879 39.7483C17.1742 40.0186 17.0508 40.4462 17.1756 40.8398C17.3003 41.2334 17.6487 41.5164 18.0602 41.5629L29.5944 42.857ZM34.3629 40.2171C34.7459 40.3035 35.142 40.1783 35.4072 39.8947L40.1963 34.7358C40.4614 34.4521 40.5524 34.0487 40.435 33.6765C40.3177 33.304 40.0102 33.0253 39.6296 32.9395L32.7253 31.3833C32.3424 31.297 31.9462 31.4219 31.681 31.7057C31.4159 31.9894 31.3245 32.3951 31.4423 32.7651L33.5575 39.4802C33.6753 39.8503 33.9823 40.1314 34.3629 40.2171ZM48.5137 48.4295C48.9076 48.5646 49.342 48.4555 49.6235 48.1535L49.6258 48.154C49.905 47.8515 49.9794 47.4128 49.8121 47.0341L45.1401 36.4664C44.9919 36.1334 44.6871 35.8966 44.3256 35.8346C43.9642 35.7726 43.5976 35.897 43.3483 36.1648L43.3387 36.1749L37.1021 42.8905L37.0924 42.9004C36.8437 43.1658 36.7497 43.5394 36.8393 43.8932C36.9288 44.2471 37.1935 44.5309 37.5396 44.6503L48.5137 48.4295Z" fill="url(#paint2_linear_8108_17737)"/>
</g>
<path d="M72.7092 36L73.3047 36.0731L72.7092 36ZM1.27629 36L1.87181 36.0731L1.27629 36ZM52.8178 45.7263L53.3666 45.4838L53.3666 45.4837L52.8178 45.7263ZM48.1509 35.1694L47.6022 35.412L47.6022 35.412L48.1509 35.1694ZM52.0413 50.3695L52.4808 50.7779L52.4813 50.7774L52.0413 50.3695ZM47.4461 51.5115L47.6419 50.9444L47.6415 50.9442L47.4461 51.5115ZM36.4837 47.7349L36.6791 47.1676L36.6789 47.1676L36.4837 47.7349ZM33.9039 45.3777L34.4523 45.1341L34.4509 45.1311L33.9039 45.3777ZM33.3095 44.8904L33.1776 45.4758L33.1776 45.4758L33.3095 44.8904ZM32.5637 45.0756L32.9545 45.5308L32.9552 45.5302L32.5637 45.0756ZM29.2221 46.0982L29.2892 45.5019L29.2889 45.5019L29.2221 46.0982ZM17.6996 44.8067L17.6323 45.4029L17.6328 45.403L17.6996 44.8067ZM14.0387 41.8037L13.4662 41.9835L13.4665 41.9846L14.0387 41.8037ZM15.329 37.2764L14.9374 36.8219L14.9373 36.8219L15.329 37.2764ZM24.0736 29.7425L24.4652 30.197L24.4653 30.197L24.0736 29.7425ZM27.413 28.7073L27.3477 29.3037L27.3491 29.3039L27.413 28.7073ZM28.1308 28.4403L28.5692 28.85L28.5723 28.8466L28.1308 28.4403ZM28.3405 27.7057L28.9298 27.5928L28.9297 27.5921L28.3405 27.7057ZM29.1119 24.3159L28.6296 23.959L28.6296 23.959L29.1119 24.3159ZM35.9675 15.0506L36.4498 15.4075L36.4499 15.4074L35.9675 15.0506ZM40.4051 13.4103L40.537 12.825L40.4051 13.4103ZM43.71 16.7957L43.1211 16.9108L43.1212 16.9112L43.71 16.7957ZM45.9278 28.1061L45.339 28.2216L45.3392 28.2225L45.9278 28.1061ZM45.1704 31.4991L44.6869 31.1437L44.6865 31.1443L45.1704 31.4991ZM45.0446 32.2527L45.6177 32.0749L45.6164 32.0708L45.0446 32.2527ZM45.5784 32.8017L45.3802 33.3681L45.3816 33.3685L45.5784 32.8017ZM31.7535 26.2681L31.6216 26.8534L32.0031 26.9394L32.2358 26.625L31.7535 26.2681ZM38.6186 16.9928L38.1371 16.6347L38.1363 16.6358L38.6186 16.9928ZM31.7512 26.2675L31.8831 25.6822L31.5008 25.5961L31.2682 25.9115L31.7512 26.2675ZM31.6106 27.2833L31.0495 27.496L31.0495 27.496L31.6106 27.2833ZM32.3907 27.9585L32.5227 27.3732L32.5227 27.3732L32.3907 27.9585ZM41.4058 29.9904L41.2739 30.5758L41.2739 30.5758L41.4058 29.9904ZM42.4001 29.7152L42.8156 30.1481L42.8156 30.148L42.4001 29.7152ZM42.7089 28.7374L43.2979 28.623L43.2976 28.6218L42.7089 28.7374ZM40.4867 17.4138L41.0754 17.2983L41.0752 17.297L40.4867 17.4138ZM39.6894 16.5959L39.8214 16.0106L39.8214 16.0106L39.6894 16.5959ZM30.5518 42.4736L31.0578 42.1511L30.6149 41.4561L30.0895 42.0911L30.5518 42.4736ZM29.5944 42.857L29.5275 43.4533L29.5279 43.4533L29.5944 42.857ZM30.5536 42.4764L30.0477 42.7989L30.4892 43.4916L31.0148 42.8603L30.5536 42.4764ZM30.7509 41.471L31.3231 41.2902L31.3201 41.2812L30.7509 41.471ZM30.7465 41.458L30.1742 41.6382L30.1774 41.6478L30.7465 41.458ZM27.9939 32.7162L28.5662 32.5359L28.5634 32.5274L27.9939 32.7162ZM27.9895 32.7029L27.4173 32.8839L27.4199 32.8917L27.9895 32.7029ZM27.2483 31.9854L27.0825 32.5621L27.0862 32.5631L27.2483 31.9854ZM26.2416 32.2067L25.851 31.7512L25.8499 31.7522L26.2416 32.2067ZM17.4879 39.7483L17.0962 39.2937L17.0962 39.2938L17.4879 39.7483ZM17.1756 40.8398L17.7476 40.6585L17.7476 40.6585L17.1756 40.8398ZM18.0602 41.5629L17.9928 42.1591L17.9934 42.1592L18.0602 41.5629ZM35.4072 39.8947L35.8455 40.3044L35.8469 40.3029L35.4072 39.8947ZM34.3629 40.2171L34.2309 40.8024L34.2309 40.8024L34.3629 40.2171ZM40.1963 34.7358L39.758 34.326L39.7565 34.3276L40.1963 34.7358ZM40.435 33.6765L39.8627 33.8567L39.8628 33.8568L40.435 33.6765ZM39.6296 32.9395L39.7616 32.3542L39.7616 32.3542L39.6296 32.9395ZM32.7253 31.3833L32.5934 31.9686L32.5934 31.9686L32.7253 31.3833ZM31.681 31.7057L32.1194 32.1154L32.1194 32.1154L31.681 31.7057ZM31.4423 32.7651L32.0145 32.5848L32.014 32.583L31.4423 32.7651ZM33.5575 39.4802L32.9852 39.6604L32.9857 39.6621L33.5575 39.4802ZM49.6235 48.1535L49.7556 47.5682L49.4195 47.4924L49.1845 47.7444L49.6235 48.1535ZM48.5137 48.4295L48.3183 48.9968L48.319 48.997L48.5137 48.4295ZM49.6258 48.154L49.4937 48.7393L49.8317 48.8156L50.0668 48.5609L49.6258 48.154ZM49.8121 47.0341L50.3609 46.7916L50.3608 46.7915L49.8121 47.0341ZM45.1401 36.4664L45.6889 36.2238L45.6883 36.2224L45.1401 36.4664ZM43.3483 36.1648L43.7834 36.578L43.7875 36.5736L43.3483 36.1648ZM43.3387 36.1749L42.9036 35.7617L42.8991 35.7666L43.3387 36.1749ZM37.1021 42.8905L37.5308 43.3103L37.5364 43.3046L37.5418 43.2988L37.1021 42.8905ZM37.0924 42.9004L36.6636 42.4805L36.6546 42.4901L37.0924 42.9004ZM36.8393 43.8932L37.421 43.7461L37.4209 43.7459L36.8393 43.8932ZM37.5396 44.6503L37.3439 45.2175L37.3442 45.2176L37.5396 44.6503ZM72.1137 35.9269C69.7082 55.5155 51.9873 71.4 32.572 71.4V72.6C52.608 72.6 70.8272 56.249 73.3047 36.0731L72.1137 35.9269ZM41.4135 0.6C60.7684 0.6 74.5126 16.3918 72.1137 35.9269L73.3047 36.0731C75.7889 15.8437 61.51 -0.6 41.4135 -0.6V0.6ZM1.87181 36.0731C4.2773 16.4845 21.9982 0.6 41.4135 0.6V-0.6C21.3775 -0.6 3.15835 15.751 0.680759 35.9269L1.87181 36.0731ZM32.572 71.4C13.2171 71.4 -0.527085 55.6082 1.87181 36.0731L0.680759 35.9269C-1.80342 56.1563 12.4755 72.6 32.572 72.6V71.4ZM53.3666 45.4837L48.6997 34.9269L47.6022 35.412L52.2691 45.9689L53.3666 45.4837ZM52.4813 50.7774C53.8077 49.3465 54.1557 47.2693 53.3666 45.4838L52.269 45.9689C52.8644 47.3161 52.6021 48.8819 51.6013 49.9616L52.4813 50.7774ZM47.2502 52.0787C49.0991 52.717 51.1522 52.2074 52.4808 50.7779L51.6018 49.961C50.5981 51.0409 49.0437 51.4284 47.6419 50.9444L47.2502 52.0787ZM36.2883 48.3022L47.2506 52.0788L47.6415 50.9442L36.6791 47.1676L36.2883 48.3022ZM33.3556 45.6212C33.9002 46.8475 34.9367 47.8371 36.2885 48.3023L36.6789 47.1676C35.6491 46.8132 34.8646 46.0625 34.4523 45.1341L33.3556 45.6212ZM33.1776 45.4758C33.255 45.4932 33.3221 45.5469 33.357 45.6242L34.4509 45.1311C34.2633 44.7149 33.8918 44.4066 33.4414 44.3051L33.1776 45.4758ZM32.9552 45.5302C33.0143 45.4793 33.0979 45.4578 33.1776 45.4758L33.4414 44.3051C32.9936 44.2042 32.5211 44.3204 32.1721 44.6209L32.9552 45.5302ZM29.1551 46.6944C30.5757 46.8542 31.9365 46.4049 32.9545 45.5308L32.1728 44.6203C31.4021 45.2821 30.3714 45.6236 29.2892 45.5019L29.1551 46.6944ZM17.6328 45.403L29.1553 46.6945L29.2889 45.5019L17.7664 44.2105L17.6328 45.403ZM13.4665 41.9846C14.054 43.8433 15.6898 45.1839 17.6323 45.4029L17.7668 44.2105C16.2926 44.0442 15.0545 43.0269 14.6108 41.6229L13.4665 41.9846ZM14.9373 36.8219C13.4586 38.0963 12.8818 40.1218 13.4662 41.9835L14.6111 41.624C14.1701 40.2194 14.605 38.6925 15.7207 37.7309L14.9373 36.8219ZM23.682 29.2879L14.9374 36.8219L15.7206 37.731L24.4652 30.197L23.682 29.2879ZM27.4784 28.1109C26.1406 27.9642 24.7622 28.357 23.6819 29.288L24.4653 30.197C25.285 29.4906 26.3295 29.1921 27.3477 29.3037L27.4784 28.1109ZM27.6924 28.0307C27.637 28.09 27.558 28.1194 27.477 28.1107L27.3491 29.3039C27.8047 29.3527 28.2559 29.1852 28.5691 28.85L27.6924 28.0307ZM27.7512 27.8185C27.7659 27.8953 27.7434 27.9752 27.6893 28.034L28.5723 28.8466C28.882 28.51 29.0165 28.0457 28.9298 27.5928L27.7512 27.8185ZM28.6296 23.959C27.7823 25.1042 27.4978 26.5032 27.7514 27.8192L28.9297 27.5921C28.7377 26.596 28.9525 25.5401 29.5943 24.6727L28.6296 23.959ZM35.4852 14.6937L28.6296 23.959L29.5943 24.6727L36.4498 15.4075L35.4852 14.6937ZM40.537 12.825C38.6281 12.3947 36.6438 13.1273 35.4851 14.6938L36.4499 15.4074C37.3236 14.2263 38.8246 13.6691 40.2731 13.9956L40.537 12.825ZM44.2988 16.6807C43.9247 14.7656 42.4455 13.2552 40.537 12.825L40.2731 13.9956C41.7223 14.3222 42.8391 15.4674 43.1211 16.9108L44.2988 16.6807ZM46.5166 27.9907L44.2987 16.6803L43.1212 16.9112L45.339 28.2216L46.5166 27.9907ZM45.6538 31.8544C46.4471 30.7751 46.7933 29.3896 46.5164 27.9897L45.3392 28.2225C45.5485 29.2805 45.2881 30.3257 44.6869 31.1437L45.6538 31.8544ZM45.6164 32.0708C45.5939 32.0001 45.6057 31.92 45.6542 31.8538L44.6865 31.1443C44.4161 31.5131 44.3317 31.9909 44.4728 32.4346L45.6164 32.0708ZM45.7766 32.2354C45.6971 32.2076 45.6396 32.1456 45.6177 32.0749L44.4716 32.4305C44.6089 32.8732 44.9505 33.2177 45.3802 33.3681L45.7766 32.2354ZM48.6997 34.9269C48.1232 33.6225 47.0466 32.6764 45.7752 32.2349L45.3816 33.3685C46.3493 33.7045 47.1647 34.4222 47.6022 35.412L48.6997 34.9269ZM32.2358 26.625L39.1009 17.3497L38.1363 16.6358L31.2712 25.9111L32.2358 26.625ZM31.6193 26.8529L31.6216 26.8534L31.8854 25.6828L31.8831 25.6822L31.6193 26.8529ZM32.1716 27.0706C32.1153 26.9219 32.1383 26.7535 32.2341 26.6236L31.2682 25.9115C30.9329 26.3665 30.8474 26.9628 31.0495 27.496L32.1716 27.0706ZM32.5227 27.3732C32.3603 27.3366 32.2288 27.2215 32.1716 27.0706L31.0495 27.496C31.2508 28.0268 31.7067 28.4193 32.2588 28.5438L32.5227 27.3732ZM41.5377 29.4051L32.5227 27.3732L32.2588 28.5438L41.2739 30.5758L41.5377 29.4051ZM41.9846 29.2824C41.8675 29.3947 41.7017 29.4421 41.5377 29.4051L41.2739 30.5758C41.829 30.7009 42.4066 30.5407 42.8156 30.1481L41.9846 29.2824ZM42.1199 28.8518C42.1506 29.0102 42.0993 29.1723 41.9846 29.2824L42.8156 30.148C43.227 29.7531 43.4057 29.1778 43.2978 28.623L42.1199 28.8518ZM39.8979 17.5294L42.1201 28.8529L43.2976 28.6218L41.0754 17.2983L39.8979 17.5294ZM39.5575 17.1812C39.7299 17.2201 39.8638 17.3577 39.8981 17.5307L41.0752 17.297C40.9485 16.659 40.457 16.1539 39.8214 16.0106L39.5575 17.1812ZM39.1001 17.3508C39.2053 17.2092 39.3853 17.1424 39.5575 17.1812L39.8214 16.0106C39.1858 15.8674 38.5252 16.1129 38.1371 16.6347L39.1001 17.3508ZM30.0895 42.0911C29.9884 42.2134 29.8278 42.2794 29.661 42.2607L29.5279 43.4533C30.0887 43.516 30.6499 43.2963 31.0142 42.856L30.0895 42.0911ZM31.0596 42.1539L31.0578 42.1511L30.0459 42.7961L30.0477 42.7989L31.0596 42.1539ZM30.1788 41.6518C30.2273 41.8054 30.1942 41.9703 30.0925 42.0925L31.0148 42.8603C31.3773 42.4248 31.495 41.8345 31.323 41.2902L30.1788 41.6518ZM30.1774 41.6478L30.1817 41.6608L31.3201 41.2812L31.3157 41.2681L30.1774 41.6478ZM27.4216 32.8964L30.1742 41.6382L31.3188 41.2777L28.5662 32.5359L27.4216 32.8964ZM27.4199 32.8917L27.4243 32.905L28.5634 32.5274L28.559 32.5141L27.4199 32.8917ZM27.0862 32.5631C27.244 32.6074 27.368 32.7275 27.4174 32.8839L28.5615 32.522C28.3904 31.9808 27.9587 31.5616 27.4104 31.4077L27.0862 32.5631ZM26.6321 32.6622C26.7581 32.5542 26.9272 32.5174 27.0825 32.5621L27.4141 31.4088C26.8643 31.2507 26.2785 31.3848 25.851 31.7512L26.6321 32.6622ZM17.8795 40.2029L26.6332 32.6613L25.8499 31.7522L17.0962 39.2937L17.8795 40.2029ZM17.7476 40.6585C17.6962 40.4966 17.7456 40.3182 17.8796 40.2028L17.0962 39.2938C16.6028 39.719 16.4055 40.3959 16.6036 41.0211L17.7476 40.6585ZM18.1277 40.9667C17.9478 40.9464 17.7996 40.8229 17.7476 40.6585L16.6036 41.0211C16.801 41.6439 17.3496 42.0864 17.9928 42.1591L18.1277 40.9667ZM29.6613 42.2608L18.1271 40.9667L17.9934 42.1592L29.5275 43.4533L29.6613 42.2608ZM34.9689 39.4849C34.8475 39.6147 34.6677 39.6708 34.4948 39.6318L34.2309 40.8024C34.824 40.9361 35.4365 40.7419 35.8455 40.3044L34.9689 39.4849ZM39.7565 34.3276L34.9675 39.4865L35.8469 40.3029L40.636 35.144L39.7565 34.3276ZM39.8628 33.8568C39.9155 34.024 39.8743 34.2016 39.758 34.326L40.6345 35.1455C41.0485 34.7027 41.1893 34.0735 41.0073 33.4961L39.8628 33.8568ZM39.4977 33.5248C39.6733 33.5644 39.8107 33.6915 39.8627 33.8567L41.0073 33.4962C40.8247 32.9166 40.347 32.4861 39.7616 32.3542L39.4977 33.5248ZM32.5934 31.9686L39.4977 33.5248L39.7616 32.3542L32.8572 30.798L32.5934 31.9686ZM32.1194 32.1154C32.2406 31.9857 32.4204 31.9296 32.5934 31.9686L32.8572 30.798C32.2644 30.6643 31.6517 30.8582 31.2426 31.2961L32.1194 32.1154ZM32.014 32.583C31.962 32.4199 32.0025 32.2405 32.1194 32.1154L31.2427 31.2961C30.8293 31.7383 30.6869 32.3703 30.8705 32.9471L32.014 32.583ZM34.1297 39.2999L32.0145 32.5848L30.87 32.9453L32.9852 39.6604L34.1297 39.2999ZM34.4948 39.6318C34.3211 39.5927 34.1821 39.4644 34.1292 39.2982L32.9857 39.6621C33.1684 40.2361 33.6435 40.67 34.2309 40.8024L34.4948 39.6318ZM49.1845 47.7444C49.0649 47.8728 48.8789 47.9205 48.7084 47.862L48.319 48.997C48.9363 49.2088 49.6191 49.0382 50.0624 48.5626L49.1845 47.7444ZM49.7579 47.5687L49.7556 47.5682L49.4914 48.7388L49.4937 48.7393L49.7579 47.5687ZM49.2632 47.2765C49.3335 47.4357 49.3026 47.6195 49.1848 47.7471L50.0668 48.5609C50.5073 48.0835 50.6252 47.3899 50.3609 46.7916L49.2632 47.2765ZM44.5914 36.709L49.2633 47.2767L50.3608 46.7915L45.6889 36.2238L44.5914 36.709ZM44.2242 36.426C44.389 36.4542 44.5256 36.5614 44.592 36.7104L45.6883 36.2224C45.4582 35.7054 44.9852 35.339 44.4271 35.2432L44.2242 36.426ZM43.7875 36.5736C43.8992 36.4536 44.0627 36.3983 44.2242 36.426L44.4271 35.2432C43.8657 35.147 43.296 35.3404 42.9092 35.7559L43.7875 36.5736ZM43.7738 36.588L43.7834 36.5779L42.9132 35.7516L42.9037 35.7617L43.7738 36.588ZM37.5418 43.2988L43.7784 36.5831L42.8991 35.7666L36.6624 42.4822L37.5418 43.2988ZM37.5211 43.3202L37.5308 43.3103L36.6734 42.4707L36.6637 42.4806L37.5211 43.3202ZM37.4209 43.7459C37.3807 43.587 37.4236 43.4244 37.5302 43.3106L36.6546 42.4901C36.2637 42.9072 36.1187 43.4918 36.2576 44.0404L37.4209 43.7459ZM37.7353 44.0831C37.5766 44.0283 37.4599 43.8999 37.421 43.7461L36.2576 44.0403C36.3977 44.5943 36.8105 45.0334 37.3439 45.2175L37.7353 44.0831ZM48.7091 47.8622L37.735 44.083L37.3442 45.2176L48.3183 48.9968L48.7091 47.8622Z" fill="white" fill-opacity="0.2" mask="url(#path-4-inside-1_8108_17737)"/>
<defs>
<filter id="filter0_f_8108_17737" x="0.766602" y="70" width="82.542" height="30" filterUnits="userSpaceOnUse" color-interpolation-filters="sRGB">
<feFlood flood-opacity="0" result="BackgroundImageFix"/>
<feBlend mode="normal" in="SourceGraphic" in2="BackgroundImageFix" result="shape"/>
<feGaussianBlur stdDeviation="5" result="effect1_foregroundBlur_8108_17737"/>
</filter>
<filter id="filter1_i_8108_17737" x="2.52295" y="-10.2852" width="78.4766" height="88.5664" filterUnits="userSpaceOnUse" color-interpolation-filters="sRGB">
<feFlood flood-opacity="0" result="BackgroundImageFix"/>
<feBlend mode="normal" in="SourceGraphic" in2="BackgroundImageFix" result="shape"/>
<feColorMatrix in="SourceAlpha" type="matrix" values="0 0 0 0 0 0 0 0 0 0 0 0 0 0 0 0 0 0 127 0" result="hardAlpha"/>
<feOffset dy="-12"/>
<feGaussianBlur stdDeviation="14"/>
<feComposite in2="hardAlpha" operator="arithmetic" k2="-1" k3="1"/>
<feColorMatrix type="matrix" values="0 0 0 0 0.908698 0 0 0 0 0.995833 0 0 0 0 0.990605 0 0 0 0.25 0"/>
<feBlend mode="normal" in2="shape" result="effect1_innerShadow_8108_17737"/>
</filter>
<filter id="filter2_i_8108_17737" x="2.52295" y="-10.2852" width="78.4766" height="88.5664" filterUnits="userSpaceOnUse" color-interpolation-filters="sRGB">
<feFlood flood-opacity="0" result="BackgroundImageFix"/>
<feBlend mode="normal" in="SourceGraphic" in2="BackgroundImageFix" result="shape"/>
<feColorMatrix in="SourceAlpha" type="matrix" values="0 0 0 0 0 0 0 0 0 0 0 0 0 0 0 0 0 0 127 0" result="hardAlpha"/>
<feOffset dy="-12"/>
<feGaussianBlur stdDeviation="14"/>
<feComposite in2="hardAlpha" operator="arithmetic" k2="-1" k3="1"/>
<feColorMatrix type="matrix" values="0 0 0 0 0.908698 0 0 0 0 0.995833 0 0 0 0 0.990605 0 0 0 0.25 0"/>
<feBlend mode="normal" in2="shape" result="effect1_innerShadow_8108_17737"/>
</filter>
<filter id="filter3_iii_8108_17737" x="1" y="-10" width="71.9854" height="82" filterUnits="userSpaceOnUse" color-interpolation-filters="sRGB">
<feFlood flood-opacity="0" result="BackgroundImageFix"/>
<feBlend mode="normal" in="SourceGraphic" in2="BackgroundImageFix" result="shape"/>
<feColorMatrix in="SourceAlpha" type="matrix" values="0 0 0 0 0 0 0 0 0 0 0 0 0 0 0 0 0 0 127 0" result="hardAlpha"/>
<feOffset dy="-4"/>
<feGaussianBlur stdDeviation="5"/>
<feComposite in2="hardAlpha" operator="arithmetic" k2="-1" k3="1"/>
<feColorMatrix type="matrix" values="0 0 0 0 1 0 0 0 0 1 0 0 0 0 1 0 0 0 0.5 0"/>
<feBlend mode="normal" in2="shape" result="effect1_innerShadow_8108_17737"/>
<feColorMatrix in="SourceAlpha" type="matrix" values="0 0 0 0 0 0 0 0 0 0 0 0 0 0 0 0 0 0 127 0" result="hardAlpha"/>
<feOffset dy="-2"/>
<feGaussianBlur stdDeviation="4"/>
<feComposite in2="hardAlpha" operator="arithmetic" k2="-1" k3="1"/>
<feColorMatrix type="matrix" values="0 0 0 0 1 0 0 0 0 1 0 0 0 0 1 0 0 0 0.5 0"/>
<feBlend mode="normal" in2="effect1_innerShadow_8108_17737" result="effect2_innerShadow_8108_17737"/>
<feColorMatrix in="SourceAlpha" type="matrix" values="0 0 0 0 0 0 0 0 0 0 0 0 0 0 0 0 0 0 127 0" result="hardAlpha"/>
<feOffset dy="-10"/>
<feGaussianBlur stdDeviation="26"/>
<feComposite in2="hardAlpha" operator="arithmetic" k2="-1" k3="1"/>
<feColorMatrix type="matrix" values="0 0 0 0 1 0 0 0 0 1 0 0 0 0 1 0 0 0 0.25 0"/>
<feBlend mode="normal" in2="effect2_innerShadow_8108_17737" result="effect3_innerShadow_8108_17737"/>
</filter>
<linearGradient id="paint0_linear_8108_17737" x1="77.6538" y1="1.71484" x2="6.47721" y2="1.71484" gradientUnits="userSpaceOnUse">
<stop stop-color="#FE50C3"/>
<stop offset="0.171875" stop-color="#AD4A79"/>
<stop offset="0.416052" stop-color="#9E6186"/>
<stop offset="0.65625" stop-color="#CF6DA8"/>
<stop offset="1" stop-color="#FE0098"/>
</linearGradient>
<radialGradient id="paint1_radial_8108_17737" cx="0" cy="0" r="1" gradientUnits="userSpaceOnUse" gradientTransform="translate(39.9642 39.4665) rotate(28.9799) scale(42.8003 78.729)">
<stop stop-color="#574B90"/>
<stop offset="0.0001" stop-color="#904B85"/>
<stop offset="0.34375" stop-color="#530A3A"/>
<stop offset="1" stop-color="#FF003D" stop-opacity="0"/>
</radialGradient>
<linearGradient id="paint2_linear_8108_17737" x1="28.732" y1="13.4378" x2="52.1306" y2="44.9681" gradientUnits="userSpaceOnUse">
<stop offset="0.00325446" stop-color="white"/>
<stop offset="0.348958" stop-color="#D15C9B"/>
<stop offset="1" stop-color="#D74E98"/>
</linearGradient>
</defs>
</svg>
