<svg width="84" height="100" viewBox="0 0 84 100" fill="none" xmlns="http://www.w3.org/2000/svg">
<g opacity="0.8" filter="url(#filter0_f_6073_13857)">
<path d="M73.324 85C73.324 87.7609 59.3522 90 42.117 90C24.8818 90 10.9099 87.7609 10.9099 85C10.9099 82.2391 24.8818 80 42.117 80C59.3522 80 73.324 82.2391 73.324 85Z" fill="black"/>
</g>
<g filter="url(#filter1_i_6073_13857)">
<path d="M44.2567 1.71387C24.7673 1.71387 6.36978 17.2976 3.16368 36.5211C1.41242 47.0167 4.55204 56.4269 10.9359 62.8086L17.7176 69.5902C23.0258 74.8963 30.5779 78.1089 39.4258 78.1089C58.9152 78.1089 77.3138 62.5252 80.5199 43.3017C82.2712 32.8061 79.1305 23.3948 72.7466 17.0132L65.966 10.2326C60.6567 4.92651 53.1057 1.71387 44.2567 1.71387Z" fill="url(#paint0_linear_6073_13857)"/>
</g>
<g filter="url(#filter2_i_6073_13857)">
<path d="M44.2567 1.71387C24.7673 1.71387 6.36978 17.2976 3.16368 36.5211C1.41242 47.0167 4.55204 56.4269 10.9359 62.8086L17.7176 69.5902C23.0258 74.8963 30.5779 78.1089 39.4258 78.1089C58.9152 78.1089 77.3138 62.5252 80.5199 43.3017C82.2712 32.8061 79.1305 23.3948 72.7466 17.0132L65.966 10.2326C60.6567 4.92651 53.1057 1.71387 44.2567 1.71387Z" fill="url(#paint1_radial_6073_13857)"/>
</g>
<g filter="url(#filter3_iii_6073_13857)">
<path fill-rule="evenodd" clip-rule="evenodd" d="M32.5734 70.8868C52.2999 70.8868 70.2707 55.0182 72.7124 35.4434C75.154 15.8685 61.1419 0 41.4153 0C21.6888 0 3.71794 15.8685 1.2763 35.4434C-1.16535 55.0182 12.8468 70.8868 32.5734 70.8868ZM25.9472 27.0362L26.6468 21.6232C26.5378 21.7161 26.4362 21.7516 26.2959 21.8007C26.2091 21.831 26.1076 21.8665 25.9803 21.9239L13.2834 32.7499C12.9307 33.0506 13.0682 33.2009 13.3431 33.5017C15.4432 35.9132 17.622 38.2576 19.7802 40.5797C20.8515 41.7324 21.9177 42.8796 22.9667 44.0269C23.1041 44.1772 23.2416 44.3276 23.5555 44.3276L24.4883 37.1103C24.566 36.5089 24.9381 36.0578 25.4477 35.7571C27.4175 34.479 29.3431 33.2384 31.2688 31.9979C33.194 30.7577 35.1201 29.5169 37.0894 28.2391C37.1367 28.1988 37.1825 28.1693 37.2251 28.1419C37.3414 28.0671 37.4331 28.0081 37.4615 27.788H26.6346C26.0069 27.788 25.8695 27.6376 25.9472 27.0362ZM42.0349 44.0288L41.9963 44.3276C42.0373 44.2929 42.0773 44.2662 42.1108 44.2439C42.2214 44.1701 42.2613 44.1435 42.0349 44.0288ZM42.0349 44.0288L42.672 39.0996C42.6892 38.9665 42.7065 38.8527 42.7212 38.7556C42.7642 38.4719 42.7858 38.3297 42.7222 38.2599C42.6582 38.1898 42.5083 38.1928 42.2076 38.1989C42.1052 38.201 41.9852 38.2034 41.8451 38.2034H31.6326C31.4754 38.2034 31.1612 38.2034 30.8663 38.054C31.5522 37.6062 32.1942 37.1956 32.8361 36.7851L32.8372 36.7844C33.4795 36.3736 34.1218 35.9628 34.8082 35.5147C36.1809 34.6185 37.593 33.7222 39.005 32.826C40.4171 31.9298 41.8291 31.0336 43.2019 30.1374C43.7118 29.8386 43.9076 29.5399 43.8084 29.0918L44.7736 21.6232C45.0037 21.6232 45.055 21.7033 45.12 21.8048C45.1438 21.8419 45.1695 21.8819 45.2064 21.922L54.991 32.5273C55.2666 32.826 55.4044 32.9754 54.8945 33.2741C50.6603 36.859 46.4262 40.4439 42.0349 44.0288Z" fill="url(#paint2_linear_6073_13857)"/>
</g>
<path d="M26.9443 21.6617L27.044 20.8903L26.4522 21.3949C26.391 21.447 26.3402 21.4674 26.1969 21.5175L26.1954 21.518C26.108 21.5486 25.9962 21.5876 25.8569 21.6505L25.8181 21.668L25.7856 21.6957L13.0888 32.5216C12.8936 32.6879 12.7226 32.905 12.7848 33.1898C12.8108 33.3084 12.8726 33.4059 12.9287 33.4802C12.9834 33.5528 13.0518 33.6276 13.1158 33.6976L13.1193 33.7015C15.2219 36.1157 17.4026 38.4621 19.5589 40.7822L19.5604 40.7839C20.6319 41.9368 21.6973 43.0831 22.7453 44.2293L22.7527 44.2374C22.8173 44.3082 22.9102 44.4099 23.0366 44.4885C23.1773 44.5758 23.3455 44.6276 23.5555 44.6276H23.8192L23.853 44.366L24.7858 37.1488C24.8488 36.6611 25.149 36.2817 25.6002 36.0154L25.6003 36.0157L25.611 36.0087C27.5802 34.731 29.5053 33.4908 31.4309 32.2503L31.4312 32.2501C33.3564 31.0099 35.2829 29.7689 37.2527 28.4907L37.2691 28.4801L37.2841 28.4673C37.314 28.4418 37.3439 28.4221 37.3874 28.3942L37.2251 28.1419L37.3874 28.3942C37.3902 28.3924 37.3932 28.3905 37.3962 28.3885C37.4493 28.3546 37.5385 28.2975 37.6111 28.2061C37.6945 28.1012 37.7398 27.9756 37.7591 27.8264L37.8028 27.488H37.4615H26.6346C26.4858 27.488 26.3866 27.4787 26.3201 27.463C26.2884 27.4556 26.2695 27.4479 26.259 27.4424C26.2566 27.4412 26.2547 27.4401 26.2532 27.4391C26.2515 27.4381 26.2504 27.4373 26.2496 27.4367L26.2482 27.4356L26.2478 27.4352L26.2476 27.435L26.247 27.4341C26.2465 27.4332 26.2452 27.431 26.2435 27.4268C26.2401 27.4182 26.2349 27.4013 26.2314 27.3719C26.224 27.3098 26.2264 27.2163 26.2447 27.0746L26.9443 21.6617ZM42.3745 39.0611L41.7918 43.5694L41.7374 43.9904L41.6988 44.2891L41.6408 44.7379L41.5996 45.0566L42.1902 44.5565C42.2165 44.5343 42.2432 44.5162 42.2772 44.4935L42.2825 44.49C42.3044 44.4754 42.3472 44.4471 42.3817 44.415C42.4152 44.3839 42.521 44.2764 42.496 44.1077C42.493 44.0874 42.4883 44.0684 42.4824 44.0507C46.7775 40.5394 50.9245 37.0285 55.069 33.5194C55.1965 33.4431 55.3063 33.3634 55.3867 33.2739C55.4772 33.1731 55.5442 33.0434 55.537 32.8869C55.5304 32.7442 55.4632 32.6303 55.4073 32.5527C55.3528 32.477 55.2819 32.4001 55.2188 32.3318L55.2115 32.3239L45.4269 21.7185L45.2064 21.922L45.4269 21.7185C45.41 21.7003 45.3971 21.6811 45.3726 21.6429C45.371 21.6403 45.3692 21.6376 45.3673 21.6346C45.3376 21.5878 45.2781 21.494 45.1736 21.4253C45.0569 21.3485 44.9211 21.3232 44.7736 21.3232H44.5099L44.4761 21.5848L43.5108 29.0533L43.5041 29.1054L43.5155 29.1566C43.5516 29.3197 43.5303 29.4257 43.4759 29.5168C43.4136 29.6213 43.2878 29.7393 43.0502 29.8785L43.044 29.8822L43.0379 29.8862C41.667 30.7811 40.2566 31.6763 38.8443 32.5727L38.8443 32.5727L38.844 32.5729C37.4323 33.4689 36.0187 34.3661 34.6442 35.2635C33.9591 35.7107 33.318 36.1208 32.6756 36.5316L32.6755 36.5317L32.6744 36.5324C32.6744 36.5324 32.6744 36.5324 32.6744 36.5324C32.0326 36.9428 31.3896 37.3541 30.7023 37.8028L30.2672 38.0869L30.7307 38.3216C31.0899 38.5036 31.4637 38.5034 31.6246 38.5034H31.6326H41.8451C41.9882 38.5034 42.1107 38.5009 42.213 38.4988L42.2137 38.4988C42.3199 38.4967 42.3969 38.4953 42.4551 38.4964C42.4489 38.5488 42.4387 38.6173 42.4246 38.7106L42.4245 38.7112C42.4098 38.8082 42.3921 38.9247 42.3745 39.0611ZM42.4612 38.3866C42.4613 38.3865 42.4615 38.3875 42.4617 38.3899L42.4612 38.3866ZM72.4147 35.4063C69.9918 54.8309 52.1486 70.5868 32.5734 70.5868C13.0272 70.5868 -0.845323 54.8763 1.57399 35.4805C3.99691 16.0558 21.8401 0.3 41.4153 0.3C60.9614 0.3 74.834 16.0104 72.4147 35.4063Z" stroke="white" stroke-opacity="0.2" stroke-width="0.6"/>
<defs>
<filter id="filter0_f_6073_13857" x="0.909912" y="70" width="82.4141" height="30" filterUnits="userSpaceOnUse" color-interpolation-filters="sRGB">
<feFlood flood-opacity="0" result="BackgroundImageFix"/>
<feBlend mode="normal" in="SourceGraphic" in2="BackgroundImageFix" result="shape"/>
<feGaussianBlur stdDeviation="5" result="effect1_foregroundBlur_6073_13857"/>
</filter>
<filter id="filter1_i_6073_13857" x="2.68347" y="-10.2861" width="78.3165" height="88.3955" filterUnits="userSpaceOnUse" color-interpolation-filters="sRGB">
<feFlood flood-opacity="0" result="BackgroundImageFix"/>
<feBlend mode="normal" in="SourceGraphic" in2="BackgroundImageFix" result="shape"/>
<feColorMatrix in="SourceAlpha" type="matrix" values="0 0 0 0 0 0 0 0 0 0 0 0 0 0 0 0 0 0 127 0" result="hardAlpha"/>
<feOffset dy="-12"/>
<feGaussianBlur stdDeviation="14"/>
<feComposite in2="hardAlpha" operator="arithmetic" k2="-1" k3="1"/>
<feColorMatrix type="matrix" values="0 0 0 0 0.908698 0 0 0 0 0.995833 0 0 0 0 0.990605 0 0 0 0.25 0"/>
<feBlend mode="normal" in2="shape" result="effect1_innerShadow_6073_13857"/>
</filter>
<filter id="filter2_i_6073_13857" x="2.68347" y="-10.2861" width="78.3165" height="88.3955" filterUnits="userSpaceOnUse" color-interpolation-filters="sRGB">
<feFlood flood-opacity="0" result="BackgroundImageFix"/>
<feBlend mode="normal" in="SourceGraphic" in2="BackgroundImageFix" result="shape"/>
<feColorMatrix in="SourceAlpha" type="matrix" values="0 0 0 0 0 0 0 0 0 0 0 0 0 0 0 0 0 0 127 0" result="hardAlpha"/>
<feOffset dy="-12"/>
<feGaussianBlur stdDeviation="14"/>
<feComposite in2="hardAlpha" operator="arithmetic" k2="-1" k3="1"/>
<feColorMatrix type="matrix" values="0 0 0 0 0.908698 0 0 0 0 0.995833 0 0 0 0 0.990605 0 0 0 0.25 0"/>
<feBlend mode="normal" in2="shape" result="effect1_innerShadow_6073_13857"/>
</filter>
<filter id="filter3_iii_6073_13857" x="1" y="-10" width="71.9886" height="80.8867" filterUnits="userSpaceOnUse" color-interpolation-filters="sRGB">
<feFlood flood-opacity="0" result="BackgroundImageFix"/>
<feBlend mode="normal" in="SourceGraphic" in2="BackgroundImageFix" result="shape"/>
<feColorMatrix in="SourceAlpha" type="matrix" values="0 0 0 0 0 0 0 0 0 0 0 0 0 0 0 0 0 0 127 0" result="hardAlpha"/>
<feOffset dy="-4"/>
<feGaussianBlur stdDeviation="5"/>
<feComposite in2="hardAlpha" operator="arithmetic" k2="-1" k3="1"/>
<feColorMatrix type="matrix" values="0 0 0 0 1 0 0 0 0 1 0 0 0 0 1 0 0 0 0.5 0"/>
<feBlend mode="normal" in2="shape" result="effect1_innerShadow_6073_13857"/>
<feColorMatrix in="SourceAlpha" type="matrix" values="0 0 0 0 0 0 0 0 0 0 0 0 0 0 0 0 0 0 127 0" result="hardAlpha"/>
<feOffset dy="-2"/>
<feGaussianBlur stdDeviation="4"/>
<feComposite in2="hardAlpha" operator="arithmetic" k2="-1" k3="1"/>
<feColorMatrix type="matrix" values="0 0 0 0 1 0 0 0 0 1 0 0 0 0 1 0 0 0 0.5 0"/>
<feBlend mode="normal" in2="effect1_innerShadow_6073_13857" result="effect2_innerShadow_6073_13857"/>
<feColorMatrix in="SourceAlpha" type="matrix" values="0 0 0 0 0 0 0 0 0 0 0 0 0 0 0 0 0 0 127 0" result="hardAlpha"/>
<feOffset dy="-10"/>
<feGaussianBlur stdDeviation="26"/>
<feComposite in2="hardAlpha" operator="arithmetic" k2="-1" k3="1"/>
<feColorMatrix type="matrix" values="0 0 0 0 1 0 0 0 0 1 0 0 0 0 1 0 0 0 0.25 0"/>
<feBlend mode="normal" in2="effect2_innerShadow_6073_13857" result="effect3_innerShadow_6073_13857"/>
</filter>
<linearGradient id="paint0_linear_6073_13857" x1="77.6609" y1="1.71387" x2="6.62966" y2="1.71387" gradientUnits="userSpaceOnUse">
<stop stop-color="#80C9FF"/>
<stop offset="0.171875" stop-color="#99DAFF"/>
<stop offset="0.416052" stop-color="#8CCCFB"/>
<stop offset="0.65625" stop-color="#28A9F2"/>
<stop offset="1" stop-color="#8ADEF1"/>
</linearGradient>
<radialGradient id="paint1_radial_6073_13857" cx="0" cy="0" r="1" gradientUnits="userSpaceOnUse" gradientTransform="translate(40.0482 39.3809) rotate(28.975) scale(42.7108 78.5561)">
<stop stop-color="#8CBFFB"/>
<stop offset="0.34375" stop-color="#003155"/>
<stop offset="1" stop-color="#0071F7" stop-opacity="0"/>
</radialGradient>
<linearGradient id="paint2_linear_6073_13857" x1="11.9911" y1="18.3797" x2="56.5716" y2="47.5503" gradientUnits="userSpaceOnUse">
<stop stop-color="white"/>
<stop offset="0.71875" stop-color="#8C8DFB"/>
<stop offset="1" stop-color="#00BBF7"/>
</linearGradient>
</defs>
</svg>
